<svg width="43" height="38" viewBox="0 0 43 38" fill="none" xmlns="http://www.w3.org/2000/svg">
<path d="M23.2243 27.678L24.0139 28.2917L24.0141 28.2914L23.2243 27.678ZM19.7856 27.678L18.996 28.2916L18.996 28.2917L19.7856 27.678ZM3 6.07441V5.07441H0.956647L2.21034 6.68795L3 6.07441ZM40 6.07441L40.7898 6.68773L42.0426 5.07441H40V6.07441ZM36.75 1.6995C37.1364 1.30483 37.1296 0.671698 36.7349 0.285372C36.3402 -0.100954 35.7071 -0.094183 35.3208 0.300495L36.75 1.6995ZM21.7699 14.1443C21.3836 14.539 21.3904 15.1721 21.785 15.5585C22.1797 15.9448 22.8128 15.938 23.1992 15.5433L21.7699 14.1443ZM22.4347 27.0644C22.1223 27.4664 21.7784 27.5974 21.505 27.5974C21.2316 27.5974 20.8876 27.4664 20.5752 27.0644L18.996 28.2917C19.6362 29.1155 20.5353 29.5974 21.505 29.5974C22.4746 29.5974 23.3738 29.1155 24.0139 28.2917L22.4347 27.0644ZM3 7.07441H40V5.07441H3V7.07441ZM9.83331 15.8526H33.2009V13.8526H9.83331V15.8526ZM35.3208 0.300495L21.7699 14.1443L23.1992 15.5433L36.75 1.6995L35.3208 0.300495ZM20.5044 28.5644V36.9648H22.5044V28.5644H20.5044ZM20.5753 27.0645L3.78966 5.46086L2.21034 6.68795L18.996 28.2916L20.5753 27.0645ZM39.2102 5.46108L22.4345 27.0647L24.0141 28.2914L40.7898 6.68773L39.2102 5.46108ZM13.573 38H21.505V36H13.573V38ZM21.505 38H29.4369V36H21.505V38Z" fill="#722839"/>
</svg>
