<svg width="39" height="38" viewBox="0 0 39 38" fill="none" xmlns="http://www.w3.org/2000/svg">
<path d="M33.2908 36.9801V37.9801H34.4154L34.284 36.8632L33.2908 36.9801ZM5.71507 36.9801L4.72127 36.8689L4.59694 37.9801H5.71507V36.9801ZM37 22.353V23.353H38.1879L37.9854 22.1825L37 22.353ZM33.7838 3.76854L32.7974 3.933L32.7985 3.93906L33.7838 3.76854ZM30.0177 1L30.0177 0H30.0177V1ZM8.84091 1V0H8.84087L8.84091 1ZM5.07085 3.78848L6.05746 3.95168L6.05837 3.94596L5.07085 3.78848ZM2 22.353L1.01341 22.1898L0.820996 23.353H2V22.353ZM19.5029 11.8472L18.6494 12.3682L19.5029 13.7662L20.3565 12.3682L19.5029 11.8472ZM12.883 1.00415V0.00415415H11.1008L12.0295 1.52524L12.883 1.00415ZM26.1229 1.00415L26.9764 1.52524L27.9051 0.00415415H26.1229V1.00415ZM26.1113 29.7985C26.4481 30.2362 27.0759 30.318 27.5137 29.9812C27.9514 29.6444 28.0332 29.0166 27.6964 28.5789L26.1113 29.7985ZM19.5039 19.5712L20.2965 18.9613C20.1265 18.7404 19.8719 18.6004 19.5942 18.5752C19.3165 18.5501 19.041 18.642 18.834 18.8288L19.5039 19.5712ZM13.4454 23.6916C13.0354 24.0616 13.003 24.6939 13.373 25.1039C13.743 25.5139 14.3753 25.5464 14.7853 25.1764L13.4454 23.6916ZM15.1211 3.88859C14.5688 3.88859 14.1211 4.3363 14.1211 4.88859C14.1211 5.44087 14.5688 5.88859 15.1211 5.88859V3.88859ZM23.8917 5.88859C24.444 5.88859 24.8917 5.44087 24.8917 4.88859C24.8917 4.3363 24.444 3.88859 23.8917 3.88859V5.88859ZM29.4537 12.932L32.2977 37.0969L34.284 36.8632L31.44 12.6983L29.4537 12.932ZM6.70887 37.0913L9.41341 12.9189L7.42582 12.6965L4.72127 36.8689L6.70887 37.0913ZM31.5791 23.353H37V21.353H31.5791V23.353ZM37.9854 22.1825L34.7692 3.59802L32.7985 3.93906L36.0146 22.5235L37.9854 22.1825ZM34.7702 3.60408C34.5947 2.55161 33.9827 1.62869 33.1045 0.9831L31.9199 2.59454C32.4257 2.96634 32.7168 3.44948 32.7974 3.933L34.7702 3.60408ZM33.1045 0.9831C32.2289 0.339461 31.1322 7.09295e-06 30.0177 0L30.0177 2C30.7365 2 31.4115 2.2208 31.9199 2.59454L33.1045 0.9831ZM30.0177 0H8.84091V2H30.0177V0ZM8.84087 0C7.72138 5.19156e-05 6.61996 0.342502 5.74255 0.991469L6.93186 2.59943C7.44102 2.22283 8.11875 2.00003 8.84096 2L8.84087 0ZM5.74255 0.991469C4.86241 1.64245 4.25212 2.57252 4.08333 3.631L6.05837 3.94596C6.13583 3.4602 6.42542 2.97401 6.93186 2.59943L5.74255 0.991469ZM4.08426 3.62528L1.01341 22.1898L2.98659 22.5162L6.05744 3.95168L4.08426 3.62528ZM2 23.353H7.33347V21.353H2V23.353ZM20.5029 37V11.7815H18.5029V37H20.5029ZM7.94136 20.5712H31.1333V18.5712H7.94136V20.5712ZM27.6964 28.5789L20.2965 18.9613L18.7114 20.181L26.1113 29.7985L27.6964 28.5789ZM18.834 18.8288L13.4454 23.6916L14.7853 25.1764L20.1739 20.3135L18.834 18.8288ZM15.1211 5.88859H23.8917V3.88859H15.1211V5.88859ZM20.3565 11.3261L13.7365 0.483067L12.0295 1.52524L18.6494 12.3682L20.3565 11.3261ZM12.883 2.00415H26.1229V0.00415415H12.883V2.00415ZM25.2694 0.483067L18.6494 11.3261L20.3565 12.3682L26.9764 1.52524L25.2694 0.483067ZM33.2908 35.9801H19.5029V37.9801H33.2908V35.9801ZM19.5029 35.9801H5.71507V37.9801H19.5029V35.9801Z" fill="#722839"/>
</svg>
