<svg width="360" height="250" viewBox="0 0 360 250" fill="none" xmlns="http://www.w3.org/2000/svg">
<rect x="0.5" y="0.5" width="359" height="249" rx="9.5" fill="#722839" stroke="#722839"/>
<mask id="mask0_425_113" style="mask-type:alpha" maskUnits="userSpaceOnUse" x="0" y="0" width="360" height="250">
<rect x="0.5" y="0.5" width="359" height="249" rx="9.5" fill="#722839" stroke="#722839"/>
</mask>
<g mask="url(#mask0_425_113)">
<path d="M426.33 323.251C425.659 324.707 425.066 326.074 424.517 327.583C423.93 329.21 423.875 329.944 423.575 331.547C423.587 331.579 423.59 334.667 423.628 335.157C424.122 340.909 426.229 344.124 426.4 345.43C425.783 346.002 415.132 351.347 413.868 351.408C414.691 350.208 415.414 349.817 416.979 347.301C422.113 339.076 422.269 332.646 422.816 331.475C422.71 331.172 423.388 327.242 423.253 326.127C422.363 325.66 419.727 326.669 418.729 326.846C418.549 326.957 417.76 327.197 417.525 327.163C417.225 327.398 414.836 328.203 414.248 328.436C413.676 328.662 413.202 328.876 412.613 329.08C412.023 329.285 411.563 329.708 410.922 329.823C410.743 330.083 408.679 331.138 408.182 331.464C406.253 332.726 404.715 333.873 403.086 335.536C402.128 336.501 401.698 337.249 400.873 338.272C398.082 343.37 396.685 347.137 397.198 352.937C397.273 353.796 397.816 356.915 397.715 357.358C396.682 357.587 395.358 358.028 394.268 358.327C392.779 358.724 384.553 360.693 383.547 360.677C383.932 360.275 385.417 359.308 385.965 358.896C388.435 357.084 390.857 354.384 392.613 351.883C394.912 348.615 398.48 341.755 399.062 337.893C397.67 337.248 390.141 338.369 388.281 338.713C385.077 339.3 381.25 340.537 378.389 342.126C375.162 343.921 371.83 346.443 370.153 349.886C369.194 351.853 367.926 354.687 367.292 356.754C366.726 358.607 366.836 361.268 366.284 362.721C365.223 363.073 353.234 363.37 352.151 363.103C352.66 362.538 354.356 362.056 355.127 361.645C356.104 361.122 356.961 360.694 357.942 360.132C361.575 358.038 365.476 354.234 368.096 350.956C368.9 349.951 372.207 345.605 372.35 344.638C371.371 343.618 362.417 343.106 360.598 343.142C356.997 343.219 353.304 343.539 349.834 344.62C346.289 345.723 343.297 347.552 340.618 350.208C335.521 355.281 334.718 360.836 334.036 361.772C333.821 361.963 333.862 361.9 333.498 361.89C326.724 361.633 318.585 359.214 316.739 359.13C316.233 359.994 315.137 365.191 315.3 366.182C317.234 366.913 329.16 367.672 332.566 367.619C333.229 367.609 334.348 367.458 334.917 367.542C335.244 368.456 335.364 369.09 335.786 370.031C336.653 371.977 338.717 375.201 340.034 376.747C343.411 380.676 345.665 381.762 350.315 383.819C355.807 386.241 357.182 387.108 363.086 388.004C364.163 388.16 374.465 389.446 374.646 388.848C374.191 388.014 373.846 387.08 373.386 386.23C370.399 380.643 367.194 376.437 362.408 372.357C361.572 371.643 360.591 371.082 359.807 370.431C359.217 370.093 358.244 369.604 357.89 369.085C358.296 368.787 359.813 368.687 360.338 368.752C361.141 368.478 365.751 368.473 366.965 368.404C368.896 368.294 368.488 368.171 369.507 369.737C375.749 379.294 387.564 383.376 398.533 383.003C400.297 382.942 410.69 382.44 411.432 381.367C411.051 379.727 404.68 373.565 403.142 372.316C398.026 368.175 396.22 367.635 390.454 365.026C390.954 364.783 395.581 363.676 396.596 363.399C397.612 363.121 398.659 362.831 399.681 362.57C401.519 362.095 401.066 362.291 402.477 363.62C406.416 367.346 410.744 369.751 416.023 371.025C422.264 372.54 429.69 371.93 435.968 370.172L441.889 368.204C442.519 367.692 444.689 367.212 445.215 366.546L444.943 366.05C444.587 365.868 439.567 361.417 433.794 358.52C430.605 356.92 427.194 355.617 423.661 354.992C423.026 354.879 421.04 354.722 420.608 354.534C421.5 354.177 422.72 353.46 423.624 353.013C431.946 348.851 429.183 348.939 433.186 351.271C442.314 356.57 452.616 356.462 462.334 352.175C464.057 351.419 473.89 346.383 474.126 345.05C473.007 343.563 463.871 340.102 461.708 339.475C459.072 338.724 455.621 338.121 452.848 337.988C452.293 337.964 450.446 338.002 450.088 337.888L446.885 338.353L448.433 336.939C450.177 335.435 451.994 333.949 453.699 332.414C455.279 330.987 454.836 330.795 456.876 331.463C458.205 331.89 459.472 332.399 460.82 332.781C470.136 335.4 478.814 333.329 486.666 327.487C488.572 326.067 490.232 324.607 491.949 322.955C492.805 322.135 496.644 318.534 496.736 317.653C494.959 316.531 485.521 314.861 483.057 314.713C479.875 314.524 476.931 314.574 473.77 315.153C473.328 315.232 471.17 315.866 470.993 315.789C470.657 316.049 469.348 316.457 468.929 316.329C469.095 316.008 470.243 314.543 470.478 314.428L475.429 307.505C483.144 308.929 489.596 309.046 496.564 304.636C503.24 300.411 508.679 293.333 511.704 285.994C508.786 285.135 500.821 285.349 497.668 285.85C495.309 286.221 493.527 286.748 491.262 287.418C489.373 287.979 485.622 290.102 485.335 290.127C487.038 286.019 487.852 284.476 489.409 280.034C490.416 280.173 493.53 279.913 494.65 279.789C499.804 279.195 504.222 277.144 508.065 273.504C513.558 268.305 517.583 258.841 518.824 251.459C517.802 251.206 513.86 251.947 512.614 252.178C508.215 253.005 502.446 254.862 498.697 257.528C498.412 257.729 496.341 259.349 496.308 259.362L494.609 261.034L494.733 259.626L495.432 252.551C495.473 251.878 495.477 250.838 495.607 250.204C496.216 249.953 497.378 249.794 498.078 249.637C500.294 249.109 503.07 248.052 505.01 246.795C508.396 244.635 510.684 242.514 512.598 238.89C514.819 234.681 516.068 231.284 516.856 226.616C517.285 223.986 517.632 218.329 517.313 215.727C516.48 215.704 512.189 217.403 511.225 217.865C507.225 219.745 503.502 221.772 500.299 224.999C497.136 228.163 497.528 228.807 495.822 231.072C495.39 227.88 495.513 223.073 494.936 219.032C495.432 218.678 496.633 218.184 497.246 217.895C503.571 214.965 507.695 208.401 509.098 201.645C509.849 198.031 509.844 194.279 509.437 190.636C509.241 188.872 508.23 181.732 507.356 180.622C505.895 180.652 499.965 185.553 498.647 186.769C497.079 188.2 496.038 189.265 494.77 191.004C492.764 193.748 492.847 194.163 491.473 196.816C491.236 196.24 491.012 195.087 490.866 194.482C490.697 193.718 490.478 192.919 490.288 192.173C490.085 191.395 489.873 190.64 489.677 189.878C489.539 189.317 489.251 188.068 489.068 187.61C490.558 186.239 492.429 185.9 495.497 182.681C501.949 175.908 502.701 166.162 500.785 157.438C500.277 155.119 499.585 152.071 498.692 149.91C497.836 147.847 497.122 148.796 495.715 149.945C488.972 155.415 485.093 159.866 482.743 168.594C482.255 168.111 481.706 166.736 481.453 166.044C480.962 164.748 480.838 164.396 481.258 163.063C481.804 161.35 481.899 158.521 481.756 156.726C481.405 152.404 480.341 149.668 478.124 146.039C476.14 142.783 473.32 139.42 470.477 136.929C467.46 134.293 463.097 130.817 459.464 129.269C457.764 136.708 457.976 146.995 461.995 153.543C464.187 157.107 467.374 160.263 470.874 162.512C474.983 165.147 474.07 162.883 475.802 166.842L478.008 172.226C477.298 171.769 476.167 170.643 475.483 170.035C472.884 167.743 469.654 165.719 466.596 164.15C464.623 163.145 453.906 158.443 452.232 158.935C451.532 159.728 452.634 163.441 452.924 164.502C454.484 170.255 456.34 174.715 460.297 179.342C463.149 182.691 467.039 185.285 471.088 186.906C477.548 189.464 481.091 188.794 483.939 189.663C484.49 191.094 487.671 205.037 487.539 205.887C486.251 204.881 485.428 201.072 477.019 194.934C474.588 193.162 463.309 186.632 460.846 186.999C460.453 188.088 461.389 192.758 461.644 194.114C462.912 201.176 466.071 207.732 471.345 212.51C475.464 216.246 481.564 218.661 486.943 219.857C487.557 219.988 488.442 220.074 488.981 220.226C489.663 220.414 489.619 221.153 489.718 221.805C489.993 223.63 490.571 231.706 490.299 232.698C489.775 232.024 489.115 230.601 488.574 229.784C486.45 226.548 484.797 224.409 481.959 221.635C480.12 219.836 478.239 218.316 476.173 216.797C474.898 215.851 470.799 212.706 469.56 212.345C468.746 214.009 468.498 222.2 468.682 224.324C469.374 232.017 472.365 238.688 478.199 243.75C481.577 246.677 486.265 248.616 490.308 250.464C490.203 251.677 490.186 252.808 490.039 254.057C489.906 255.123 488.765 264.159 488.301 264.865L488.233 264.93C488.233 264.93 488.202 264.971 488.17 264.984C488.402 262.932 486.946 259.43 486.253 257.505C484.676 253.098 480.935 248.037 477.993 244.5C477.144 243.482 473.179 239.149 472.249 238.773C470.704 240.242 468.559 249.073 468.277 251.483C467.785 255.561 468.262 258.651 469.251 262.532C470.792 268.63 476.276 274.257 481.368 277.603C482.073 278.071 483.481 278.831 484.031 279.354C483.442 282.198 479.852 289.779 478.339 292.508C477.874 290.546 479.761 287.804 475.93 277.424C475.042 275.008 470.181 265.305 468.403 264.547C467.042 265.379 464.72 269.611 463.889 271.132C460.137 278.021 458.403 285.419 461.399 292.959C463.217 297.538 465.615 300.447 468.963 303.929C470.301 305.335 470.605 305.332 469.359 307.052C468.204 308.623 463.143 315.526 462.302 315.919C462.326 314.982 463.005 313.083 463.169 311.854C463.62 308.598 463.494 304.184 462.853 301.049C462.414 298.936 460 289.144 458.72 288.088C456.858 289.013 452 294.203 450.616 295.999C447.945 299.485 445.782 303.501 445.13 307.889C444.207 314.055 445.65 318.255 448.283 323.445C448.948 324.762 450.825 327.417 450.986 327.866C450.122 328.764 441.45 335.86 440.858 335.888C440.817 335.315 442.049 332.749 442.338 332.022C443.727 328.576 444.278 325.241 444.448 321.511C444.554 319.323 444.407 310.527 443.369 309.034C442.04 308.972 435.512 313.249 434.094 314.272C430.573 316.806 428.46 319.342 426.36 323.183L426.33 323.251Z" fill="url(#paint0_linear_425_113)" fill-opacity="0.07"/>
<path d="M335.602 81.5611L332.584 83.1766C332.205 83.5669 329.819 84.9693 329.148 85.423C325.542 87.8799 322.071 91.1802 319.771 94.9347C317.897 97.9804 316.842 101.111 316.528 104.657C316.175 108.538 317.063 110.101 317.337 113.022C316.956 113.385 309.336 117.567 309.109 117.576C311.899 109.716 311.901 105.249 310.607 97.4586C310.532 96.993 310.041 95.1823 310.04 95.0329C308.564 95.0969 302.617 99.2464 301.192 100.348C298.42 102.489 295.351 105.165 293.397 108.122C289.555 113.916 288.082 118.8 289.073 125.498C289.416 127.773 290.076 128.831 290.386 130.332C288.845 131.519 287.165 132.78 285.682 134.046C284.948 134.675 281.5 137.648 280.994 137.875C281.719 134.534 282.219 134.656 282.36 130.385C282.496 126.003 281.45 121.678 280.067 117.612C279.754 116.664 278.079 112.269 277.521 111.796C275.14 113.553 271.658 117.241 269.825 119.614C266.922 123.364 265.345 126.607 263.783 131.087C262.488 134.803 262.447 138.265 263.231 142.044C263.505 143.354 264.202 145.633 264.801 146.8C265.182 147.561 265.512 148.286 265.941 149.027C266.33 149.71 266.857 150.467 267.17 151.171C266.854 151.657 265.775 152.719 265.329 153.202L260.056 159.35C259.77 157.005 259.98 154.971 259.418 152.534C258.975 150.582 258.309 148.141 257.459 146.337C256.419 144.153 252.27 136.234 250.386 135.268C248.651 136.749 245.052 144.137 244.125 146.456C242.678 150.066 241.639 154.192 241.65 158.082C241.66 163.583 243.178 167.883 246.288 172.156C247.311 173.561 248.602 174.771 249.591 176.134C249.367 176.741 248.705 177.753 248.376 178.45C247.993 179.272 247.621 180.099 247.254 180.915C246.517 182.585 245.807 184.281 245.064 185.935C244.882 185.748 244.253 183.282 244.129 182.808C243.394 180.134 241.273 176.222 239.764 174.024C237.866 171.238 232.832 165.575 230.067 163.875C228.317 167.516 226.991 172.546 226.502 176.558C226.044 180.285 226.004 184.018 226.799 187.68C227.579 191.254 228.727 194.283 230.855 197.237C233.347 200.687 235.867 202.497 239.136 205.066C238.839 206.873 238.414 208.733 238.063 210.544L237.14 215.829C236.125 215.105 234.946 208.353 223.778 200.503C222.859 199.861 217.899 196.424 217.188 196.454C216.987 196.583 217.085 196.45 216.991 196.788C216.628 198.201 216.533 205.552 216.608 207.019C216.633 207.599 216.908 210.06 216.814 210.399C216.97 210.737 216.976 210.997 216.97 211.373C216.994 211.411 217.772 215.2 217.932 215.743C218.123 216.395 218.319 217.279 218.6 217.875C218.733 218.176 219.314 219.66 219.334 219.885L220.2 221.926C220.933 222.542 222.54 228.248 231.115 233.212C232.492 234.013 233.934 234.665 235.302 235.516C236.029 235.966 235.793 236.419 235.798 237.288C235.831 239.062 236.249 246.202 236.167 246.938C235.544 246.492 232.368 239.794 219.874 234.212C218.582 233.639 213.692 231.437 212.496 231.676C212.173 233.513 214.743 243.007 214.735 243.085C214.904 243.334 216.135 246.779 216.155 247.005C216.857 247.755 219.168 255.689 227.058 261.386C230.127 263.597 233.488 265.136 237.139 266.096C240.009 266.854 239.178 266.493 239.98 269.197C240.159 269.816 241.129 273.012 241.07 273.392C241.473 273.919 242.138 277.091 242.284 277.209C241.964 277.097 239.977 275.396 239.482 275.019C238.466 274.267 237.409 273.578 236.285 272.982C234.032 271.802 231.004 270.408 228.601 269.664C226.944 269.053 218.069 266.964 216.771 267.349C216.497 268.557 218.523 272.17 218.467 272.755C218.748 273.08 219.137 273.912 219.188 274.34C219.395 274.471 220.028 275.774 220.028 276.045C220.25 276.263 221.684 278.875 221.717 279.133C221.953 279.317 224.264 282.851 224.727 283.484C225.812 284.957 227.051 286.32 228.33 287.62C233.657 293.003 240.349 296.149 247.854 296.601C249.571 296.71 250.007 296.493 250.359 297.228C251.155 298.913 254.997 305.535 255.234 306.355C250.373 304.179 246.525 302.7 241.186 302.049C239.159 301.806 230.362 301.389 228.805 302.095C228.893 303.622 235.021 310.923 236.324 312.409C242.784 319.733 251.784 325.328 261.798 325.245C262.896 325.233 263.953 325.164 265.028 325.021C266.19 324.861 267.632 324.39 268.045 324.894C268.95 325.964 271.627 328.776 272.159 329.765C272.661 330.186 274.433 332.322 274.524 332.903C273.968 333 272.392 332.506 271.775 332.32C269.553 331.979 267.843 331.643 265.562 331.561C261.043 331.388 255.633 332.115 251.247 333.394C250.464 333.623 249.341 334.057 248.602 334.183C249.172 335.418 255.687 340.884 257.121 342.007C261.838 345.732 263.349 346.103 268.877 348.473C275.506 351.308 279.049 352.032 286.338 350.401C289.795 349.625 288.82 349.595 291.233 348.706C291.764 349.031 294.021 351.566 294.696 352.225C296.548 354.057 304.761 361.829 306.067 362.125C307.224 360.339 309.08 358.003 309.962 356.151C307.522 354.552 304.967 352.672 302.594 350.952C301.213 349.947 296.929 346.682 296.13 345.428C296.594 344.329 297.258 343.223 297.77 342.132C299.19 339.133 299.981 335.942 300.11 332.641C300.419 324.855 296.612 318.669 291.61 313.236C290.229 311.744 284.1 305.905 282.469 305.63C281.8 306.626 280.996 311.788 280.76 313.242C280.38 315.636 280.261 318.035 280.284 320.441C280.377 328.361 282.885 332.048 283.05 333.338C281.67 332.117 273.866 323.614 273.428 322.409C275.538 319.06 275.86 320.716 278.666 314.338C280.274 310.689 281.049 309.116 280.965 305.059C280.854 299.61 278.855 294.871 276.163 290.332C274.868 288.159 273.049 285.827 271.448 283.873C269.887 281.978 269.361 281.005 268.564 282.176C267.716 283.433 266.881 285.48 266.263 286.905C264.364 291.375 262.915 296.08 262.615 300.932C262.567 301.588 262.677 304.885 262.619 305.05C262.818 305.38 263.138 307.86 263.093 308.328C262.666 307.886 261.048 305.424 260.999 304.929C260.519 304.64 256.066 296.576 255.886 295.807C256.964 294.718 258.969 293.584 260.253 292.475C265.047 288.313 268.213 282.227 268.155 275.744C268.122 271.6 267.353 269.033 266.18 265.181C265.718 263.667 262.508 256.196 261.249 255.88C259.561 256.678 254.376 264.353 253.426 266.269C252.091 268.953 250.057 273.825 249.498 276.845C249.301 277.937 249.344 278.93 249.176 279.954C248.336 279.008 247.35 274.817 246.813 273.352C246.573 272.693 244.943 267.071 244.96 266.699C245.601 266.314 247.877 265.649 249.715 264.66C255.923 261.301 258.851 258.224 261.302 251.327C262.698 247.411 262.88 243.713 262.4 239.66C262.205 238.045 260.833 230.221 259.809 229.425L258.852 229.903C257.974 230.592 256.975 231.255 256.065 231.957C255.513 232.381 253.824 233.937 253.364 234.089C253.05 234.752 247.915 238.183 244.451 244.682C243.883 245.749 242.577 249.095 242.017 249.719C241.546 249.135 241.218 241.696 241.118 240.015C241.058 239.122 240.885 237.639 240.93 236.806C241.334 236.602 243.335 236.36 243.966 236.241C245.956 235.872 247.94 235.243 249.812 234.538C250.331 234.344 252.262 233.381 252.56 233.361C252.901 233.062 253.667 232.691 254.128 232.417C254.594 232.132 255.105 231.744 255.535 231.389C256.07 230.944 258.007 229.09 258.321 228.942C258.459 228.623 259.928 227.026 260.301 226.47C260.965 225.486 261.494 224.266 261.984 223.166C263.021 220.867 263.913 218.749 264.326 216.248C264.802 213.422 264.994 209.944 264.879 207.052C264.861 206.638 264.708 204.351 264.749 204.166L264.515 203.915C263.872 204.002 261.305 205.095 260.618 205.434C259.378 206.047 258.101 206.684 256.817 207.278C255.411 208.09 254.155 208.71 252.754 209.604C250.172 211.247 247.252 213.608 245.189 215.908C243.156 218.168 242.778 219.371 241.904 220.386C241.595 219.914 242.608 214.573 242.77 213.655C242.965 212.507 243.164 211.348 243.37 210.206C243.527 209.299 243.511 207.545 244.612 207.373C245.822 207.194 249.599 207.559 253.881 206.885C254.442 206.803 256.436 206.274 256.759 206.319C256.953 206.146 258.416 205.684 258.838 205.501C260.439 204.815 261.141 204.591 262.734 203.59C263.279 203.244 264.068 202.517 264.615 202.348C265.223 201.312 270.444 199.108 274.182 186.664C274.482 185.67 274.732 184.668 274.922 183.654C275.003 183.161 275.256 181.091 275.333 180.854C274.032 180.303 269.244 181.598 267.666 181.929C260.277 183.516 253.192 186.983 248.001 192.76C249.571 187.835 251.566 183.963 253.737 179.475C254.66 179.591 255.932 180.089 256.936 180.294C259.564 180.851 263.124 181.353 265.758 181.29C275.777 181.074 283.54 175.437 288.517 166.725C289.118 165.672 291.614 161.313 291.345 160.356C290.636 159.927 284.389 160.034 283.179 160.091C276.568 160.432 270.598 161.539 264.574 164.504C263.307 165.119 261.641 166.441 261.272 166.592C262.514 164.396 268.895 156.482 270.755 155.109C275.209 156.797 279.025 159.047 283.945 159.449C291.719 160.099 298.259 157.859 304.471 153.066C306.77 151.288 311.14 146.766 312.588 144.307C311.623 143.74 306.132 142.712 304.708 142.474C300.277 141.703 294.66 141.148 290.171 141.814C289.005 141.985 287.923 142.112 286.77 142.343C285.962 142.507 284.19 143.011 283.528 143.049C284.473 141.78 287.679 139.366 289.049 138.241C293.899 134.252 292.995 135.214 294.99 136.593C299.634 139.786 305.201 142.43 310.843 143.049C319.44 143.989 326.831 140.696 333.815 135.914C334.708 135.313 335.756 134.413 336.603 133.887L337.015 133.24L336.288 132.641C331.763 130.326 326.304 128.283 321.341 127.16C317.542 126.297 314.976 126.024 311.183 126.057C310.547 126.066 308.473 126.358 308.087 126.245C307.691 126.52 305.491 126.797 304.966 126.732C305.223 126.383 306.898 125.282 307.289 125.262C308.123 124.432 314.939 120.674 316.76 119.663C318.931 118.452 319.109 118.163 320.237 118.991C321.321 119.8 322.347 120.773 323.412 121.627C326.942 124.444 331.075 126.63 335.449 127.714C343.604 129.735 350.153 127.837 357.384 124.488C358.242 124.089 363.619 121.344 363.354 120.376C362.428 118.959 353.137 114.794 351.175 114.038C348.063 112.837 345.024 111.952 341.748 111.371C341.173 111.27 339.137 111.078 338.798 110.917C338.357 111.024 336.518 110.863 336.027 110.69C336.447 110.48 338.228 109.804 338.598 109.801C338.989 109.538 343.173 107.995 343.743 107.863C344.179 107.768 346.448 108.82 347.125 109.019C360.564 112.938 372.085 106.468 380.068 94.8895C376.476 93.2773 370.867 92.4289 366.889 92.0709C359.725 91.4411 350.52 92.3902 344.729 97.3653C343.324 98.5703 341.408 100.528 340.483 102.117C339.805 103.285 339.367 103.474 338.139 103.97C337.439 104.249 336.178 104.758 335.455 104.756C336.168 103.414 336.884 102.37 337.56 100.903C338.181 99.5619 338.82 98.1196 339.248 96.7077C340.518 92.5339 340.597 86.435 340.178 82.1786C340.04 80.7376 340.204 79.6309 338.453 80.2388C337.853 80.4388 335.811 81.503 335.524 81.5275L335.602 81.5611Z" fill="url(#paint1_linear_425_113)" fill-opacity="0.07"/>
<path d="M53.7857 111.513C53.0848 112.955 52.4635 114.309 51.8834 115.806C51.2625 117.421 51.1921 118.154 50.8587 119.75C50.8703 119.782 50.8094 122.87 50.8368 123.361C51.211 129.121 53.2509 132.38 53.3945 133.689C52.7661 134.248 42.0064 139.37 40.7416 139.405C41.5895 138.222 42.3198 137.847 43.9369 135.364C49.2404 127.247 49.5302 120.821 50.1016 119.662C50.0024 119.357 50.7616 115.442 50.6495 114.325C49.7695 113.839 47.1129 114.793 46.1115 114.949C45.9292 115.057 45.1358 115.28 44.9013 115.241C44.5968 115.47 42.1911 116.226 41.5986 116.446C41.0222 116.66 40.5433 116.864 39.9501 117.056C39.3569 117.249 38.8882 117.662 38.2441 117.763C38.0598 118.02 35.9749 119.032 35.4714 119.347C33.5162 120.569 31.9552 121.684 30.2916 123.312C29.3134 124.257 28.8683 124.996 28.0219 126.001C25.126 131.041 23.6512 134.778 24.0429 140.587C24.1002 141.447 24.5782 144.577 24.4686 145.019C23.4303 145.226 22.0979 145.639 21.0014 145.915C19.505 146.281 11.2399 148.079 10.2341 148.042C10.6272 147.648 12.1325 146.712 12.6884 146.311C15.1964 144.551 17.6735 141.902 19.4812 139.438C21.8477 136.219 25.557 129.435 26.2199 125.585C24.8412 124.912 17.2907 125.876 15.4235 126.181C12.2085 126.702 8.35612 127.859 5.46268 129.388C2.19891 131.116 -1.18436 133.568 -2.93276 136.975C-3.93187 138.921 -5.25921 141.729 -5.93539 143.782C-6.54035 145.623 -6.48582 148.285 -7.06717 149.727C-8.13528 150.057 -20.1283 150.104 -21.2049 149.815C-20.685 149.261 -18.9785 148.814 -18.1998 148.42C-17.2116 147.916 -16.3463 147.507 -15.3535 146.965C-11.678 144.947 -7.69871 141.225 -5.01181 138.002C-4.18668 137.014 -0.790202 132.737 -0.62723 131.774C-1.58499 130.733 -10.5256 130.035 -12.3454 130.034C-15.9468 130.036 -19.646 130.28 -23.1378 131.288C-26.7053 132.317 -29.7346 134.084 -32.4681 136.683C-37.6687 141.65 -38.587 147.186 -39.2887 148.108C-39.5072 148.295 -39.4651 148.232 -39.8294 148.215C-46.5959 147.817 -54.6829 145.229 -56.5271 145.107C-57.0511 145.96 -58.2545 151.134 -58.1126 152.128C-56.194 152.899 -44.2859 153.905 -40.8796 153.923C-40.2168 153.927 -39.0953 153.799 -38.5282 153.895C-38.2195 154.815 -38.1128 155.452 -37.7112 156.401C-36.8847 158.365 -34.8882 161.631 -33.6034 163.204C-30.3083 167.203 -28.0774 168.335 -23.4714 170.488C-18.0311 173.024 -16.6746 173.92 -10.7905 174.938C-9.71635 175.116 -4.19303 176.095 -4 175.5C-4.43725 174.657 -1.55695 173.359 -2.00001 172.5C-4.87047 166.852 -6.4427 163.459 -11.1432 159.281C-11.9637 158.549 -12.9328 157.968 -13.7029 157.301C-14.2866 156.951 -15.2487 156.441 -15.5919 155.915C-15.1801 155.626 -13.6607 155.557 -13.1375 155.633C-12.3285 155.376 -7.72005 155.467 -6.50426 155.423C-4.57203 155.353 -4.97697 155.222 -3.9906 156.808C2.05078 166.493 13.7784 170.82 24.7533 170.674C26.5182 170.65 36.9196 170.365 37.6834 169.307C37.3367 167.659 31.0947 161.366 29.5829 160.086C24.5549 155.839 22.7601 155.262 17.0493 152.534C17.5547 152.301 22.2035 151.29 23.2244 151.034C24.2453 150.778 25.2985 150.51 26.3252 150.27C28.1731 149.833 27.7156 150.019 29.0988 151.378C32.9598 155.185 37.2367 157.679 42.4881 159.063C48.696 160.707 56.1332 160.251 62.4466 158.624L68.4075 156.78C69.0481 156.281 71.2274 155.846 71.7668 155.192L71.5056 154.689C71.1537 154.5 66.2273 149.946 60.5155 146.93C57.3599 145.264 53.9773 143.89 50.4579 143.192C49.825 143.065 47.8432 142.867 47.4151 142.671C48.3146 142.332 49.5484 141.64 50.4623 141.212C58.8682 137.224 56.1039 137.254 60.0585 139.669C69.0745 145.157 79.3761 145.263 89.1813 141.179C90.9197 140.459 100.855 135.628 101.118 134.301C100.03 132.791 90.9688 129.14 88.8189 128.469C86.1988 127.663 82.7614 126.989 79.9922 126.798C79.4373 126.762 77.5903 126.762 77.2345 126.64L74.0223 127.039L75.5991 125.658C77.3749 124.19 79.2217 122.742 80.9588 121.243C82.5679 119.849 82.1288 119.648 84.1547 120.358C85.4741 120.813 86.7301 121.348 88.0701 121.758C97.33 124.57 106.049 122.679 114.021 117.002C115.956 115.622 117.646 114.197 119.397 112.581C120.269 111.779 124.183 108.258 124.293 107.38C122.54 106.22 113.138 104.354 110.678 104.155C107.5 103.9 104.556 103.889 101.384 104.402C100.94 104.472 98.77 105.062 98.5943 104.981C98.2524 105.234 96.9355 105.614 96.5196 105.478C96.6917 105.161 97.8706 103.72 98.1071 103.61L103.201 96.7907C110.885 98.3745 117.333 98.6262 124.391 94.3614C131.154 90.2757 136.739 83.313 139.916 76.0385C137.016 75.1185 129.048 75.1674 125.886 75.6027C123.519 75.9247 121.727 76.4145 119.449 77.0366C117.548 77.5589 113.754 79.6037 113.466 79.6221C115.254 75.5502 116.1 74.0251 117.75 69.6166C118.753 69.776 121.872 69.5804 122.994 69.4802C128.16 68.9935 132.619 67.0349 136.536 63.4752C142.137 58.3915 146.358 49.0134 147.751 41.6588C146.734 41.3838 142.779 42.0428 141.528 42.2483C137.112 42.9832 131.307 44.7205 127.503 47.3075C127.214 47.5029 125.109 49.0792 125.077 49.0917L123.343 50.7287L123.496 49.3231L124.342 42.2641C124.397 41.5926 124.423 40.5522 124.566 39.921C125.18 39.6833 126.345 39.548 127.048 39.4058C129.275 38.9241 132.071 37.9248 134.038 36.7086C137.467 34.6194 139.8 32.5463 141.788 28.9629C144.096 24.8013 145.416 21.4304 146.3 16.7799C146.784 14.1598 147.249 8.51099 146.983 5.90247C146.151 5.8625 141.826 7.47237 140.853 7.9142C136.814 9.71018 133.05 11.6597 129.78 14.8197C126.553 17.9171 126.931 18.569 125.178 20.7984C124.813 17.5973 125.036 12.7941 124.542 8.7419C125.045 8.39863 126.257 7.9295 126.875 7.6529C133.26 4.85579 137.52 -1.6216 139.063 -8.34722C139.889 -11.9447 139.962 -15.6962 139.63 -19.3466C139.471 -21.114 138.609 -28.2732 137.758 -29.4014C136.296 -29.402 130.266 -24.6251 128.924 -23.4369C127.325 -22.0382 126.263 -20.9953 124.959 -19.2837C122.896 -16.5815 122.971 -16.1647 121.542 -13.5407C121.317 -14.1221 121.117 -15.2796 120.984 -15.8873C120.83 -16.6544 120.628 -17.4579 120.453 -18.2075C120.267 -18.9897 120.071 -19.7493 119.891 -20.5152C119.764 -21.0789 119.502 -22.3331 119.329 -22.7952C120.847 -24.135 122.725 -24.4351 125.859 -27.5891C132.45 -34.2267 133.404 -43.9553 131.67 -52.7172C131.21 -55.0461 130.581 -58.1082 129.734 -60.2869C128.921 -62.3678 128.187 -61.4336 126.756 -60.3133C119.902 -54.9852 115.931 -50.6161 113.4 -41.9387C112.922 -42.4313 112.402 -43.8177 112.163 -44.5146C111.699 -45.8205 111.583 -46.1746 112.031 -47.4995C112.612 -49.2007 112.765 -52.0271 112.66 -53.8246C112.399 -58.1527 111.392 -60.9103 109.25 -64.5843C107.335 -67.8815 104.585 -71.3015 101.795 -73.8517C98.8336 -76.5491 94.5434 -80.1153 90.9434 -81.7391C89.0895 -74.3361 89.0877 -64.0477 92.969 -57.4168C95.0873 -53.8081 98.2073 -50.5872 101.66 -48.2658C105.714 -45.5457 104.848 -47.8287 106.497 -43.834L108.591 -38.4053C107.89 -38.8769 106.783 -40.0268 106.112 -40.6489C103.561 -42.9943 100.374 -45.0844 97.3493 -46.7174C95.3973 -47.7629 84.7807 -52.6866 83.0962 -52.2293C82.3804 -51.4508 83.4043 -47.7154 83.6728 -46.6495C85.1123 -40.8652 86.8758 -36.367 90.7355 -31.6591C93.5174 -28.2516 97.353 -25.577 101.368 -23.8724C107.773 -21.1808 111.328 -21.7774 114.158 -20.8488C114.679 -19.4072 117.569 -5.40117 117.42 -4.55413C116.153 -5.58622 115.409 -9.41157 107.13 -15.7229C104.737 -17.5447 93.5954 -24.3078 91.1255 -23.9921C90.7099 -22.912 91.5488 -18.2229 91.7751 -16.8621C92.8962 -9.77537 95.9189 -3.15565 101.092 1.73094C105.132 5.55172 111.181 8.09355 116.534 9.4007C117.146 9.54456 118.028 9.64861 118.564 9.81247C119.242 10.0142 119.183 10.7521 119.268 11.4061C119.505 13.2364 119.915 21.3226 119.622 22.3088C119.113 21.6241 118.483 20.1874 117.959 19.3596C115.902 16.0798 114.294 13.9076 111.515 11.0749C109.713 9.23763 107.864 7.6789 105.83 6.11742C104.575 5.1456 100.542 1.916 99.3109 1.5291C98.4625 3.17603 98.044 11.3603 98.1843 13.4879C98.7164 21.1927 101.568 27.9252 107.296 33.1074C110.612 36.1039 115.259 38.1394 119.262 40.0711C119.132 41.2822 119.092 42.4118 118.919 43.6579C118.764 44.7208 117.435 53.7311 116.956 54.427L116.887 54.491C116.887 54.491 116.856 54.5311 116.823 54.5436C117.098 52.4968 115.714 48.9656 115.062 47.0268C113.577 42.588 109.941 37.4498 107.074 33.8527C106.246 32.8174 102.372 28.4031 101.45 28.0078C99.8746 29.4442 97.5466 38.2285 97.2151 40.6317C96.6386 44.6989 97.0506 47.7984 97.9588 51.6993C99.3734 57.8274 104.739 63.5678 109.76 67.0183C110.455 67.5012 111.848 68.2899 112.387 68.824C111.739 71.656 107.991 79.1608 106.422 81.8574C105.998 79.8863 107.941 77.1839 104.327 66.7264C103.49 64.2929 98.831 54.4906 97.0695 53.6963C95.6915 54.4991 93.2816 58.682 92.4192 60.1858C88.5257 66.995 86.6382 74.3553 89.4766 81.9563C91.1994 86.5724 93.5366 89.53 96.8106 93.0812C98.1195 94.515 98.4237 94.5179 97.1419 96.2119C95.9546 97.758 90.7517 104.554 89.9019 104.93C89.946 103.993 90.664 102.109 90.8537 100.884C91.3726 97.638 91.3383 93.2223 90.7622 90.0749C90.3668 87.9532 88.1569 78.1126 86.8994 77.0303C85.0182 77.9166 80.0538 83.0049 78.6324 84.7716C75.8904 88.2009 73.6441 92.1718 72.9007 96.5451C71.8495 102.69 73.205 106.919 75.7296 112.163C76.368 113.494 78.1886 116.187 78.3401 116.639C77.4582 117.519 68.6402 124.434 68.0484 124.45C68.0192 123.876 69.3037 121.336 69.6079 120.615C71.0682 117.199 71.6887 113.876 71.9361 110.15C72.0878 107.965 72.1232 99.1673 71.1168 97.6536C69.7893 97.5641 63.174 101.704 61.7351 102.697C58.1619 105.158 55.9964 107.649 53.8167 111.446L53.7857 111.513Z" fill="url(#paint2_linear_425_113)" fill-opacity="0.03"/>
<path d="M-31.9008 -132.01L-34.9512 -130.457C-35.3391 -130.075 -37.7531 -128.723 -38.4331 -128.283C-42.0895 -125.902 -45.6291 -122.674 -48.0064 -118.968C-49.9431 -115.962 -51.0627 -112.854 -51.4501 -109.315C-51.8843 -105.443 -51.0284 -103.861 -50.8158 -100.935C-51.2044 -100.581 -58.9088 -96.5575 -59.1368 -96.5528C-56.1837 -104.354 -56.0888 -108.819 -57.2209 -116.635C-57.2858 -117.102 -57.7396 -118.923 -57.7375 -119.072C-59.2143 -119.039 -65.2456 -115.014 -66.6935 -113.942C-69.5093 -111.859 -72.6336 -109.247 -74.6484 -106.331C-78.6101 -100.619 -80.1847 -95.7663 -79.3326 -89.0489C-79.0368 -86.7679 -78.3988 -85.6965 -78.1204 -84.1887C-79.686 -83.0347 -81.3912 -81.8081 -82.9006 -80.5737C-83.6473 -79.9596 -87.1563 -77.0597 -87.6674 -76.8432C-86.8732 -80.1683 -86.3759 -80.0359 -86.1461 -84.3031C-85.9188 -88.6808 -86.875 -93.0273 -88.1732 -97.1207C-88.4663 -98.075 -90.049 -102.504 -90.5977 -102.988C-93.0146 -101.281 -96.5726 -97.6661 -98.4538 -95.3314C-101.434 -91.6426 -103.079 -88.434 -104.733 -83.9866C-106.106 -80.2983 -106.218 -76.838 -105.513 -73.044C-105.266 -71.7283 -104.617 -69.4356 -104.042 -68.2563C-103.677 -67.4877 -103.362 -66.7555 -102.948 -66.0057C-102.574 -65.3149 -102.062 -64.5473 -101.764 -63.8365C-102.09 -63.3575 -103.191 -62.3184 -103.647 -61.8445L-109.047 -55.8079C-109.284 -58.1578 -109.031 -60.187 -109.543 -62.6352C-109.945 -64.5963 -110.56 -67.0509 -111.373 -68.8719C-112.368 -71.0772 -116.35 -79.08 -118.214 -80.0852C-119.98 -78.6403 -123.732 -71.3288 -124.707 -69.0294C-126.228 -65.4504 -127.353 -61.3475 -127.423 -57.4579C-127.527 -51.958 -126.098 -47.6272 -123.078 -43.2906C-122.085 -41.8647 -120.818 -40.6281 -119.858 -39.2449C-120.094 -38.6428 -120.778 -37.6445 -121.121 -36.9546C-121.521 -36.1406 -121.91 -35.3215 -122.294 -34.5136C-123.066 -32.8591 -123.81 -31.1781 -124.588 -29.5399C-124.766 -29.7309 -125.344 -32.2093 -125.458 -32.6851C-126.137 -35.3745 -128.177 -39.3296 -129.639 -41.5581C-131.479 -44.3832 -136.395 -50.1493 -139.123 -51.9063C-140.949 -48.3025 -142.379 -43.3014 -142.951 -39.3007C-143.487 -35.5836 -143.604 -31.8523 -142.885 -28.175C-142.18 -24.5857 -141.095 -21.533 -139.029 -18.5356C-136.608 -15.0344 -134.127 -13.1724 -130.912 -10.5363C-131.246 -8.73557 -131.71 -6.88483 -132.098 -5.08167L-133.131 0.1836C-134.131 -0.561979 -135.169 -7.3373 -146.172 -15.4169C-147.078 -16.0782 -151.965 -19.6177 -152.676 -19.6023C-152.88 -19.477 -152.78 -19.6087 -152.881 -19.2724C-153.273 -17.8672 -153.52 -10.5199 -153.476 -9.05129C-153.463 -8.4714 -153.239 -6.00476 -153.34 -5.6685C-153.191 -5.32692 -153.191 -5.0671 -153.204 -4.69057C-153.181 -4.65288 -152.482 -0.847672 -152.334 -0.301487C-152.156 0.353921 -151.978 1.24152 -151.71 1.84309C-151.583 2.147 -151.033 3.64258 -151.018 3.86853L-150.194 5.92675C-149.474 6.55776 -147.987 12.2957 -139.516 17.4375C-138.156 18.2664 -136.728 18.9485 -135.378 19.8275C-134.661 20.2929 -134.906 20.7406 -134.919 21.6091C-134.923 23.3839 -134.653 30.5311 -134.75 31.2652C-135.364 30.8063 -138.401 24.0435 -150.776 18.2038C-152.055 17.6035 -156.898 15.3004 -158.099 15.5148C-158.46 17.3443 -156.088 26.8902 -156.098 26.968C-155.934 27.2205 -154.775 30.69 -154.759 30.9159C-154.074 31.6812 -151.928 39.6616 -144.158 45.5204C-141.136 47.7949 -137.807 49.4032 -134.177 50.4395C-131.323 51.2565 -132.147 50.8789 -131.401 53.5985C-131.235 54.2213 -130.331 57.4368 -130.399 57.8158C-130.006 58.351 -129.408 61.5361 -129.264 61.6567C-129.581 61.5383 -131.533 59.7962 -132.02 59.409C-133.02 58.6359 -134.063 57.9254 -135.174 57.3064C-137.402 56.0798 -140.4 54.6225 -142.787 53.8287C-144.431 53.184 -153.26 50.911 -154.567 51.2683C-154.866 52.4703 -152.915 56.1253 -152.983 56.7089C-152.709 57.0393 -152.337 57.8795 -152.295 58.3088C-152.091 58.4433 -151.486 59.7595 -151.49 60.0306C-151.274 60.2531 -149.894 62.8944 -149.866 63.153C-149.634 63.3415 -147.397 66.9228 -146.948 67.566C-145.893 69.061 -144.683 70.4495 -143.431 71.7752C-138.217 77.2681 -131.592 80.5525 -124.098 81.1607C-122.384 81.3047 -121.943 81.097 -121.606 81.8392C-120.845 83.5409 -117.142 90.2405 -116.922 91.0654C-121.737 88.7887 -125.553 87.23 -130.878 86.4689C-132.899 86.1839 -141.686 85.5841 -143.257 86.2573C-143.2 87.7862 -137.226 95.2129 -135.954 96.7257C-129.647 104.182 -120.766 109.963 -110.752 110.087C-109.654 110.099 -108.596 110.051 -107.518 109.931C-106.353 109.796 -104.902 109.354 -104.499 109.867C-103.616 110.955 -100.999 113.823 -100.487 114.822C-99.9941 115.254 -98.2666 117.426 -98.1883 118.008C-98.7459 118.094 -100.311 117.568 -100.924 117.369C-103.138 116.982 -104.841 116.61 -107.12 116.481C-111.635 116.214 -117.059 116.828 -121.47 118.016C-122.258 118.229 -123.39 118.639 -124.131 118.75C-123.587 119.997 -117.187 125.597 -115.776 126.749C-111.138 130.571 -109.635 130.973 -104.158 133.458C-97.5886 136.43 -94.0615 137.227 -86.7398 135.748C-83.2682 135.045 -84.2417 134.994 -81.8107 134.155C-81.2871 134.491 -79.0833 137.073 -78.4217 137.746C-76.6087 139.616 -68.5587 147.557 -67.2586 147.88C-66.0652 146.118 -64.1614 143.821 -63.2412 141.988C-65.6468 140.339 -68.1619 138.406 -70.4996 136.637C-71.8591 135.604 -76.074 132.25 -76.8468 130.98C-76.3607 129.891 -75.6737 128.799 -75.1385 127.719C-73.6573 124.75 -72.7999 121.576 -72.6026 118.278C-72.1314 110.501 -75.8088 104.237 -80.6975 98.7014C-82.0463 97.181 -88.0528 91.2152 -89.6785 90.9068C-90.368 91.8887 -91.2787 97.0324 -91.5448 98.4818C-91.9745 100.867 -92.1433 103.263 -92.1705 105.669C-92.242 113.589 -89.8111 117.327 -89.6733 118.62C-91.0269 117.371 -98.6531 108.708 -99.0662 107.494C-96.8863 104.19 -96.599 105.852 -93.6614 99.5334C-91.9774 95.9194 -91.1705 94.3628 -91.1696 90.305C-91.1674 84.8539 -93.0677 80.0744 -95.6645 75.481C-96.9146 73.2817 -98.6845 70.9122 -100.245 68.9258C-101.766 66.9985 -102.271 66.0151 -103.093 67.1688C-103.967 68.4077 -104.844 70.4374 -105.491 71.8486C-107.483 76.278 -109.029 80.9527 -109.431 85.7971C-109.492 86.4522 -109.45 89.7507 -109.512 89.9138C-109.319 90.248 -109.052 92.7347 -109.106 93.2016C-109.524 92.7505 -111.09 90.2557 -111.128 89.7599C-111.602 89.4606 -115.887 81.3055 -116.051 80.5333C-114.951 79.4666 -112.922 78.3747 -111.616 77.2932C-106.737 73.2315 -103.445 67.2122 -103.368 60.7295C-103.315 56.5864 -104.03 54.0036 -105.123 50.1276C-105.553 48.6046 -108.608 41.0686 -109.859 40.7268C-111.564 41.489 -116.907 49.0545 -117.897 50.951C-119.287 53.6064 -121.422 58.4347 -122.044 61.4425C-122.264 62.5304 -122.241 63.5245 -122.43 64.5447C-123.251 63.581 -124.149 59.3701 -124.655 57.8946C-124.882 57.2304 -126.395 51.5766 -126.37 51.2051C-125.721 50.8331 -123.432 50.216 -121.574 49.2644C-115.297 46.0354 -112.306 43.0206 -109.712 36.1758C-108.235 32.2893 -107.976 28.5957 -108.372 24.5336C-108.533 22.9155 -109.742 15.0643 -110.749 14.2471L-111.717 14.7053C-112.609 15.3756 -113.621 16.0182 -114.545 16.7011C-115.106 17.1133 -116.827 18.6337 -117.291 18.7762C-117.618 19.4322 -122.823 22.7567 -126.421 29.1822C-127.011 30.237 -128.387 33.5551 -128.96 34.1669C-129.418 33.5739 -129.592 26.1295 -129.657 24.4462C-129.699 23.5525 -129.841 22.0662 -129.778 21.2341C-129.369 21.0389 -127.364 20.8381 -126.731 20.7322C-124.734 20.4046 -122.737 19.8172 -120.851 19.1519C-120.328 18.9681 -118.377 18.0455 -118.079 18.0321C-117.732 17.7401 -116.958 17.3846 -116.491 17.1204C-116.02 16.8448 -115.501 16.4677 -115.064 16.1219C-114.519 15.6883 -112.545 13.8746 -112.228 13.7332C-112.083 13.417 -110.581 11.8512 -110.196 11.3032C-109.512 10.3326 -108.958 9.12466 -108.445 8.03459C-107.361 5.75789 -106.425 3.65921 -105.96 1.1671C-105.425 -1.64876 -105.162 -5.12141 -105.216 -8.01585C-105.225 -8.43005 -105.331 -10.7196 -105.286 -10.904L-105.515 -11.1591C-106.16 -11.0859 -108.749 -10.0462 -109.442 -9.72196C-110.695 -9.13489 -111.985 -8.52404 -113.281 -7.95711C-114.703 -7.17445 -115.972 -6.58111 -117.392 -5.71561C-120.007 -4.12743 -122.975 -1.82677 -125.086 0.429804C-127.166 2.64625 -127.568 3.84189 -128.463 4.83859C-128.762 4.35999 -127.638 -0.959103 -127.458 -1.87388C-127.239 -3.01703 -127.015 -4.17148 -126.785 -5.3096C-126.61 -6.21308 -126.59 -7.96651 -125.485 -8.11572C-124.272 -8.26981 -120.503 -7.82572 -116.208 -8.41142C-115.645 -8.48099 -113.641 -8.96919 -113.319 -8.91733C-113.122 -9.08652 -111.649 -9.51767 -111.223 -9.6916C-109.609 -10.3447 -108.902 -10.5534 -107.288 -11.5216C-106.736 -11.856 -105.932 -12.5667 -105.382 -12.7241C-104.753 -13.7475 -99.4875 -15.8419 -95.4911 -28.2063C-95.1711 -29.1937 -94.9002 -30.1899 -94.6894 -31.2C-94.5972 -31.6907 -94.3015 -33.755 -94.2199 -33.9909C-95.5095 -34.5686 -100.323 -33.3736 -101.907 -33.0756C-109.328 -31.6417 -116.483 -28.3234 -121.793 -22.6556C-120.122 -27.5461 -118.046 -31.3766 -115.783 -35.8182C-114.862 -35.6827 -113.601 -35.159 -112.602 -34.933C-109.986 -34.321 -106.437 -33.7454 -103.802 -33.7533C-93.7802 -33.7619 -85.9021 -39.2356 -80.7454 -47.8431C-80.1224 -48.8828 -77.536 -53.1897 -77.7858 -54.1514C-78.4857 -54.5954 -84.7331 -54.6184 -85.9437 -54.586C-92.5608 -54.3823 -98.552 -53.3997 -104.637 -50.5607C-105.917 -49.9725 -107.61 -48.6856 -107.981 -48.5417C-106.694 -50.7115 -100.15 -58.4913 -98.2622 -59.8257C-93.8439 -58.0453 -90.0758 -55.7159 -85.1648 -55.2126C-77.4058 -54.4007 -70.8206 -56.5047 -64.5104 -61.1671C-62.1756 -62.8975 -57.7124 -67.3275 -56.2136 -69.7555C-57.1665 -70.3429 -62.6352 -71.4845 -64.0536 -71.7524C-68.4676 -72.6153 -74.0723 -73.2864 -78.5734 -72.7135C-79.7435 -72.5669 -80.8275 -72.4628 -81.9853 -72.256C-82.7968 -72.1089 -84.5789 -71.6417 -85.2411 -71.6175C-84.2697 -72.8664 -81.0144 -75.2131 -79.6214 -76.3096C-74.6897 -80.1968 -75.6136 -79.2541 -73.6478 -77.8332C-69.0705 -74.5452 -63.56 -71.7857 -57.9321 -71.0493C-49.3568 -69.9313 -41.8987 -73.0697 -34.8165 -77.706C-33.9116 -78.2885 -32.845 -79.1657 -31.9873 -79.6742L-31.5617 -80.3125L-32.2762 -80.9272C-36.7522 -83.3353 -42.1677 -85.491 -47.1059 -86.7172C-50.8861 -87.6584 -53.4465 -87.9855 -57.2391 -88.0305C-57.8748 -88.0351 -59.9551 -87.7867 -60.3381 -87.9077C-60.7395 -87.6408 -62.9451 -87.4089 -63.4683 -87.4849C-63.2044 -87.8285 -61.5065 -88.8944 -61.1156 -88.9065C-60.2648 -89.7187 -53.3715 -93.3348 -51.5302 -94.3077C-49.3348 -95.4735 -49.151 -95.7581 -48.04 -94.907C-46.9729 -94.076 -45.9673 -93.0819 -44.9209 -92.2057C-41.4499 -89.3157 -37.3627 -87.045 -33.0123 -85.8697C-24.9018 -83.6804 -18.3143 -85.4418 -11.015 -88.6394C-10.1491 -89.0211 -4.71656 -91.6537 -4.96121 -92.6268C-5.85725 -94.0625 -15.0596 -98.4196 -17.0059 -99.2166C-20.0927 -100.482 -23.1125 -101.43 -26.3756 -102.079C-26.9485 -102.191 -28.9799 -102.426 -29.315 -102.594C-29.7583 -102.496 -31.5934 -102.696 -32.0809 -102.878C-31.6563 -103.08 -29.8619 -103.719 -29.4924 -103.713C-29.0962 -103.969 -24.8811 -105.424 -24.308 -105.544C-23.8699 -105.63 -21.6234 -104.532 -20.9505 -104.319C-7.59623 -100.121 4.05645 -106.35 12.2788 -117.76C8.72086 -119.447 3.13124 -120.412 -0.838664 -120.852C-7.98852 -121.631 -17.2114 -120.873 -23.1045 -116.019C-24.5338 -114.844 -26.4896 -112.926 -27.4483 -111.357C-28.1502 -110.203 -28.5916 -110.023 -29.8304 -109.553C-30.536 -109.289 -31.8071 -108.806 -32.53 -108.823C-31.7885 -110.15 -31.0512 -111.178 -30.3451 -112.631C-29.6961 -113.959 -29.0275 -115.388 -28.5702 -116.791C-27.2133 -120.937 -27.0084 -127.033 -27.3381 -131.297C-27.4466 -132.741 -27.2596 -133.844 -29.0231 -133.273C-29.6272 -133.085 -31.6901 -132.064 -31.9776 -132.045L-31.9008 -132.01Z" fill="url(#paint3_linear_425_113)" fill-opacity="0.03"/>
</g>
<defs>
<linearGradient id="paint0_linear_425_113" x1="305.222" y1="229.568" x2="216.594" y2="59.7173" gradientUnits="userSpaceOnUse">
<stop offset="0.249535" stop-color="#FEDC8F"/>
<stop offset="0.673001" stop-color="#FEDC8F" stop-opacity="0"/>
</linearGradient>
<linearGradient id="paint1_linear_425_113" x1="305.222" y1="229.568" x2="216.594" y2="59.7173" gradientUnits="userSpaceOnUse">
<stop offset="0.249535" stop-color="#FEDC8F"/>
<stop offset="0.673001" stop-color="#FEDC8F" stop-opacity="0"/>
</linearGradient>
<linearGradient id="paint2_linear_425_113" x1="36.5" y1="6.49999" x2="145.289" y2="158.293" gradientUnits="userSpaceOnUse">
<stop offset="0.290396" stop-color="#FEDC8F"/>
<stop offset="0.915994" stop-color="#FEDC8F" stop-opacity="0"/>
</linearGradient>
<linearGradient id="paint3_linear_425_113" x1="36.5" y1="6.49999" x2="145.289" y2="158.293" gradientUnits="userSpaceOnUse">
<stop offset="0.290396" stop-color="#FEDC8F"/>
<stop offset="0.915994" stop-color="#FEDC8F" stop-opacity="0"/>
</linearGradient>
</defs>
</svg>
