<svg width="360" height="250" fill="none" xmlns="http://www.w3.org/2000/svg"><rect x=".5" y=".5" width="359" height="249" rx="9.5" fill="#722839" stroke="#722839"/><mask id="a" style="mask-type:alpha" maskUnits="userSpaceOnUse" x="0" y="0" width="360" height="250"><rect x=".5" y=".5" width="359" height="249" rx="9.5" fill="#722839" stroke="#722839"/></mask><g mask="url(#a)"><path d="M426.33 323.251c-.671 1.456-1.264 2.823-1.813 4.332-.587 1.627-.642 2.361-.942 3.964.012.032.015 3.12.053 3.61.494 5.752 2.601 8.967 2.772 10.273-.617.572-11.268 5.917-12.532 5.978.823-1.2 1.546-1.591 3.111-4.107 5.134-8.225 5.29-14.655 5.837-15.826-.106-.303.572-4.233.437-5.348-.89-.467-3.526.542-4.524.719-.18.111-.969.351-1.204.317-.3.235-2.689 1.04-3.277 1.273-.572.226-1.046.44-1.635.644-.59.205-1.05.628-1.691.743-.179.26-2.243 1.315-2.74 1.641-1.929 1.262-3.467 2.409-5.096 4.072-.958.965-1.388 1.713-2.213 2.736-2.791 5.098-4.188 8.865-3.675 14.665.075.859.618 3.978.517 4.421-1.033.229-2.357.67-3.447.969-1.489.397-9.715 2.366-10.721 2.35.385-.402 1.87-1.369 2.418-1.781 2.47-1.812 4.892-4.512 6.648-7.013 2.299-3.268 5.867-10.128 6.449-13.99-1.392-.645-8.921.476-10.781.82-3.204.587-7.031 1.824-9.892 3.413-3.227 1.795-6.559 4.317-8.236 7.76-.959 1.967-2.227 4.801-2.861 6.868-.566 1.853-.456 4.514-1.008 5.967-1.061.352-13.05.649-14.133.382.509-.565 2.205-1.047 2.976-1.458.977-.523 1.834-.951 2.815-1.513 3.633-2.094 7.534-5.898 10.154-9.176.804-1.005 4.111-5.351 4.254-6.318-.979-1.02-9.933-1.532-11.752-1.496-3.601.077-7.294.397-10.764 1.478-3.545 1.103-6.537 2.932-9.216 5.588-5.097 5.073-5.9 10.628-6.582 11.564-.215.191-.174.128-.538.118-6.774-.257-14.913-2.676-16.759-2.76-.506.864-1.602 6.061-1.439 7.052 1.934.731 13.86 1.49 17.266 1.437.663-.01 1.782-.161 2.351-.077.327.914.447 1.548.869 2.489.867 1.946 2.931 5.17 4.248 6.716 3.377 3.929 5.631 5.015 10.281 7.072 5.492 2.422 6.867 3.289 12.771 4.185 1.077.156 11.379 1.442 11.56.844-.455-.834-.8-1.768-1.26-2.618-2.987-5.587-6.192-9.793-10.978-13.873-.836-.714-1.817-1.275-2.601-1.926-.59-.338-1.563-.827-1.917-1.346.406-.298 1.923-.398 2.448-.333.803-.274 5.413-.279 6.627-.348 1.931-.11 1.523-.233 2.542 1.333 6.242 9.557 18.057 13.639 29.026 13.266 1.764-.061 12.157-.563 12.899-1.636-.381-1.64-6.752-7.802-8.29-9.051-5.116-4.141-6.922-4.681-12.688-7.29.5-.243 5.127-1.35 6.142-1.627 1.016-.278 2.063-.568 3.085-.829 1.838-.475 1.385-.279 2.796 1.05 3.939 3.726 8.267 6.131 13.546 7.405 6.241 1.515 13.667.905 19.945-.853l5.921-1.968c.63-.512 2.8-.992 3.326-1.658l-.272-.496c-.356-.182-5.376-4.633-11.149-7.53-3.189-1.6-6.6-2.903-10.133-3.528-.635-.113-2.621-.27-3.053-.458.892-.357 2.112-1.074 3.016-1.521 8.322-4.162 5.559-4.074 9.562-1.742 9.128 5.299 19.43 5.191 29.148.904 1.723-.756 11.556-5.792 11.792-7.125-1.119-1.487-10.255-4.948-12.418-5.575-2.636-.751-6.087-1.354-8.86-1.487-.555-.024-2.402.014-2.76-.1l-3.203.465 1.548-1.414c1.744-1.504 3.561-2.99 5.266-4.525 1.58-1.427 1.137-1.619 3.177-.951 1.329.427 2.596.936 3.944 1.318 9.316 2.619 17.994.548 25.846-5.294 1.906-1.42 3.566-2.88 5.283-4.532.856-.82 4.695-4.421 4.787-5.302-1.777-1.122-11.215-2.792-13.679-2.94-3.182-.189-6.126-.139-9.287.44-.442.079-2.6.713-2.777.636-.336.26-1.645.668-2.064.54.166-.321 1.314-1.786 1.549-1.901l4.951-6.923c7.715 1.424 14.167 1.541 21.135-2.869 6.676-4.225 12.115-11.303 15.14-18.642-2.918-.859-10.883-.645-14.036-.144-2.359.371-4.141.898-6.406 1.568-1.889.561-5.64 2.684-5.927 2.709 1.703-4.108 2.517-5.651 4.074-10.093 1.007.139 4.121-.121 5.241-.245 5.154-.594 9.572-2.645 13.415-6.285 5.493-5.199 9.518-14.663 10.759-22.045-1.022-.253-4.964.488-6.21.719-4.399.827-10.168 2.684-13.917 5.35-.285.201-2.356 1.821-2.389 1.834l-1.699 1.672.124-1.408.699-7.075c.041-.673.045-1.713.175-2.347.609-.251 1.771-.41 2.471-.567 2.216-.528 4.992-1.585 6.932-2.842 3.386-2.16 5.674-4.281 7.588-7.905 2.221-4.209 3.47-7.606 4.258-12.274.429-2.63.776-8.287.457-10.889-.833-.023-5.124 1.676-6.088 2.138-4 1.88-7.723 3.907-10.926 7.134-3.163 3.164-2.771 3.808-4.477 6.073-.432-3.192-.309-7.999-.886-12.04.496-.354 1.697-.848 2.31-1.137 6.325-2.93 10.449-9.494 11.852-16.25.751-3.614.746-7.366.339-11.009-.196-1.764-1.207-8.904-2.081-10.014-1.461.03-7.391 4.931-8.709 6.147-1.568 1.431-2.609 2.496-3.877 4.235-2.006 2.744-1.923 3.159-3.297 5.812-.237-.576-.461-1.729-.607-2.334-.169-.764-.388-1.563-.578-2.309-.203-.778-.415-1.533-.611-2.295-.138-.561-.426-1.81-.609-2.268 1.49-1.371 3.361-1.71 6.429-4.929 6.452-6.773 7.204-16.519 5.288-25.243-.508-2.319-1.2-5.367-2.093-7.528-.856-2.063-1.57-1.114-2.977.035-6.743 5.47-10.622 9.921-12.972 18.649-.488-.483-1.037-1.858-1.29-2.55-.491-1.296-.615-1.648-.195-2.981.546-1.713.641-4.542.498-6.337-.351-4.322-1.415-7.058-3.632-10.687-1.984-3.256-4.804-6.619-7.647-9.11-3.017-2.636-7.38-6.112-11.013-7.66-1.7 7.439-1.488 17.726 2.531 24.274 2.192 3.564 5.379 6.72 8.879 8.969 4.109 2.635 3.196.371 4.928 4.33l2.206 5.384c-.71-.457-1.841-1.583-2.525-2.191-2.599-2.292-5.829-4.316-8.887-5.885-1.973-1.005-12.69-5.707-14.364-5.215-.7.793.402 4.506.692 5.567 1.56 5.753 3.416 10.213 7.373 14.84 2.852 3.349 6.742 5.943 10.791 7.564 6.46 2.558 10.003 1.888 12.851 2.757.551 1.431 3.732 15.374 3.6 16.224-1.288-1.006-2.111-4.815-10.52-10.953-2.431-1.772-13.71-8.302-16.173-7.935-.393 1.089.543 5.759.798 7.115 1.268 7.062 4.427 13.618 9.701 18.396 4.119 3.736 10.219 6.151 15.598 7.347.614.131 1.499.217 2.038.369.682.188.638.927.737 1.579.275 1.825.853 9.901.581 10.893-.524-.674-1.184-2.097-1.725-2.914-2.124-3.236-3.777-5.375-6.615-8.149-1.839-1.799-3.72-3.319-5.786-4.838-1.275-.946-5.374-4.091-6.613-4.452-.814 1.664-1.062 9.855-.878 11.979.692 7.693 3.683 14.364 9.517 19.426 3.378 2.927 8.066 4.866 12.109 6.714-.105 1.213-.122 2.344-.269 3.593-.133 1.066-1.274 10.102-1.738 10.808l-.068.065s-.031.041-.063.054c.232-2.052-1.224-5.554-1.917-7.479-1.577-4.407-5.318-9.468-8.26-13.005-.849-1.018-4.814-5.351-5.744-5.727-1.545 1.469-3.69 10.3-3.972 12.71-.492 4.078-.015 7.168.974 11.049 1.541 6.098 7.025 11.725 12.117 15.071.705.468 2.113 1.228 2.663 1.751-.589 2.844-4.179 10.425-5.692 13.154-.465-1.962 1.422-4.704-2.409-15.084-.888-2.416-5.749-12.119-7.527-12.877-1.361.832-3.683 5.064-4.514 6.585-3.752 6.889-5.486 14.287-2.49 21.827 1.818 4.579 4.216 7.488 7.564 10.97 1.338 1.406 1.642 1.403.396 3.123-1.155 1.571-6.216 8.474-7.057 8.867.024-.937.703-2.836.867-4.065.451-3.256.325-7.67-.316-10.805-.439-2.113-2.853-11.905-4.133-12.961-1.862.925-6.72 6.115-8.104 7.911-2.671 3.486-4.834 7.502-5.486 11.89-.923 6.166.52 10.366 3.153 15.556.665 1.317 2.542 3.972 2.703 4.421-.864.898-9.536 7.994-10.128 8.022-.041-.573 1.191-3.139 1.48-3.866 1.389-3.446 1.94-6.781 2.11-10.511.106-2.188-.041-10.984-1.079-12.477-1.329-.062-7.857 4.215-9.275 5.238-3.521 2.534-5.634 5.07-7.734 8.911l-.03.068z" fill="url(#b)" fill-opacity=".07"/><path d="m335.602 81.561-3.018 1.616c-.379.39-2.765 1.792-3.436 2.246-3.606 2.457-7.077 5.757-9.377 9.512-1.874 3.045-2.929 6.176-3.243 9.722-.353 3.881.535 5.444.809 8.365-.381.363-8.001 4.545-8.228 4.554 2.79-7.86 2.792-12.327 1.498-20.117-.075-.466-.566-2.277-.567-2.426-1.476.064-7.423 4.213-8.848 5.315-2.772 2.141-5.841 4.817-7.795 7.774-3.842 5.794-5.315 10.678-4.324 17.376.343 2.275 1.003 3.333 1.313 4.834-1.541 1.187-3.221 2.448-4.704 3.714-.734.629-4.182 3.602-4.688 3.829.725-3.341 1.225-3.219 1.366-7.49.136-4.382-.91-8.707-2.293-12.773-.313-.948-1.988-5.343-2.546-5.816-2.381 1.757-5.863 5.445-7.696 7.818-2.903 3.75-4.48 6.993-6.042 11.473-1.295 3.716-1.336 7.178-.552 10.957.274 1.31.971 3.589 1.57 4.756.381.761.711 1.486 1.14 2.227.389.683.916 1.44 1.229 2.144-.316.486-1.395 1.548-1.841 2.031l-5.273 6.148c-.286-2.345-.076-4.379-.638-6.816-.443-1.952-1.109-4.393-1.959-6.197-1.04-2.184-5.189-10.103-7.073-11.069-1.735 1.481-5.334 8.869-6.261 11.188-1.447 3.61-2.486 7.736-2.475 11.626.01 5.501 1.528 9.801 4.638 14.074 1.023 1.405 2.314 2.615 3.303 3.978-.224.607-.886 1.619-1.215 2.316-.383.822-.755 1.649-1.122 2.465-.737 1.67-1.447 3.366-2.19 5.02-.182-.187-.811-2.653-.935-3.127-.735-2.674-2.856-6.586-4.365-8.784-1.898-2.786-6.932-8.449-9.697-10.149-1.75 3.641-3.076 8.671-3.565 12.683-.458 3.727-.498 7.46.297 11.122.78 3.574 1.928 6.603 4.056 9.557 2.492 3.45 5.012 5.26 8.281 7.829-.297 1.807-.722 3.667-1.073 5.478l-.923 5.285c-1.015-.724-2.194-7.476-13.362-15.326-.919-.642-5.879-4.079-6.59-4.049-.201.129-.103-.004-.197.334-.363 1.413-.458 8.764-.383 10.231.025.58.3 3.041.206 3.38.156.338.162.598.156.974.024.038.802 3.827.962 4.37.191.652.387 1.536.668 2.132.133.301.714 1.785.734 2.01l.866 2.041c.733.616 2.34 6.322 10.915 11.286 1.377.801 2.819 1.453 4.187 2.304.727.45.491.903.496 1.772.033 1.774.451 8.914.369 9.65-.623-.446-3.799-7.144-16.293-12.726-1.292-.573-6.182-2.775-7.378-2.536-.323 1.837 2.247 11.331 2.239 11.409.169.249 1.4 3.694 1.42 3.92.702.75 3.013 8.684 10.903 14.381 3.069 2.211 6.43 3.75 10.081 4.71 2.87.758 2.039.397 2.841 3.101.179.619 1.149 3.815 1.09 4.195.403.527 1.068 3.699 1.214 3.817-.32-.112-2.307-1.813-2.802-2.19a25.3 25.3 0 0 0-3.197-2.037c-2.253-1.18-5.281-2.574-7.684-3.318-1.657-.611-10.532-2.7-11.83-2.315-.274 1.208 1.752 4.821 1.696 5.406.281.325.67 1.157.721 1.585.207.131.84 1.434.84 1.705.222.218 1.656 2.83 1.689 3.088.236.184 2.547 3.718 3.01 4.351 1.085 1.473 2.324 2.836 3.603 4.136 5.327 5.383 12.019 8.529 19.524 8.981 1.717.109 2.153-.108 2.505.627.796 1.685 4.638 8.307 4.875 9.127-4.861-2.176-8.709-3.655-14.048-4.306-2.027-.243-10.824-.66-12.381.046.088 1.527 6.216 8.828 7.519 10.314 6.46 7.324 15.46 12.919 25.474 12.836a26.441 26.441 0 0 0 3.23-.224c1.162-.16 2.604-.631 3.017-.127.905 1.07 3.582 3.882 4.114 4.871.502.421 2.274 2.557 2.365 3.138-.556.097-2.132-.397-2.749-.583-2.222-.341-3.932-.677-6.213-.759-4.519-.173-9.929.554-14.315 1.833-.783.229-1.906.663-2.645.789.57 1.235 7.085 6.701 8.519 7.824 4.717 3.725 6.228 4.096 11.756 6.466 6.629 2.835 10.172 3.559 17.461 1.928 3.457-.776 2.482-.806 4.895-1.695.531.325 2.788 2.86 3.463 3.519 1.852 1.832 10.065 9.604 11.371 9.9 1.157-1.786 3.013-4.122 3.895-5.974-2.44-1.599-4.995-3.479-7.368-5.199-1.381-1.005-5.665-4.27-6.464-5.524.464-1.099 1.128-2.205 1.64-3.296a24.274 24.274 0 0 0 2.34-9.491c.309-7.786-3.498-13.972-8.5-19.405-1.381-1.492-7.51-7.331-9.141-7.606-.669.996-1.473 6.158-1.709 7.612-.38 2.394-.499 4.793-.476 7.199.093 7.92 2.601 11.607 2.766 12.897-1.38-1.221-9.184-9.724-9.622-10.929 2.11-3.349 2.432-1.693 5.238-8.071 1.608-3.649 2.383-5.222 2.299-9.279-.111-5.449-2.11-10.188-4.802-14.727-1.295-2.173-3.114-4.505-4.715-6.459-1.561-1.895-2.087-2.868-2.884-1.697-.848 1.257-1.683 3.304-2.301 4.729-1.899 4.47-3.348 9.175-3.648 14.027-.048.656.062 3.953.004 4.118.199.33.519 2.81.474 3.278-.427-.442-2.045-2.904-2.094-3.399-.48-.289-4.933-8.353-5.113-9.122 1.078-1.089 3.083-2.223 4.367-3.332 4.794-4.162 7.96-10.248 7.902-16.731-.033-4.144-.802-6.711-1.975-10.563-.462-1.514-3.672-8.985-4.931-9.301-1.688.798-6.873 8.473-7.823 10.389-1.335 2.684-3.369 7.556-3.928 10.576-.197 1.092-.154 2.085-.322 3.109-.84-.946-1.826-5.137-2.363-6.602-.24-.659-1.87-6.281-1.853-6.653.641-.385 2.917-1.05 4.755-2.039 6.208-3.359 9.136-6.436 11.587-13.333 1.396-3.916 1.578-7.614 1.098-11.667-.195-1.615-1.567-9.439-2.591-10.235l-.957.478c-.878.689-1.877 1.352-2.787 2.054-.552.424-2.241 1.98-2.701 2.132-.314.663-5.449 4.094-8.913 10.593-.568 1.067-1.874 4.413-2.434 5.037-.471-.584-.799-8.023-.899-9.704-.06-.893-.233-2.376-.188-3.209.404-.204 2.405-.446 3.036-.565 1.99-.369 3.974-.998 5.846-1.703.519-.194 2.45-1.157 2.748-1.177.341-.299 1.107-.67 1.568-.944a13.03 13.03 0 0 0 1.407-1.028c.535-.445 2.472-2.299 2.786-2.447.138-.319 1.607-1.916 1.98-2.472.664-.984 1.193-2.204 1.683-3.304 1.037-2.299 1.929-4.417 2.342-6.918.476-2.826.668-6.304.553-9.196-.018-.414-.171-2.701-.13-2.886l-.234-.251c-.643.087-3.21 1.18-3.897 1.519-1.24.613-2.517 1.25-3.801 1.844-1.406.812-2.662 1.432-4.063 2.326-2.582 1.643-5.502 4.004-7.565 6.304-2.033 2.26-2.411 3.463-3.285 4.478-.309-.472.704-5.813.866-6.731.195-1.148.394-2.307.6-3.449.157-.907.141-2.661 1.242-2.833 1.21-.179 4.987.186 9.269-.488.561-.082 2.555-.611 2.878-.566.194-.173 1.657-.635 2.079-.818 1.601-.686 2.303-.91 3.896-1.911.545-.346 1.334-1.073 1.881-1.242.608-1.036 5.829-3.24 9.567-15.684.3-.994.55-1.996.74-3.01.081-.493.334-2.563.411-2.8-1.301-.551-6.089.744-7.667 1.075-7.389 1.587-14.474 5.054-19.665 10.831 1.57-4.925 3.565-8.797 5.736-13.285.923.116 2.195.614 3.199.819 2.628.557 6.188 1.059 8.822.996 10.019-.216 17.782-5.853 22.759-14.565.601-1.053 3.097-5.412 2.828-6.369-.709-.429-6.956-.322-8.166-.265-6.611.341-12.581 1.448-18.605 4.413-1.267.615-2.933 1.937-3.302 2.088 1.242-2.196 7.623-10.11 9.483-11.483 4.454 1.688 8.27 3.938 13.19 4.34 7.774.65 14.314-1.59 20.526-6.383 2.299-1.778 6.669-6.3 8.117-8.759-.965-.567-6.456-1.595-7.88-1.833-4.431-.771-10.048-1.326-14.537-.66-1.166.171-2.248.298-3.401.529-.808.164-2.58.668-3.242.706.945-1.269 4.151-3.683 5.521-4.808 4.85-3.989 3.946-3.027 5.941-1.648 4.644 3.193 10.211 5.837 15.853 6.456 8.597.94 15.988-2.353 22.972-7.135.893-.601 1.941-1.501 2.788-2.027l.412-.647-.727-.599c-4.525-2.315-9.984-4.358-14.947-5.481-3.799-.863-6.365-1.136-10.158-1.103-.636.009-2.71.301-3.096.188-.396.275-2.596.552-3.121.487.257-.349 1.932-1.45 2.323-1.47.834-.83 7.65-4.588 9.471-5.599 2.171-1.211 2.349-1.5 3.477-.672 1.084.809 2.11 1.782 3.175 2.636 3.53 2.817 7.663 5.003 12.037 6.087 8.155 2.021 14.704.123 21.935-3.226.858-.399 6.235-3.144 5.97-4.112-.926-1.417-10.217-5.582-12.179-6.338-3.112-1.201-6.151-2.086-9.427-2.667-.575-.101-2.611-.293-2.95-.454-.441.107-2.28-.054-2.771-.227.42-.21 2.201-.886 2.571-.889.391-.263 4.575-1.806 5.145-1.938.436-.095 2.705.957 3.382 1.156 13.439 3.919 24.96-2.551 32.943-14.13-3.592-1.612-9.201-2.46-13.179-2.818-7.164-.63-16.369.32-22.16 5.294-1.405 1.205-3.321 3.163-4.246 4.752-.678 1.168-1.116 1.357-2.344 1.853-.7.279-1.961.788-2.684.786.713-1.342 1.429-2.386 2.105-3.853.621-1.341 1.26-2.783 1.688-4.195 1.27-4.174 1.349-10.273.93-14.53-.138-1.44.026-2.547-1.725-1.94-.6.2-2.642 1.265-2.929 1.29l.078.033z" fill="url(#c)" fill-opacity=".07"/><path d="M53.786 111.513c-.701 1.442-1.322 2.796-1.903 4.293-.62 1.615-.69 2.348-1.024 3.944.011.032-.05 3.12-.022 3.611.374 5.76 2.414 9.019 2.557 10.328-.628.559-11.388 5.681-12.652 5.716.848-1.183 1.578-1.558 3.195-4.041 5.303-8.117 5.593-14.543 6.165-15.702-.1-.305.66-4.22.548-5.337-.88-.486-3.537.468-4.538.624-.183.108-.976.331-1.21.292-.305.229-2.71.985-3.303 1.205-.577.214-1.056.418-1.649.61-.593.193-1.062.606-1.706.707-.184.257-2.27 1.269-2.773 1.584-1.955 1.222-3.516 2.337-5.18 3.965-.978.945-1.423 1.684-2.27 2.689-2.895 5.04-4.37 8.777-3.978 14.586.057.86.535 3.99.426 4.432-1.039.207-2.371.62-3.468.896-1.496.366-9.761 2.164-10.767 2.127.393-.394 1.899-1.33 2.454-1.731 2.508-1.76 4.986-4.409 6.793-6.873 2.367-3.219 6.076-10.003 6.739-13.853-1.379-.673-8.93.291-10.796.596-3.215.521-7.068 1.678-9.961 3.207-3.264 1.728-6.647 4.18-8.396 7.587-.999 1.946-2.326 4.754-3.002 6.807-.605 1.841-.55 4.503-1.132 5.945-1.068.33-13.061.377-14.138.088.52-.554 2.226-1.001 3.005-1.395.988-.504 1.854-.913 2.846-1.455 3.676-2.018 7.655-5.74 10.342-8.963.825-.988 4.222-5.265 4.385-6.228-.958-1.041-9.899-1.739-11.718-1.74-3.602.002-7.301.246-10.793 1.254-3.567 1.029-6.597 2.796-9.33 5.395-5.2 4.967-6.119 10.503-6.82 11.425-.22.187-.177.124-.541.107-6.767-.398-14.854-2.986-16.698-3.108-.524.853-1.727 6.027-1.586 7.021 1.919.771 13.827 1.777 17.233 1.795.663.004 1.785-.124 2.352-.028.309.92.415 1.557.817 2.506.826 1.964 2.823 5.23 4.108 6.803 3.295 3.999 5.526 5.131 10.132 7.284 5.44 2.536 6.796 3.432 12.68 4.45 1.075.178 6.598 1.157 6.791.562-.437-.843 2.443-2.141 2-3-2.87-5.648-4.443-9.041-9.143-13.219-.82-.732-1.79-1.313-2.56-1.98-.584-.35-1.546-.86-1.889-1.386.412-.289 1.931-.358 2.455-.282.809-.257 5.417-.166 6.633-.21 1.932-.07 1.527-.201 2.513 1.385 6.042 9.685 17.77 14.012 28.744 13.866 1.765-.024 12.167-.309 12.93-1.367-.346-1.648-6.588-7.941-8.1-9.221-5.028-4.247-6.823-4.824-12.534-7.552.506-.233 5.154-1.244 6.175-1.5s2.075-.524 3.101-.764c1.848-.437 1.39-.251 2.774 1.108 3.86 3.807 8.138 6.301 13.39 7.685 6.207 1.644 13.644 1.188 19.958-.439l5.96-1.844c.641-.499 2.82-.934 3.36-1.588l-.261-.503c-.352-.189-5.279-4.743-10.99-7.759-3.156-1.666-6.539-3.04-10.058-3.738-.633-.127-2.615-.325-3.043-.521.9-.339 2.133-1.031 3.047-1.459 8.406-3.988 5.642-3.958 9.596-1.543 9.017 5.488 19.318 5.594 29.123 1.51 1.739-.72 11.674-5.551 11.937-6.878-1.088-1.51-10.15-5.161-12.3-5.832-2.62-.806-6.057-1.48-8.826-1.671-.555-.036-2.402-.036-2.758-.158l-3.212.399 1.577-1.381c1.776-1.468 3.623-2.916 5.36-4.415 1.609-1.394 1.17-1.595 3.196-.885 1.32.455 2.575.99 3.915 1.4 9.26 2.812 17.979.921 25.951-4.756 1.935-1.38 3.625-2.805 5.376-4.421.872-.802 4.786-4.323 4.896-5.201-1.753-1.16-11.155-3.026-13.615-3.225-3.178-.255-6.122-.266-9.294.247-.444.07-2.614.66-2.79.579-.342.253-1.658.633-2.074.497.172-.317 1.35-1.758 1.587-1.868l5.094-6.82c7.684 1.584 14.132 1.836 21.19-2.429 6.763-4.085 12.348-11.048 15.525-18.323-2.9-.92-10.868-.87-14.03-.435-2.367.322-4.159.812-6.437 1.434-1.901.522-5.695 2.567-5.983 2.585 1.788-4.072 2.634-5.597 4.284-10.005 1.003.159 4.122-.037 5.244-.137 5.166-.487 9.625-2.445 13.542-6.005 5.601-5.084 9.822-14.462 11.215-21.816-1.017-.275-4.972.384-6.223.59-4.416.734-10.221 2.471-14.025 5.058-.289.196-2.394 1.772-2.426 1.785l-1.734 1.637.153-1.406.846-7.059c.055-.671.081-1.712.224-2.343.614-.238 1.779-.373 2.482-.515 2.227-.482 5.023-1.481 6.99-2.697 3.429-2.09 5.762-4.163 7.75-7.746 2.308-4.162 3.628-7.533 4.512-12.183.484-2.62.949-8.269.683-10.878-.832-.04-5.157 1.57-6.13 2.012-4.039 1.796-7.803 3.746-11.073 6.906-3.227 3.097-2.849 3.749-4.602 5.978-.365-3.2-.142-8.004-.636-12.056.503-.343 1.715-.813 2.333-1.09 6.385-2.796 10.645-9.274 12.188-16 .826-3.597.899-7.348.567-10.999-.159-1.767-1.021-8.926-1.872-10.054-1.462-.001-7.492 4.776-8.834 5.964-1.599 1.399-2.661 2.442-3.965 4.153-2.063 2.703-1.988 3.12-3.417 5.743-.225-.581-.425-1.739-.558-2.346-.154-.767-.356-1.57-.531-2.32-.186-.783-.382-1.542-.562-2.308-.127-.564-.389-1.818-.562-2.28 1.518-1.34 3.396-1.64 6.53-4.794 6.591-6.638 7.545-16.366 5.811-25.128-.46-2.33-1.089-5.391-1.936-7.57-.813-2.08-1.547-1.147-2.978-.026-6.854 5.328-10.825 9.697-13.356 18.374-.478-.492-.998-1.879-1.237-2.576-.464-1.306-.58-1.66-.132-2.984.581-1.702.734-4.528.629-6.326-.261-4.328-1.268-7.085-3.41-10.76-1.915-3.297-4.665-6.717-7.455-9.267-2.961-2.697-7.252-6.263-10.852-7.887-1.853 7.403-1.855 17.691 2.026 24.322 2.118 3.609 5.238 6.83 8.691 9.151 4.054 2.72 3.188.437 4.837 4.432l2.094 5.429c-.701-.472-1.808-1.622-2.479-2.244-2.551-2.345-5.738-4.435-8.763-6.068-1.952-1.046-12.568-5.97-14.253-5.512-.716.778.308 4.514.577 5.58 1.44 5.784 3.203 10.282 7.063 14.99 2.781 3.407 6.617 6.082 10.632 7.787 6.405 2.691 9.96 2.095 12.79 3.023.521 1.442 3.411 15.448 3.262 16.295-1.267-1.032-2.011-4.858-10.29-11.169-2.393-1.822-13.535-8.585-16.004-8.27-.416 1.081.423 5.77.65 7.13 1.12 7.088 4.143 13.707 9.316 18.594 4.04 3.82 10.089 6.363 15.442 7.67.612.144 1.494.248 2.03.411.678.202.619.94.704 1.594.237 1.83.647 9.917.354 10.903-.509-.685-1.139-2.122-1.663-2.95-2.057-3.28-3.665-5.451-6.444-8.284-1.802-1.837-3.651-3.396-5.685-4.958-1.255-.971-5.288-4.201-6.52-4.588-.847 1.647-1.266 9.831-1.126 11.959.532 7.705 3.384 14.437 9.112 19.62 3.316 2.996 7.963 5.031 11.966 6.963-.13 1.211-.17 2.34-.343 3.587-.155 1.063-1.484 10.073-1.963 10.769l-.069.064s-.031.04-.064.053c.275-2.047-1.109-5.578-1.761-7.517-1.485-4.439-5.121-9.577-7.988-13.174-.828-1.036-4.702-5.45-5.624-5.845-1.575 1.436-3.903 10.22-4.235 12.624-.576 4.067-.164 7.166.744 11.067 1.414 6.128 6.78 11.869 11.801 15.32.695.482 2.088 1.27 2.627 1.805-.648 2.832-4.396 10.337-5.965 13.033-.424-1.97 1.519-4.673-2.095-15.13-.837-2.434-5.496-12.236-7.257-13.03-1.378.802-3.788 4.985-4.65 6.489-3.894 6.809-5.782 14.17-2.943 21.77 1.722 4.616 4.06 7.574 7.334 11.125 1.308 1.434 1.613 1.437.33 3.13-1.186 1.547-6.39 8.343-7.24 8.719.045-.937.763-2.821.953-4.046.519-3.246.484-7.662-.092-10.81-.395-2.12-2.605-11.961-3.863-13.044-1.88.887-6.845 5.975-8.267 7.742-2.742 3.429-4.988 7.4-5.731 11.773-1.051 6.145.304 10.374 2.829 15.618.638 1.331 2.459 4.024 2.61 4.476-.882.88-9.7 7.795-10.292 7.811-.029-.574 1.256-3.114 1.56-3.835 1.46-3.416 2.08-6.739 2.328-10.465.152-2.185.187-10.983-.82-12.496-1.327-.09-7.942 4.05-9.38 5.043-3.574 2.461-5.74 4.952-7.92 8.749l-.03.067z" fill="url(#d)" fill-opacity=".03"/><path d="m-31.9-132.01-3.051 1.553c-.388.382-2.802 1.734-3.482 2.174-3.657 2.381-7.196 5.609-9.573 9.315-1.937 3.006-3.057 6.114-3.444 9.653-.434 3.872.422 5.454.634 8.38-.388.354-8.093 4.377-8.32 4.382 2.952-7.801 3.047-12.266 1.915-20.082-.065-.467-.519-2.288-.517-2.437-1.476.033-7.508 4.058-8.956 5.13-2.815 2.083-5.94 4.695-7.954 7.611-3.962 5.712-5.537 10.565-4.685 17.282.296 2.281.934 3.353 1.213 4.86-1.566 1.154-3.271 2.38-4.78 3.615-.747.614-4.256 3.514-4.767 3.73.794-3.324 1.291-3.192 1.52-7.46.228-4.377-.728-8.723-2.026-12.817-.293-.954-1.876-5.383-2.425-5.867-2.417 1.707-5.975 5.322-7.856 7.657-2.98 3.688-4.625 6.897-6.279 11.344-1.373 3.689-1.485 7.149-.78 10.943.247 1.316.896 3.608 1.471 4.788.365.768.68 1.5 1.094 2.25.374.691.886 1.459 1.184 2.17-.326.478-1.427 1.518-1.883 1.992l-5.4 6.036c-.237-2.35.016-4.379-.496-6.827-.402-1.961-1.017-4.416-1.83-6.237-.995-2.205-4.977-10.208-6.841-11.213-1.766 1.445-5.518 8.756-6.493 11.056-1.521 3.579-2.646 7.681-2.716 11.571-.104 5.5 1.325 9.83 4.345 14.167.993 1.426 2.26 2.663 3.22 4.046-.236.602-.92 1.6-1.263 2.29-.4.814-.789 1.633-1.173 2.441-.772 1.655-1.516 3.336-2.294 4.974-.178-.19-.756-2.67-.87-3.145-.679-2.69-2.719-6.645-4.181-8.873-1.84-2.825-6.756-8.591-9.484-10.348-1.826 3.603-3.256 8.605-3.828 12.605-.536 3.717-.653 7.449.066 11.126.705 3.59 1.79 6.642 3.856 9.64 2.421 3.5 4.902 5.363 8.117 7.999-.334 1.8-.798 3.651-1.186 5.454l-1.033 5.266c-1-.746-2.038-7.521-13.041-15.6-.906-.662-5.793-4.202-6.504-4.186-.204.125-.104-.007-.205.33-.392 1.405-.639 8.752-.595 10.22.013.58.237 3.047.136 3.383.149.342.149.602.136.978.023.038.722 3.843.87 4.39.178.655.356 1.543.624 2.144.127.304.677 1.8.692 2.026l.824 2.058c.72.63 2.207 6.369 10.678 11.51 1.36.83 2.788 1.511 4.138 2.39.717.466.472.914.459 1.782-.004 1.775.266 8.922.169 9.656-.614-.459-3.651-7.221-16.026-13.061-1.279-.6-6.122-2.904-7.323-2.69-.361 1.83 2.011 11.376 2.001 11.454.164.253 1.323 3.722 1.339 3.948.685.765 2.831 8.746 10.601 14.604 3.022 2.275 6.351 3.883 9.981 4.92 2.854.817 2.03.439 2.776 3.159.166.622 1.07 3.838 1.002 4.217.393.535.991 3.72 1.135 3.84-.317-.118-2.269-1.86-2.756-2.247-1-.773-2.043-1.484-3.154-2.103-2.228-1.226-5.226-2.683-7.613-3.477-1.644-.645-10.473-2.918-11.78-2.56-.299 1.201 1.652 4.856 1.584 5.44.274.33.646 1.17.688 1.6.204.134.809 1.45.805 1.722.216.222 1.596 2.863 1.624 3.122.232.189 2.469 3.77 2.918 4.413 1.055 1.495 2.265 2.883 3.517 4.21 5.214 5.492 11.839 8.776 19.333 9.385 1.714.144 2.155-.064 2.492.678.761 1.702 4.464 8.401 4.684 9.226-4.815-2.276-8.631-3.835-13.956-4.596-2.021-.285-10.808-.885-12.379-.212.057 1.53 6.031 8.956 7.303 10.469 6.307 7.456 15.188 13.237 25.202 13.361a26.336 26.336 0 0 0 3.234-.156c1.165-.135 2.616-.577 3.019-.064.883 1.088 3.5 3.956 4.012 4.955.493.432 2.22 2.604 2.299 3.186-.558.086-2.123-.44-2.736-.639-2.214-.387-3.917-.759-6.196-.888-4.515-.267-9.939.347-14.35 1.535-.788.213-1.92.623-2.661.734.544 1.247 6.944 6.847 8.355 7.999 4.638 3.822 6.141 4.224 11.618 6.709 6.57 2.972 10.097 3.769 17.418 2.29 3.472-.703 2.498-.754 4.93-1.593.523.336 2.727 2.918 3.388 3.591 1.813 1.87 9.863 9.811 11.163 10.134 1.194-1.762 3.098-4.059 4.018-5.892-2.406-1.649-4.92-3.582-7.259-5.351-1.36-1.033-5.574-4.387-6.347-5.657.486-1.089 1.173-2.181 1.709-3.261a24.284 24.284 0 0 0 2.535-9.441c.472-7.777-3.206-14.041-8.095-19.577-1.348-1.52-7.355-7.486-8.98-7.794-.69.982-1.6 6.125-1.867 7.575-.43 2.385-.598 4.781-.626 7.187-.071 7.92 2.36 11.658 2.498 12.951-1.354-1.249-8.98-9.912-9.393-11.126 2.18-3.304 2.467-1.642 5.405-7.96 1.684-3.615 2.49-5.171 2.491-9.229.003-5.451-1.898-10.23-4.495-14.824-1.25-2.2-3.02-4.569-4.58-6.555-1.521-1.927-2.026-2.91-2.848-1.757-.874 1.239-1.751 3.268-2.398 4.68-1.992 4.429-3.538 9.104-3.94 13.948-.061.655-.019 3.954-.081 4.117.193.334.46 2.82.406 3.288-.418-.451-1.984-2.946-2.022-3.442-.474-.3-4.759-8.455-4.923-9.227 1.1-1.066 3.129-2.158 4.435-3.24 4.879-4.062 8.171-10.08 8.248-16.564.053-4.143-.662-6.725-1.755-10.601-.43-1.523-3.485-9.06-4.736-9.401-1.705.762-7.048 8.328-8.038 10.224-1.39 2.655-3.525 7.484-4.147 10.492-.22 1.087-.197 2.082-.386 3.102-.821-.964-1.719-5.175-2.225-6.65-.227-.665-1.74-6.318-1.715-6.69.649-.372 2.938-.989 4.796-1.94 6.277-3.23 9.268-6.244 11.862-13.09 1.477-3.886 1.736-7.58 1.34-11.641-.161-1.618-1.37-9.47-2.377-10.287l-.968.458c-.892.67-1.904 1.313-2.828 1.996-.561.412-2.282 1.933-2.746 2.075-.327.656-5.532 3.98-9.13 10.406-.59 1.055-1.966 4.373-2.539 4.985-.458-.593-.632-8.038-.697-9.72-.042-.895-.184-2.38-.121-3.213.409-.195 2.414-.396 3.047-.502 1.997-.327 3.994-.915 5.88-1.58.523-.184 2.474-1.107 2.772-1.12.347-.292 1.121-.647 1.588-.912.471-.275.99-.652 1.427-.998.545-.434 2.519-2.247 2.836-2.389.145-.316 1.647-1.882 2.032-2.43.684-.97 1.238-2.178 1.751-3.268 1.084-2.277 2.02-4.376 2.485-6.868.535-2.816.798-6.288.744-9.183-.009-.414-.115-2.704-.07-2.888l-.229-.255c-.645.073-3.234 1.113-3.927 1.437-1.253.587-2.543 1.198-3.839 1.765-1.422.783-2.691 1.376-4.111 2.241-2.615 1.589-5.583 3.89-7.694 6.146-2.08 2.216-2.482 3.412-3.377 4.409-.299-.479.825-5.798 1.005-6.713.219-1.143.443-2.297.673-3.436.175-.903.195-2.657 1.3-2.806 1.213-.154 4.982.29 9.277-.295.563-.07 2.567-.558 2.889-.506.197-.17 1.67-.6 2.096-.775 1.614-.653 2.321-.861 3.935-1.83.552-.334 1.356-1.045 1.906-1.202.629-1.024 5.895-3.118 9.89-15.482.32-.988.592-1.984.803-2.994.092-.49.387-2.555.47-2.79-1.29-.579-6.104.616-7.688.914-7.421 1.434-14.576 4.753-19.886 10.42 1.671-4.89 3.747-8.72 6.01-13.162.921.135 2.182.659 3.181.885 2.616.612 6.165 1.188 8.8 1.18 10.022-.009 17.9-5.483 23.057-14.09.623-1.04 3.209-5.347 2.96-6.308-.7-.444-6.948-.467-8.159-.435-6.617.204-12.608 1.186-18.693 4.025-1.28.589-2.973 1.875-3.344 2.02 1.287-2.17 7.831-9.95 9.719-11.285 4.418 1.78 8.186 4.11 13.097 4.613 7.76.812 14.344-1.292 20.655-5.954 2.334-1.73 6.798-6.16 8.296-8.588-.953-.588-6.421-1.73-7.84-1.997-4.414-.863-10.018-1.534-14.52-.962-1.17.147-2.254.251-3.411.458-.812.147-2.594.614-3.256.638.971-1.248 4.227-3.595 5.62-4.692 4.931-3.887 4.007-2.944 5.973-1.523 4.578 3.288 10.088 6.047 15.716 6.784 8.575 1.118 16.033-2.02 23.116-6.657.904-.582 1.971-1.46 2.829-1.968l.425-.638-.714-.615c-4.476-2.408-9.892-4.564-14.83-5.79-3.78-.941-6.34-1.269-10.133-1.314-.636-.004-2.716.244-3.1.123-.4.267-2.606.5-3.13.423.265-.344 1.962-1.41 2.353-1.421.851-.813 7.745-4.429 9.586-5.402 2.195-1.165 2.379-1.45 3.49-.599 1.067.831 2.073 1.825 3.12 2.701 3.47 2.89 7.557 5.161 11.908 6.336 8.11 2.19 14.698.428 21.997-2.77.866-.381 6.298-3.014 6.054-3.987-.896-1.436-10.099-5.793-12.045-6.59-3.087-1.265-6.107-2.213-9.37-2.862-.572-.112-2.604-.347-2.939-.515-.443.098-2.278-.102-2.766-.284.425-.202 2.22-.841 2.589-.835.396-.256 4.61-1.711 5.184-1.831.438-.086 2.685 1.012 3.357 1.225 13.355 4.198 25.007-2.031 33.23-13.441-3.558-1.687-9.148-2.652-13.118-3.092-7.15-.779-16.372-.021-22.265 4.833-1.43 1.175-3.386 3.093-4.344 4.662-.702 1.154-1.144 1.334-2.382 1.804-.706.264-1.977.747-2.7.73.742-1.327 1.479-2.355 2.185-3.808.649-1.328 1.317-2.757 1.775-4.16 1.357-4.146 1.562-10.242 1.232-14.506-.109-1.444.078-2.547-1.685-1.976-.604.188-2.667 1.209-2.955 1.228l.077.035z" fill="url(#e)" fill-opacity=".03"/></g><defs><linearGradient id="b" x1="305.222" y1="229.568" x2="216.594" y2="59.717" gradientUnits="userSpaceOnUse"><stop offset=".25" stop-color="#FEDC8F"/><stop offset=".673" stop-color="#FEDC8F" stop-opacity="0"/></linearGradient><linearGradient id="c" x1="305.222" y1="229.568" x2="216.594" y2="59.717" gradientUnits="userSpaceOnUse"><stop offset=".25" stop-color="#FEDC8F"/><stop offset=".673" stop-color="#FEDC8F" stop-opacity="0"/></linearGradient><linearGradient id="d" x1="36.5" y1="6.5" x2="145.289" y2="158.293" gradientUnits="userSpaceOnUse"><stop offset=".29" stop-color="#FEDC8F"/><stop offset=".916" stop-color="#FEDC8F" stop-opacity="0"/></linearGradient><linearGradient id="e" x1="36.5" y1="6.5" x2="145.289" y2="158.293" gradientUnits="userSpaceOnUse"><stop offset=".29" stop-color="#FEDC8F"/><stop offset=".916" stop-color="#FEDC8F" stop-opacity="0"/></linearGradient></defs></svg>