<svg width="48" height="48" viewBox="0 0 48 48" fill="none" xmlns="http://www.w3.org/2000/svg">
<path d="M31.8096 32.8072C31.2805 34.2746 30.2051 35.5113 28.7855 36.2849C28.112 36.6537 27.3681 36.8912 26.5978 36.9836C25.8275 37.0759 25.0464 37.0211 24.3005 36.8225C15.3061 34.5147 9.77678 25.024 11.9838 15.759C12.319 14.2209 13.2207 12.8431 14.5273 11.8725C15.7732 10.9573 17.3476 10.5441 18.9071 10.7232C19.2793 10.7686 19.6238 10.9314 19.8853 11.1852C20.1479 11.4532 20.3175 11.7911 20.3717 12.1539L21.4773 18.3716C21.5275 18.6505 21.5098 18.9369 21.4256 19.209C21.3149 19.4977 21.1396 19.7607 20.9118 19.9797C20.6617 20.2675 17.8907 21.9367 17.8342 22.6829C17.7312 24.1404 20.5398 28.1288 21.3188 28.4758C22.0977 28.8228 24.1394 27.2842 24.4509 27.016C24.7624 26.7478 25.1647 26.3718 25.5161 26.3987C25.8818 26.4891 26.2158 26.6682 26.4853 26.9184L31.2682 30.8125C31.5572 31.046 31.7634 31.3581 31.8592 31.7069C31.952 32.0626 31.9343 32.4368 31.8083 32.7844L31.8096 32.8072Z" stroke="white" stroke-miterlimit="10"/>
<rect x="0.5" y="0.5" width="47" height="47" rx="9.5" stroke="white"/>
<path d="M24.6464 16.6464C24.4512 16.8417 24.4512 17.1583 24.6464 17.3536L27.8284 20.5355C28.0237 20.7308 28.3403 20.7308 28.5355 20.5355C28.7308 20.3403 28.7308 20.0237 28.5355 19.8284L25.7071 17L28.5355 14.1716C28.7308 13.9763 28.7308 13.6597 28.5355 13.4645C28.3403 13.2692 28.0237 13.2692 27.8284 13.4645L24.6464 16.6464ZM25 17.5L36 17.5L36 16.5L25 16.5L25 17.5Z" fill="white"/>
</svg>
