<svg width="52" height="38" viewBox="0 0 52 38" fill="none" xmlns="http://www.w3.org/2000/svg">
<path d="M26.6756 30.3021H49.672M20.9382 13.1217H24.8165L22.7918 37H5.33895L3.31426 13.1217H7.00325M6.99312 13.0966H3.15633C2.96011 13.0966 2.76581 13.0565 2.58452 12.9786C2.40323 12.9008 2.23851 12.7867 2.09976 12.6428C1.81954 12.3523 1.66211 11.9583 1.66211 11.5475C1.66171 11.3438 1.70007 11.142 1.77498 10.9537C1.84989 10.7654 1.95989 10.5943 2.09868 10.4501C2.23748 10.3059 2.40233 10.1915 2.58382 10.1135C2.7653 10.0354 2.95985 9.99528 3.15633 9.99528H24.9744C25.1709 9.99528 25.3654 10.0354 25.5469 10.1135C25.7284 10.1915 25.8933 10.3059 26.0321 10.4501C26.1708 10.5943 26.2808 10.7654 26.3558 10.9537C26.4307 11.142 26.469 11.3438 26.4686 11.5475C26.4686 11.9583 26.3112 12.3523 26.031 12.6428C25.7508 12.9334 25.3707 13.0966 24.9744 13.0966H20.925M4.06137 10.0425C4.06137 5.05527 8.53999 1.01679 14.0654 1.01679C19.5907 1.01679 24.0704 5.05737 24.0714 10.0425M39.6275 2.40738C39.6275 1.73465 38.9746 1 38.1698 1C37.3599 1 36.712 1.73465 36.712 2.40738V24.1489H39.6275V2.40738ZM49.6862 30.3693C49.1193 26.9678 46.9903 24.1552 43.6769 24.152H32.6636C29.3512 24.152 27.0522 27.0434 26.6553 30.3693L25.6967 36.9979H50.6621L49.6862 30.3693ZM20.9291 24.9633L7.0073 19.9592V10.0016H20.9291V24.9633Z" stroke="#722839" stroke-width="2" stroke-miterlimit="10"/>
</svg>
