<svg width="48" height="38" viewBox="0 0 48 38" fill="none" xmlns="http://www.w3.org/2000/svg">
<path d="M20.5611 4.8564C20.6002 3.82014 21.0299 2.83965 21.7601 2.12064C22.4903 1.40164 23.4643 1 24.4776 1C25.4908 1 26.4648 1.40164 27.195 2.12064C27.9252 2.83965 28.3549 3.82014 28.394 4.8564M4.64402 31.5481H44.3169C45.788 31.5481 46.9805 32.7685 46.9805 34.274C46.9805 35.7795 45.788 37 44.3169 37H4.64402C3.17298 37 1.98047 35.7795 1.98047 34.274C1.98047 32.7685 3.17298 31.5481 4.64402 31.5481ZM45.4618 27.1722C45.4618 16.3341 37.4594 4.56348 24.4805 4.56348C11.5015 4.56348 3.49332 16.3401 3.49332 27.1722H45.4618Z" stroke="#722839" stroke-width="2" stroke-miterlimit="10"/>
</svg>
