<svg width="24" height="24" viewBox="0 0 24 24" fill="none" xmlns="http://www.w3.org/2000/svg">
<path d="M20.6685 22.9878V23.4878H21.2327L21.1649 22.9277L20.6685 22.9878ZM3.33519 22.9878L2.83846 22.9307L2.77435 23.4878H3.33519V22.9878ZM23 14.0491V14.5491H23.5969L23.4923 13.9614L23 14.0491ZM20.9784 2.69189L20.4856 2.7764L20.4861 2.77951L20.9784 2.69189ZM18.6111 1L18.6111 0.5H18.6111V1ZM5.3 1V0.5H5.29998L5.3 1ZM2.93025 2.70407L3.42317 2.78794L3.42365 2.785L2.93025 2.70407ZM1 14.0491L0.507084 13.9652L0.407744 14.5491H1V14.0491ZM12.0019 7.62882L11.5784 7.89472L12.0019 8.56901L12.4253 7.89472L12.0019 7.62882ZM7.84074 1.00254V0.502539H6.93634L7.41731 1.26844L7.84074 1.00254ZM16.163 1.00254L16.5864 1.26844L17.0674 0.502539H16.163V1.00254ZM16.2618 18.5367C16.4331 18.7532 16.7476 18.7899 16.9641 18.6185C17.1807 18.4471 17.2173 18.1327 17.0459 17.9161L16.2618 18.5367ZM12.0025 12.349L12.3945 12.0388C12.3095 11.9313 12.1841 11.8635 12.0477 11.8511C11.9113 11.8387 11.7757 11.8828 11.6727 11.9732L12.0025 12.349ZM8.28563 14.9449C8.07805 15.127 8.05742 15.4429 8.23954 15.6505C8.42166 15.8581 8.73757 15.8787 8.94514 15.6966L8.28563 14.9449ZM9.24753 2.87636C8.97139 2.87636 8.74753 3.10022 8.74753 3.37636C8.74753 3.6525 8.97139 3.87636 9.24753 3.87636V2.87636ZM14.7605 3.87636C15.0366 3.87636 15.2605 3.6525 15.2605 3.37636C15.2605 3.10022 15.0366 2.87636 14.7605 2.87636V3.87636ZM18.3845 8.28046L20.1721 23.0479L21.1649 22.9277L19.3772 8.16028L18.3845 8.28046ZM3.83191 23.045L5.53191 8.27296L4.53846 8.15864L2.83846 22.9307L3.83191 23.045ZM19.5926 14.5491H23V13.5491H19.5926V14.5491ZM23.4923 13.9614L21.4707 2.60426L20.4861 2.77951L22.5077 14.1367L23.4923 13.9614ZM21.4712 2.60737C21.3656 1.99178 20.9976 1.45249 20.4698 1.07527L19.8884 1.88884C20.2305 2.13336 20.4302 2.45332 20.4856 2.7764L21.4712 2.60737ZM20.4698 1.07527C19.9433 0.698988 19.283 0.500004 18.6111 0.5L18.6111 1.5C19.0916 1.5 19.5449 1.64339 19.8884 1.88884L20.4698 1.07527ZM18.6111 0.5H5.3V1.5H18.6111V0.5ZM5.29998 0.5C4.62509 0.50003 3.96193 0.700773 3.43433 1.08017L4.01815 1.89205C4.36211 1.64471 4.81728 1.50002 5.30002 1.5L5.29998 0.5ZM3.43433 1.08017C2.90537 1.46054 2.53839 2.00402 2.43684 2.62314L3.42365 2.785C3.47689 2.46042 3.67555 2.13841 4.01815 1.89205L3.43433 1.08017ZM2.43733 2.62021L0.507084 13.9652L1.49292 14.1329L3.42316 2.78794L2.43733 2.62021ZM1 14.5491H4.35247V13.5491H1V14.5491ZM12.5019 23V7.5887H11.5019V23H12.5019ZM4.73457 12.849H19.3123V11.849H4.73457V12.849ZM17.0459 17.9161L12.3945 12.0388L11.6104 12.6593L16.2618 18.5367L17.0459 17.9161ZM11.6727 11.9732L8.28563 14.9449L8.94514 15.6966L12.3322 12.7249L11.6727 11.9732ZM9.24753 3.87636H14.7605V2.87636H9.24753V3.87636ZM12.4253 7.36292L8.26417 0.736635L7.41731 1.26844L11.5784 7.89472L12.4253 7.36292ZM7.84074 1.50254H16.163V0.502539H7.84074V1.50254ZM15.7395 0.736635L11.5784 7.36292L12.4253 7.89472L16.5864 1.26844L15.7395 0.736635ZM20.6685 22.4878H12.0019V23.4878H20.6685V22.4878ZM12.0019 22.4878H3.33519V23.4878H12.0019V22.4878Z" fill="black"/>
</svg>
