<svg width="34" height="41" viewBox="0 0 34 41" fill="none" xmlns="http://www.w3.org/2000/svg">
<path d="M5.84848 1V0V1ZM28.1515 1V0V1ZM33 35.9541V36.9541H34V35.9541H33ZM1 35.9541H0V36.9541H1V35.9541ZM1 5.77551H0H1ZM8.39394 4.39347C7.84165 4.39347 7.39394 4.84118 7.39394 5.39347C7.39394 5.94575 7.84165 6.39347 8.39394 6.39347V4.39347ZM25.6061 6.39347C26.1583 6.39347 26.6061 5.94575 26.6061 5.39347C26.6061 4.84118 26.1583 4.39347 25.6061 4.39347V6.39347ZM5.12222 31.2318C4.56993 31.2318 4.12222 31.6796 4.12222 32.2318C4.12222 32.7841 4.56993 33.2318 5.12222 33.2318V31.2318ZM10.6431 33.2318C11.1954 33.2318 11.6431 32.7841 11.6431 32.2318C11.6431 31.6796 11.1954 31.2318 10.6431 31.2318V33.2318ZM23.3596 31.2318C22.8073 31.2318 22.3596 31.6796 22.3596 32.2318C22.3596 32.7841 22.8073 33.2318 23.3596 33.2318V31.2318ZM28.8791 33.2318C29.4314 33.2318 29.8791 32.7841 29.8791 32.2318C29.8791 31.6796 29.4314 31.2318 28.8791 31.2318V33.2318ZM11.2768 36.0204C11.2768 35.4681 10.8291 35.0204 10.2768 35.0204C9.72448 35.0204 9.27677 35.4681 9.27677 36.0204H11.2768ZM10.2768 40V41C10.8291 41 11.2768 40.5523 11.2768 40H10.2768ZM4.65252 40H3.65252C3.65252 40.5523 4.10024 41 4.65252 41V40ZM5.65252 36.0204C5.65252 35.4681 5.20481 35.0204 4.65252 35.0204C4.10024 35.0204 3.65252 35.4681 3.65252 36.0204H5.65252ZM30.3475 35.9965C30.3475 35.4442 29.8998 34.9965 29.3475 34.9965C28.7952 34.9965 28.3475 35.4442 28.3475 35.9965H30.3475ZM29.3475 40V41C29.8998 41 30.3475 40.5523 30.3475 40H29.3475ZM23.7232 40H22.7232C22.7232 40.5523 23.1709 41 23.7232 41V40ZM24.7232 35.9965C24.7232 35.4442 24.2755 34.9965 23.7232 34.9965C23.1709 34.9965 22.7232 35.4442 22.7232 35.9965H24.7232ZM5.84848 2H28.1515V0H5.84848V2ZM28.1515 2C29.177 2 30.1576 2.4014 30.8782 3.11116L32.2816 1.68627C31.1837 0.604863 29.6978 0 28.1515 0V2ZM30.8782 3.11116C31.5983 3.82042 32 4.77912 32 5.77551H34C34 4.23881 33.3801 2.76818 32.2816 1.68627L30.8782 3.11116ZM32 5.77551V35.9541H34V5.77551H32ZM33 34.9541H1V36.9541H33V34.9541ZM2 35.9541V5.77551H0V35.9541H2ZM2 5.77551C2 4.77912 2.40172 3.82042 3.12181 3.11116L1.71836 1.68627C0.619921 2.76818 0 4.23881 0 5.77551H2ZM3.12181 3.11116C3.84242 2.4014 4.82295 2 5.84848 2V0C4.30222 0 2.81629 0.604863 1.71836 1.68627L3.12181 3.11116ZM1.0431 10.6914H32.9569V8.69143H1.0431V10.6914ZM1.0431 29.0294H32.9569V27.0294H1.0431V29.0294ZM8.39394 6.39347H25.6061V4.39347H8.39394V6.39347ZM5.12222 33.2318H10.6431V31.2318H5.12222V33.2318ZM23.3596 33.2318H28.8791V31.2318H23.3596V33.2318ZM9.27677 36.0204V40H11.2768V36.0204H9.27677ZM10.2768 39H4.65252V41H10.2768V39ZM5.65252 40V36.0204H3.65252V40H5.65252ZM28.3475 35.9965V40H30.3475V35.9965H28.3475ZM29.3475 39H23.7232V41H29.3475V39ZM24.7232 40V35.9965H22.7232V40H24.7232Z" fill="black"/>
</svg>
