<svg width="35" height="28" viewBox="0 0 35 28" fill="none" xmlns="http://www.w3.org/2000/svg">
<g clip-path="url(#clip0_1_3895)">
<path fill-rule="evenodd" clip-rule="evenodd" d="M21.8089 21.3333C21.8089 20.1506 23.3298 18.6901 26.5166 18.6901C26.7067 18.6901 26.8968 18.6901 27.087 18.6901C27.0136 19.6807 26.5828 20.6123 25.8731 21.3146C25.1634 22.017 24.2222 22.4434 23.2212 22.516C22.3159 22.516 21.8089 22.1218 21.8089 21.3154V21.3333ZM15.6255 8.91472L14.6387 17.8747C13.5642 17.5636 12.4691 17.3271 11.3614 17.1669L15.5893 8.90578L15.6255 8.91472ZM8.72692 16.9787C6.36401 16.9787 3.8834 17.5611 2.60689 18.9499C1.89815 17.6232 1.53998 16.1407 1.56574 14.6402C1.56574 10.644 4.21839 6.93458 9.29728 4.56914L8.65448 3.22514C2.68836 5.91314 0.00859985 10.2767 0.00859985 14.6402C-0.0365166 16.7626 0.597207 18.8449 1.81926 20.5896C1.77531 20.7988 1.75406 21.0121 1.75588 21.2258C1.75588 22.8207 2.76985 23.9675 4.87021 23.9675C6.97057 23.9675 8.92607 22.4802 10.0668 19.5592H8.41002C7.58617 21.5035 6.25535 22.525 4.86115 22.525C3.77475 22.525 3.30395 22.0322 3.30395 21.2258C3.30395 19.837 5.01503 18.4303 8.73593 18.4303C10.6962 18.4355 12.6441 18.7377 14.5119 19.3263L14.2494 21.7723H15.7794L17.2098 8.55632C18.0848 8.37104 18.9767 8.27495 19.8715 8.2696C23.2212 8.2696 24.1356 9.43441 24.1356 10.6888C24.1356 12.3643 22.7505 13.5202 19.4188 13.8965L19.9077 9.4165L18.3868 9.47026L17.0559 21.8082H18.5769L19.2378 15.581C20.3754 15.2787 21.5456 15.1132 22.7233 15.0882C24.9685 15.0882 26.4985 15.9842 26.9512 17.3192H26.4985C22.1711 17.3192 20.2517 19.4965 20.2517 21.405C20.2517 23.0984 21.5282 24.0303 23.185 24.0303C24.5558 23.9883 25.864 23.4527 26.8642 22.5239C27.8643 21.5951 28.4875 20.3371 28.617 18.9858C29.7151 19.2442 30.7658 19.6705 31.7313 20.2491C29.1239 24.0571 23.8368 26.5211 17.5176 26.5211C14.4033 26.5211 10.5285 25.867 7.96642 24.1198L7.16066 25.3832C9.69558 27.1752 13.7515 28.0264 17.5176 28.0264C27.7931 28.0264 35.0267 22.059 35.0267 14.6939C35.0267 6.94353 27.1594 1.3525 17.5448 1.3525C16.9473 1.3525 16.5308 1.35248 15.9605 1.4152L16.1144 2.8936C16.567 2.8936 17.0197 2.8936 17.5176 2.8936C26.1092 2.8936 33.4695 8.00082 33.4695 14.7298C33.4715 16.211 33.1309 17.6729 32.4737 19.0037C31.282 18.2823 29.9649 17.787 28.5898 17.5432C28.2639 15.7512 26.7791 14.2011 23.8459 13.9054C24.4125 13.5924 24.8869 13.1384 25.222 12.5883C25.5474 12.0456 25.7223 11.4274 25.729 10.7963C25.729 8.48464 24.0722 6.93457 19.8986 6.93457C19.0643 6.93158 18.2313 7.00055 17.409 7.14066L17.5901 5.48305L16.051 5.0709L14.7111 7.65138C12.8066 8.1897 10.967 8.93179 9.22484 9.8645L9.9129 11.1547C11.1631 10.521 12.4545 9.97022 13.7786 9.50608L9.93097 17.0235C9.53262 17.0235 9.1524 16.9787 8.76311 16.9787H8.72692ZM14.693 3.53872C14.7091 3.8021 14.6683 4.06586 14.5731 4.31236C14.478 4.55886 14.3309 4.78244 14.1415 4.96817C13.9521 5.15389 13.7249 5.29749 13.475 5.38937C13.2251 5.48125 12.9582 5.51929 12.6923 5.50096C11.5606 5.50096 10.3656 4.82897 10.3656 2.54417C10.3847 1.67711 10.5001 0.814767 10.7096 -0.0273438C12.8009 0.465456 14.693 1.89904 14.693 3.5656V3.53872Z" fill="black"/>
</g>
<defs>
<clipPath id="clip0_1_3895">
<rect width="35" height="28" fill="white"/>
</clipPath>
</defs>
</svg>
