<svg width="35" height="35" viewBox="0 0 35 35" fill="none" xmlns="http://www.w3.org/2000/svg">
<rect x="0.5" y="0.5" width="34" height="34" rx="8.5" stroke="black"/>
<path d="M6.99463 17.1265L7.00205 17.1237L7.00937 17.1205C13.1169 14.5271 17.1853 12.8192 19.2184 11.995C22.129 10.8151 23.8752 10.1275 24.9906 9.73299C26.1144 9.33557 26.5472 9.25533 26.8535 9.25007C26.9018 9.24924 27.0009 9.25524 27.1083 9.28025C27.2192 9.30608 27.3005 9.34324 27.3466 9.3797C27.4102 9.43004 27.4404 9.50164 27.4624 9.6269C27.4852 9.75663 27.5142 10.0711 27.4923 10.2956C27.1795 13.4978 25.8198 21.3108 25.1255 24.9285C24.8426 26.4023 24.3477 26.5993 24.1402 26.6179C23.6756 26.6596 23.2462 26.5156 22.7597 26.237C22.5149 26.0968 22.2663 25.929 21.9955 25.7415C21.9514 25.7109 21.9067 25.6799 21.8614 25.6484C21.6332 25.4898 21.3897 25.3206 21.1356 25.1582C20.2176 24.5718 19.4993 24.096 18.7851 23.622L18.6901 23.559C18.0074 23.1059 17.3202 22.6498 16.4616 22.0983C15.9698 21.7824 15.751 21.5441 15.6643 21.3822C15.5981 21.2587 15.6004 21.1697 15.6553 21.0477C15.7264 20.8897 15.8806 20.7004 16.136 20.447C16.2456 20.3383 16.3641 20.2271 16.4926 20.1063C16.5091 20.0908 16.5257 20.0752 16.5425 20.0594C16.6881 19.9225 16.8439 19.7751 16.9983 19.6188C17.0647 19.5515 17.3976 19.25 17.8759 18.8168C18.4322 18.3129 19.1851 17.6309 19.9441 16.9324C20.6407 16.2912 21.3347 15.6428 21.8623 15.1263C22.1254 14.8687 22.3522 14.639 22.5186 14.457C22.6012 14.3667 22.675 14.2815 22.7326 14.2066C22.7612 14.1694 22.7909 14.1282 22.8169 14.0856C22.8376 14.0516 22.8791 13.9803 22.9009 13.8895C22.9234 13.796 22.931 13.6668 22.9112 13.5365C22.8912 13.4052 22.8312 13.1952 22.6447 13.0336C22.4621 12.8755 22.2535 12.8416 22.1072 12.8405C21.9696 12.8394 21.843 12.8675 21.7794 12.8816L21.7756 12.8824C21.6937 12.9005 21.6167 12.9404 21.5912 12.9536C21.5899 12.9543 21.5887 12.955 21.5876 12.9555C21.5442 12.9779 21.4925 13.0067 21.4349 13.0399C21.3188 13.1069 21.1612 13.2022 20.9641 13.3242C20.5689 13.5689 20.0021 13.9292 19.2651 14.404C17.7903 15.354 15.6259 16.7679 12.7726 18.645L12.7726 18.645L12.7693 18.6472C11.9796 19.1757 11.3235 19.392 10.7862 19.3807C10.4714 19.374 9.97071 19.2832 9.38677 19.1405C8.81413 19.0005 8.19836 18.8202 7.67029 18.6529C7.49542 18.5975 7.33106 18.5471 7.17705 18.4998C6.71974 18.3595 6.35375 18.2473 6.07485 18.1156C5.89399 18.0302 5.80743 17.9613 5.77027 17.9168C5.75097 17.8937 5.74757 17.8852 5.75088 17.8565C5.75234 17.8548 5.77864 17.7768 5.97375 17.6356C6.18353 17.4838 6.51625 17.3119 6.99463 17.1265Z" stroke="black"/>
</svg>
