<svg width="35" height="35" viewBox="0 0 35 35" fill="none" xmlns="http://www.w3.org/2000/svg">
<path d="M18.2499 1.02257C18.2499 0.608359 17.9142 0.272572 17.4999 0.272572C17.0857 0.272572 16.7499 0.608359 16.7499 1.02257H18.2499ZM16.7499 5.10291C16.7499 5.51713 17.0857 5.85291 17.4999 5.85291C17.9142 5.85291 18.2499 5.51713 18.2499 5.10291H16.7499ZM1.00465 16.7068C0.590432 16.7068 0.254646 17.0426 0.254646 17.4568C0.254646 17.871 0.590432 18.2068 1.00465 18.2068V16.7068ZM5.08499 18.2068C5.4992 18.2068 5.83499 17.871 5.83499 17.4568C5.83499 17.0426 5.4992 16.7068 5.08499 16.7068V18.2068ZM29.8942 16.7068C29.48 16.7068 29.1442 17.0426 29.1442 17.4568C29.1442 17.871 29.48 18.2068 29.8942 18.2068V16.7068ZM33.9746 18.2068C34.3888 18.2068 34.7246 17.871 34.7246 17.4568C34.7246 17.0426 34.3888 16.7068 33.9746 16.7068V18.2068ZM18.2499 29.8557C18.2499 29.4415 17.9142 29.1057 17.4999 29.1057C17.0857 29.1057 16.7499 29.4415 16.7499 29.8557H18.2499ZM16.7499 33.9361C16.7499 34.3503 17.0857 34.6861 17.4999 34.6861C17.9142 34.6861 18.2499 34.3503 18.2499 33.9361H16.7499ZM22.3872 14.2238C22.635 13.892 22.5669 13.422 22.2351 13.1741C21.9032 12.9263 21.4332 12.9944 21.1854 13.3263L22.3872 14.2238ZM17.3675 19.6915L16.7306 20.0877C16.8615 20.2981 17.0879 20.4303 17.3356 20.4409C17.5832 20.4514 17.8201 20.3389 17.9684 20.1403L17.3675 19.6915ZM11.8406 9.3851C11.6218 9.03337 11.1594 8.92557 10.8076 9.14434C10.4559 9.3631 10.3481 9.82557 10.5668 10.1773L11.8406 9.3851ZM33.25 17.5C33.25 26.1985 26.1985 33.25 17.5 33.25V34.75C27.0269 34.75 34.75 27.0269 34.75 17.5H33.25ZM17.5 33.25C8.80152 33.25 1.75 26.1985 1.75 17.5H0.25C0.25 27.0269 7.97309 34.75 17.5 34.75V33.25ZM1.75 17.5C1.75 8.80152 8.80152 1.75 17.5 1.75V0.25C7.97309 0.25 0.25 7.97309 0.25 17.5H1.75ZM17.5 1.75C26.1985 1.75 33.25 8.80152 33.25 17.5H34.75C34.75 7.97309 27.0269 0.25 17.5 0.25V1.75ZM16.7499 1.02257V5.10291H18.2499V1.02257H16.7499ZM1.00465 18.2068H5.08499V16.7068H1.00465V18.2068ZM29.8942 18.2068H33.9746V16.7068H29.8942V18.2068ZM16.7499 29.8557V33.9361H18.2499V29.8557H16.7499ZM21.1854 13.3263L16.7666 19.2428L17.9684 20.1403L22.3872 14.2238L21.1854 13.3263ZM18.0044 19.2954L11.8406 9.3851L10.5668 10.1773L16.7306 20.0877L18.0044 19.2954Z" fill="black"/>
</svg>
