<svg width="35" height="35" viewBox="0 0 35 35" fill="none" xmlns="http://www.w3.org/2000/svg">
<rect x="0.5" y="0.5" width="34" height="34" rx="8.5" stroke="black"/>
<path d="M15.7307 25.3686L15.353 25.041L15.353 25.0411L15.3526 25.0415L15.351 25.0433L15.3449 25.0503L15.3208 25.078L15.2285 25.1842C15.1485 25.2762 15.0331 25.4087 14.8918 25.5705C14.6093 25.8942 14.2233 26.3351 13.8095 26.8043C13.1126 27.5944 12.3467 28.4531 11.8598 28.9714V28.9663V28.9591V28.952V28.9447V28.9374V28.93V28.9226V28.9151V28.9075V28.8998V28.8921V28.8844V28.8766V28.8687V28.8607V28.8527V28.8446V28.8365V28.8283V28.82V28.8117V28.8034V28.7949V28.7864V28.7779V28.7693V28.7606V28.7519V28.7431V28.7343V28.7254V28.7164V28.7074V28.6984V28.6893V28.6801V28.6709V28.6616V28.6523V28.6429V28.6335V28.624V28.6145V28.6049V28.5953V28.5856V28.5759V28.5661V28.5563V28.5464V28.5365V28.5265V28.5165V28.5064V28.4963V28.4861V28.4759V28.4656V28.4553V28.445V28.4346V28.4242V28.4137V28.4032V28.3926V28.382V28.3714V28.3607V28.3499V28.3392V28.3283V28.3175V28.3066V28.2957V28.2847V28.2737V28.2626V28.2515V28.2404V28.2292V28.218V28.2068V28.1955V28.1842V28.1728V28.1615V28.15V28.1386V28.1271V28.1156V28.104V28.0924V28.0808V28.0692V28.0575V28.0458V28.034V28.0223V28.0104V27.9986V27.9867V27.9748V27.9629V27.951V27.939V27.927V27.9149V27.9029V27.8908V27.8787V27.8665V27.8544V27.8422V27.8299V27.8177V27.8054V27.7931V27.7808V27.7685V27.7561V27.7438V27.7314V27.7189V27.7065V27.694V27.6815V27.669V27.6565V27.644V27.6314V27.6188V27.6062V27.5936V27.581V27.5683V27.5556V27.543V27.5303V27.5175V27.5048V27.4921V27.4793V27.4665V27.4538V27.441V27.4281V27.4153V27.4025V27.3896V27.3768V27.3639V27.351V27.3381V27.3252V27.3123V27.2994V27.2865V27.2735V27.2606V27.2476V27.2347V27.2217V27.2087V27.1957V27.1828V27.1698V27.1568V27.1438V27.1308V27.1178V27.1048V27.0917V27.0787V27.0657V27.0527V27.0397V27.0266V27.0136V27.0006V26.9876V26.9745V26.9615V26.9485V26.9355V26.9225V26.9094V26.8964V26.8834V26.8704V26.8574V26.8444V26.8314V26.8184V26.8054V26.7924V26.7795V26.7665V26.7535V26.7406V26.7276V26.7147V26.7018V26.6888V26.6759V26.663V26.6501V26.6372V26.6244V26.6115V26.5987V26.5858V26.573V26.5602V26.5474V26.5346V26.5218V26.509V26.4963V26.4835V26.4708V26.4581V26.4454V26.4328V26.4201V26.4075V26.3948V26.3822V26.3696V26.3571V26.3445V26.332V26.3195V26.307V26.2945V26.2821V26.2696V26.2572V26.2448V26.2325V26.2201V26.2078V26.1955V26.1832V26.171V26.1588V26.1466V26.1344V26.1222V26.1101V26.098V26.0859V26.0739V26.0619V26.0499V26.0379V26.026V26.0141V26.0022V25.9903V25.9785V25.9667V25.955V25.9433V25.9316V25.9199V25.9083V25.8967V25.8851V25.8736V25.8621V25.8506V25.8392V25.8278V25.8164V25.8051V25.7938V25.7826V25.7714V25.7602V25.749V25.7379V25.7269V25.7158V25.7048V25.6939V25.683V25.6721V25.6613V25.6505V25.6398V25.6291V25.6184V25.6078V25.5972V25.5867V25.5762V25.5657V25.5553V25.5449V25.5346V25.5244V25.5141V25.504V25.4938V25.4837V25.4737V25.4637V25.4538V25.4439V25.434V25.4242V25.4145V25.4048V25.3951V25.3855V25.376V25.3665V25.3571V25.3477V25.3383V25.329V25.3198V25.3106V25.3015V25.2924V25.2834V25.2744V25.2655V25.2567V25.2479V25.2391V25.2305V25.2218V25.2133V25.2048V25.1963V25.1879V25.1796V25.1713V25.1631V25.1549V25.1468V25.1388V25.1308V25.1229V25.1151V25.1073V25.0996V25.0919V25.0843V25.0768V25.0693V25.0619V25.0546V25.0473V25.0401V25.033V25.0259V25.0189V25.0119V25.0051V24.9983V24.9915V24.9849V24.9783V24.9717V24.9653V24.9589V24.9526V24.9463V24.9401V24.934V24.928V24.9221V24.9162V24.9104V24.9046V24.899V24.8934V24.8878V24.8824V24.877V24.8718V24.8665V24.8614V24.8563V24.8514V24.8465V24.8416V24.8369V24.8322V24.8276V24.8231V24.8187V24.8143V24.8101V24.8059V24.8018V24.7978V24.7938V24.79V24.7862V24.7825V24.7789V24.7754V24.7719V24.7686V24.7653V24.7621V24.759V24.756V24.7531V24.7503V24.7475V24.7448V24.7423V24.7398V24.7374V24.7351V24.7329V24.7307V24.7287V24.7268V24.7249V24.7231V24.7215V24.7199V24.7184V24.717V24.7157V24.7145V24.7134V24.7124V24.7115V24.7106V24.7099V24.7093V24.7087V24.7083V24.7079V24.7077V24.7076L11.3598 24.7075H11.8598V24.3246L11.4901 24.2248C8.88342 23.5209 7.6768 21.8782 7.10791 20.0403C6.56113 18.2738 6.60893 16.3435 6.64542 14.8703C6.64773 14.7769 6.65 14.6853 6.65207 14.5957C6.71938 11.6799 7.28356 9.42385 8.83778 7.92847C10.2513 6.69515 12.4644 6.13802 14.4043 5.90443C15.3635 5.78893 16.2306 5.75527 16.858 5.7506C17.1713 5.74826 17.4239 5.75316 17.5971 5.75858C17.6837 5.76129 17.7504 5.76413 17.7949 5.76626L17.8447 5.7688L17.8565 5.76948L17.859 5.76963L17.8593 5.76965L17.8594 5.76965L15.7307 25.3686ZM15.7307 25.3686L15.3531 25.0409M15.7307 25.3686L15.3531 25.0409M15.5162 24.853L15.7644 24.8698C18.1371 25.0302 20.5209 24.8321 22.8303 24.2826C22.9368 24.2505 23.0698 24.2202 23.2243 24.1849C23.7912 24.0556 24.6474 23.8602 25.5449 23.271C26.6538 22.543 27.8023 21.2008 28.1427 18.5702L15.5162 24.853ZM15.5162 24.853L15.3531 25.0409M15.5162 24.853L15.3531 25.0409" stroke="black"/>
<path d="M18.4947 12.186L18.4919 12.1886V12.1886L18.4947 12.186ZM20.6235 14.3451L20.622 14.3445L20.6231 14.3373L20.6235 14.3451Z" fill="white" stroke="black"/>
<mask id="path-4-inside-1_1_1482" fill="white">
<path d="M22.4584 15.279C22.4113 15.2779 22.3649 15.2679 22.3218 15.2494C22.2787 15.231 22.2398 15.2045 22.2073 15.1715C22.1748 15.1385 22.1494 15.0996 22.1324 15.0571C22.1154 15.0146 22.1073 14.9692 22.1084 14.9236C22.1406 14.3931 22.0627 13.8616 21.8795 13.3606C21.6962 12.8596 21.4112 12.3992 21.0413 12.0064C20.2253 11.1884 19.1082 10.716 17.9338 10.6925C17.8827 10.6957 17.8315 10.6882 17.7836 10.6707C17.7357 10.6531 17.6922 10.6258 17.6562 10.5906C17.6201 10.5554 17.5922 10.5131 17.5744 10.4667C17.5567 10.4202 17.5494 10.3705 17.5531 10.3211C17.5567 10.2716 17.5713 10.2235 17.5959 10.18C17.6204 10.1365 17.6542 10.0985 17.6951 10.0687C17.7361 10.0389 17.7831 10.018 17.8331 10.0072C17.8831 9.99651 17.9349 9.99629 17.985 10.0066C19.3408 10.0423 20.6281 10.5912 21.5706 11.5354C22.4277 12.4565 22.8728 13.6689 22.8084 14.9071C22.8132 14.9543 22.8077 15.0019 22.7923 15.0469C22.7768 15.0919 22.7518 15.1333 22.7188 15.1684C22.6858 15.2034 22.6456 15.2314 22.6007 15.2504C22.5559 15.2695 22.5074 15.2792 22.4584 15.279Z"/>
</mask>
<path d="M22.4584 15.279C22.4113 15.2779 22.3649 15.2679 22.3218 15.2494C22.2787 15.231 22.2398 15.2045 22.2073 15.1715C22.1748 15.1385 22.1494 15.0996 22.1324 15.0571C22.1154 15.0146 22.1073 14.9692 22.1084 14.9236C22.1406 14.3931 22.0627 13.8616 21.8795 13.3606C21.6962 12.8596 21.4112 12.3992 21.0413 12.0064C20.2253 11.1884 19.1082 10.716 17.9338 10.6925C17.8827 10.6957 17.8315 10.6882 17.7836 10.6707C17.7357 10.6531 17.6922 10.6258 17.6562 10.5906C17.6201 10.5554 17.5922 10.5131 17.5744 10.4667C17.5567 10.4202 17.5494 10.3705 17.5531 10.3211C17.5567 10.2716 17.5713 10.2235 17.5959 10.18C17.6204 10.1365 17.6542 10.0985 17.6951 10.0687C17.7361 10.0389 17.7831 10.018 17.8331 10.0072C17.8831 9.99651 17.9349 9.99629 17.985 10.0066C19.3408 10.0423 20.6281 10.5912 21.5706 11.5354C22.4277 12.4565 22.8728 13.6689 22.8084 14.9071C22.8132 14.9543 22.8077 15.0019 22.7923 15.0469C22.7768 15.0919 22.7518 15.1333 22.7188 15.1684C22.6858 15.2034 22.6456 15.2314 22.6007 15.2504C22.5559 15.2695 22.5074 15.2792 22.4584 15.279Z" fill="white"/>
<path d="M22.4584 15.279L22.4356 16.2787L22.4447 16.2789L22.4538 16.279L22.4584 15.279ZM22.1084 14.9236L21.1102 14.8631L21.1091 14.8809L21.1087 14.8988L22.1084 14.9236ZM21.0413 12.0064L21.7692 11.3208L21.7594 11.3104L21.7493 11.3003L21.0413 12.0064ZM17.9338 10.6925L17.9539 9.69267L17.9126 9.69184L17.8714 9.69442L17.9338 10.6925ZM17.985 10.0066L17.784 10.9862L17.8705 11.0039L17.9587 11.0062L17.985 10.0066ZM21.5706 11.5354L22.3026 10.8542L22.2907 10.8413L22.2783 10.829L21.5706 11.5354ZM22.8084 14.9071L21.8098 14.8552L21.8058 14.9317L21.8135 15.0079L22.8084 14.9071ZM22.4812 14.2792C22.561 14.2811 22.6405 14.2981 22.7154 14.3301L21.9283 16.1687C22.0893 16.2377 22.2616 16.2748 22.4356 16.2787L22.4812 14.2792ZM22.7154 14.3301C22.7902 14.3622 22.86 14.4091 22.9198 14.4698L21.4949 15.8732C21.6197 15.9999 21.7673 16.0998 21.9283 16.1687L22.7154 14.3301ZM22.9198 14.4698C22.9796 14.5305 23.0282 14.6038 23.0611 14.6863L21.2037 15.4278C21.2706 15.5955 21.3701 15.7465 21.4949 15.8732L22.9198 14.4698ZM23.0611 14.6863C23.0941 14.769 23.1103 14.8582 23.1081 14.9485L21.1087 14.8988C21.1042 15.0802 21.1367 15.2601 21.2037 15.4278L23.0611 14.6863ZM23.1066 14.9842C23.1471 14.3158 23.0489 13.6468 22.8186 13.0171L20.9403 13.7042C21.0765 14.0765 21.134 14.4704 21.1102 14.8631L23.1066 14.9842ZM22.8186 13.0171C22.5883 12.3874 22.2309 11.8109 21.7692 11.3208L20.3133 12.6921C20.5915 12.9874 20.8041 13.3318 20.9403 13.7042L22.8186 13.0171ZM21.7493 11.3003C20.7473 10.2957 19.3822 9.72135 17.9539 9.69267L17.9137 11.6923C18.8343 11.7107 19.7034 12.0812 20.3333 12.7126L21.7493 11.3003ZM17.8714 9.69442C17.958 9.689 18.0454 9.70152 18.1281 9.73187L17.4391 11.6094C17.6176 11.6749 17.8074 11.7023 17.9962 11.6905L17.8714 9.69442ZM18.1281 9.73187C18.2108 9.76221 18.2883 9.81025 18.3544 9.87475L16.9579 11.3064C17.0962 11.4413 17.2606 11.5439 17.4391 11.6094L18.1281 9.73187ZM18.3544 9.87475C18.4207 9.93934 18.4739 10.019 18.5084 10.1093L16.6405 10.824C16.7106 11.0073 16.8195 11.1715 16.9579 11.3064L18.3544 9.87475ZM18.5084 10.1093C18.543 10.1998 18.5576 10.2975 18.5503 10.3956L16.5558 10.2466C16.5411 10.4435 16.5703 10.6406 16.6405 10.824L18.5084 10.1093ZM18.5503 10.3956C18.543 10.4936 18.5141 10.5874 18.4672 10.6706L16.7245 9.68938C16.6286 9.85966 16.5705 10.0497 16.5558 10.2466L18.5503 10.3956ZM18.4672 10.6706C18.4204 10.7537 18.3573 10.8236 18.2838 10.8771L17.1065 9.26031C16.9512 9.37343 16.8203 9.51924 16.7245 9.68938L18.4672 10.6706ZM18.2838 10.8771C18.2104 10.9306 18.1281 10.9667 18.0428 10.985L17.6234 9.02947C17.4382 9.0692 17.2618 9.14729 17.1065 9.26031L18.2838 10.8771ZM18.0428 10.985C17.9574 11.0033 17.8694 11.0037 17.784 10.9862L18.186 9.02697C18.0005 8.98891 17.8088 8.98971 17.6234 9.02947L18.0428 10.985ZM17.9587 11.0062C19.0629 11.0353 20.1048 11.4825 20.8628 12.2418L22.2783 10.829C21.1514 9.69992 19.6188 9.04929 18.0114 9.00692L17.9587 11.0062ZM20.8385 12.2166C21.5143 12.9429 21.8599 13.8919 21.8098 14.8552L23.8071 14.959C23.8858 13.446 23.3411 11.9702 22.3026 10.8542L20.8385 12.2166ZM21.8135 15.0079C21.8037 14.911 21.8151 14.8136 21.8464 14.7225L23.7382 15.3714C23.8003 15.1903 23.8227 14.9976 23.8033 14.8063L21.8135 15.0079ZM21.8464 14.7225C21.8776 14.6315 21.9274 14.5502 21.9906 14.483L23.447 15.8537C23.5762 15.7164 23.6761 15.5524 23.7382 15.3714L21.8464 14.7225ZM21.9906 14.483C22.0538 14.4159 22.1288 14.3644 22.2097 14.33L22.9917 16.1708C23.1624 16.0983 23.3179 15.9909 23.447 15.8537L21.9906 14.483ZM22.2097 14.33C22.2906 14.2957 22.3768 14.2786 22.463 14.279L22.4538 16.279C22.638 16.2798 22.8211 16.2433 22.9917 16.1708L22.2097 14.33Z" fill="black" mask="url(#path-4-inside-1_1_1482)"/>
<path d="M24.2941 15.6605L23.9688 15.6426L24.2941 15.6605ZM24.2941 15.6605L24.0739 15.888L24.2941 15.6605Z" fill="white" stroke="black"/>
<path d="M18.2077 18.6744C18.347 18.6844 18.4868 18.6651 18.6174 18.6179C18.7481 18.5708 18.8663 18.4969 18.9639 18.4015L19.4848 17.7752C19.6632 17.5877 19.9051 17.4664 20.1679 17.4326C20.4308 17.3988 20.6977 17.4548 20.9216 17.5906C21.3673 17.8363 21.7992 18.1043 22.2154 18.3934C22.6103 18.6744 23.4085 19.3087 23.4085 19.3167C23.5966 19.462 23.7219 19.6685 23.7607 19.8966C23.7994 20.1247 23.7488 20.3584 23.6186 20.5531C23.3327 21.0277 22.9696 21.4558 22.5431 21.8216C22.2354 22.0886 21.8529 22.2644 21.4425 22.3274C21.3896 22.3361 21.3357 22.3361 21.2828 22.3274C21.1262 22.3296 20.9702 22.3079 20.8207 22.2631C19.7735 21.9172 18.7658 21.4707 17.8128 20.9304C16.9259 20.4654 16.0826 19.9282 15.2923 19.3247C14.8952 19.0246 14.5165 18.7029 14.158 18.3613H14.116C13.7607 18.014 13.4242 17.6496 13.1078 17.2695C12.479 16.5123 11.917 15.7067 11.4274 14.8609C10.8618 13.9516 10.3972 12.9883 10.0411 11.9868C9.99144 11.8416 9.96593 11.6899 9.96547 11.5372C9.9604 11.4865 9.9604 11.4354 9.96547 11.3846C10.0301 10.9944 10.2143 10.6312 10.4948 10.3409C10.818 9.87328 11.218 9.4585 11.6795 9.1126C11.8845 8.98758 12.1305 8.93895 12.3706 8.97596C12.6107 9.01296 12.8282 9.13303 12.9818 9.31331C12.9818 9.31331 13.6539 10.1161 13.9396 10.4533C14.2252 10.7905 14.5781 11.3766 14.7798 11.6897C14.9183 11.9067 14.9739 12.1628 14.9372 12.4146C14.9004 12.6663 14.7735 12.8981 14.5781 13.0706L13.9228 13.5603C13.8227 13.6551 13.7454 13.7695 13.696 13.8957C13.6467 14.0218 13.6266 14.1567 13.6371 14.2909C13.9573 15.3272 14.5429 16.2708 15.341 17.0362C16.1391 17.8016 17.1244 18.3647 18.2077 18.6744Z" stroke="black"/>
</svg>
