<svg width="27" height="34" viewBox="0 0 27 34" fill="none" xmlns="http://www.w3.org/2000/svg">
<path d="M10.8843 9.62176H9.88431C9.88431 10.174 10.332 10.6218 10.8843 10.6218V9.62176ZM18.3606 33V34C18.9129 34 19.3606 33.5523 19.3606 33H18.3606ZM3.40805 33H2.40805C2.40805 33.5523 2.85577 34 3.40805 34V33ZM3.40805 17.5389H2.40805H3.40805ZM10.8843 9.58031H11.8843V9.58031L10.8843 9.58031ZM10.8843 5.60104L11.8843 5.60104C11.8843 5.04875 11.4366 4.60104 10.8843 4.60104V5.60104ZM4.5208 5.60104V4.60104C4.22491 4.60104 3.94421 4.73207 3.75421 4.95889L4.5208 5.60104ZM0.233414 9.162C-0.121231 9.58538 -0.0655155 10.2161 0.357858 10.5707C0.781232 10.9254 1.41194 10.8697 1.76659 10.4463L0.233414 9.162ZM6.39855 4.60104C5.84627 4.60104 5.39855 5.04875 5.39855 5.60104C5.39855 6.15332 5.84627 6.60104 6.39855 6.60104V4.60104ZM16.1003 6.60104C16.6526 6.60104 17.1003 6.15332 17.1003 5.60104C17.1003 5.04875 16.6526 4.60104 16.1003 4.60104V6.60104ZM16.7194 2.62308C16.5399 3.14536 16.8177 3.71431 17.34 3.89386C17.8623 4.07342 18.4312 3.79558 18.6108 3.27329L16.7194 2.62308ZM21.751 3.75433C21.7383 4.30648 22.1757 4.76431 22.7278 4.77694C23.28 4.78957 23.7378 4.35221 23.7504 3.80007L21.751 3.75433ZM20.8456 4.98946C20.7459 5.53268 21.1055 6.05385 21.6487 6.15353C22.1919 6.25321 22.7131 5.89365 22.8128 5.35043L20.8456 4.98946ZM25.2196 5.02073L24.2579 5.29492C24.2625 5.31092 24.2674 5.3268 24.2728 5.34256L25.2196 5.02073ZM24.0721 7.11813L23.7932 6.15777L23.7865 6.15978L24.0721 7.11813ZM23.5505 7.16788L23.5845 8.1673L23.5847 8.16729L23.5505 7.16788ZM22.2719 9.47091C22.2481 8.91913 21.7815 8.49112 21.2298 8.51492C20.678 8.53871 20.25 9.0053 20.2738 9.55707L22.2719 9.47091ZM22.1695 9.91945C22.3705 9.40506 22.1165 8.82509 21.6021 8.62405C21.0877 8.42301 20.5077 8.67703 20.3067 9.19143L22.1695 9.91945ZM19.9333 8.49873C20.4577 8.67201 21.0232 8.38737 21.1965 7.86298C21.3698 7.33858 21.0852 6.773 20.5608 6.59972L19.9333 8.49873ZM10.8843 10.6218C12.8474 10.6218 14.7211 11.3659 16.0954 12.6765L17.4757 11.2291C15.7198 9.55462 13.348 8.62176 10.8843 8.62176V10.6218ZM16.0954 12.6765C17.3028 13.8278 17.3606 15.3867 17.3606 17.5803H19.3606C19.3606 15.5525 19.3985 13.0627 17.4757 11.2291L16.0954 12.6765ZM17.3606 17.5803V33H19.3606V17.5803H17.3606ZM18.3606 32H3.40805V34H18.3606V32ZM4.40805 33V17.5389H2.40805V33H4.40805ZM4.40805 17.5389C4.40805 15.3452 4.46585 13.7864 5.67321 12.635L4.29296 11.1876C2.37012 13.0213 2.40805 15.511 2.40805 17.5389H4.40805ZM5.67321 12.635C7.04753 11.3244 8.92122 10.5803 10.8843 10.5803V8.58031C8.42062 8.58031 6.04884 9.51317 4.29296 11.1876L5.67321 12.635ZM9.88431 9.58031V9.62176H11.8843V9.58031H9.88431ZM11.8843 9.58031L11.8843 5.60104L9.88431 5.60104L9.88431 9.58031L11.8843 9.58031ZM3.75421 4.95889L0.233414 9.162L1.76659 10.4463L5.28738 6.24318L3.75421 4.95889ZM6.39855 6.60104H16.1003V4.60104H6.39855V6.60104ZM10.8843 4.60104H4.5208V6.60104H10.8843V4.60104ZM9.40618 3.16373C9.40618 3.76222 8.88332 4.32746 8.13722 4.32746V6.32746C9.89733 6.32746 11.4062 4.95523 11.4062 3.16373H9.40618ZM8.13722 4.32746C7.39111 4.32746 6.86826 3.76222 6.86826 3.16373H4.86826C4.86826 4.95523 6.3771 6.32746 8.13722 6.32746V4.32746ZM6.86826 3.16373C6.86826 2.56524 7.39111 2 8.13722 2V0C6.3771 0 4.86826 1.37223 4.86826 3.16373H6.86826ZM8.13722 2C8.88332 2 9.40618 2.56524 9.40618 3.16373H11.4062C11.4062 1.37223 9.89733 0 8.13722 0V2ZM18.6108 3.27329C18.7243 2.94315 18.9626 2.65113 19.2955 2.45984L18.2989 0.725784C17.5607 1.15002 16.9955 1.82002 16.7194 2.62308L18.6108 3.27329ZM19.2955 2.45984C19.6292 2.26802 20.0298 2.19454 20.4219 2.25845L20.7436 0.284506C19.9031 0.147481 19.0363 0.302068 18.2989 0.725784L19.2955 2.45984ZM20.4219 2.25845C20.8137 2.32232 21.1586 2.51686 21.3987 2.79446L22.9112 1.48588C22.3555 0.843607 21.5845 0.421581 20.7436 0.284506L20.4219 2.25845ZM21.3987 2.79446C21.6379 3.07085 21.7588 3.41174 21.751 3.75433L23.7504 3.80007C23.7699 2.9504 23.468 2.12936 22.9112 1.48588L21.3987 2.79446ZM22.8128 5.35043C22.8378 5.21428 22.9123 5.08096 23.036 4.97713L21.75 3.44535C21.2802 3.8398 20.9569 4.38281 20.8456 4.98946L22.8128 5.35043ZM23.036 4.97713C23.1605 4.87257 23.3258 4.80642 23.5057 4.7985L23.4177 2.80044C22.8077 2.82729 22.219 3.05162 21.75 3.44535L23.036 4.97713ZM23.5057 4.7985C23.6856 4.79058 23.8584 4.84195 23.9951 4.93688L25.1362 3.29435C24.6336 2.94525 24.0277 2.77359 23.4177 2.80044L23.5057 4.7985ZM23.9951 4.93688C24.1309 5.03124 24.2194 5.1599 24.2579 5.29492L26.1813 4.74654C26.0123 4.15387 25.6395 3.64402 25.1362 3.29435L23.9951 4.93688ZM24.2728 5.34256C24.2995 5.42109 24.3092 5.50259 24.3021 5.58298L26.2944 5.75827C26.3259 5.39973 26.2821 5.03937 26.1664 4.69889L24.2728 5.34256ZM24.3021 5.58298C24.295 5.66342 24.2711 5.7436 24.2299 5.81897L25.9844 6.77892C26.1568 6.46377 26.2628 6.11676 26.2944 5.75827L24.3021 5.58298ZM24.2299 5.81897C24.1885 5.89448 24.1301 5.96468 24.0554 6.02373L25.2966 7.59199C25.5775 7.36973 25.8121 7.09392 25.9844 6.77892L24.2299 5.81897ZM24.0554 6.02373C23.9807 6.08285 23.8919 6.12916 23.7932 6.15779L24.3509 8.07847C24.6942 7.97881 25.0159 7.81417 25.2966 7.59199L24.0554 6.02373ZM23.7865 6.15978C23.7961 6.15692 23.7781 6.16253 23.7261 6.16844C23.6799 6.17368 23.6306 6.17653 23.591 6.17751C23.5193 6.17927 23.5514 6.17411 23.6286 6.18488C23.6391 6.18636 23.7022 6.19469 23.7802 6.21872C23.8073 6.22709 23.9224 6.26202 24.0481 6.34778C24.1242 6.39969 24.6197 6.76765 24.4535 7.42026C24.3878 7.67805 24.2396 7.8386 24.1559 7.91439C24.0683 7.99369 23.9858 8.03999 23.941 8.06293C23.8517 8.10869 23.7761 8.12997 23.7502 8.13704C23.6888 8.15385 23.6402 8.16048 23.6292 8.16201C23.5808 8.16873 23.5518 8.16841 23.5845 8.1673L23.5164 6.16846C23.4883 6.16941 23.4213 6.17168 23.354 6.18103C23.3383 6.18322 23.2862 6.1905 23.2223 6.20796C23.1953 6.21536 23.1188 6.23696 23.0288 6.28305C22.9838 6.30615 22.901 6.35261 22.8132 6.43207C22.7294 6.50802 22.581 6.66872 22.5153 6.92668C22.349 7.5796 22.8447 7.94787 22.9212 8.00009C23.0474 8.08616 23.1632 8.1214 23.1913 8.13007C23.2713 8.1547 23.3373 8.16361 23.3518 8.16563C23.4604 8.18082 23.586 8.17824 23.6403 8.1769C23.7859 8.17331 24.0865 8.15731 24.3577 8.07648L23.7865 6.15978ZM23.5847 8.16729C23.8644 8.1577 24.1377 8.22765 24.3695 8.36394L25.3832 6.63983C24.8197 6.30854 24.1703 6.14604 23.5162 6.16846L23.5847 8.16729ZM24.3695 8.36394C24.6009 8.49997 24.7773 8.69376 24.8836 8.91483L26.6861 8.04816C26.4029 7.45934 25.9471 6.97138 25.3832 6.63983L24.3695 8.36394ZM24.8836 8.91483C24.9896 9.13525 25.0235 9.37715 24.9841 9.61192L26.9566 9.9425C27.0647 9.29747 26.9695 8.63763 26.6861 8.04816L24.8836 8.91483ZM24.9841 9.61192C24.9447 9.84703 24.8322 10.0721 24.6531 10.2567L26.0881 11.6498C26.5436 11.1805 26.8486 10.5872 26.9566 9.9425L24.9841 9.61192ZM24.6531 10.2567C24.4734 10.4417 24.2347 10.5773 23.9641 10.6392L24.4102 12.5888C25.0482 12.4428 25.633 12.1185 26.0881 11.6498L24.6531 10.2567ZM23.9641 10.6392C23.6933 10.7012 23.4092 10.685 23.1496 10.5938L22.4868 12.4808C23.1039 12.6975 23.7725 12.7348 24.4102 12.5888L23.9641 10.6392ZM23.1496 10.5938C22.8902 10.5027 22.6723 10.343 22.5188 10.1419L20.9294 11.3559C21.3259 11.875 21.8694 12.264 22.4868 12.4808L23.1496 10.5938ZM22.5188 10.1419C22.3657 9.9415 22.2821 9.70788 22.2719 9.47091L20.2738 9.55707C20.3019 10.2103 20.5324 10.8361 20.9294 11.3559L22.5188 10.1419ZM20.3067 9.19143C20.2694 9.28688 20.2003 9.37734 20.1006 9.44639L21.2389 11.0908C21.6569 10.8015 21.9833 10.3957 22.1695 9.91945L20.3067 9.19143ZM20.1006 9.44639C20.0004 9.51575 19.876 9.55843 19.7428 9.56374L19.8224 11.5622C20.3285 11.542 20.8213 11.3799 21.2389 11.0908L20.1006 9.44639ZM19.7428 9.56374C19.6096 9.56904 19.4806 9.53641 19.3728 9.47416L18.3728 11.2062C18.8123 11.46 19.3163 11.5823 19.8224 11.5622L19.7428 9.56374ZM19.3728 9.47416C19.2654 9.41215 19.1871 9.32575 19.1407 9.2318L17.3475 10.1176C17.5738 10.5756 17.9329 10.9522 18.3728 11.2062L19.3728 9.47416ZM19.1407 9.2318C19.0946 9.13849 19.0798 9.03795 19.0947 8.94094L17.1181 8.63634C17.04 9.14302 17.121 9.6589 17.3475 10.1176L19.1407 9.2318ZM19.0947 8.94094C19.1097 8.84363 19.1553 8.7465 19.2334 8.66365L17.7778 7.29203C17.4282 7.66302 17.1961 8.12997 17.1181 8.63634L19.0947 8.94094ZM19.2334 8.66365C19.3119 8.58028 19.4201 8.51534 19.5475 8.48399L19.0695 6.54195C18.5773 6.66309 18.1269 6.92156 17.7778 7.29203L19.2334 8.66365ZM19.5475 8.48399C19.675 8.45259 19.8099 8.45797 19.9333 8.49873L20.5608 6.59972C20.0795 6.4407 19.5615 6.42086 19.0695 6.54195L19.5475 8.48399Z" fill="#722839"/>
</svg>
