<svg width="48" height="41" viewBox="0 0 48 41" fill="none" xmlns="http://www.w3.org/2000/svg">
<path d="M31.2915 21.6584L31.2739 22.6582L31.2971 22.6586L31.3203 22.658L31.2915 21.6584ZM28.4145 22.6197L27.7996 21.8311L27.7987 21.8317L28.4145 22.6197ZM27.1966 25.0422L26.1969 25.0172L26.1966 25.0297V25.0422H27.1966ZM27.1966 31.2233V32.2233H28.1966V31.2233H27.1966ZM9.15768 31.2233H8.15768V32.2233H9.15768V31.2233ZM9.15768 25.0806H10.1577V25.0696L10.1574 25.0585L9.15768 25.0806ZM7.93975 22.6581L7.32026 23.4432L7.32628 23.4478L7.93975 22.6581ZM5.06274 21.6592L5.06274 22.6592L5.06274 21.6592ZM2.18573 22.6581L2.79664 23.4499L2.8052 23.4431L2.18573 22.6581ZM1.94597 27.282L2.65394 26.5757L2.64492 26.5667L2.63567 26.5579L1.94597 27.282ZM2.04187 27.3781L1.33391 28.0844L1.36012 28.1106L1.38821 28.1349L2.04187 27.3781ZM4.66954 28.4644H5.66954V27.5332L4.74074 27.4669L4.66954 28.4644ZM4.66954 36.5009H3.66954V37.5009H4.66954V36.5009ZM31.7806 36.5009V37.5009H32.7806V36.5009H31.7806ZM31.7806 28.4836L31.7106 27.4861L30.7806 27.5513V28.4836H31.7806ZM34.3987 27.3973L33.7509 26.6354L33.7421 26.643L34.3987 27.3973ZM34.3987 22.7639L35.0464 22.002L35.0396 21.9962L35.0328 21.9906L34.3987 22.7639ZM34.2932 22.6773L34.9273 21.9041L34.9243 21.9017L34.2932 22.6773ZM24.3483 40H23.3483V41H24.3483V40ZM29.3351 40V41H30.3351V40H29.3351ZM29.3351 36.5297H30.3351V35.5297H29.3351V36.5297ZM24.3483 36.5297V35.5297H23.3483V36.5297H24.3483ZM6.99992 40H5.99992V41H6.99992V40ZM11.9867 40V41H12.9867V40H11.9867ZM11.9867 36.5297H12.9867V35.5297H11.9867V36.5297ZM6.99992 36.5297V35.5297H5.99992V36.5297H6.99992ZM46.5493 10.9687V11.9687H47.7554L47.532 10.7834L46.5493 10.9687ZM35.0316 10.9687L34.0489 10.7834L33.8254 11.9687H35.0316V10.9687ZM36.9113 1V0H36.0822L35.9286 0.81471L36.9113 1ZM44.6696 1L45.6523 0.81471L45.4987 0H44.6696V1ZM34.5713 38.9423C34.019 38.9423 33.5713 39.39 33.5713 39.9423C33.5713 40.4946 34.019 40.9423 34.5713 40.9423V38.9423ZM47 40.9423C47.5523 40.9423 48 40.4946 48 39.9423C48 39.39 47.5523 38.9423 47 38.9423V40.9423ZM7.28091 22.3164C7.73703 20.7121 9.01889 19.2154 10.959 18.1041C12.8914 16.9972 15.4144 16.3138 18.2011 16.3138V14.3138C15.0995 14.3138 12.2281 15.0723 9.9649 16.3687C7.70933 17.6606 5.9943 19.5284 5.35715 21.7694L7.28091 22.3164ZM18.2011 16.3138C20.9879 16.3138 23.5107 16.9972 25.4418 18.104C27.3806 19.2151 28.6593 20.7112 29.1111 22.3141L31.0361 21.7716C30.4041 19.5293 28.6908 17.6609 26.4363 16.3688C24.1742 15.0723 21.3026 14.3138 18.2011 14.3138V16.3138ZM31.3091 20.6585C30.0397 20.6361 28.8012 21.0501 27.7996 21.8311L29.0294 23.4083C29.6704 22.9084 30.4625 22.6439 31.2739 22.6582L31.3091 20.6585ZM27.7987 21.8317C27.3131 22.2112 26.9177 22.6938 26.6407 23.2446L28.4276 24.143C28.5719 23.856 28.7778 23.6049 29.0302 23.4076L27.7987 21.8317ZM26.6407 23.2446C26.3638 23.7954 26.2123 24.4008 26.1969 25.0172L28.1962 25.0671C28.2043 24.7456 28.2833 24.43 28.4276 24.143L26.6407 23.2446ZM26.1966 25.0422V31.2233H28.1966V25.0422H26.1966ZM27.1966 30.2233H9.15768V32.2233H27.1966V30.2233ZM10.1577 31.2233V25.0806H8.15768V31.2233H10.1577ZM10.1574 25.0585C10.1438 24.4409 9.9928 23.834 9.71534 23.2822L7.92847 24.1805C8.07242 24.4669 8.15084 24.7819 8.15793 25.1027L10.1574 25.0585ZM9.71534 23.2822C9.43788 22.7303 9.04091 22.2473 8.55323 21.8684L7.32628 23.4478C7.57873 23.6439 7.78452 23.8942 7.92847 24.1805L9.71534 23.2822ZM8.55922 21.8731C7.5629 21.0869 6.3314 20.6592 5.06274 20.6592L5.06274 22.6592C5.88138 22.6592 6.67653 22.9351 7.32028 23.4431L8.55922 21.8731ZM5.06274 20.6592C3.79408 20.6592 2.56258 21.0869 1.56626 21.8731L2.8052 23.4431C3.44895 22.9351 4.2441 22.6592 5.06274 22.6592V20.6592ZM1.57484 21.8664C1.11269 22.223 0.733216 22.6755 0.462367 23.1928L2.23416 24.1205C2.37126 23.8587 2.56319 23.6299 2.79661 23.4498L1.57484 21.8664ZM0.462367 23.1928C0.191524 23.71 0.0356769 24.2798 0.00543973 24.863L2.00276 24.9665C2.01808 24.671 2.09706 24.3824 2.23416 24.1205L0.462367 23.1928ZM0.00543973 24.863C-0.0247972 25.4461 0.0712806 26.029 0.287139 26.5715L2.14545 25.8321C2.03614 25.5574 1.98743 25.2621 2.00276 24.9665L0.00543973 24.863ZM0.287139 26.5715C0.503003 27.114 0.833577 27.6035 1.25628 28.0061L2.63567 26.5579C2.42205 26.3544 2.25476 26.1068 2.14545 25.8321L0.287139 26.5715ZM1.23801 27.9882L1.33391 28.0844L2.74984 26.6719L2.65394 26.5757L1.23801 27.9882ZM1.38821 28.1349C2.28763 28.9118 3.41341 29.3773 4.59835 29.4618L4.74074 27.4669C3.98631 27.4131 3.26903 27.1167 2.69554 26.6213L1.38821 28.1349ZM3.66954 28.4644V36.5009H5.66954V28.4644H3.66954ZM4.66954 37.5009H31.7806V35.5009H4.66954V37.5009ZM32.7806 36.5009V28.4836H30.7806V36.5009H32.7806ZM31.8506 29.4812C33.0347 29.3981 34.1595 28.9313 35.0552 28.1516L33.7421 26.643C33.1738 27.1377 32.4608 27.4334 31.7106 27.4861L31.8506 29.4812ZM35.0464 28.1592C35.4924 27.78 35.8506 27.3082 36.0963 26.7766L34.2807 25.9378C34.1566 26.2063 33.9758 26.4443 33.751 26.6354L35.0464 28.1592ZM36.0963 26.7766C36.3419 26.245 36.469 25.6662 36.469 25.0806H34.469C34.469 25.3767 34.4047 25.6692 34.2807 25.9378L36.0963 26.7766ZM36.469 25.0806C36.469 24.495 36.3419 23.9162 36.0963 23.3846L34.2807 24.2235C34.4047 24.492 34.469 24.7845 34.469 25.0806H36.469ZM36.0963 23.3846C35.8506 22.853 35.4924 22.3812 35.0464 22.002L33.751 23.5258C33.9758 23.7169 34.1566 23.9549 34.2807 24.2235L36.0963 23.3846ZM35.0328 21.9906L34.9273 21.9041L33.659 23.4506L33.7645 23.5371L35.0328 21.9906ZM34.9243 21.9017C33.8918 21.0616 32.5926 20.6205 31.2627 20.6588L31.3203 22.658C32.1703 22.6335 33.0013 22.9154 33.6621 23.453L34.9243 21.9017ZM24.3483 41H29.3351V39H24.3483V41ZM30.3351 40V36.5297H28.3351V40H30.3351ZM29.3351 35.5297H24.3483V37.5297H29.3351V35.5297ZM23.3483 36.5297V40H25.3483V36.5297H23.3483ZM6.99992 41H11.9867V39H6.99992V41ZM12.9867 40V36.5297H10.9867V40H12.9867ZM11.9867 35.5297H6.99992V37.5297H11.9867V35.5297ZM5.99992 36.5297V40H7.99992V36.5297H5.99992ZM39.9007 10.8918V40H41.9007V10.8918H39.9007ZM46.5493 9.9687H35.0316V11.9687H46.5493V9.9687ZM36.0143 11.154L37.894 1.18529L35.9286 0.81471L34.0489 10.7834L36.0143 11.154ZM36.9113 2H44.6696V0H36.9113V2ZM43.6869 1.18529L45.5666 11.154L47.532 10.7834L45.6523 0.81471L43.6869 1.18529ZM34.5713 40.9423H47V38.9423H34.5713V40.9423Z" fill="#722839"/>
</svg>
