<svg width="40" height="38" viewBox="0 0 40 38" fill="none" xmlns="http://www.w3.org/2000/svg">
<path d="M19.9302 1.79171L19.2518 2.52647L19.9341 3.15632L20.6127 2.52258L19.9302 1.79171ZM19.3801 1.33614L19.9756 0.532837L19.9555 0.517897L19.9346 0.503987L19.3801 1.33614ZM18.3672 1.0095L18.4047 0.0101473L18.3944 0.00986768L18.3672 1.0095ZM17.5726 1.10405L17.81 2.07547L17.8219 2.07255L17.8338 2.06935L17.5726 1.10405ZM15.8263 4.12117L14.8698 4.41285L14.8865 4.46766L14.9093 4.5202L15.8263 4.12117ZM16.8654 5.76296L16.1118 6.42038L16.1318 6.44332L16.1532 6.46501L16.8654 5.76296ZM19.904 8.47922L19.2857 9.26522L19.9019 9.74988L20.5196 9.26722L19.904 8.47922ZM22.9775 5.76296L23.6839 6.47077L23.6994 6.45524L23.7143 6.43904L22.9775 5.76296ZM24.0951 4.12117L24.9946 4.55825L25.0301 4.485L25.0534 4.40695L24.0951 4.12117ZM22.2877 1.09546L22.0254 2.06046L22.048 2.06658L22.0707 2.07164L22.2877 1.09546ZM21.5018 1.0009L21.4761 0.00121872L21.4709 0.00138205L21.5018 1.0009ZM20.489 1.32754L19.929 0.499044L19.9121 0.510466L19.8957 0.522568L20.489 1.32754ZM7.44393 28.0432L7.09491 28.9803L7.09569 28.9806L7.44393 28.0432ZM5.30469 23.3585L4.40106 22.9302L4.38537 22.9633L4.37215 22.9974L5.30469 23.3585ZM11.1025 11.1267L11.453 10.1902L10.5924 9.86806L10.1989 10.6984L11.1025 11.1267ZM16.1319 13.0092L17.0885 13.3007L17.3623 12.402L16.4824 12.0727L16.1319 13.0092ZM12.2027 25.9029L13.1393 26.2532L13.1502 26.2241L13.1592 26.1944L12.2027 25.9029ZM8.37671 28.4122C8.57578 27.8971 8.31954 27.3181 7.80438 27.119C7.28922 26.92 6.71022 27.1762 6.51115 27.6914L8.37671 28.4122ZM3.59479 35.2384C3.39572 35.7536 3.65197 36.3326 4.16713 36.5317C4.68229 36.7307 5.26128 36.4745 5.46035 35.9593L3.59479 35.2384ZM1.35076 33.4504C0.833563 33.2567 0.257253 33.5189 0.0635342 34.0361C-0.130185 34.5533 0.132045 35.1296 0.649241 35.3234L1.35076 33.4504ZM7.6258 37.9365C8.143 38.1302 8.71931 37.868 8.91303 37.3508C9.10675 36.8336 8.84452 36.2573 8.32732 36.0635L7.6258 37.9365ZM32.5823 28.0432L32.231 27.1069L32.2237 27.1097L32.5823 28.0432ZM34.7215 23.3585L35.6549 22.9997L35.6413 22.9644L35.6251 22.9302L34.7215 23.3585ZM28.9237 11.1267L29.8273 10.6984L29.4349 9.87042L28.5758 10.1892L28.9237 11.1267ZM23.8506 13.0092L23.5028 12.0717L22.6194 12.3994L22.8941 13.3007L23.8506 13.0092ZM27.7799 25.9029L26.8233 26.1944L26.8317 26.222L26.8418 26.2492L27.7799 25.9029ZM33.4888 27.6914C33.2898 27.1762 32.7108 26.92 32.1956 27.119C31.6805 27.3181 31.4242 27.8971 31.6233 28.4122L33.4888 27.6914ZM34.5396 35.9593C34.7387 36.4745 35.3177 36.7307 35.8329 36.5317C36.348 36.3326 36.6043 35.7536 36.4052 35.2384L34.5396 35.9593ZM39.3504 35.3235C39.8676 35.13 40.1301 34.5538 39.9366 34.0365C39.7431 33.5192 39.1669 33.2568 38.6496 33.4503L39.3504 35.3235ZM31.6643 36.0634C31.1471 36.2569 30.8846 36.8331 31.0781 37.3504C31.2716 37.8676 31.8478 38.1301 32.3651 37.9366L31.6643 36.0634ZM20.6085 1.05696C20.4072 0.871115 20.1959 0.69616 19.9756 0.532837L18.7845 2.13944C18.9473 2.26015 19.1033 2.38935 19.2518 2.52647L20.6085 1.05696ZM19.9346 0.503987C19.4802 0.201171 18.9502 0.0306501 18.4046 0.0102002L18.3297 2.0088C18.5082 2.01549 18.6799 2.07128 18.8255 2.16829L19.9346 0.503987ZM18.3944 0.00986768C18.0291 -6.43769e-05 17.6641 0.0433355 17.3115 0.138756L17.8338 2.06935C17.9984 2.02481 18.169 2.00448 18.34 2.00913L18.3944 0.00986768ZM17.3352 0.132638C16.8855 0.242539 16.4622 0.441403 16.0913 0.717934L17.2866 2.32144C17.4415 2.20596 17.6195 2.12202 17.81 2.07547L17.3352 0.132638ZM16.0913 0.717934C15.7203 0.994494 15.4091 1.34314 15.1774 1.74339L16.9084 2.74528C17.0033 2.58131 17.1317 2.4369 17.2866 2.32144L16.0913 0.717934ZM15.1774 1.74339C14.9457 2.14369 14.7986 2.58692 14.7456 3.04621L16.7324 3.27553C16.7539 3.08959 16.8135 2.9092 16.9084 2.74528L15.1774 1.74339ZM14.7456 3.04621C14.6926 3.50552 14.7349 3.97054 14.8698 4.41285L16.7828 3.82949C16.728 3.64983 16.7109 3.46145 16.7324 3.27553L14.7456 3.04621ZM14.9093 4.5202C15.2099 5.21075 15.6155 5.85147 16.1118 6.42038L17.6189 5.10555C17.2567 4.69046 16.9616 4.22389 16.7432 3.72214L14.9093 4.5202ZM16.1532 6.46501C17.1366 7.46248 18.1828 8.39773 19.2857 9.26522L20.5222 7.69323C19.4852 6.8776 18.5017 5.9984 17.5775 5.06091L16.1532 6.46501ZM20.5196 9.26722C21.6308 8.39903 22.6875 7.46517 23.6839 6.47077L22.2711 5.05515C21.332 5.99237 20.3359 6.87269 19.2883 7.69123L20.5196 9.26722ZM23.7143 6.43904C24.2304 5.87653 24.6617 5.24312 24.9946 4.55825L23.1957 3.68409C22.9479 4.19399 22.6263 4.66653 22.2407 5.08689L23.7143 6.43904ZM25.0534 4.40695C25.1872 3.95851 25.2262 3.48749 25.1679 3.02322L23.1835 3.27246C23.2071 3.4611 23.1913 3.6526 23.1368 3.83539L25.0534 4.40695ZM25.1679 3.02322C25.1096 2.55898 24.9553 2.11215 24.7152 1.71031L22.9983 2.73597C23.097 2.90121 23.1598 3.08381 23.1835 3.27246L25.1679 3.02322ZM24.7152 1.71031C24.4752 1.30852 24.1548 0.960572 23.7745 0.687255L22.6073 2.31132C22.7667 2.42592 22.8995 2.57067 22.9983 2.73597L24.7152 1.71031ZM23.7745 0.687255C23.3942 0.413965 22.962 0.220922 22.5046 0.119274L22.0707 2.07164C22.2652 2.11487 22.4478 2.1967 22.6073 2.31132L23.7745 0.687255ZM22.5499 0.130456C22.2003 0.0354301 21.8384 -0.00808165 21.4761 0.00123262L21.5275 2.00057C21.6957 1.99625 21.8635 2.01646 22.0254 2.06046L22.5499 0.130456ZM21.4709 0.00138205C20.9205 0.0184363 20.3854 0.190577 19.929 0.499044L21.049 2.15604C21.1904 2.06042 21.3584 2.00583 21.5328 2.00042L21.4709 0.00138205ZM19.8957 0.522568C19.6693 0.689405 19.4529 0.869131 19.2476 1.06085L20.6127 2.52258C20.7613 2.38377 20.9181 2.25352 21.0823 2.13252L19.8957 0.522568ZM7.79296 27.1061C7.4614 26.9826 7.15884 26.7963 6.90224 26.5586L5.54309 28.0258C5.99241 28.442 6.51987 28.7661 7.09491 28.9803L7.79296 27.1061ZM6.90224 26.5586C6.64568 26.3209 6.44016 26.0366 6.29667 25.7224L4.47738 26.5532C4.73132 27.1093 5.09373 27.6096 5.54309 28.0258L6.90224 26.5586ZM6.29667 25.7224C6.15319 25.4082 6.07435 25.0699 6.06418 24.7266L4.06505 24.7858C4.08314 25.3964 4.22342 25.997 4.47738 26.5532L6.29667 25.7224ZM6.06418 24.7266C6.05401 24.3834 6.1127 24.0412 6.23723 23.7196L4.37215 22.9974C4.15145 23.5675 4.04697 24.1752 4.06505 24.7858L6.06418 24.7266ZM6.20832 23.7868L12.0061 11.555L10.1989 10.6984L4.40106 22.9302L6.20832 23.7868ZM10.7519 12.0633L15.7814 13.9457L16.4824 12.0727L11.453 10.1902L10.7519 12.0633ZM15.1753 12.7177L11.2461 25.6114L13.1592 26.1944L17.0885 13.3007L15.1753 12.7177ZM11.266 25.5525C11.1448 25.8766 10.9592 26.175 10.7192 26.4299L12.1752 27.801C12.5965 27.3536 12.9244 26.8277 13.1393 26.2532L11.266 25.5525ZM10.7192 26.4299C10.4791 26.6848 10.1893 26.8914 9.86595 27.0368L10.6863 28.8608C11.2478 28.6082 11.754 28.2483 12.1752 27.801L10.7192 26.4299ZM9.86595 27.0368C9.54261 27.1822 9.19264 27.2634 8.83631 27.2753L8.90295 29.2742C9.51881 29.2537 10.1249 29.1133 10.6863 28.8608L9.86595 27.0368ZM8.83631 27.2753C8.47997 27.2872 8.12505 27.2295 7.79218 27.1058L7.09569 28.9806C7.67292 29.195 8.28709 29.2947 8.90295 29.2742L8.83631 27.2753ZM6.51115 27.6914L3.59479 35.2384L5.46035 35.9593L8.37671 28.4122L6.51115 27.6914ZM0.649241 35.3234L7.6258 37.9365L8.32732 36.0635L1.35076 33.4504L0.649241 35.3234ZM32.9335 28.9795C34.0921 28.5449 35.0332 27.6736 35.5455 26.5517L33.7262 25.7209C33.4364 26.3555 32.9004 26.8558 32.231 27.1069L32.9335 28.9795ZM35.5455 26.5517C36.0581 25.4292 36.0976 24.1512 35.6549 22.9997L33.7881 23.7173C34.0378 24.3669 34.0158 25.0869 33.7262 25.7209L35.5455 26.5517ZM35.6251 22.9302L29.8273 10.6984L28.0201 11.555L33.8179 23.7868L35.6251 22.9302ZM28.5758 10.1892L23.5028 12.0717L24.1985 13.9467L29.2716 12.0643L28.5758 10.1892ZM22.8941 13.3007L26.8233 26.1944L28.7364 25.6114L24.8072 12.7177L22.8941 13.3007ZM26.8418 26.2492C27.0563 26.8302 27.3862 27.3621 27.8114 27.8141L29.268 26.4436C29.0257 26.1861 28.839 25.8843 28.718 25.5565L26.8418 26.2492ZM27.8114 27.8141C28.2366 28.266 28.7484 28.6287 29.3162 28.8818L30.1304 27.055C29.8034 26.9093 29.5103 26.7011 29.268 26.4436L27.8114 27.8141ZM29.3162 28.8818C29.8841 29.1349 30.4969 29.2734 31.119 29.2897L31.1713 27.2903C30.8114 27.2809 30.4574 27.2008 30.1304 27.055L29.3162 28.8818ZM31.119 29.2897C31.741 29.3059 32.3603 29.1996 32.9408 28.9767L32.2237 27.1097C31.8891 27.2382 31.5312 27.2998 31.1713 27.2903L31.119 29.2897ZM31.6233 28.4122L34.5396 35.9593L36.4052 35.2384L33.4888 27.6914L31.6233 28.4122ZM38.6496 33.4503L31.6643 36.0634L32.3651 37.9366L39.3504 35.3235L38.6496 33.4503ZM25.855 21.1005L33.0848 21.2552L33.1276 19.2557L25.8978 19.1009L25.855 21.1005ZM6.68035 21.1005L13.9101 21.2552L13.9529 19.2557L6.72314 19.1009L6.68035 21.1005Z" fill="#722839"/>
</svg>
