<svg width="35" height="35" viewBox="0 0 35 35" fill="none" xmlns="http://www.w3.org/2000/svg">
<rect x="0.5" y="0.5" width="34" height="34" rx="8.5" stroke="black"/>
<path d="M15.7903 20.1977V11H18.4566V16.0355V16.5914L19.0093 16.5327C20.2897 16.3969 21.5426 15.6226 22.56 14.5658C23.4992 13.5903 24.2767 12.3354 24.7241 11H27.4028C26.6547 13.9386 24.4088 16.1199 22.787 17.0446L21.9436 17.5255L22.8248 17.9328C24.4508 18.6845 27.0201 20.5963 28.1958 24H25.1943C24.2062 21.3477 21.9655 19.2899 19.0054 18.9994L18.4566 18.9455V19.497V23.9999C14.7192 23.9866 11.8343 22.7196 9.85146 20.4503C7.92885 18.2499 6.80759 15.0532 6.64075 11H9.53385C9.79832 17.2198 12.6701 20.0666 15.1706 20.6832L15.7903 20.8359V20.1977Z" stroke="black"/>
</svg>
