<svg width="42" height="41" viewBox="0 0 42 41" fill="none" xmlns="http://www.w3.org/2000/svg">
<path d="M1.04988 17.3055H40.9501M1 32.3796H41M3.44389 1H38.5561C39.191 1 39.8 1.32211 40.2489 1.89546C40.6979 2.46881 40.9501 3.24644 40.9501 4.05729V36.2083H1.04988V4.05729C1.04988 3.24644 1.3021 2.46881 1.75107 1.89546C2.20003 1.32211 2.80896 1 3.44389 1ZM7.02383 8.25398H17.3868C17.5338 8.25398 17.6747 8.32854 17.7787 8.46126C17.8826 8.59398 17.941 8.77399 17.941 8.96168V17.302H6.46966V8.96168C6.46966 8.77399 6.52805 8.59398 6.63197 8.46126C6.7359 8.32854 6.87685 8.25398 7.02383 8.25398ZM24.6132 8.25398H34.9762C35.1232 8.25398 35.2641 8.32854 35.368 8.46126C35.472 8.59398 35.5303 8.77399 35.5303 8.96168V17.302H24.059V8.96168C24.059 8.77399 24.1174 8.59398 24.2213 8.46126C24.3253 8.32854 24.4662 8.25398 24.6132 8.25398ZM35.5262 36.2189H40.9501V40H35.5262V36.2189ZM1.04988 36.2189H6.47382V40H1.04988V36.2189Z" stroke="#722839" stroke-width="2" stroke-miterlimit="10"/>
</svg>
