<svg width="30" height="30" viewBox="0 0 30 30" fill="none" xmlns="http://www.w3.org/2000/svg">
<g clip-path="url(#clip0_1_3904)">
<path d="M2.6207 30.0002C2.01884 29.7519 1.84191 29.2954 1.84665 28.6689C1.86561 25.9726 1.85455 23.2755 1.85455 20.5792C1.85455 19.2479 2.39481 18.4076 3.65935 17.9565C4.27944 17.7433 4.81061 17.3321 5.16954 16.7873C6.02416 15.5562 6.94038 14.3666 7.82106 13.1536C8.38817 12.3704 9.13695 11.9898 10.1116 11.9922C13.37 12.0021 16.6281 12.0021 19.886 11.9922C20.8638 11.9922 21.6118 12.3736 22.1765 13.1536C23.1981 14.5564 24.2267 15.9533 25.2625 17.3441C25.3847 17.4916 25.5396 17.6092 25.7151 17.6879C26.0057 17.8296 26.3209 17.9228 26.6147 18.0583C27.5949 18.5094 28.1273 19.2839 28.1352 20.3442C28.1565 23.2167 28.1438 26.0893 28.1423 28.9586C28.1423 29.4857 27.8263 29.7934 27.3777 29.9963H23.8874C23.2965 29.7848 23.0596 29.3643 23.0857 28.7511C23.1101 28.1779 23.0912 27.6038 23.0912 27.0149H6.91194C6.91194 27.6038 6.89299 28.1779 6.91747 28.7511C6.94354 29.3643 6.70658 29.7848 6.11578 29.9963L2.6207 30.0002ZM24.0848 17.4788C24.0153 17.3723 23.9727 17.2987 23.9221 17.2297C23.0746 16.0762 22.22 14.9289 21.3827 13.7683C20.9941 13.2303 20.4934 12.9852 19.8228 12.9899C16.6044 13.0024 13.3858 13.0024 10.1669 12.9899C9.49553 12.9899 8.99714 13.2366 8.61012 13.773C7.77841 14.9258 6.92932 16.066 6.08892 17.211C6.03284 17.2893 5.98387 17.3676 5.90963 17.478L24.0848 17.4788ZM27.1305 23.9787C27.1305 22.7195 27.1392 21.4986 27.1257 20.2777C27.1257 19.8728 26.9678 19.4883 26.6329 19.2518C26.0523 18.8446 25.4118 18.5047 24.6835 18.5031C18.4737 18.4914 12.264 18.5031 6.05496 18.4859C5.30855 18.4859 4.61902 18.5908 3.94054 18.9002C3.2044 19.2361 2.86397 19.6833 2.8616 20.4813C2.8616 21.3999 2.8616 22.3185 2.8616 23.2363V23.9787H27.1305ZM27.1352 25.0164H2.89952C2.77393 25.7603 2.96981 25.9992 3.68937 25.9992H26.3185C26.3975 25.9992 26.4765 25.9992 26.5555 25.9992C26.9433 25.9765 27.1242 25.794 27.1399 25.4071C27.1423 25.2928 27.1384 25.1753 27.1384 25.0195L27.1352 25.0164ZM24.1267 26.9836V28.9751H27.1131V26.9867L24.1267 26.9836ZM5.88119 26.9883H2.88767V28.9766H5.88277L5.88119 26.9883Z" fill="black"/>
<path d="M12.9835 0H13.9834V1.47149H16.0046V0.00783174H17.0196C17.0196 0.434636 17.0393 0.861438 17.0133 1.28668C16.9943 1.59993 17.0923 1.79101 17.3648 1.97504C18.807 2.95004 20.2319 3.94931 21.6615 4.94153C21.75 5.00261 21.8693 5.05821 21.908 5.14436C21.9791 5.30098 22.0715 5.50773 22.0225 5.64791C21.9735 5.78809 21.7697 5.88284 21.6165 5.9682C21.5375 6.01049 21.423 5.98543 21.3251 5.98543H8.64879C8.55954 5.98543 8.4537 6.0105 8.38577 5.97212C8.23412 5.88441 8.03113 5.78965 7.98216 5.65104C7.93319 5.51243 8.01691 5.30412 8.08958 5.14749C8.13302 5.05273 8.26334 4.99086 8.36049 4.92743C9.83066 3.9078 11.3024 2.88974 12.7757 1.87324C12.8468 1.8331 12.9045 1.77344 12.9421 1.70145C12.9797 1.62947 12.9954 1.54824 12.9874 1.46758C12.974 0.990654 12.9835 0.511381 12.9835 0ZM19.8488 4.97207L19.8662 4.91725C18.728 4.12943 17.5914 3.33925 16.4485 2.55769C16.3538 2.50933 16.2476 2.48766 16.1413 2.49504C15.3909 2.48956 14.6406 2.48408 13.8918 2.49896C13.7282 2.50311 13.569 2.55247 13.4321 2.64149C12.3919 3.3463 11.3611 4.06912 10.328 4.78647C10.2609 4.83267 10.2 4.88906 10.0974 4.97207H19.8488Z" fill="black"/>
<path d="M15.4877 8.47225H14.5186V7.01172H15.4877V8.47225Z" fill="black"/>
<path d="M14.5173 9.5H15.4904V10.9778H14.5173V9.5Z" fill="black"/>
<path d="M26.343 10.7486L27.0318 10.0195L28.1376 11.0329L27.4559 11.7675L26.343 10.7486Z" fill="black"/>
<path d="M23.0075 9.86762L22.2271 10.5019L21.2659 9.34527L22.0462 8.71094L23.0075 9.86762Z" fill="black"/>
<path d="M12.2473 9.53153C12.1036 10.0202 11.9677 10.4822 11.824 10.9686L10.8572 10.6874L11.2813 9.25195L12.2473 9.53153Z" fill="black"/>
<path d="M7.37368 7.25097L6.25999 8.26904L5.5752 7.53211L6.68098 6.51953L7.37368 7.25097Z" fill="black"/>
<path d="M28.2031 12.4463L28.8863 11.7109L30 12.729L29.3176 13.4628L28.2031 12.4463Z" fill="black"/>
<path d="M2.97422 9.91211L3.65586 10.6475L2.54218 11.6655L1.86133 10.9294C2.23414 10.5872 2.59193 10.2598 2.97422 9.91211Z" fill="black"/>
<path d="M19.1446 10.7945L18.1779 11.0733C18.0357 10.5948 17.8991 10.1335 17.7529 9.63936L18.7197 9.35352L19.1446 10.7945Z" fill="black"/>
<path d="M5.39355 11.7028L6.35401 10.543L7.13517 11.1765L6.17392 12.3355L5.39355 11.7028Z" fill="black"/>
<path d="M7.95381 8.60742L8.73575 9.24097C8.41981 9.62314 8.11019 9.99747 7.77767 10.4L6.99414 9.7688L7.95381 8.60742Z" fill="black"/>
<path d="M17.4671 8.67833L17.0469 7.24443L18.0097 6.96094L18.437 8.39954L17.4671 8.67833Z" fill="black"/>
<path d="M22.6299 7.35919L23.3147 6.62305L24.4284 7.64111C24.1977 7.88858 23.9789 8.12352 23.7444 8.37412L22.6299 7.35919Z" fill="black"/>
<path d="M1.79927 12.3424L0.684797 13.3605L0 12.6235L1.11526 11.6055L1.79927 12.3424Z" fill="black"/>
<path d="M4.57511 14.273L3.79395 13.6387L4.75361 12.4805L5.53477 13.1148L4.57511 14.273Z" fill="black"/>
<path d="M26.2087 13.743L25.4268 14.3758L24.4679 13.2167L25.2467 12.584L26.2087 13.743Z" fill="black"/>
<path d="M23.831 12.4402L22.8682 11.2812L23.6485 10.6484L24.6098 11.8035L23.831 12.4402Z" fill="black"/>
<path d="M25.6014 10.0722L24.4885 9.05409L25.1741 8.32422L26.2886 9.34228L25.6014 10.0722Z" fill="black"/>
<path d="M3.71582 9.23291L4.82872 8.21484L5.51272 8.9455L4.40141 9.96356L3.71582 9.23291Z" fill="black"/>
<path d="M11.9908 6.85547L12.9544 7.13348C12.8162 7.60884 12.6819 8.07323 12.5358 8.56973L11.5667 8.29329C11.7088 7.8101 11.8478 7.34101 11.9908 6.85547Z" fill="black"/>
<path d="M20.6277 8.57187L19.6672 7.4105L20.4476 6.7793L21.4081 7.93754L20.6277 8.57187Z" fill="black"/>
<path d="M9.55165 6.67188L10.3336 7.30621L9.37472 8.46523L8.59277 7.8309L9.55165 6.67188Z" fill="black"/>
<path d="M15.0019 19.5012C16.4626 19.5012 17.923 19.5012 19.3832 19.5012C20.4629 19.5012 21.0466 20.0979 21.0711 21.1724C21.0869 21.8772 20.925 22.4864 20.2402 22.8169C19.9717 22.9361 19.6805 22.9965 19.3863 22.9939C16.4655 23.0064 13.5446 23.0085 10.6238 23.0002C9.54247 23.0002 8.94376 22.3956 8.94297 21.3235C8.93323 21.0899 8.95152 20.8559 8.99747 20.6265C9.16966 19.9342 9.74309 19.509 10.4982 19.5059C12.0005 19.4965 13.5012 19.5012 15.0019 19.5012ZM15.0224 20.5004C13.5525 20.5004 12.0834 20.5004 10.6143 20.5004C10.3371 20.5004 10.0567 20.5427 9.99663 20.8325C9.92554 21.1747 9.82287 21.5725 10.1317 21.8506C10.2549 21.9633 10.4942 21.9892 10.6806 21.9892C13.5599 21.998 16.4392 21.9999 19.3184 21.9946C19.4268 21.9963 19.5351 21.9892 19.6423 21.9735C19.746 21.9617 19.8422 21.9143 19.9143 21.8395C19.9865 21.7646 20.0299 21.6672 20.0372 21.5639C20.0506 21.4378 20.0554 21.3109 20.0514 21.1841C20.0514 20.6571 19.8934 20.5004 19.3682 20.5004H15.0224Z" fill="black"/>
<path d="M24.1035 23.0316C23.7734 22.9909 23.4282 22.9964 23.1154 22.9001C22.5317 22.7199 22.1779 22.2994 22.1084 21.6894C22.0772 21.3892 22.0772 21.0866 22.1084 20.7864C22.1485 20.4489 22.307 20.1361 22.5563 19.9027C22.8055 19.6694 23.1295 19.5304 23.4716 19.5099C23.8745 19.4903 24.2797 19.4927 24.6833 19.5099C25.0312 19.5196 25.3642 19.6524 25.6219 19.8844C25.8797 20.1164 26.0451 20.4322 26.0884 20.7747C26.1255 21.0839 26.1255 21.3965 26.0884 21.7058C26.0047 22.4059 25.4652 22.9063 24.7551 22.976C24.5395 22.998 24.3223 22.9987 24.1059 23.0089L24.1035 23.0316ZM24.1098 20.499C23.083 20.4371 23.0538 20.701 23.1044 21.528C23.1209 21.7998 23.2868 21.9658 23.5593 21.9783C23.9228 22.0073 24.2883 22.0026 24.6509 21.9642C24.8089 21.9423 25.0355 21.7669 25.0624 21.6283C25.2204 20.8248 25.09 20.4152 24.2575 20.4982C24.2086 20.5029 24.1588 20.499 24.1098 20.499Z" fill="black"/>
<path d="M5.91828 19.4707C6.23422 19.5036 6.55569 19.4895 6.85109 19.5772C7.46085 19.7581 7.81629 20.188 7.89922 20.8232C7.90475 20.8615 7.9087 20.9015 7.91265 20.9391C8.05719 22.2978 7.35975 23.0793 6.03202 22.9987C5.76663 22.983 5.49887 22.9987 5.23506 22.9721C4.90277 22.9489 4.589 22.8117 4.34769 22.5841C4.10638 22.3564 3.95262 22.0524 3.91286 21.7245C3.87152 21.3963 3.87284 21.0641 3.91681 20.7362C3.96774 20.405 4.13281 20.1016 4.38394 19.8774C4.63507 19.6532 4.95676 19.5223 5.2943 19.5067C5.50045 19.4965 5.70818 19.5067 5.91512 19.5067L5.91828 19.4707ZM5.91828 20.4989C5.79033 20.4989 5.66158 20.4989 5.53363 20.4989C5.06999 20.5036 4.89227 20.6759 4.88516 21.1372C4.88106 21.2833 4.88925 21.4294 4.90964 21.5742C4.94756 21.8146 5.1 21.9657 5.34564 21.9759C5.71924 21.9908 6.09521 21.9924 6.4688 21.9759C6.57986 21.9751 6.68614 21.9311 6.76474 21.8533C6.84334 21.7755 6.88797 21.6702 6.889 21.5601C6.95535 20.777 6.91507 20.4363 6.00753 20.5013C5.98147 20.5005 5.95224 20.4989 5.92223 20.4989H5.91828Z" fill="black"/>
</g>
<defs>
<clipPath id="clip0_1_3904">
<rect width="30" height="30" fill="white"/>
</clipPath>
</defs>
</svg>
