<svg width="28" height="41" viewBox="0 0 28 41" fill="none" xmlns="http://www.w3.org/2000/svg">
<path d="M12.1286 23.8433L10.4377 29.3403L2 35.2684L5.29444 39.5174L15.3122 32.4783L16.3168 29.1675M17.6987 12.0702L26.4666 20.0454C26.7864 20.3253 26.9774 20.7139 26.9981 21.1269C27.0189 21.54 26.8677 21.9442 26.5774 22.2518C26.2834 22.5562 25.8751 22.738 25.4411 22.7578C25.0072 22.7775 24.5825 22.6336 24.2593 22.3573L18.5995 17.078M18.8207 4.57567C18.8207 6.55046 17.1388 8.15135 15.064 8.15135C12.9893 8.15135 11.3074 6.55046 11.3074 4.57567C11.3074 2.60088 12.9893 1 15.064 1C17.1388 1 18.8207 2.60088 18.8207 4.57567ZM13.2086 11.2846C13.7688 11.0209 14.3854 10.8842 15.0103 10.8851C17.2601 10.8851 18.6137 12.6224 18.6137 14.7638V21.1205C18.6137 21.6301 18.5665 22.4045 18.5382 22.813C18.5272 22.9896 18.5832 23.1641 18.6962 23.3045L22.5873 28.1372V40H17.0408V30.0047L12.1003 23.8388C11.353 23.1156 10.9345 22.1416 10.9353 21.1273V16.2969C10.9356 16.2888 10.9336 16.2809 10.9296 16.2739C10.9256 16.2668 10.9197 16.2609 10.9124 16.2568C10.9052 16.2527 10.897 16.2505 10.8886 16.2504C10.8801 16.2504 10.8719 16.2524 10.8646 16.2565L10.4873 16.4652L8.23987 17.6908C8.05234 17.8004 7.88952 17.9443 7.7608 18.1142C7.63208 18.2841 7.54 18.4767 7.48994 18.6806L6.11039 24.2922C6.05975 24.4965 5.96709 24.6893 5.83775 24.8593C5.7084 25.0293 5.54494 25.1733 5.3568 25.2829C5.16867 25.3924 4.9596 25.4654 4.74166 25.4977C4.52371 25.5299 4.30123 25.5207 4.08704 25.4706C3.66293 25.3714 3.29652 25.118 3.0664 24.7647C2.83628 24.4114 2.76078 23.9863 2.85606 23.5806L4.4455 16.8333C4.54042 16.4339 4.79391 16.0848 5.15296 15.8592L10.9707 12.5528C10.9707 12.5528 13.0129 11.3722 13.2086 11.2846Z" stroke="black" stroke-width="2" stroke-miterlimit="10"/>
</svg>
