<svg width="32" height="24" viewBox="0 0 32 24" fill="none" xmlns="http://www.w3.org/2000/svg">
<path d="M16.3144 18.9068H30.3938M12.8017 8.40773H15.1761L13.9365 23H3.25113L2.01152 8.40773H4.27008M4.26389 8.39234H1.91483C1.79469 8.39234 1.67573 8.36785 1.56474 8.32028C1.45375 8.27271 1.3529 8.20298 1.26795 8.11507C1.09639 7.93754 1 7.69676 1 7.44569C0.999757 7.32121 1.02324 7.19791 1.0691 7.08283C1.11497 6.96776 1.18232 6.86317 1.26729 6.77506C1.35227 6.68695 1.4532 6.61705 1.56431 6.56936C1.67543 6.52166 1.79454 6.49711 1.91483 6.49711H15.2728C15.3931 6.49711 15.5122 6.52166 15.6234 6.56936C15.7345 6.61705 15.8354 6.68695 15.9204 6.77506C16.0053 6.86317 16.0727 6.96776 16.1186 7.08283C16.1644 7.19791 16.1879 7.32121 16.1877 7.44569C16.1877 7.69676 16.0913 7.93754 15.9197 8.11507C15.7482 8.2926 15.5155 8.39234 15.2728 8.39234H12.7936M2.46894 6.52598C2.46894 3.47822 5.21095 1.01026 8.59383 1.01026C11.9767 1.01026 14.7193 3.47951 14.72 6.52598M24.2441 1.86007C24.2441 1.44895 23.8444 1 23.3516 1C22.8558 1 22.4591 1.44895 22.4591 1.86007V15.1465H24.2441V1.86007ZM30.4025 18.9479C30.0554 16.8692 28.752 15.1504 26.7234 15.1484H19.9805C17.9525 15.1484 16.5449 16.9154 16.302 18.9479L15.715 22.9987H31L30.4025 18.9479ZM12.7961 15.6442L4.27256 12.5862V6.50096H12.7961V15.6442Z" stroke="black" stroke-miterlimit="10"/>
</svg>
