<svg width="46" height="41" viewBox="0 0 46 41" fill="none" xmlns="http://www.w3.org/2000/svg">
<path d="M43.5208 26.7694V27.7694H44.5208V26.7694H43.5208ZM2.48494 26.7694H1.48494V27.7694H2.48494V26.7694ZM44 40V41H45.2017L44.9834 39.8183L44 40ZM2 40L1.01664 39.8183L0.798328 41H2V40ZM3.28453 33.0472V32.0472H2.45235L2.30117 32.8655L3.28453 33.0472ZM42.7155 33.0472L43.6988 32.8655L43.5476 32.0472H42.7155V33.0472ZM24 1.10125C24 0.54897 23.5523 0.101255 23 0.101255C22.4477 0.101255 22 0.54897 22 1.10125H24ZM22 5.30333C22 5.85562 22.4477 6.30333 23 6.30333C23.5523 6.30333 24 5.85562 24 5.30333H22ZM28.0203 2C28.5725 2 29.0203 1.55228 29.0203 1C29.0203 0.447715 28.5725 0 28.0203 0V2ZM17.9798 0C17.4275 0 16.9798 0.447715 16.9798 1C16.9798 1.55228 17.4275 2 17.9798 2V0ZM44.5208 26.7694C44.5208 16.1469 36.3688 4.49459 23.0057 4.49459V6.49459C35.0237 6.49459 42.5208 16.9946 42.5208 26.7694H44.5208ZM23.0057 4.49459C9.64283 4.49459 1.48494 16.1523 1.48494 26.7694H3.48494C3.48494 17.0004 10.9875 6.49459 23.0057 6.49459V4.49459ZM2.48494 27.7694H43.5208V25.7694H2.48494V27.7694ZM44 39H2V41H44V39ZM2.98336 40.1817L4.26789 33.2288L2.30117 32.8655L1.01664 39.8183L2.98336 40.1817ZM3.28453 34.0472H42.7155V32.0472H3.28453V34.0472ZM41.7321 33.2288L43.0166 40.1817L44.9834 39.8183L43.6988 32.8655L41.7321 33.2288ZM7.21911 26.8031V33.1315H9.21911V26.8031H7.21911ZM36.7752 26.955V33.1315H38.7752V26.955H36.7752ZM22 1.10125V5.30333H24V1.10125H22ZM28.0203 0H17.9798V2H28.0203V0Z" fill="#722839"/>
</svg>
