<svg width="44" height="47" viewBox="0 0 44 47" fill="none" xmlns="http://www.w3.org/2000/svg">
<path d="M25.3328 20.602L23.3311 24.2245L26.3032 25.744L24.2713 29.9803M6.19611 1L10.6543 8.45639L7.40921 10.1872L9.80508 13.9808M10.9474 38.6945H1.04044V1H29.7302V20.9843M1 5.23636H29.427M15.3853 5.59861V22.7352M12.2717 27.203C13.4242 23.178 18.5899 20.1592 24.797 20.1592C31.004 20.1592 36.1698 23.178 37.3121 27.203M38.596 26.8005C37.4991 26.7805 36.4286 27.1357 35.5632 27.8068C35.1731 28.1077 34.8554 28.4915 34.6333 28.9302C34.4112 29.3689 34.2903 29.8514 34.2794 30.3426V36.8128H15.264V30.3828C15.2531 29.8917 15.1322 29.4092 14.9101 28.9705C14.688 28.5318 14.3703 28.148 13.9802 27.847C13.1165 27.168 12.048 26.7986 10.9474 26.7986C9.84681 26.7986 8.77835 27.168 7.91466 27.847C7.58043 28.1025 7.30008 28.421 7.08967 28.7844C6.87926 29.1478 6.74293 29.549 6.68846 29.9649C6.634 30.3809 6.66249 30.8034 6.77229 31.2083C6.88208 31.6133 7.07103 31.9927 7.32833 32.3249C7.4288 32.455 7.54042 32.5762 7.66194 32.6872L7.76303 32.7878C8.53973 33.453 9.51093 33.8517 10.5329 33.9249V42.3372H39.1115V33.945C40.1334 33.8683 41.1024 33.4621 41.8713 32.7878C42.5169 32.243 42.9189 31.4654 42.989 30.6259C43.0591 29.7863 42.7917 28.9534 42.2454 28.3099C42.131 28.176 42.0059 28.0514 41.8713 27.9376L41.7601 27.847C40.8657 27.1316 39.7427 26.7602 38.596 26.8005ZM31.2769 42.3674H36.5337V46H31.2769V42.3674ZM12.9895 42.3674H18.2462V46H12.9895V42.3674ZM1.04044 38.7046H7.00484V42.3372H1.04044V38.7046ZM10.8665 20.0787C10.8665 21.3458 9.83461 22.373 8.56165 22.373C7.2887 22.373 6.25676 21.3458 6.25676 20.0787C6.25676 18.8116 7.2887 17.7844 8.56165 17.7844C9.83461 17.7844 10.8665 18.8116 10.8665 20.0787Z" stroke="#722839" stroke-width="2" stroke-miterlimit="10"/>
</svg>
