<svg width="35" height="24" viewBox="0 0 35 24" fill="none" xmlns="http://www.w3.org/2000/svg">
<path d="M25.8044 3.38777C30.7065 4.47311 34 6.44845 34 8.72768V16.8244C34 20.2324 26.6196 23 17.5 23C8.38044 23 1 20.1889 1 16.8244V8.72768C1 6.48101 4.26087 4.51653 9 3.43118M15.9022 2.58461C16.4312 2.58461 16.9746 2.58461 17.5326 2.58461C18.0906 2.58461 18.6123 2.58461 19.0978 2.58461M15.8478 6.16626C16.4239 6.16626 17.0109 6.16626 17.5978 6.16626C18.1848 6.16626 18.6848 6.16626 19.2717 6.16626M25.837 6.94771C28.6739 7.58806 30.4783 8.54317 30.4783 9.61766C30.4783 11.5387 24.6739 13.1016 17.5 13.1016C10.3261 13.1016 4.52175 11.5062 4.52175 9.61766C4.52175 8.53231 6.34782 7.57721 9.21739 6.93685M14.8261 1H10.1304C9.83039 1.04324 9.55874 1.2007 9.37234 1.43942C9.18594 1.67815 9.09926 1.97961 9.13044 2.28071V6.85003C9.09926 7.15112 9.18594 7.45259 9.37234 7.69131C9.55874 7.93003 9.83039 8.0875 10.1304 8.13074H14.8261C15.1273 8.09009 15.4006 7.9333 15.5875 7.69393C15.7744 7.45456 15.8601 7.15164 15.8261 6.85003V2.28071C15.8601 1.97909 15.7744 1.67617 15.5875 1.4368C15.4006 1.19744 15.1273 1.04065 14.8261 1ZM24.8696 1H20.1957C19.8944 1.04065 19.6211 1.19744 19.4342 1.4368C19.2473 1.67617 19.1617 1.97909 19.1957 2.28071V6.85003C19.1617 7.15164 19.2473 7.45456 19.4342 7.69393C19.6211 7.9333 19.8944 8.09009 20.1957 8.13074H24.8804C25.1817 8.09009 25.455 7.9333 25.6419 7.69393C25.8288 7.45456 25.9144 7.15164 25.8804 6.85003V2.28071C25.9142 1.97744 25.8271 1.67306 25.638 1.4334C25.4488 1.19374 25.1728 1.03805 24.8696 1Z" stroke="black" stroke-miterlimit="10"/>
</svg>
