<svg width="31" height="24" viewBox="0 0 31 24" fill="none" xmlns="http://www.w3.org/2000/svg">
<path d="M1 8.20683C1.16035 7.28834 1.75033 6.66118 2.41141 6.06269C5.40367 3.35175 8.89437 1.66496 12.8994 1.17138C19.1524 0.401571 24.5772 2.22798 29.1246 6.59325C29.9181 7.35401 30.2032 8.29966 29.8515 9.35475C29.5081 10.3872 28.7752 11.0521 27.6784 11.2242C26.7828 11.3653 25.9985 11.0732 25.3548 10.4415C24.2416 9.33845 22.9526 8.42745 21.5404 7.7457C19.1124 6.575 16.3938 6.14021 13.7209 6.49514C10.6114 6.88684 7.94814 8.20532 5.70319 10.3789C4.92034 11.1374 3.99755 11.4672 2.93483 11.1336C1.89707 10.8114 1.27457 10.0702 1.04387 9.00683C1.03857 8.98193 1.01513 8.96155 1 8.93815V8.20683Z" stroke="black" stroke-miterlimit="10"/>
<path d="M15.7245 9.29438C18.5073 9.34721 21.1016 10.3834 23.2581 12.4747C24.109 13.2996 24.3412 14.4468 23.8897 15.4785C23.6712 15.9884 23.302 16.4195 22.8314 16.7143C22.3607 17.0092 21.8111 17.1536 21.2559 17.1283C20.5351 17.0928 19.9414 16.7744 19.4293 16.2762C18.6705 15.5186 17.7005 15.0068 16.6458 14.8076C14.7382 14.4498 13.0537 14.9132 11.6325 16.2415C11.0652 16.7698 10.4382 17.1389 9.64925 17.1298C8.47761 17.117 7.62592 16.551 7.14637 15.5027C6.67439 14.4717 6.84382 13.4778 7.60928 12.6461C8.67729 11.4861 9.98584 10.6544 11.4517 10.074C12.7534 9.55702 14.1081 9.3057 15.7245 9.29438Z" stroke="black" stroke-miterlimit="10"/>
<path d="M15.5067 23C14.7914 22.9965 14.1063 22.7123 13.5993 22.2088C13.0923 21.7054 12.8043 21.0231 12.7973 20.3094C12.7995 19.5958 13.0839 18.9118 13.5886 18.4061C14.0934 17.9005 14.7778 17.614 15.4931 17.6091C16.2084 17.6102 16.8943 17.8932 17.4017 18.3963C17.9091 18.8995 18.1968 19.5821 18.2024 20.2959C18.1991 21.0095 17.9145 21.6932 17.41 22.1992C16.9056 22.7052 16.2219 22.9929 15.5067 23Z" stroke="black" stroke-miterlimit="10"/>
</svg>
