<svg width="48" height="29" viewBox="0 0 48 29" fill="none" xmlns="http://www.w3.org/2000/svg">
<path d="M32.8012 16.1123V15.0481C32.8012 14.2013 33.1159 13.3892 33.676 12.7905C34.2361 12.1917 34.9959 11.8553 35.788 11.8553H39.5514C40.3436 11.8553 41.1033 12.1917 41.6634 12.7905C42.2236 13.3892 42.5382 14.2013 42.5382 15.0481V20.795C42.5382 21.6418 42.2236 22.4539 41.6634 23.0526C41.1033 23.6514 40.3436 23.9878 39.5514 23.9878H35.788C34.9959 23.9878 34.2361 23.6514 33.676 23.0526C33.1159 22.4539 32.8012 21.6418 32.8012 20.795V19.4115M42.1599 18.3473C42.9729 18.94 43.8403 19.4428 44.7485 19.8479C44.9231 19.9463 45.1148 20.0055 45.3116 20.0216C45.5084 20.0378 45.7063 20.0106 45.8929 19.9418C46.0795 19.8729 46.251 19.7639 46.3966 19.6215C46.5423 19.479 46.659 19.3061 46.7397 19.1135C46.8523 18.9528 46.9311 18.7679 46.9707 18.5716C47.0103 18.3753 47.0097 18.1722 46.9691 17.9761C46.9284 17.7801 46.8486 17.5957 46.7352 17.4357C46.6217 17.2756 46.4772 17.1437 46.3116 17.0489C44.5493 15.7664 42.9234 14.2818 41.463 12.6216M5.83013 18.3473C5.0224 18.9578 4.15836 19.4785 3.2515 19.9011C3.07689 19.9995 2.88524 20.0587 2.6884 20.0748C2.49156 20.091 2.2937 20.0638 2.10708 19.995C1.92045 19.9261 1.74901 19.8171 1.60336 19.6747C1.45771 19.5322 1.34095 19.3593 1.26028 19.1667C1.14767 19.006 1.06888 18.8211 1.02929 18.6248C0.9897 18.4285 0.99025 18.2254 1.0309 18.0293C1.07156 17.8333 1.15135 17.6489 1.26483 17.4889C1.37831 17.3289 1.52279 17.1969 1.68839 17.1021C3.4507 15.8196 5.07657 14.335 6.53701 12.6748M15.2287 19.6882V20.8057C15.2287 21.6524 14.914 22.4645 14.3539 23.0633C13.7937 23.662 13.034 23.9984 12.2419 23.9984H8.47845C7.68629 23.9984 6.92658 23.662 6.36644 23.0633C5.8063 22.4645 5.49162 21.6524 5.49162 20.8057V15.0587C5.49162 14.212 5.8063 13.3999 6.36644 12.8011C6.92658 12.2024 7.68629 11.866 8.47845 11.866H12.2419C13.034 11.866 13.7937 12.2024 14.3539 12.8011C14.914 13.3999 15.2287 14.212 15.2287 15.0587V15.825M28.6395 5.82105C28.6395 8.48364 26.6203 10.6421 24.1294 10.6421C21.6386 10.6421 19.6193 8.48364 19.6193 5.82105C19.6193 3.15846 21.6386 1 24.1294 1C26.6203 1 28.6395 3.15846 28.6395 5.82105ZM40.6765 4.96965C40.6765 6.76822 39.3125 8.22625 37.6299 8.22625C35.9473 8.22625 34.5833 6.76822 34.5833 4.96965C34.5833 3.17108 35.9473 1.71305 37.6299 1.71305C39.3125 1.71305 40.6765 3.17108 40.6765 4.96965ZM13.4067 4.96965C13.4067 6.76822 12.0427 8.22625 10.3602 8.22625C8.67758 8.22625 7.31359 6.76822 7.31359 4.96965C7.31359 3.17108 8.67758 1.71305 10.3602 1.71305C12.0427 1.71305 13.4067 3.17108 13.4067 4.96965ZM39.7705 17.0808C39.7616 16.8803 39.712 16.6843 39.6252 16.5064C39.5384 16.3284 39.4164 16.1728 39.2677 16.0503C39.119 15.9277 38.9471 15.8413 38.764 15.7969C38.5809 15.7525 38.391 15.7512 38.2073 15.7931C33.6176 16.9424 26.8076 13.8668 26.4293 13.8668H21.3019C21.053 13.8668 14.5716 17.0595 9.41432 15.7931C9.23017 15.7513 9.03974 15.7526 8.85612 15.797C8.67249 15.8413 8.50003 15.9276 8.35057 16.05C8.20111 16.1723 8.0782 16.3278 7.99028 16.5058C7.90237 16.6837 7.85153 16.8799 7.84126 17.0808C7.78922 17.2814 7.7757 17.4913 7.80151 17.6976C7.82733 17.904 7.89194 18.1027 7.99147 18.2816C8.091 18.4606 8.22338 18.6162 8.38065 18.7391C8.53791 18.8619 8.71681 18.9495 8.90656 18.9965C8.90656 18.9965 12.4111 20.2842 18.3947 19.3477C18.3902 19.4363 18.3902 19.5251 18.3947 19.6137V25.1691C18.3947 27.4892 20.147 28 22.3075 28H25.4038C27.5643 28 29.3265 27.4892 29.3265 25.1691V19.6137C29.3265 19.5286 29.3265 19.4541 29.3265 19.3689C35.2404 20.2629 38.6852 18.9965 38.6852 18.9965C38.8775 18.9533 39.0594 18.8684 39.2197 18.7469C39.3799 18.6255 39.5152 18.4701 39.6169 18.2905C39.7187 18.1108 39.7848 17.9108 39.8112 17.7027C39.8376 17.4946 39.8238 17.2829 39.7705 17.0808Z" stroke="#722839" stroke-width="2" stroke-miterlimit="10"/>
</svg>
