<svg width="45" height="38" viewBox="0 0 45 38" fill="none" xmlns="http://www.w3.org/2000/svg">
<path d="M16.3269 15.6297L15.3269 15.6239V15.6297H16.3269ZM7.40885 15.6297L6.40885 15.6255V15.6297H7.40885ZM18.6523 15.5538L17.6533 15.5095L17.6506 15.5695L17.6552 15.6294L18.6523 15.5538ZM16.9262 17.7111L16.9254 18.7111L16.973 18.7111L17.0203 18.7067L16.9262 17.7111ZM6.76956 17.7111L6.67547 18.7066L6.73242 18.712L6.78961 18.7109L6.76956 17.7111ZM5.04348 15.5538L6.04063 15.6294L6.04417 15.5826L6.04332 15.5358L5.04348 15.5538ZM15.344 22.9104L14.9746 23.8397L14.9858 23.8442L14.9971 23.8483L15.344 22.9104ZM21.3213 25.5312L22.0057 24.802L21.9023 24.705L21.7759 24.6405L21.3213 25.5312ZM22.3202 27.8822L21.3202 27.8812V27.8822H22.3202ZM22.3202 37V38H23.3202V37H22.3202ZM1 37H1.19209e-07V38H1V37ZM1 27.8654H2V27.8651L1 27.8654ZM2.81398 24.9666L3.22492 25.8782L3.2296 25.8761L2.81398 24.9666ZM7.91228 23.0284L7.55752 22.0934L7.55621 22.0939L7.91228 23.0284ZM16.5757 23.1885C16.5757 22.6362 16.128 22.1885 15.5757 22.1885C15.0234 22.1885 14.5757 22.6362 14.5757 23.1885H16.5757ZM8.9842 23.1885C8.9842 22.6362 8.53649 22.1885 7.9842 22.1885C7.43192 22.1885 6.9842 22.6362 6.9842 23.1885H8.9842ZM19.4765 28.6406C19.4765 28.0884 19.0288 27.6406 18.4765 27.6406C17.9242 27.6406 17.4765 28.0884 17.4765 28.6406H19.4765ZM17.4765 36.9073C17.4765 37.4596 17.9242 37.9073 18.4765 37.9073C19.0288 37.9073 19.4765 37.4596 19.4765 36.9073H17.4765ZM6.24326 28.6406C6.24326 28.0884 5.79555 27.6406 5.24326 27.6406C4.69098 27.6406 4.24326 28.0884 4.24326 28.6406H6.24326ZM4.24326 36.9073C4.24326 37.4596 4.69098 37.9073 5.24326 37.9073C5.79555 37.9073 6.24326 37.4596 6.24326 36.9073H4.24326ZM37.9987 15.6297L36.9987 15.6282V15.6297H37.9987ZM29.0807 15.6297H30.0807L30.0807 15.627L29.0807 15.6297ZM40.3321 15.5538L39.3325 15.5267L39.3311 15.5781L39.335 15.6294L40.3321 15.5538ZM38.606 17.7111L38.6052 18.7111L38.6528 18.7111L38.7001 18.7067L38.606 17.7111ZM28.4494 17.7869L28.3553 18.7825L28.4077 18.7874L28.4604 18.7869L28.4494 17.7869ZM26.7233 15.6297L27.7204 15.7052L27.7262 15.6297L27.7204 15.5541L26.7233 15.6297ZM37.0238 22.9104L36.6496 23.8378L36.6635 23.8434L36.6777 23.8486L37.0238 22.9104ZM43.0011 25.5312L43.6855 24.802L43.5824 24.7052L43.4564 24.6408L43.0011 25.5312ZM44 27.8822L43 27.8812V27.8822H44ZM44 37V38H45V37H44ZM22.6798 37H21.6798V38H22.6798V37ZM22.6798 27.8654H23.6798V27.8651L22.6798 27.8654ZM24.4938 24.9666L24.9047 25.8782L24.9094 25.8761L24.4938 24.9666ZM29.5921 23.0284L29.2395 22.0926L29.236 22.0939L29.5921 23.0284ZM38.2555 23.1885C38.2555 22.6362 37.8078 22.1885 37.2555 22.1885C36.7032 22.1885 36.2555 22.6362 36.2555 23.1885H38.2555ZM30.656 23.1885C30.656 22.6362 30.2083 22.1885 29.656 22.1885C29.1037 22.1885 28.656 22.6362 28.656 23.1885H30.656ZM41.1563 28.6406C41.1563 28.0884 40.7086 27.6406 40.1563 27.6406C39.604 27.6406 39.1563 28.0884 39.1563 28.6406H41.1563ZM39.1563 36.9073C39.1563 37.4596 39.604 37.9073 40.1563 37.9073C40.7086 37.9073 41.1563 37.4596 41.1563 36.9073H39.1563ZM27.9231 28.6406C27.9231 28.0884 27.4753 27.6406 26.9231 27.6406C26.3708 27.6406 25.9231 28.0884 25.9231 28.6406H27.9231ZM25.9231 36.9073C25.9231 37.4596 26.3708 37.9073 26.9231 37.9073C27.4753 37.9073 27.9231 37.4596 27.9231 36.9073H25.9231ZM15.1202 12.6803L14.4528 13.425L14.457 13.4287L15.1202 12.6803ZM13.8736 12.5876L14.4189 13.4259L14.4282 13.4197L13.8736 12.5876ZM6.56978 14.155L6.56225 15.155H6.56978V14.155ZM5.45902 12.9752L6.45902 12.9753V12.9752H5.45902ZM5.45902 12.074H6.45902L6.45902 12.0724L5.45902 12.074ZM10.1098 7.16118L10.1098 8.16118H10.1098V7.16118ZM15.1442 8.84653L16.1373 8.72887L16.1354 8.71286L16.133 8.69691L15.1442 8.84653ZM16.2789 10.1948L16.0256 11.1623L16.0381 11.1654L16.2789 10.1948ZM17.3577 13.0089H16.3577V13.0382L16.3594 13.0674L17.3577 13.0089ZM38.5421 11.9095L37.5743 12.1612L37.5771 12.1721L37.5802 12.1829L38.5421 11.9095ZM33.9472 11.9809L33.3919 12.8125L33.3984 12.8168L33.9472 11.9809ZM33.3359 11.7939V10.7939V11.7939ZM32.7246 11.9809L33.274 12.8164L33.2799 12.8125L32.7246 11.9809ZM29.5916 9.18872L30.2725 9.92107L30.2889 9.9058L30.3046 9.88982L29.5916 9.18872ZM33.5557 7.58652L33.6326 6.58948L33.6127 6.58795L33.5929 6.58721L33.5557 7.58652ZM41.4668 21.5874L41.2898 22.5716L41.2929 22.5722L41.4668 21.5874ZM25.2529 21.5874L25.4269 22.5722L25.431 22.5714L25.2529 21.5874ZM22.8701 1.79159L22.1847 2.51977L22.874 3.1686L23.5596 2.51583L22.8701 1.79159ZM22.3306 1.33609L22.9336 0.538345L22.9135 0.523123L22.8926 0.508935L22.3306 1.33609ZM21.3373 1.0095L21.3755 0.0101696L21.365 0.00987893L21.3373 1.0095ZM20.5581 1.10403L20.7998 2.07437L20.8119 2.07135L20.8239 2.06804L20.5581 1.10403ZM18.8454 4.1207L17.8874 4.40726L17.9035 4.46135L17.9257 4.51328L18.8454 4.1207ZM19.8644 5.76225L19.1047 6.41243L19.1244 6.43553L19.1456 6.45738L19.8644 5.76225ZM22.8444 8.47811L22.2188 9.25825L22.8423 9.75826L23.4675 9.26028L22.8444 8.47811ZM25.8586 5.76225L26.5718 6.4632L26.5872 6.44753L26.6019 6.4312L25.8586 5.76225ZM26.9547 4.1207L27.8574 4.55097L27.8919 4.4785L27.9145 4.40145L26.9547 4.1207ZM25.1821 1.09544L24.9151 2.05913L24.938 2.06547L24.9611 2.07072L25.1821 1.09544ZM24.4114 1.0009L24.3852 0.00123113L24.3799 0.00140089L24.4114 1.0009ZM23.4181 1.32749L22.8507 0.504069L22.8338 0.515716L22.8174 0.528046L23.4181 1.32749ZM15.028 13.7676C15.2292 14.3623 15.3306 14.9906 15.3269 15.6239L17.3269 15.6355C17.3318 14.7816 17.1952 13.9327 16.9225 13.1267L15.028 13.7676ZM15.3269 15.6297C15.3269 18.3828 13.5869 20.2082 11.8679 20.2082V22.2082C15.0873 22.2082 17.3269 19.0449 17.3269 15.6297H15.3269ZM11.8679 20.2082C10.1522 20.2082 8.40885 18.3534 8.40885 15.6297H6.40885C6.40885 19.007 8.64507 22.2082 11.8679 22.2082V20.2082ZM8.40884 15.6338C8.41073 15.1738 8.4659 14.716 8.57293 14.2707L6.62833 13.8033C6.48503 14.3994 6.41139 15.0113 6.40885 15.6255L8.40884 15.6338ZM16.9823 14.3908C17.1758 14.4692 17.3509 14.6141 17.4753 14.8148L19.1755 13.7616C18.8351 13.2121 18.333 12.7801 17.7332 12.5372L16.9823 14.3908ZM17.4753 14.8148C17.6 15.0162 17.6644 15.2596 17.6533 15.5095L19.6513 15.5982C19.6799 14.9529 19.5155 14.3106 19.1755 13.7616L17.4753 14.8148ZM17.6552 15.6294C17.6764 15.9098 17.5906 16.1804 17.4292 16.3821L18.9909 17.6316C19.4759 17.0254 19.708 16.2516 19.6494 15.4783L17.6552 15.6294ZM17.4292 16.3821C17.2692 16.5821 17.0522 16.6947 16.8321 16.7155L17.0203 18.7067C17.7987 18.6331 18.5044 18.2395 18.9909 17.6316L17.4292 16.3821ZM16.927 16.7111C16.8354 16.711 16.7408 16.6816 16.6558 16.6191L15.4705 18.23C15.8919 18.5401 16.3996 18.7107 16.9254 18.7111L16.927 16.7111ZM7.01385 16.6263C6.93034 16.682 6.83899 16.7095 6.7495 16.7113L6.78961 18.7109C7.26667 18.7013 7.72808 18.5539 8.12348 18.2903L7.01385 16.6263ZM6.86365 16.7155C6.64358 16.6947 6.42658 16.5821 6.26656 16.3821L4.70491 17.6316C5.19134 18.2395 5.89709 18.6331 6.67547 18.7066L6.86365 16.7155ZM6.26656 16.3821C6.10516 16.1804 6.01939 15.9098 6.04063 15.6294L4.04634 15.4783C3.98777 16.2516 4.21986 17.0254 4.70491 17.6316L6.26656 16.3821ZM6.04332 15.5358C6.03987 15.3446 6.07539 15.1562 6.14604 14.9837L4.29535 14.2255C4.12064 14.6519 4.03531 15.1108 4.04365 15.5719L6.04332 15.5358ZM6.14604 14.9837C6.21666 14.8114 6.31983 14.661 6.44548 14.541L5.0639 13.0949C4.73108 13.4128 4.47009 13.799 4.29535 14.2255L6.14604 14.9837ZM12.9216 20.7221C12.9178 21.388 13.1071 22.0434 13.4702 22.6005L15.1458 21.5085C15.0003 21.2852 14.9199 21.0147 14.9216 20.7336L12.9216 20.7221ZM13.4702 22.6005C13.8337 23.1582 14.3564 23.594 14.9746 23.8397L15.7134 21.9811C15.4913 21.8929 15.2909 21.7312 15.1458 21.5085L13.4702 22.6005ZM14.9971 23.8483C16.998 24.5883 18.9577 25.4475 20.8667 26.4218L21.7759 24.6405C19.7973 23.6306 17.7657 22.7398 15.6908 21.9725L14.9971 23.8483ZM20.6369 26.2603C20.848 26.4584 21.0203 26.7048 21.1393 26.9848L22.98 26.2028C22.7547 25.6724 22.4237 25.1944 22.0057 24.802L20.6369 26.2603ZM21.1393 26.9848C21.2583 27.265 21.3205 27.5707 21.3202 27.8812L23.3202 27.8832C23.3208 27.3056 23.2054 26.7331 22.98 26.2028L21.1393 26.9848ZM21.3202 27.8822V37H23.3202V27.8822H21.3202ZM22.3202 36H1V38H22.3202V36ZM2 37V27.8654H1.19209e-07V37H2ZM2 27.8651C1.99989 27.4323 2.12058 27.0128 2.34187 26.6592L0.646456 25.5982C0.222771 26.2753 -0.000203848 27.0636 1.19209e-07 27.8656L2 27.8651ZM2.34187 26.6592C2.56287 26.306 2.87209 26.0373 3.22491 25.8782L2.40304 24.0549C1.67908 24.3812 1.07043 24.9207 0.646456 25.5982L2.34187 26.6592ZM3.2296 25.8761C3.22874 25.8765 3.27181 25.8584 3.3884 25.8127C3.49222 25.7721 3.63192 25.7183 3.80137 25.6535C4.1399 25.5241 4.58969 25.3538 5.09313 25.1637C6.0982 24.7841 7.31558 24.3259 8.26835 23.9628L7.55621 22.0939C6.60711 22.4556 5.3952 22.9117 4.38652 23.2927C3.41195 23.6607 2.55888 23.9837 2.39835 24.057L3.2296 25.8761ZM8.26704 23.9633C8.96202 23.6996 9.55255 23.2184 9.96364 22.5962L8.29492 21.4937C8.1076 21.7773 7.84758 21.9834 7.55752 22.0934L8.26704 23.9633ZM9.96364 22.5962C10.3743 21.9745 10.5884 21.2394 10.5824 20.4924L8.58245 20.5083C8.5853 20.8651 8.48263 21.2096 8.29492 21.4937L9.96364 22.5962ZM14.5757 23.1885C14.5757 24.1176 13.5503 25.2137 11.772 25.2137V27.2137C14.197 27.2137 16.5757 25.6301 16.5757 23.1885H14.5757ZM11.772 25.2137C10.0035 25.2137 8.9842 24.1085 8.9842 23.1885H6.9842C6.9842 25.6055 9.33714 27.2137 11.772 27.2137V25.2137ZM17.4765 28.6406V36.9073H19.4765V28.6406H17.4765ZM4.24326 28.6406V36.9073H6.24326V28.6406H4.24326ZM18.5484 32.8512H22.1923V30.8512H18.5484V32.8512ZM1.21576 32.8512H4.85969V30.8512H1.21576V32.8512ZM36.7125 13.8167C36.9027 14.3986 36.9996 15.011 36.9987 15.6282L38.9987 15.6311C38.9999 14.8031 38.8699 13.98 38.6136 13.1955L36.7125 13.8167ZM36.9987 15.6297C36.9987 18.3816 35.2518 20.2082 33.5397 20.2082V22.2082C36.7501 22.2082 38.9987 19.0462 38.9987 15.6297H36.9987ZM33.5397 20.2082C31.831 20.2082 30.0807 18.3521 30.0807 15.6297H28.0807C28.0807 19.0082 30.3259 22.2082 33.5397 22.2082V20.2082ZM30.0807 15.627C30.0791 15.0456 30.1643 14.468 30.3328 13.9159L28.4199 13.3323C28.1929 14.0762 28.0786 14.8523 28.0807 15.6323L30.0807 15.627ZM38.3875 14.3403C38.6347 14.3668 38.8756 14.4921 39.056 14.7088L40.5931 13.4292C40.0916 12.8268 39.3819 12.4355 38.6008 12.3517L38.3875 14.3403ZM39.056 14.7088C39.2376 14.927 39.3408 15.2189 39.3325 15.5267L41.3317 15.5809C41.3529 14.7992 41.0934 14.0302 40.5931 13.4292L39.056 14.7088ZM39.335 15.6294C39.3562 15.9098 39.2704 16.1804 39.109 16.3821L40.6707 17.6316C41.1557 17.0254 41.3878 16.2516 41.3292 15.4783L39.335 15.6294ZM39.109 16.3821C38.949 16.5821 38.732 16.6947 38.5119 16.7155L38.7001 18.7067C39.4785 18.6331 40.1842 18.2395 40.6707 17.6316L39.109 16.3821ZM38.6068 16.7111C38.5152 16.711 38.4206 16.6816 38.3356 16.6191L37.1503 18.23C37.5717 18.5401 38.0794 18.7107 38.6052 18.7111L38.6068 16.7111ZM28.6711 16.7092C28.5973 16.7614 28.5164 16.7861 28.4383 16.787L28.4604 18.7869C28.9519 18.7814 29.4266 18.6245 29.8258 18.3422L28.6711 16.7092ZM28.5434 16.7914C28.3234 16.7706 28.1064 16.6579 27.9464 16.4579L26.3847 17.7074C26.8711 18.3154 27.5769 18.7089 28.3553 18.7825L28.5434 16.7914ZM27.9464 16.4579C27.785 16.2562 27.6992 15.9856 27.7204 15.7052L25.7261 15.5541C25.6676 16.3274 25.8997 17.1012 26.3847 17.7074L27.9464 16.4579ZM27.7204 15.5541C27.6992 15.2737 27.785 15.0031 27.9464 14.8014L26.3847 13.5519C25.8997 14.1581 25.6676 14.9319 25.7261 15.7052L27.7204 15.5541ZM27.9464 14.8014C28.1064 14.6014 28.3234 14.4888 28.5434 14.468L28.3553 12.4769C27.5769 12.5504 26.8711 12.944 26.3847 13.5519L27.9464 14.8014ZM34.6014 20.7269C34.6007 21.3906 34.791 22.0432 35.1529 22.5985L36.8284 21.5065C36.6823 21.2823 36.6011 21.011 36.6014 20.7289L34.6014 20.7269ZM35.1529 22.5985C35.5151 23.1543 36.0348 23.5897 36.6496 23.8378L37.398 21.9831C37.1751 21.8931 36.9742 21.7301 36.8284 21.5065L35.1529 22.5985ZM36.6777 23.8486C38.6786 24.5868 40.6379 25.4458 42.5458 26.4215L43.4564 24.6408C41.478 23.6291 39.4458 22.738 37.3699 21.9722L36.6777 23.8486ZM42.3167 26.2603C42.5278 26.4584 42.7001 26.7048 42.8191 26.9848L44.6598 26.2028C44.4345 25.6724 44.1035 25.1944 43.6855 24.802L42.3167 26.2603ZM42.8191 26.9848C42.9381 27.265 43.0003 27.5707 43 27.8812L45 27.8832C45.0006 27.3056 44.8851 26.7331 44.6598 26.2028L42.8191 26.9848ZM43 27.8822V37H45V27.8822H43ZM44 36H22.6798V38H44V36ZM23.6798 37V27.8654H21.6798V37H23.6798ZM23.6798 27.8651C23.6797 27.4323 23.8004 27.0128 24.0217 26.6592L22.3263 25.5982C21.9026 26.2753 21.6796 27.0636 21.6798 27.8656L23.6798 27.8651ZM24.0217 26.6592C24.2427 26.306 24.5519 26.0373 24.9047 25.8782L24.0828 24.0549C23.3589 24.3812 22.7502 24.9207 22.3263 25.5982L24.0217 26.6592ZM24.9094 25.8761C24.9085 25.8765 24.9516 25.8584 25.0682 25.8127C25.172 25.7721 25.3117 25.7183 25.4812 25.6535C25.8197 25.5241 26.2695 25.3538 26.7729 25.1637C27.778 24.7841 28.9954 24.3259 29.9482 23.9628L29.236 22.0939C28.2869 22.4556 27.075 22.9117 26.0663 23.2927C25.0917 23.6607 24.2387 23.9837 24.0781 24.057L24.9094 25.8761ZM29.9447 23.9642C30.6413 23.7017 31.2333 23.2204 31.6449 22.5973L29.9762 21.4948C29.7891 21.778 29.5293 21.9834 29.2395 22.0926L29.9447 23.9642ZM31.6449 22.5973C32.0562 21.9747 32.2697 21.2383 32.2622 20.4902L30.2623 20.5105C30.2659 20.8668 30.1637 21.2111 29.9762 21.4948L31.6449 22.5973ZM36.2555 23.1885C36.2555 24.1176 35.2301 25.2137 33.4518 25.2137V27.2137C35.8768 27.2137 38.2555 25.6301 38.2555 23.1885H36.2555ZM33.4518 25.2137C31.6803 25.2137 30.656 24.1062 30.656 23.1885H28.656C28.656 25.6078 31.0199 27.2137 33.4518 27.2137V25.2137ZM39.1563 28.6406V36.9073H41.1563V28.6406H39.1563ZM25.9231 28.6406V36.9073H27.9231V28.6406H25.9231ZM40.2282 32.8512H43.8721V30.8512H40.2282V32.8512ZM22.8956 32.8512H26.5395V30.8512H22.8956V32.8512ZM15.7876 11.9356C15.456 11.6384 15.0354 11.4545 14.5855 11.4211L14.4372 13.4156C14.4373 13.4156 14.4375 13.4156 14.4379 13.4157C14.4384 13.4158 14.4392 13.416 14.4404 13.4166C14.4427 13.4176 14.4472 13.4199 14.4528 13.425L15.7876 11.9356ZM14.5855 11.4211C14.1354 11.3876 13.6913 11.5074 13.3191 11.7555L14.4282 13.4197C14.4325 13.4169 14.4353 13.416 14.4362 13.4157C14.4368 13.4156 14.437 13.4156 14.4371 13.4156C14.4371 13.4156 14.4371 13.4156 14.4372 13.4156L14.5855 11.4211ZM13.3284 11.7493C12.9172 12.0168 12.3214 12.3821 11.7028 12.6774C11.0513 12.9884 10.5089 13.155 10.1658 13.155V15.155C10.9813 15.155 11.8654 14.816 12.5644 14.4823C13.2963 14.1329 13.975 13.7146 14.4189 13.4259L13.3284 11.7493ZM10.1658 13.155H6.56978V15.155H10.1658V13.155ZM6.57731 13.155C6.56349 13.1549 6.53873 13.1494 6.51194 13.121L5.05579 14.492C5.44517 14.9055 5.98542 15.1506 6.56225 15.155L6.57731 13.155ZM6.51194 13.121C6.48349 13.0908 6.45902 13.0392 6.45902 12.9753L4.45902 12.9752C4.45901 13.5341 4.66808 14.0802 5.05579 14.492L6.51194 13.121ZM6.45902 12.9752V12.074H4.45902V12.9752H6.45902ZM6.45902 12.0724C6.45817 11.5519 6.55471 11.0375 6.74197 10.559L4.87952 9.83012C4.60027 10.5436 4.45777 11.3065 4.45902 12.0756L6.45902 12.0724ZM6.74197 10.559C6.9292 10.0806 7.20278 9.64916 7.54459 9.28809L6.09218 7.91314C5.57005 8.46468 5.1588 9.11654 4.87952 9.83012L6.74197 10.559ZM7.54459 9.28809C7.88629 8.92714 8.28923 8.6438 8.72888 8.45153L7.92751 6.6191C7.23759 6.92082 6.61442 7.36148 6.09218 7.91314L7.54459 9.28809ZM8.72888 8.45153C9.16838 8.25932 9.63748 8.16117 10.1098 8.16118L10.1098 6.16118C9.35933 6.16117 8.61757 6.31731 7.92751 6.6191L8.72888 8.45153ZM10.1098 8.16118H13.8017V6.16118H10.1098V8.16118ZM13.8017 8.16118C13.8296 8.16118 13.8434 8.16453 13.8473 8.1656C13.851 8.1666 13.8522 8.16728 13.8535 8.16811C13.8561 8.16963 13.8829 8.18654 13.9243 8.25044C14.0193 8.39703 14.1037 8.65375 14.1555 8.99615L16.133 8.69691C16.0649 8.2472 15.9255 7.66124 15.603 7.16318C15.2505 6.61906 14.6568 6.16118 13.8017 6.16118V8.16118ZM14.1512 8.96418C14.2114 9.47285 14.4169 9.95662 14.7482 10.3502L16.2784 9.06236C16.2045 8.97456 16.1527 8.85884 16.1373 8.72887L14.1512 8.96418ZM14.7482 10.3502C15.0799 10.7444 15.5238 11.0308 16.0257 11.1622L16.5322 9.22742C16.4418 9.20374 16.3518 9.14955 16.2784 9.06236L14.7482 10.3502ZM16.0381 11.1654C16.2208 11.2107 16.3052 11.266 16.3333 11.2927C16.3422 11.3011 16.3434 11.3043 16.3446 11.3072C16.346 11.3105 16.3577 11.3386 16.3577 11.4083H18.3577C18.3577 10.7629 18.1171 10.2286 17.7109 9.84275C17.3354 9.48602 16.8805 9.31376 16.5198 9.22425L16.0381 11.1654ZM16.3577 11.4083V13.0089H18.3577V11.4083H16.3577ZM16.3594 13.0674C16.3766 13.3602 16.2751 13.0513 16.6223 12.8351C16.7759 12.7395 16.9113 12.7391 16.9516 12.7418C16.9879 12.7441 16.9806 12.75 16.918 12.7255C16.7911 12.6759 16.6038 12.5687 16.3789 12.4086C16.1631 12.2552 15.9521 12.0814 15.7835 11.9319L14.457 13.4287C14.8367 13.7652 15.5328 14.3311 16.1892 14.588C16.47 14.6978 17.0974 14.8953 17.6794 14.5329C18.3205 14.1337 18.3828 13.4077 18.356 12.9504L16.3594 13.0674ZM37.5802 12.1829C37.7287 12.7053 37.7786 13.0521 37.781 13.2666C37.7834 13.4933 37.7326 13.4584 37.8167 13.3536C37.9305 13.2121 38.073 13.2029 38.0654 13.203C38.0311 13.2036 37.9132 13.1908 37.6891 13.1069C37.247 12.9414 36.6813 12.6127 36.0807 12.2204C35.7883 12.0293 35.5025 11.8333 35.2333 11.6476C34.9695 11.4656 34.7121 11.2868 34.496 11.1449L33.3984 12.8168C33.5899 12.9425 33.8219 13.1036 34.0976 13.2938C34.3679 13.4803 34.6716 13.6888 34.9869 13.8947C35.6017 14.2964 36.3241 14.7315 36.9878 14.9799C37.3166 15.1031 37.706 15.2098 38.1015 15.2027C38.5238 15.195 39.0187 15.0507 39.3756 14.6067C39.7028 14.1995 39.7858 13.6949 39.7808 13.2447C39.7758 12.7823 39.6771 12.2449 39.504 11.636L37.5802 12.1829ZM34.5025 11.1492C34.158 10.9192 33.7533 10.7939 33.3359 10.7939V12.7939C33.3514 12.7939 33.3707 12.7983 33.3919 12.8125L34.5025 11.1492ZM33.3359 10.7939C32.9185 10.7939 32.5138 10.9192 32.1693 11.1492L33.2799 12.8125C33.3011 12.7983 33.3204 12.7939 33.3359 12.7939V10.7939ZM32.1751 11.1453C31.4642 11.6128 30.3761 12.2638 29.5136 12.5157C29.0524 12.6503 28.8867 12.5999 28.8908 12.6018C29.0406 12.6695 28.9299 12.7863 28.9299 12.3854H26.9299C26.9299 13.24 27.2408 14.051 28.0674 14.4244C28.7482 14.732 29.5145 14.5989 30.0742 14.4355C31.2533 14.0912 32.5625 13.2843 33.274 12.8164L32.1751 11.1453ZM30.3046 9.88982C30.7354 9.45168 31.2424 9.11253 31.7938 8.88964L31.0444 7.03537C30.2337 7.36301 29.4977 7.8579 28.8785 8.48763L30.3046 9.88982ZM31.7938 8.88964C32.3451 8.66682 32.9314 8.56397 33.5184 8.58583L33.5929 6.58721C32.7221 6.55478 31.8551 6.70767 31.0444 7.03537L31.7938 8.88964ZM33.4787 8.58356C34.413 8.65563 35.3099 9.03144 36.0448 9.66855L37.3549 8.15738C36.3039 7.24625 35.004 6.69529 33.6326 6.58948L33.4787 8.58356ZM36.0448 9.66855C36.7805 10.3063 37.318 11.1755 37.5743 12.1612L39.5099 11.6578C39.1548 10.2923 38.4051 9.06784 37.3549 8.15738L36.0448 9.66855ZM38.7578 17.8291C37.8244 18.1878 37.8245 18.188 37.8245 18.1881C37.8246 18.1882 37.8246 18.1884 37.8247 18.1885C37.8248 18.1888 37.8249 18.1892 37.8251 18.1896C37.8254 18.1904 37.8258 18.1914 37.8263 18.1927C37.8272 18.1951 37.8285 18.1985 37.8301 18.2026C37.8334 18.2109 37.8379 18.2224 37.8437 18.237C37.8553 18.2662 37.8719 18.3077 37.8932 18.3598C37.9359 18.4639 37.9977 18.611 38.076 18.7874C38.2317 19.1385 38.4566 19.6147 38.7297 20.104C38.9994 20.587 39.3345 21.1166 39.7172 21.5548C40.0714 21.9605 40.602 22.4479 41.2898 22.5716L41.6439 20.6032C41.6524 20.6047 41.5047 20.5612 41.2237 20.2394C40.971 19.95 40.7139 19.5552 40.4761 19.1292C40.2418 18.7095 40.0441 18.2919 39.9042 17.9764C39.8346 17.8196 39.7803 17.6903 39.7438 17.6013C39.7256 17.5568 39.7119 17.5226 39.703 17.5002C39.6986 17.489 39.6953 17.4808 39.6934 17.4757C39.6924 17.4732 39.6917 17.4715 39.6914 17.4706C39.6912 17.4701 39.6911 17.4699 39.6911 17.4698C39.6911 17.4698 39.6911 17.4698 39.6911 17.4699C39.6911 17.47 39.6912 17.4701 39.6912 17.4701C39.6912 17.4702 39.6913 17.4703 38.7578 17.8291ZM41.2929 22.5722C41.9882 22.695 41.9961 22.8755 41.9442 22.7722C41.8924 22.6691 41.978 22.6751 41.8433 22.9439C41.7236 23.1829 41.5153 23.4473 41.3048 23.6741C41.2047 23.7819 41.1142 23.8705 41.0498 23.9312C41.0178 23.9614 40.9928 23.9841 40.9769 23.9984C40.9689 24.0055 40.9633 24.0105 40.9603 24.0131C40.9587 24.0145 40.9579 24.0152 40.9577 24.0154C40.9576 24.0154 40.9577 24.0154 40.958 24.0151C40.9581 24.015 40.9583 24.0149 40.9585 24.0147C40.9586 24.0146 40.9588 24.0144 40.9588 24.0144C40.959 24.0142 40.9593 24.014 41.6107 24.7728C42.2621 25.5315 42.2623 25.5313 42.2626 25.5311C42.2627 25.531 42.2629 25.5307 42.2631 25.5306C42.2635 25.5302 42.264 25.5298 42.2645 25.5294C42.2655 25.5285 42.2667 25.5275 42.268 25.5263C42.2708 25.524 42.2742 25.521 42.2784 25.5173C42.2867 25.51 42.2978 25.5002 42.3115 25.488C42.3387 25.4636 42.3761 25.4295 42.4214 25.3869C42.5114 25.302 42.6344 25.1815 42.7706 25.0347C43.0325 24.7526 43.3876 24.3265 43.6315 23.8397C43.8604 23.3828 44.1098 22.6277 43.7314 21.8744C43.3528 21.1209 42.5436 20.7621 41.6408 20.6027L41.2929 22.5722ZM27.9619 17.8291C27.0292 17.4685 27.0292 17.4683 27.0293 17.4682C27.0293 17.4682 27.0293 17.4681 27.0293 17.4681C27.0294 17.468 27.0294 17.468 27.0294 17.468C27.0294 17.468 27.0293 17.4683 27.0291 17.4687C27.0287 17.4696 27.028 17.4714 27.0271 17.4739C27.0251 17.479 27.0218 17.4872 27.0174 17.4984C27.0084 17.5208 26.9946 17.5551 26.9763 17.5996C26.9396 17.6887 26.885 17.8181 26.8151 17.975C26.6745 18.2906 26.476 18.7085 26.2411 19.1285C26.0027 19.5547 25.745 19.95 25.4923 20.2398C25.2106 20.5628 25.0639 20.6054 25.0749 20.6034L25.431 22.5714C26.1172 22.4473 26.6467 21.959 26.9996 21.5543C27.3814 21.1166 27.7166 20.5875 27.9866 20.1047C28.2601 19.6157 28.4857 19.1398 28.642 18.7889C28.7206 18.6125 28.7826 18.4655 28.8255 18.3615C28.8469 18.3094 28.8637 18.2679 28.8753 18.2388C28.8811 18.2242 28.8856 18.2127 28.8889 18.2044C28.8905 18.2003 28.8918 18.197 28.8927 18.1945C28.8932 18.1933 28.8936 18.1922 28.8939 18.1914C28.8941 18.191 28.8942 18.1907 28.8943 18.1904C28.8944 18.1902 28.8945 18.19 28.8945 18.19C28.8946 18.1898 28.8946 18.1897 27.9619 17.8291ZM25.079 20.6027C24.1761 20.7621 23.3669 21.1209 22.9884 21.8744C22.6099 22.6277 22.8593 23.3828 23.0883 23.8397C23.3321 24.3265 23.6872 24.7526 23.9491 25.0347C24.0853 25.1815 24.2083 25.302 24.2984 25.3869C24.3436 25.4295 24.381 25.4636 24.4083 25.488C24.4219 25.5002 24.433 25.51 24.4414 25.5173C24.4455 25.521 24.449 25.524 24.4517 25.5263C24.4531 25.5275 24.4543 25.5285 24.4553 25.5294C24.4558 25.5298 24.4562 25.5302 24.4566 25.5306C24.4568 25.5307 24.4571 25.531 24.4572 25.5311C24.4574 25.5313 24.4577 25.5315 25.1091 24.7728C25.7605 24.014 25.7607 24.0142 25.7609 24.0144C25.761 24.0144 25.7612 24.0146 25.7613 24.0147C25.7615 24.0149 25.7617 24.015 25.7618 24.0151C25.7621 24.0154 25.7621 24.0154 25.7621 24.0154C25.7619 24.0152 25.761 24.0145 25.7595 24.0131C25.7565 24.0105 25.7508 24.0055 25.7429 23.9984C25.727 23.9841 25.7019 23.9614 25.6699 23.9312C25.6055 23.8705 25.515 23.7819 25.415 23.6741C25.2044 23.4473 24.9962 23.1829 24.8764 22.9439C24.7417 22.6751 24.8274 22.6691 24.7755 22.7722C24.7236 22.8755 24.7315 22.695 25.4269 22.5722L25.079 20.6027ZM28.9106 8.45637C28.5715 8.77169 28.096 9.31118 27.6985 9.96532C27.3082 10.6076 26.9299 11.4634 26.9299 12.3854H28.9299C28.9299 11.986 29.1056 11.501 29.4076 11.004C29.7024 10.5189 30.0577 10.1207 30.2725 9.92107L28.9106 8.45637ZM23.5555 1.06342C23.3578 0.877312 23.1502 0.702034 22.9336 0.538345L21.7276 2.13383C21.8868 2.25413 22.0394 2.38296 22.1847 2.51977L23.5555 1.06342ZM22.8926 0.508935C22.4436 0.203861 21.918 0.0309584 21.3755 0.0102245L21.2991 2.00877C21.4666 2.01517 21.6293 2.06855 21.7686 2.16324L22.8926 0.508935ZM21.365 0.00987893C21.0029 -0.000157833 20.6414 0.0437124 20.2922 0.140034L20.8239 2.06804C20.9821 2.02442 21.1457 2.00457 21.3096 2.00911L21.365 0.00987893ZM20.3163 0.133699C19.8705 0.244757 19.4521 0.445455 19.0863 0.723443L20.2965 2.31578C20.4465 2.20181 20.6177 2.11974 20.7998 2.07437L20.3163 0.133699ZM19.0863 0.723443C18.7206 1.00142 18.4151 1.35086 18.1882 1.75044L19.9275 2.73786C20.0209 2.5733 20.1465 2.42976 20.2965 2.31578L19.0863 0.723443ZM18.1882 1.75044C17.9614 2.15002 17.8179 2.59148 17.7662 3.04806L19.7535 3.27304C19.7748 3.08448 19.8341 2.90241 19.9275 2.73786L18.1882 1.75044ZM17.7662 3.04806C17.7145 3.50464 17.7557 3.96703 17.8874 4.40726L19.8035 3.83414C19.7492 3.65251 19.7321 3.4616 19.7535 3.27304L17.7662 3.04806ZM17.9257 4.51328C18.22 5.20274 18.6175 5.84319 19.1047 6.41243L20.6242 5.11207C20.2694 4.69747 19.9797 4.23079 19.7651 3.72813L17.9257 4.51328ZM19.1456 6.45738C20.1102 7.45498 21.1367 8.39046 22.2188 9.25825L23.47 7.69797C22.4536 6.88289 21.4894 6.00419 20.5833 5.06712L19.1456 6.45738ZM23.4675 9.26028C24.5577 8.3918 25.5944 7.45772 26.5718 6.4632L25.1454 5.0613C24.2247 5.99811 23.2482 6.87794 22.2213 7.69594L23.4675 9.26028ZM26.6019 6.4312C27.1085 5.86829 27.5314 5.235 27.8574 4.55097L26.052 3.69043C25.8086 4.201 25.4931 4.67349 25.1153 5.0933L26.6019 6.4312ZM27.9145 4.40145C28.045 3.95513 28.083 3.48678 28.0262 3.02525L26.0412 3.26979C26.0647 3.46107 26.049 3.65514 25.9949 3.83996L27.9145 4.40145ZM28.0262 3.02525C27.9693 2.56373 27.8188 2.11862 27.5837 1.71742L25.8581 2.72849C25.9552 2.89429 26.0176 3.07851 26.0412 3.26979L28.0262 3.02525ZM27.5837 1.71742C27.3486 1.31622 27.034 0.967375 26.6589 0.692577L25.4768 2.30585C25.6311 2.4189 25.761 2.56269 25.8581 2.72849L27.5837 1.71742ZM26.6589 0.692577C26.2839 0.417771 25.8565 0.222896 25.4031 0.120162L24.9611 2.07072C25.147 2.11284 25.3226 2.1928 25.4768 2.30585L26.6589 0.692577ZM25.4491 0.131745C25.1029 0.0358136 24.7444 -0.00816739 24.3852 0.00124556L24.4376 2.00056C24.5988 1.99634 24.7597 2.01607 24.9151 2.05913L25.4491 0.131745ZM24.3799 0.00140089C23.8324 0.0186963 23.3017 0.193297 22.8507 0.504069L23.9856 2.15091C24.1209 2.05766 24.2797 2.00556 24.443 2.0004L24.3799 0.00140089ZM22.8174 0.528046C22.5949 0.695275 22.3822 0.875351 22.1805 1.06735L23.5596 2.51583C23.7051 2.37736 23.8584 2.2475 24.0189 2.12694L22.8174 0.528046Z" fill="#722839"/>
</svg>
