<svg width="44" height="34" viewBox="0 0 44 34" fill="none" xmlns="http://www.w3.org/2000/svg">
<path d="M25.3968 1.04063C26.2157 0.986455 27.0373 0.986455 27.8562 1.04063C28.6506 1.07841 29.4403 1.18344 30.2169 1.3546C30.7734 1.48019 31.3838 1.62372 31.689 1.72239C33.6009 2.33172 35.3862 3.28309 36.9579 4.53016L37.1823 4.71854L37.6491 5.14016C40.4348 7.53844 42.2768 10.8482 42.8462 14.4785C42.951 15.2905 43.002 16.1086 42.9988 16.9274C43.0093 17.7232 42.9523 18.5184 42.8282 19.3046C42.7385 19.8608 42.6307 20.4797 42.55 20.7937C41.8018 23.7508 40.2483 26.4429 38.062 28.5711C35.3845 31.1464 31.8864 32.6991 28.1794 32.9577C24.5083 33.2289 20.86 32.1894 17.8839 30.0244C14.8751 27.8271 12.7187 24.658 11.7802 21.0538M5.94578 2.26062C5.94341 3.39474 5.49156 4.48173 4.68913 5.28367C3.88669 6.08561 2.79904 6.53719 1.66422 6.53956M17.7403 2.26062C17.7426 3.39474 18.1945 4.48173 18.9969 5.28367C19.7994 6.08561 20.887 6.53719 22.0218 6.53956M17.7403 14.0479C17.7426 12.9138 18.1945 11.8268 18.9969 11.0248C19.7994 10.2229 20.887 9.77131 22.0218 9.76894M5.94578 14.0479C5.94341 12.9138 5.49156 11.8268 4.68913 11.0248C3.88669 10.2229 2.79904 9.77131 1.66422 9.76894M27.6767 9.49982V17.7886L22.1295 23.3324M14.7602 21.4216L11.2865 17.0799L9.32974 22.3546L14.7602 21.4216ZM1 2.48489H22.5694V13.6442H1V2.48489ZM14.2037 8.06454C14.2037 9.4022 13.1187 10.4866 11.7802 10.4866C10.4417 10.4866 9.35667 9.4022 9.35667 8.06454C9.35667 6.72689 10.4417 5.64251 11.7802 5.64251C13.1187 5.64251 14.2037 6.72689 14.2037 8.06454Z" stroke="#722839" stroke-width="2" stroke-miterlimit="10"/>
</svg>
