<svg width="30" height="24" viewBox="0 0 30 24" fill="none" xmlns="http://www.w3.org/2000/svg">
<path d="M12.5613 3.35669C12.5856 2.72342 12.853 2.12423 13.3073 1.68484C13.7617 1.24544 14.3677 1 14.9982 1C15.6287 1 16.2347 1.24544 16.689 1.68484C17.1434 2.12423 17.4108 2.72342 17.4351 3.35669M2.65732 19.6683H27.3427C28.258 19.6683 29 20.4141 29 21.3341C29 22.2542 28.258 23 27.3427 23H2.65732C1.74201 23 1 22.2542 1 21.3341C1 20.4141 1.74201 19.6683 2.65732 19.6683ZM28.055 16.9941C28.055 10.3709 23.0758 3.17768 15 3.17768C6.9242 3.17768 1.94133 10.3745 1.94133 16.9941H28.055Z" stroke="black" stroke-miterlimit="10"/>
</svg>
