<svg width="38" height="38" viewBox="0 0 38 38" fill="none" xmlns="http://www.w3.org/2000/svg">
<path d="M18.691 36.998C18.373 36.7671 18.0697 36.5166 17.7828 36.2481C12.3791 30.7482 6.97779 25.2133 1.57901 19.6435L1.33134 19.3885C1.16756 19.231 1.05765 19.0259 1.01723 18.8024C0.976807 18.5789 1.00793 18.3483 1.10618 18.1435C1.20666 17.9249 1.37059 17.7414 1.57669 17.6171C1.7828 17.4927 2.02156 17.4331 2.26199 17.446H7.46313V16.936C7.46313 11.8212 7.46313 9.97622 7.46313 4.86134C7.42031 4.11287 7.61489 3.36999 8.01915 2.73845C8.42342 2.10691 9.01676 1.61891 9.7147 1.34393C10.1918 1.12868 10.7074 1.01136 11.2308 0.998937C16.4194 0.998937 21.608 0.998937 26.7967 0.998937C27.7333 0.978364 28.6427 1.31508 29.3398 1.94062C30.0369 2.56616 30.4694 3.43353 30.5493 4.36635C30.5493 4.58635 30.5493 4.80384 30.5493 5.01884V17.4535H35.6228C35.8814 17.425 36.1425 17.4766 36.3707 17.6014C36.599 17.7262 36.7833 17.918 36.8987 18.151C37.0027 18.383 37.0267 18.6428 36.967 18.8899C36.9072 19.1369 36.767 19.3571 36.5685 19.516L19.9969 36.5181C19.7913 36.6971 19.5703 36.8578 19.3364 36.998H18.691Z" stroke="#722839" stroke-width="2" stroke-miterlimit="10"/>
<path d="M17.4901 28.5533C17.3695 28.511 17.2674 28.4279 17.2016 28.3183C17.1358 28.2087 17.1104 28.0796 17.1299 27.9533C17.1299 27.3008 17.1299 26.6408 17.1299 25.9958C16.5295 25.8908 15.9441 25.8083 15.3662 25.6883C14.5021 25.5247 13.6657 25.2394 12.8819 24.8408C12.5517 24.6759 12.4841 24.5184 12.5742 24.1509L13.3247 21.2559C13.4448 20.7984 13.6925 20.6784 14.1203 20.8959C15.1454 21.4458 16.2663 21.7946 17.4226 21.9234C18.1776 22.0481 18.9519 21.9811 19.6742 21.7284C19.9141 21.6604 20.1217 21.5088 20.2593 21.3011C20.397 21.0934 20.4557 20.8432 20.4247 20.596C20.401 20.4253 20.3387 20.2623 20.2425 20.1193C20.1462 19.9763 20.0186 19.8572 19.8693 19.771C19.4017 19.4926 18.9181 19.2421 18.4208 19.021C17.5202 18.631 16.5895 18.3085 15.6964 17.896C14.8904 17.5362 14.1826 16.9884 13.6324 16.2986C13.2418 15.7979 12.9616 15.2203 12.8103 14.6037C12.659 13.9872 12.6399 13.3456 12.7543 12.7211C12.881 11.8496 13.2377 11.0275 13.7878 10.3395C14.3378 9.65141 15.0614 9.12219 15.884 8.80624C16.2818 8.62625 17.2575 8.28126 17.2575 8.28126C17.2575 8.28126 17.2575 6.89379 17.2575 6.26381C17.2575 5.85132 17.4151 5.68632 17.8204 5.68632H20.2371C20.6348 5.68632 20.7925 5.85132 20.7925 6.24131C20.7925 6.83379 20.7925 8.00376 20.7925 8.00376L21.7982 8.15376C22.7025 8.29989 23.5817 8.57256 24.41 8.96374C24.468 8.98225 24.5216 9.01231 24.5676 9.05211C24.6136 9.09191 24.6511 9.14062 24.6778 9.1953C24.7044 9.24997 24.7197 9.30948 24.7227 9.37023C24.7257 9.43097 24.7163 9.49169 24.6952 9.54873C24.44 10.5237 24.1773 11.4987 23.9447 12.4737C23.8396 12.8486 23.5919 12.9461 23.1941 12.8036C22.6472 12.57 22.0886 12.3647 21.5205 12.1887C20.6965 11.9404 19.8284 11.8738 18.9762 11.9937C18.6509 12.0503 18.3398 12.1701 18.0605 12.3462C17.9622 12.4094 17.88 12.4947 17.8205 12.5952C17.761 12.6958 17.7259 12.8089 17.7179 12.9254C17.7098 13.042 17.7292 13.1588 17.7743 13.2666C17.8195 13.3743 17.8892 13.4701 17.978 13.5461C18.3955 13.9199 18.8826 14.2079 19.4115 14.3936C20.3571 14.7911 21.3178 15.1436 22.2485 15.5636C23.2556 15.9952 24.114 16.7122 24.7177 17.626C25.2554 18.4706 25.5176 19.4611 25.4682 20.461C25.4611 21.5035 25.1373 22.5193 24.5395 23.3738C23.9417 24.2283 23.0983 24.8811 22.1209 25.2458C21.6781 25.4483 21.1977 25.5683 20.7174 25.7408C20.7174 26.4908 20.7174 27.2033 20.7174 27.9458C20.7336 28.0717 20.7078 28.1994 20.6441 28.3093C20.5803 28.4191 20.4821 28.5048 20.3647 28.5533H17.4901Z" stroke="#722839" stroke-width="2" stroke-miterlimit="10"/>
</svg>
