<svg width="34" height="24" viewBox="0 0 34 24" fill="none" xmlns="http://www.w3.org/2000/svg">
<path d="M21.4204 23H20.9204V23.5H21.4204V23ZM25.1533 23V23.5H25.6533V23H25.1533ZM8.8256 23H8.3256V23.5H8.8256V23ZM12.5691 23V23.5H13.0691V23H12.5691ZM1.00003 8.72796H1.50004L1.50002 8.72488L1.00003 8.72796ZM2.72376 6.99929L2.72375 7.49929H2.72376V6.99929ZM31.2763 6.99929V7.49929V6.99929ZM33 8.71742H33.5H33ZM31.1283 10.5094H31.6283V10.0094H31.1283V10.5094ZM31.1283 13.1129H31.6283H31.1283ZM24.1593 20.0592V20.5592V20.0592ZM9.77733 20.0592V20.5592V20.0592ZM2.8084 13.1129H2.3084H2.8084ZM2.8084 10.5094V10.0094H2.3084V10.5094H2.8084ZM20.9127 16.1275L20.7716 16.6072L21.4127 16.7959V16.1275H20.9127ZM10.1685 12.9653H9.66853V13.3393L10.0274 13.445L10.1685 12.9653ZM22.0034 2.80834C21.9877 3.08404 22.1984 3.32026 22.4741 3.33595C22.7498 3.35164 22.986 3.14087 23.0017 2.86517L22.0034 2.80834ZM24.1048 1.01173L24.0647 0.51329L24.0576 0.513962L24.1048 1.01173ZM26.0082 6.87662C26.0082 7.15276 26.2321 7.37662 26.5082 7.37662C26.7844 7.37662 27.0082 7.15276 27.0082 6.87662H26.0082ZM20.9204 20.0592V23H21.9204V20.0592H20.9204ZM21.4204 23.5H25.1533V22.5H21.4204V23.5ZM25.6533 23V20.0592H24.6533V23H25.6533ZM8.3256 20.0592V23H9.3256V20.0592H8.3256ZM8.8256 23.5H12.5691V22.5H8.8256V23.5ZM13.0691 23V20.0592H12.0691V23H13.0691ZM9.97821 9.94608H2.72376V10.9461H9.97821V9.94608ZM2.72376 9.94608C2.39868 9.94608 2.08725 9.81735 1.85788 9.58873L1.15192 10.297C1.56908 10.7128 2.13451 10.9461 2.72376 10.9461V9.94608ZM1.85788 9.58873C1.62856 9.36016 1.50003 9.0505 1.50003 8.72796H0.500032C0.500032 9.31677 0.734714 9.88113 1.15192 10.297L1.85788 9.58873ZM1.50002 8.72488C1.49904 8.56451 1.52987 8.4055 1.59079 8.25697L0.665597 7.87748C0.554519 8.14829 0.498241 8.43838 0.500042 8.73104L1.50002 8.72488ZM1.59079 8.25697C1.65172 8.10843 1.74155 7.97327 1.8552 7.85929L1.14709 7.15319C0.940337 7.36053 0.776675 7.60667 0.665597 7.87748L1.59079 8.25697ZM1.8552 7.85929C1.96886 7.7453 2.1041 7.65476 2.25318 7.59295L1.87015 6.66921C1.59958 6.7814 1.35383 6.94585 1.14709 7.15319L1.8552 7.85929ZM2.25318 7.59295C2.40226 7.53113 2.56219 7.49929 2.72375 7.49929L2.72377 6.49929C2.43082 6.49929 2.14072 6.55702 1.87015 6.66921L2.25318 7.59295ZM2.72376 7.49929H31.2763V6.49929H2.72376V7.49929ZM31.2763 7.49929C31.6014 7.49929 31.9128 7.62802 32.1422 7.85665L32.8481 7.14839C32.431 6.73259 31.8655 6.49929 31.2763 6.49929V7.49929ZM32.1422 7.85665C32.3715 8.08522 32.5 8.39487 32.5 8.71742H33.5C33.5 8.12861 33.2653 7.56424 32.8481 7.14839L32.1422 7.85665ZM32.5 8.71742C32.5 9.03996 32.3715 9.34962 32.1422 9.57819L32.8481 10.2864C33.2653 9.87059 33.5 9.30622 33.5 8.71742H32.5ZM32.1422 9.57819C31.9128 9.80681 31.6014 9.93554 31.2763 9.93554V10.9355C31.8655 10.9355 32.431 10.7022 32.8481 10.2864L32.1422 9.57819ZM31.2763 9.93554H20.9339V10.9355H31.2763V9.93554ZM20.9657 11.0094H31.1283V10.0094H20.9657V11.0094ZM30.6283 10.5094V13.1129H31.6283V10.5094H30.6283ZM30.6283 13.1129C30.6283 14.822 29.9471 16.4615 28.7341 17.6705L29.4401 18.3788C30.841 16.9825 31.6283 15.0883 31.6283 13.1129H30.6283ZM28.7341 17.6705C27.5211 18.8796 25.8755 19.5592 24.1593 19.5592V20.5592C26.1397 20.5592 28.0393 19.7751 29.4401 18.3788L28.7341 17.6705ZM24.1593 19.5592H9.77733V20.5592H24.1593V19.5592ZM9.77733 19.5592C8.06114 19.5592 6.41556 18.8796 5.20253 17.6705L4.49657 18.3788C5.89739 19.7751 7.79697 20.5592 9.77733 20.5592V19.5592ZM5.20253 17.6705C3.98955 16.4615 3.3084 14.822 3.3084 13.1129H2.3084C2.3084 15.0883 3.0957 16.9825 4.49657 18.3788L5.20253 17.6705ZM3.3084 13.1129V10.5094H2.3084V13.1129H3.3084ZM2.8084 11.0094H10.0629V10.0094H2.8084V11.0094ZM20.4127 6.99929V16.1275H21.4127V6.99929H20.4127ZM21.0539 15.6478L10.3097 12.4856L10.0274 13.445L20.7716 16.6072L21.0539 15.6478ZM10.6685 12.9653V6.99929H9.66853V12.9653H10.6685ZM23.0017 2.86517C23.0349 2.28303 23.1459 1.99209 23.2865 1.83061C23.4164 1.6814 23.6475 1.55732 24.152 1.5095L24.0576 0.513962C23.4406 0.572453 22.9056 0.745158 22.5323 1.17403C22.1696 1.59061 22.0403 2.15903 22.0034 2.80834L23.0017 2.86517ZM24.1449 1.51012C24.7275 1.46326 25.1925 1.58049 25.4997 1.814C25.7895 2.03431 26.0082 2.41032 26.0082 3.04938H27.0082C27.0082 2.15577 26.6862 1.4598 26.1048 1.01788C25.5408 0.589147 24.804 0.453887 24.0647 0.51334L24.1449 1.51012ZM26.0082 3.04938V6.87662H27.0082V3.04938H26.0082Z" fill="black"/>
</svg>
