<svg width="22" height="22" viewBox="0 0 22 22" fill="none" xmlns="http://www.w3.org/2000/svg">
<path d="M11 5.44444V12.1111L14.8268 9.5M1 11C1 12.3132 1.25866 13.6136 1.7612 14.8268C2.26375 16.0401 3.00035 17.1425 3.92893 18.0711C4.85752 18.9997 5.95991 19.7362 7.17317 20.2388C8.38642 20.7413 9.68678 21 11 21C12.3132 21 13.6136 20.7413 14.8268 20.2388C16.0401 19.7362 17.1425 18.9997 18.0711 18.0711C18.9997 17.1425 19.7362 16.0401 20.2388 14.8268C20.7413 13.6136 21 12.3132 21 11C21 9.68678 20.7413 8.38642 20.2388 7.17317C19.7362 5.95991 18.9997 4.85752 18.0711 3.92893C17.1425 3.00035 16.0401 2.26375 14.8268 1.7612C13.6136 1.25866 12.3132 1 11 1C9.68678 1 8.38642 1.25866 7.17317 1.7612C5.95991 2.26375 4.85752 3.00035 3.92893 3.92893C3.00035 4.85752 2.26375 5.95991 1.7612 7.17317C1.25866 8.38642 1 9.68678 1 11Z" stroke="black" stroke-linecap="round" stroke-linejoin="round"/>
</svg>
