<svg width="44" height="38" viewBox="0 0 44 38" fill="none" xmlns="http://www.w3.org/2000/svg">
<path d="M41.5436 24.7871V25.7871H42.5436V24.7871H41.5436ZM2.46185 24.7871H1.46185V25.7871H2.46185V24.7871ZM42 37V38H43.2086L42.9823 36.8128L42 37ZM2 37L1.01769 36.8128L0.791381 38H2V37ZM3.22336 30.582V29.582H2.39597L2.24105 30.3948L3.22336 30.582ZM40.7766 30.582L41.759 30.3948L41.604 29.582H40.7766V30.582ZM23 1.09347C23 0.541181 22.5523 0.093466 22 0.093466C21.4477 0.093466 21 0.541181 21 1.09347H23ZM21 4.97231C21 5.52459 21.4477 5.97231 22 5.97231C22.5523 5.97231 23 5.52459 23 4.97231H21ZM26.7812 2C27.3335 2 27.7812 1.55228 27.7812 1C27.7812 0.447715 27.3335 0 26.7812 0V2ZM17.2188 0C16.6665 0 16.2188 0.447715 16.2188 1C16.2188 1.55228 16.6665 2 17.2188 2V0ZM42.5436 24.7871C42.5436 14.9183 34.7367 4.14885 22.0054 4.14885V6.14885C33.4467 6.14885 40.5436 15.8277 40.5436 24.7871H42.5436ZM22.0054 4.14885C9.27439 4.14885 1.46185 14.9232 1.46185 24.7871H3.46185C3.46185 15.8332 10.564 6.14885 22.0054 6.14885V4.14885ZM2.46185 25.7871H41.5436V23.7871H2.46185V25.7871ZM42 36H2V38H42V36ZM2.98231 37.1872L4.20567 30.7692L2.24105 30.3948L1.01769 36.8128L2.98231 37.1872ZM3.22336 31.582H40.7766V29.582H3.22336V31.582ZM39.7943 30.7692L41.0177 37.1872L42.9823 36.8128L41.759 30.3948L39.7943 30.7692ZM6.92296 24.8183V30.6599H8.92296V24.8183H6.92296ZM35.0716 24.9585V30.6599H37.0716V24.9585H35.0716ZM21 1.09347V4.97231H23V1.09347H21ZM26.7812 0H17.2188V2H26.7812V0Z" fill="#722839"/>
</svg>
