<svg width="25" height="24" viewBox="0 0 25 24" fill="none" xmlns="http://www.w3.org/2000/svg">
<path d="M1 9.55831V9.05831H0.5V9.55831H1ZM24 9.55831H24.5V9.05831H24V9.55831ZM24 23V23.5H24.5V23H24ZM1 23H0.5V23.5H1V23ZM24 13.7708H24.5V13.2708H24V13.7708ZM24 18.8028V19.3028H24.5V18.8028H24ZM13.9058 18.8028V19.3028V18.8028ZM11.3707 16.2868H10.8707H11.3707ZM4.77956 1.9721L4.27956 1.97013V1.9721H4.77956ZM5.76286 1L5.76285 1.5H5.76286V1ZM13.9365 1V1.5H13.9365L13.9365 1ZM14.9198 1.9721H15.4198L15.4198 1.97013L14.9198 1.9721ZM15.7706 2.65615V3.15615V2.65615ZM14.9851 4.54477V4.04477C14.709 4.04477 14.4851 4.26863 14.4851 4.54477H14.9851ZM16.7366 4.54477V5.04478L16.7382 5.04477L16.7366 4.54477ZM17.985 5.77991L17.485 5.77991L17.485 5.78147L17.985 5.77991ZM16.7366 7.01887L16.7382 6.51887H16.7366V7.01887ZM14.0479 6.51887C13.7718 6.51887 13.5479 6.74273 13.5479 7.01887C13.5479 7.29501 13.7718 7.51887 14.0479 7.51887V6.51887ZM14.0556 7.77361C13.7795 7.77361 13.5556 7.99747 13.5556 8.27361C13.5556 8.54975 13.7795 8.77361 14.0556 8.77361V7.77361ZM17.1131 8.77361C17.3892 8.77361 17.6131 8.54975 17.6131 8.27361C17.6131 7.99747 17.3892 7.77361 17.1131 7.77361V8.77361ZM1 10.0583H24V9.05831H1V10.0583ZM23.5 9.55831V23H24.5V9.55831H23.5ZM24 22.5H1V23.5H24V22.5ZM1.5 23V9.55831H0.5V23H1.5ZM13.9058 14.2708H24V13.2708H13.9058V14.2708ZM23.5 13.7708V18.8028H24.5V13.7708H23.5ZM24 18.3028H13.9058V19.3028H24V18.3028ZM13.9058 18.3028C13.3649 18.3028 12.8468 18.0895 12.4655 17.711L11.761 18.4208C12.3305 18.986 13.1021 19.3028 13.9058 19.3028V18.3028ZM12.4655 17.711C12.0842 17.3326 11.8707 16.8202 11.8707 16.2868H10.8707C10.8707 17.0879 11.1914 17.8554 11.761 18.4208L12.4655 17.711ZM11.8707 16.2868C11.8707 15.7533 12.0842 15.2409 12.4655 14.8626L11.761 14.1528C11.1914 14.7181 10.8707 15.4857 10.8707 16.2868H11.8707ZM12.4655 14.8626C12.8468 14.4841 13.3649 14.2708 13.9058 14.2708V13.2708C13.1021 13.2708 12.3305 13.5876 11.761 14.1528L12.4655 14.8626ZM5.27956 9.47825V1.9721H4.27956V9.47825H5.27956ZM5.27956 1.97407C5.28005 1.84939 5.33026 1.72921 5.42044 1.64006L4.71739 0.928917C4.43898 1.20416 4.2811 1.57848 4.27956 1.97013L5.27956 1.97407ZM5.42044 1.64006C5.51074 1.55079 5.63379 1.5 5.76285 1.5L5.76286 0.5C5.37167 0.499997 4.99568 0.6538 4.71739 0.928917L5.42044 1.64006ZM5.76286 1.5H13.9365V0.5H5.76286V1.5ZM13.9365 1.5C14.0656 1.5 14.1887 1.55079 14.279 1.64006L14.982 0.928917C14.7037 0.653798 14.3277 0.499997 13.9365 0.5L13.9365 1.5ZM14.279 1.64006C14.3691 1.72921 14.4194 1.84939 14.4198 1.97407L15.4198 1.97013C15.4183 1.57848 15.2604 1.20416 14.982 0.928917L14.279 1.64006ZM14.4198 1.9721V2.86792H15.4198V1.9721H14.4198ZM6.90681 1.10674V9.44394H7.90681V1.10674H6.90681ZM12.2805 9.31542C12.1355 9.04348 12.0133 8.63982 11.9312 8.19244C11.85 7.75021 11.8148 7.30312 11.8242 6.96261L10.8246 6.93478C10.8129 7.35511 10.8558 7.87265 10.9476 8.37303C11.0386 8.86825 11.1844 9.38517 11.3982 9.78595L12.2805 9.31542ZM11.8242 6.96261C11.843 6.28867 12.037 5.63075 12.3877 5.05272L11.5328 4.534C11.0923 5.26003 10.8482 6.08706 10.8246 6.93478L11.8242 6.96261ZM12.3877 5.05272C12.7384 4.47466 13.2341 3.99598 13.8268 3.6635L13.3376 2.79133C12.5951 3.2078 11.9733 3.808 11.5328 4.534L12.3877 5.05272ZM13.8268 3.6635C14.4196 3.33101 15.0892 3.15615 15.7706 3.15615V2.15615C14.9182 2.15615 14.0801 2.37487 13.3376 2.79133L13.8268 3.6635ZM15.7706 3.15615C16.452 3.15615 17.1216 3.33101 17.7144 3.6635L18.2036 2.79133C17.4611 2.37487 16.623 2.15615 15.7706 2.15615V3.15615ZM17.7144 3.6635C18.3072 3.99598 18.8028 4.47466 19.1535 5.05272L20.0085 4.534C19.568 3.80799 18.9461 3.2078 18.2036 2.79133L17.7144 3.6635ZM19.1535 5.05272C19.5042 5.63075 19.6983 6.28866 19.717 6.96261L20.7166 6.93478C20.693 6.08706 20.449 5.26003 20.0085 4.534L19.1535 5.05272ZM19.717 6.96261C19.7265 7.30312 19.6912 7.75021 19.6101 8.19244C19.5279 8.63982 19.4057 9.04348 19.2607 9.31542L20.1431 9.78595C20.3568 9.38517 20.5027 8.86825 20.5936 8.37303C20.6855 7.87265 20.7283 7.35511 20.7166 6.93478L19.717 6.96261ZM15.4851 9.46301V5.15094H14.4851V9.46301H15.4851ZM14.9851 5.04477H16.7366V4.04477H14.9851V5.04477ZM16.7382 5.04477C16.8367 5.04447 16.9341 5.06347 17.025 5.10058L17.4031 4.17481C17.1911 4.08823 16.9641 4.04407 16.7351 4.04478L16.7382 5.04477ZM17.025 5.10058C17.1159 5.13769 17.1982 5.19213 17.2674 5.26061L17.9708 4.54976C17.8081 4.38875 17.6151 4.2614 17.4031 4.17481L17.025 5.10058ZM17.2674 5.26061C17.3366 5.32908 17.3913 5.41023 17.4286 5.4993L18.3512 5.11343C18.2628 4.90229 18.1335 4.71078 17.9708 4.54976L17.2674 5.26061ZM17.4286 5.4993C17.4658 5.58836 17.485 5.68371 17.485 5.77991L18.485 5.77992C18.485 5.55108 18.4395 5.32458 18.3512 5.11343L17.4286 5.4993ZM17.485 5.78147C17.4853 5.87787 17.4664 5.97346 17.4293 6.06278L18.3527 6.4465C18.4407 6.23473 18.4857 6.00765 18.485 5.77836L17.485 5.78147ZM17.4293 6.06278C17.3921 6.15211 17.3375 6.23352 17.2683 6.30223L17.9727 7.01199C18.1355 6.8504 18.2647 6.65825 18.3527 6.4465L17.4293 6.06278ZM17.2683 6.30223C17.199 6.37094 17.1166 6.42559 17.0255 6.46285L17.4044 7.38832C17.6167 7.30141 17.8099 7.17358 17.9727 7.01199L17.2683 6.30223ZM17.0255 6.46285C16.9345 6.5001 16.8369 6.51917 16.7382 6.51887L16.7351 7.51887C16.9646 7.51957 17.192 7.47524 17.4044 7.38832L17.0255 6.46285ZM16.7366 6.51887H14.0479V7.51887H16.7366V6.51887ZM14.0556 8.77361H17.1131V7.77361H14.0556V8.77361ZM15.4851 5.15094V4.54477H14.4851V5.15094H15.4851Z" fill="black"/>
</svg>
