<svg width="35" height="35" viewBox="0 0 35 35" fill="none" xmlns="http://www.w3.org/2000/svg">
<rect x="0.5" y="0.5" width="34" height="34" rx="8.5" stroke="black"/>
<path d="M15.3433 13.4891L15.7948 13.2742C15.7415 13.1622 15.3684 12.2571 15.0637 11.5178C14.9557 11.2557 14.8562 11.0145 14.7827 10.8368L14.7822 10.8356C14.6596 10.5417 14.5011 10.236 14.1601 10.0764C14.005 10.0038 13.8448 9.97717 13.6996 9.96482C13.5561 9.9526 13.3908 9.95206 13.2173 9.95206C12.2585 9.95206 11.538 10.5123 11.0799 11.2179C10.625 11.9184 10.3911 12.8095 10.3911 13.6291C10.3911 14.4599 10.682 15.3526 11.1295 16.221C11.58 17.095 12.2063 17.9778 12.9191 18.7983C14.3366 20.43 16.1498 21.8759 17.7124 22.5234C19.0358 23.0718 19.9243 23.3339 20.5748 23.4373C21.2465 23.5442 21.6533 23.4795 21.9923 23.4076L21.9941 23.4072C22.4935 23.2993 23.0421 23.0656 23.5082 22.7503C23.9653 22.4411 24.405 22.0109 24.5929 21.4793C24.7442 21.0508 24.8216 20.6497 24.8493 20.3282C24.8631 20.168 24.8653 20.0202 24.8558 19.8937C24.8483 19.7942 24.8293 19.628 24.7495 19.4879C24.6898 19.3827 24.6014 19.3144 24.575 19.294L24.5728 19.2923C24.5295 19.2588 24.4808 19.2262 24.4336 19.1965C24.3379 19.1362 24.2156 19.067 24.0814 18.9946C23.8111 18.8489 23.4637 18.6749 23.1184 18.5071C22.772 18.3388 22.4228 18.1745 22.1469 18.0475C21.896 17.932 21.6743 17.8328 21.5869 17.8009C21.3723 17.7205 21.1174 17.6778 20.8522 17.7469C20.5792 17.8179 20.3583 17.991 20.191 18.2276C20.147 18.2892 20.1037 18.3499 20.0612 18.4095C19.7824 18.8005 19.5392 19.1417 19.3434 19.3537C19.3326 19.3651 19.3117 19.3797 19.2686 19.3855C19.2221 19.3919 19.1607 19.3854 19.0988 19.3596C19.0687 19.3471 19.0345 19.3333 18.9965 19.318C18.5736 19.1473 17.6743 18.7843 16.5723 17.8024L16.5721 17.8023C15.6505 16.9817 15.014 15.9485 14.8262 15.6305C14.8221 15.6234 14.8189 15.6172 14.8163 15.612C14.8178 15.6098 14.8195 15.6074 14.8214 15.6047C14.8411 15.5772 14.865 15.5492 14.9079 15.499L14.9126 15.4935L14.9171 15.4879C15.0125 15.3694 15.1166 15.2591 15.2322 15.1366C15.2441 15.1239 15.2561 15.1112 15.2683 15.0982C15.3909 14.9681 15.5318 14.8168 15.6472 14.654C15.7644 14.4886 15.8755 14.2841 15.9157 14.0385C15.9573 13.7837 15.9158 13.5268 15.7942 13.2731L15.3433 13.4891ZM15.3433 13.4891C15.5979 14.0206 15.2574 14.3814 14.8673 14.7947C14.7538 14.9149 14.6362 15.0396 14.5277 15.1742L21.8885 22.9185C21.2936 23.0448 20.5178 23.1447 17.9038 22.0615C14.9679 20.8451 10.8911 16.5124 10.8911 13.6291C10.8911 12.1612 11.7374 10.4521 13.2173 10.4521C13.9294 10.4521 14.0864 10.4659 14.3207 11.028C14.3896 11.1945 14.4834 11.4222 14.5866 11.6725C14.8938 12.418 15.2837 13.3639 15.3433 13.4891ZM8.76487 23.4507L8.84694 23.2059L8.69491 22.9973C7.39149 21.2084 6.625 19.0034 6.625 16.625C6.625 10.6281 11.5018 5.75 17.4966 5.75H17.5023C23.4971 5.75 28.375 10.6282 28.375 16.625C28.375 22.6218 23.4971 27.5 17.5023 27.5C15.2907 27.5 13.2398 26.8422 11.5208 25.7046L11.321 25.5723L11.0927 25.6453L7.66127 26.7418L8.76487 23.4507Z" stroke="black"/>
</svg>
