<svg width="27" height="24" viewBox="0 0 27 24" fill="none" xmlns="http://www.w3.org/2000/svg">
<path d="M14.5719 17.3033L14.9641 17.6133L14.9642 17.6132L14.5719 17.3033ZM12.4343 17.3033L12.042 17.6133L12.042 17.6133L12.4343 17.3033ZM2 4.10103V3.60103H0.96752L1.60772 4.41106L2 4.10103ZM25 4.10103L25.3924 4.41095L26.0321 3.60103H25V4.10103ZM22.8898 1.35279C23.0847 1.1571 23.084 0.840519 22.8883 0.645681C22.6926 0.450843 22.376 0.451529 22.1812 0.647214L22.8898 1.35279ZM13.7577 9.10733C13.5629 9.30301 13.5635 9.61959 13.7592 9.81443C13.9549 10.0093 14.2715 10.0086 14.4663 9.8129L13.7577 9.10733ZM14.1796 16.9932C13.9669 17.2624 13.7189 17.3651 13.5031 17.3651C13.2873 17.3651 13.0393 17.2624 12.8266 16.9932L12.042 17.6133C12.4214 18.0933 12.9461 18.3651 13.5031 18.3651C14.06 18.3651 14.5847 18.0933 14.9641 17.6133L14.1796 16.9932ZM2 4.60103H25V3.60103H2V4.60103ZM6.24774 9.9655H20.7735V8.9655H6.24774V9.9655ZM22.1812 0.647214L13.7577 9.10733L14.4663 9.8129L22.8898 1.35279L22.1812 0.647214ZM13.0027 17.8449V22.9785H14.0027V17.8449H13.0027ZM12.8266 16.9932L2.39228 3.79099L1.60772 4.41106L12.042 17.6133L12.8266 16.9932ZM24.6076 3.79111L14.1795 16.9933L14.9642 17.6132L25.3924 4.41095L24.6076 3.79111ZM8.57241 23.5H13.5031V22.5H8.57241V23.5ZM13.5031 23.5H18.4338V22.5H13.5031V23.5Z" fill="black"/>
</svg>
