<svg width="32" height="27" viewBox="0 0 32 27" fill="none" xmlns="http://www.w3.org/2000/svg">
<path d="M8.76197 25.313L8.34328 25.0397C8.33892 25.0463 8.33471 25.0531 8.33067 25.06L8.76197 25.313ZM7.38742 25.9913L7.39588 26.4912H7.39594L7.38742 25.9913ZM1.5129 25.9913L1.51595 25.4913H1.5129V25.9913ZM1 25.5174H0.499999L0.500001 25.5185L1 25.5174ZM1.5129 15.1057V14.6057L1.51201 14.6057L1.5129 15.1057ZM7.36065 15.1057L7.36614 14.6057L7.36545 14.6057L7.36065 15.1057ZM8.88315 15.9917L8.4394 16.2225L8.44548 16.2335L8.88315 15.9917ZM8.91979 16.0715L9.39522 15.9167C9.39314 15.9104 9.39093 15.904 9.3886 15.8977L8.91979 16.0715ZM8.94022 16.1365L9.42898 16.0304L9.42628 16.0192L8.94022 16.1365ZM9.15933 20.592L9.6593 20.5971L9.65931 20.597L9.15933 20.592ZM9.04097 24.1303L8.54378 24.0773C8.54326 24.0822 8.54281 24.0871 8.54243 24.0921L9.04097 24.1303ZM8.94656 24.8307L8.45569 24.7356C8.45431 24.7427 8.45309 24.7498 8.45203 24.7569L8.94656 24.8307ZM20.084 17.3041C19.8147 17.3651 19.6458 17.6329 19.7069 17.9022C19.7679 18.1715 20.0357 18.3404 20.305 18.2793L20.084 17.3041ZM24.5013 16.7875L24.3889 16.3003L24.3886 16.3004L24.5013 16.7875ZM26.2627 16.5993L26.1839 17.093L26.1843 17.0931L26.2627 16.5993ZM28.0614 17.5262L27.6919 17.8631L27.6919 17.8631L28.0614 17.5262ZM28.4841 17.634L28.6413 18.1087L28.6494 18.1059L28.4841 17.634ZM29.1182 17.4879L29.0706 16.9901L29.0599 16.9913L29.1182 17.4879ZM30.9387 18.6193L31.4165 18.4719L31.4149 18.467L30.9387 18.6193ZM31 18.8017H31.5C31.5 18.7472 31.4911 18.6931 31.4736 18.6414L31 18.8017ZM31 19.2879L31.4853 19.4082C31.4951 19.3689 31.5 19.3285 31.5 19.2879H31ZM29.679 20.6316L29.4728 20.1761L29.4724 20.1762L29.679 20.6316ZM21.7706 24.2731L21.5589 23.8201L21.5583 23.8204L21.7706 24.2731ZM19.1856 24.8313L19.1903 24.3313L19.1875 24.3313L19.1856 24.8313ZM8.95915 24.3235C8.68301 24.3232 8.45888 24.5468 8.45854 24.8229C8.4582 25.0991 8.68178 25.3232 8.95792 25.3235L8.95915 24.3235ZM8.96391 15.8014C8.68781 15.8066 8.46822 16.0347 8.47342 16.3108C8.47863 16.5868 8.70666 16.8064 8.98276 16.8012L8.96391 15.8014ZM10.7981 16.2669V15.7668L10.7887 15.767L10.7981 16.2669ZM14.1517 16.8583L13.962 17.3211L13.9745 17.3258L14.1517 16.8583ZM15.143 17.0413L15.154 16.5414L15.1454 16.5413L15.143 17.0413ZM20.017 17.5866L20.3784 17.2411L20.3772 17.2398L20.017 17.5866ZM20.4038 19.0276L19.9059 18.9811L19.9059 18.9817L20.4038 19.0276ZM19.7866 20.0539L19.9525 20.5255L19.9527 20.5255L19.7866 20.0539ZM17.5969 20.2019L17.5843 19.702H17.5843L17.5969 20.2019ZM14.1284 20.235L14.1303 19.735C13.8628 19.7339 13.6418 19.9438 13.629 20.211C13.6162 20.4783 13.8161 20.7083 14.0826 20.7328L14.1284 20.235ZM20.7152 19.8364L20.5746 19.3566L20.5745 19.3566L20.7152 19.8364ZM28.6227 18.111C28.8886 18.0368 29.0441 17.7611 28.9699 17.4951C28.8957 17.2291 28.62 17.0736 28.354 17.1478L28.6227 18.111ZM18.6129 6.67371L18.6126 7.17371H18.6129V6.67371ZM23.2966 10.9903L22.7966 10.9901V10.9903H23.2966ZM23.2966 13.3427V13.8427H23.7966V13.3427H23.2966ZM13.9263 13.3427H13.4263V13.8427H13.9263V13.3427ZM13.9263 10.9903H14.4263V10.9901L13.9263 10.9903ZM8.33067 25.06C8.18036 25.3163 7.88447 25.4827 7.3789 25.4914L7.39594 26.4912C8.10921 26.4791 8.80532 26.2274 9.19327 25.5659L8.33067 25.06ZM7.37895 25.4914C6.42772 25.5075 2.47582 25.4972 1.51595 25.4913L1.50985 26.4913C2.46633 26.4971 6.43077 26.5076 7.39588 26.4912L7.37895 25.4914ZM1.5129 25.4913C1.48359 25.4913 1.46121 25.4899 1.44467 25.4879C1.42811 25.486 1.41925 25.4838 1.41634 25.483C1.41359 25.4822 1.41786 25.4832 1.42662 25.4878C1.43573 25.4927 1.44791 25.5006 1.46075 25.5125C1.47369 25.5245 1.4842 25.5376 1.49203 25.5502C1.49967 25.5625 1.50314 25.5717 1.50429 25.5751C1.50534 25.5783 1.50418 25.5758 1.5028 25.5658C1.50141 25.5557 1.50005 25.5396 1.5 25.5164L0.500001 25.5185C0.500488 25.7491 0.552149 26.0342 0.78161 26.2465C1.00193 26.4503 1.28505 26.4913 1.5129 26.4913V25.4913ZM1.5 25.5174V15.5795H0.5V25.5174H1.5ZM1.5 15.5795C1.5 15.5561 1.50134 15.5399 1.50271 15.5298C1.50407 15.5197 1.50521 15.5174 1.5041 15.5207C1.5029 15.5244 1.49934 15.5338 1.49152 15.5464C1.4835 15.5593 1.47279 15.5726 1.45964 15.5848C1.44661 15.5968 1.43429 15.6048 1.42519 15.6096C1.41646 15.6142 1.4123 15.6151 1.41528 15.6142C1.41843 15.6133 1.42758 15.6111 1.44449 15.6091C1.46137 15.6072 1.4841 15.6057 1.5138 15.6057L1.51201 14.6057C1.28569 14.6061 1.00227 14.6462 0.781664 14.8497C0.550989 15.0624 0.5 15.3486 0.5 15.5795H1.5ZM1.5129 15.6057C2.46642 15.6057 6.41349 15.5966 7.35584 15.6056L7.36545 14.6057C6.41682 14.5966 2.45742 14.6057 1.5129 14.6057V15.6057ZM7.35515 15.6056C7.89726 15.6116 8.23391 15.8269 8.43954 16.2224L9.32676 15.761C8.93494 15.0075 8.24156 14.6153 7.36614 14.6057L7.35515 15.6056ZM8.44548 16.2335C8.44777 16.2376 8.44957 16.2416 8.45098 16.2454L9.3886 15.8977C9.3697 15.8467 9.34702 15.7974 9.32082 15.7499L8.44548 16.2335ZM8.44436 16.2264C8.44711 16.2348 8.44972 16.2426 8.4517 16.2486C8.45389 16.2551 8.45516 16.2589 8.45627 16.2623C8.45733 16.2656 8.4575 16.2662 8.45724 16.2653C8.45699 16.2645 8.45574 16.2602 8.45416 16.2537L9.42628 16.0192C9.41934 15.9905 9.41126 15.9654 9.4069 15.952C9.4045 15.9446 9.40198 15.9371 9.4002 15.9318C9.39822 15.9259 9.39669 15.9213 9.39522 15.9167L8.44436 16.2264ZM8.45159 16.2425C8.69404 17.36 8.6765 18.8767 8.65936 20.587L9.65931 20.597C9.67598 18.9331 9.70071 17.2835 9.42885 16.0304L8.45159 16.2425ZM8.65936 20.5868C8.64719 21.7701 8.66378 22.9509 8.54378 24.0773L9.53815 24.1832C9.66475 22.9949 9.64751 21.7442 9.6593 20.5971L8.65936 20.5868ZM8.54243 24.0921C8.5259 24.3078 8.49695 24.5226 8.45569 24.7356L9.43744 24.9258C9.48596 24.6753 9.52004 24.4225 9.53951 24.1685L8.54243 24.0921ZM8.45203 24.7569C8.43744 24.8548 8.40115 24.951 8.34328 25.0397L9.18066 25.5863C9.31548 25.3798 9.40479 25.1478 9.44109 24.9044L8.45203 24.7569ZM20.305 18.2793C21.6942 17.9645 23.2338 17.5942 24.6141 17.2746L24.3886 16.3004C22.993 16.6235 21.4735 16.9892 20.084 17.3041L20.305 18.2793ZM24.6138 17.2747C25.2238 17.1339 25.6903 17.0143 26.1839 17.093L26.3415 16.1055C25.6148 15.9896 24.9371 16.1737 24.3889 16.3003L24.6138 17.2747ZM26.1843 17.0931C26.8129 17.1929 27.3093 17.4434 27.6919 17.8631L28.4308 17.1893C27.8736 16.5782 27.1596 16.2354 26.3411 16.1055L26.1843 17.0931ZM27.6919 17.8631C27.7933 17.9743 27.9349 18.0918 28.1331 18.141C28.3289 18.1897 28.5064 18.1533 28.6413 18.1086L28.3269 17.1593C28.2814 17.1744 28.3124 17.1552 28.3743 17.1705C28.4042 17.178 28.4258 17.1898 28.4373 17.1975C28.4468 17.204 28.4447 17.2046 28.4308 17.1893L27.6919 17.8631ZM28.6494 18.1059C28.8188 18.0465 28.9957 18.0057 29.1764 17.9845L29.0599 16.9913C28.8069 17.021 28.5581 17.0782 28.3188 17.1621L28.6494 18.1059ZM29.1658 17.9856C29.8154 17.9235 30.2967 18.2534 30.4625 18.7717L31.4149 18.467C31.0932 17.4611 30.1457 16.8874 29.0706 16.9902L29.1658 17.9856ZM30.4609 18.7667C30.4825 18.8367 30.5105 18.915 30.5264 18.962L31.4736 18.6414C31.4486 18.5677 31.4329 18.5252 31.4165 18.4719L30.4609 18.7667ZM30.5 18.8017V19.2879H31.5V18.8017H30.5ZM30.5147 19.1676C30.4027 19.6194 30.0775 19.9023 29.4728 20.1761L29.8852 21.0871C30.5853 20.7701 31.262 20.3091 31.4853 19.4082L30.5147 19.1676ZM29.4724 20.1762C26.8282 21.3757 24.1904 22.5903 21.5589 23.8201L21.9822 24.7261C24.6103 23.4979 27.2448 22.2848 29.8855 21.0869L29.4724 20.1762ZM21.5583 23.8204C20.827 24.1632 20.0145 24.3391 19.1903 24.3314L19.1809 25.3313C20.1525 25.3404 21.1135 25.1333 21.9828 24.7258L21.5583 23.8204ZM19.1875 24.3313C16.0328 24.3196 12.1105 24.3274 8.95915 24.3235L8.95792 25.3235C12.115 25.3274 16.03 25.3196 19.1838 25.3313L19.1875 24.3313ZM8.98276 16.8012L10.8075 16.7668L10.7887 15.767L8.96391 15.8014L8.98276 16.8012ZM10.7981 16.7669C11.9426 16.7669 12.9668 16.913 13.9621 17.3209L14.3413 16.3956C13.192 15.9246 12.0306 15.7669 10.7981 15.7669V16.7669ZM13.9745 17.3258C14.3455 17.4665 14.7413 17.5394 15.1405 17.5413L15.1454 16.5413C14.8643 16.54 14.587 16.4886 14.3289 16.3907L13.9745 17.3258ZM15.1319 17.5412C16.1685 17.5641 17.2579 17.5523 18.2305 17.5478L18.2258 16.5478C17.244 16.5524 16.1733 16.564 15.154 16.5414L15.1319 17.5412ZM18.2305 17.5478C19.1337 17.5436 19.4784 17.7481 19.6567 17.9333L20.3772 17.2398C19.9369 16.7824 19.2769 16.5429 18.2258 16.5478L18.2305 17.5478ZM19.6555 17.9321C19.7891 18.0718 19.9583 18.4203 19.9059 18.9811L20.9016 19.0741C20.9746 18.2926 20.7549 17.6349 20.3784 17.2411L19.6555 17.9321ZM19.9059 18.9817C19.8989 19.0572 19.8645 19.2183 19.7936 19.3662C19.7178 19.5243 19.6472 19.5728 19.6205 19.5823L19.9527 20.5255C20.348 20.3862 20.574 20.0515 20.6953 19.7985C20.8215 19.5353 20.8847 19.2577 20.9016 19.0735L19.9059 18.9817ZM19.6207 19.5822C19.6336 19.5776 19.5939 19.5894 19.4549 19.6052C19.3346 19.6189 19.1751 19.6321 18.9835 19.6445C18.6013 19.669 18.1094 19.6888 17.5843 19.702L17.6095 20.7017C18.1419 20.6883 18.6479 20.6681 19.0477 20.6424C19.2472 20.6296 19.4247 20.6151 19.5679 20.5988C19.6925 20.5846 19.8427 20.5642 19.9525 20.5255L19.6207 19.5822ZM17.5843 19.702C16.7906 19.722 15.9273 19.7303 15.2613 19.7335C14.9285 19.7351 14.6456 19.7355 14.4459 19.7354C14.346 19.7354 14.267 19.7353 14.213 19.7352C14.186 19.7351 14.1653 19.7351 14.1513 19.735C14.1444 19.735 14.1391 19.735 14.1356 19.735C14.1338 19.735 14.1325 19.735 14.1316 19.735C14.1312 19.735 14.1308 19.735 14.1306 19.735C14.1305 19.735 14.1305 19.735 14.1304 19.735C14.1304 19.735 14.1304 19.735 14.1304 19.735C14.1303 19.735 14.1303 19.735 14.1284 20.235C14.1265 20.735 14.1265 20.735 14.1266 20.735C14.1266 20.735 14.1266 20.735 14.1266 20.735C14.1267 20.735 14.1268 20.735 14.1269 20.735C14.1272 20.735 14.1275 20.735 14.128 20.735C14.1289 20.735 14.1303 20.735 14.1321 20.735C14.1358 20.735 14.1412 20.735 14.1483 20.735C14.1626 20.7351 14.1836 20.7351 14.2109 20.7352C14.2655 20.7353 14.3451 20.7354 14.4457 20.7354C14.6467 20.7355 14.9314 20.7351 15.2661 20.7335C15.9351 20.7302 16.806 20.7219 17.6095 20.7017L17.5843 19.702ZM14.0826 20.7328C14.1797 20.7418 14.3345 20.735 14.3398 20.735V19.735C14.2042 19.735 14.2181 19.7411 14.1743 19.7371L14.0826 20.7328ZM14.3398 20.735C15.4925 20.735 16.3358 20.735 17.8648 20.6913L17.8362 19.6917C16.3216 19.735 15.4895 19.735 14.3398 19.735V20.735ZM17.8648 20.6913C19.3996 20.6474 19.8368 20.6149 20.8558 20.3162L20.5745 19.3566C19.68 19.6188 19.345 19.6486 17.8362 19.6917L17.8648 20.6913ZM20.8557 20.3162C23.4365 19.5604 26.0278 18.8348 28.6227 18.111L28.354 17.1478C25.7592 17.8715 23.1623 18.5987 20.5746 19.3566L20.8557 20.3162ZM18.6129 7.17371C19.1678 7.17371 19.7165 7.27448 20.2273 7.46944L20.5839 6.53519C19.9579 6.29626 19.2883 6.17371 18.6129 6.17371V7.17371ZM20.2273 7.46944C20.738 7.66439 21.1995 7.94919 21.5864 8.30576L22.2641 7.57042C21.7811 7.12528 21.2099 6.77413 20.5839 6.53519L20.2273 7.46944ZM21.5864 8.30576C21.9732 8.66225 22.2776 9.08322 22.4844 9.54343L23.3966 9.1336C23.1328 8.5464 22.7472 8.01563 22.2641 7.57042L21.5864 8.30576ZM22.4844 9.54343C22.6911 10.0035 22.7968 10.495 22.7966 10.9901L23.7966 10.9905C23.7968 10.352 23.6605 9.72093 23.3966 9.1336L22.4844 9.54343ZM22.7966 10.9903V13.3427H23.7966V10.9903H22.7966ZM23.2966 12.8427H13.9263V13.8427H23.2966V12.8427ZM14.4263 13.3427V10.9903H13.4263V13.3427H14.4263ZM14.4263 10.9901C14.4261 10.4948 14.5318 10.0031 14.7387 9.5429L13.8266 9.13293C13.5625 9.72045 13.4261 10.3518 13.4263 10.9905L14.4263 10.9901ZM14.7387 9.5429C14.9456 9.08254 15.2503 8.66147 15.6373 8.30494L14.9599 7.5694C14.4765 8.01464 14.0906 8.54554 13.8266 9.13293L14.7387 9.5429ZM15.6373 8.30494C16.0245 7.94834 16.4863 7.66359 16.9974 7.46877L16.6412 6.53437C16.0148 6.77314 15.4432 7.12423 14.9599 7.5694L15.6373 8.30494ZM16.9974 7.46877C17.5084 7.27394 18.0574 7.1734 18.6126 7.17371L18.6131 6.17371C17.9374 6.17333 17.2674 6.29561 16.6412 6.53437L16.9974 7.46877ZM20.0911 2.82271C20.0911 3.51544 19.4686 4.14542 18.6127 4.14542V5.14542C19.9421 5.14542 21.0911 4.14329 21.0911 2.82271H20.0911ZM18.6127 4.14542C17.7569 4.14542 17.1344 3.51544 17.1344 2.82271H16.1344C16.1344 4.14329 17.2833 5.14542 18.6127 5.14542V4.14542ZM17.1344 2.82271C17.1344 2.12998 17.7569 1.5 18.6127 1.5V0.5C17.2833 0.5 16.1344 1.50213 16.1344 2.82271H17.1344ZM18.6127 1.5C19.4686 1.5 20.0911 2.12998 20.0911 2.82271H21.0911C21.0911 1.50213 19.9421 0.5 18.6127 0.5V1.5Z" fill="black"/>
</svg>
