<svg width="22" height="22" viewBox="0 0 22 22" fill="none" xmlns="http://www.w3.org/2000/svg">
<path d="M5.53165 2.96298H16.4986M18.3491 2.97363H19.2419C20.296 2.98767 21 3.72308 21 4.81918C21 9.60347 20.9977 14.3876 20.9932 19.1716C20.9943 19.4597 20.9359 19.7453 20.821 20.013C20.5147 20.6908 19.9589 20.9973 19.2471 20.9987C17.8674 21.0016 16.4877 20.9987 15.1079 20.9987C11.0028 20.9987 6.89643 20.9987 2.78886 20.9987C2.33852 20.9987 1.93096 20.8825 1.58081 20.5712C1.24735 20.2744 1.08715 19.8871 1.00104 19.4548V4.77076C1.00104 4.68701 1.00574 4.4522 1.00939 4.42654C1.11376 3.66305 1.77963 3.03851 2.5269 2.99396C2.6798 2.98477 3.6332 3.00365 3.6332 3.00365M1 7.22225H20.9864M5.51495 2.99154C5.51495 2.45899 5.51808 1.92643 5.51495 1.39388C5.51495 1.12518 5.38971 1.00656 5.12096 1.00172C4.95867 0.997848 4.27402 1.00172 4.11173 1.00172C3.78349 1.00172 3.66347 1.11888 3.6619 1.44181C3.6619 1.87172 3.6619 2.30213 3.6619 2.73253C3.6619 3.31705 3.6619 3.90157 3.6619 4.48609C3.6619 4.84823 3.76992 4.95183 4.14043 4.95377C4.27663 4.95377 4.93519 4.95377 5.07191 4.95377C5.41058 4.9499 5.51547 4.84871 5.51652 4.51804C5.52069 4.00582 5.51912 3.49844 5.51912 2.99106L5.51495 2.99154ZM18.3397 2.99154C18.3397 2.45899 18.3428 1.92643 18.3397 1.39388C18.3397 1.12518 18.2144 1.00656 17.9457 1.00172C17.7834 0.997848 17.0987 1.00172 16.9364 1.00172C16.6082 1.00172 16.4882 1.11888 16.4866 1.44181C16.4866 1.87172 16.4866 2.30213 16.4866 2.73253C16.4866 3.31705 16.4866 3.90157 16.4866 4.48609C16.4866 4.84823 16.5946 4.95183 16.9651 4.95377C17.1013 4.95377 17.7599 4.95377 17.8966 4.95377C18.2353 4.9499 18.3402 4.84871 18.3412 4.51804C18.3454 4.00582 18.3438 3.49844 18.3438 2.99106L18.3397 2.99154Z" stroke="black" stroke-miterlimit="10"/>
</svg>
