<svg width="35" height="35" viewBox="0 0 35 35" fill="none" xmlns="http://www.w3.org/2000/svg">
<path d="M20.5454 4.45337H21.5454V3.45337H20.5454V4.45337ZM4.97206 4.45337V3.45337H3.97206V4.45337H4.97206ZM4.97206 8.9952H3.97206V9.9952H4.97206V8.9952ZM20.5454 8.9952V9.9952H21.5454V8.9952H20.5454ZM24.6292 1H25.6292V0H24.6292V1ZM1.1219 1V0H0.121905V1H1.1219ZM1.1219 34H0.121905V35H1.1219V34ZM24.6292 34V35H25.6292V34H24.6292ZM28.7906 14.6603L29.4839 15.381L30.2283 14.6648L29.4883 13.944L28.7906 14.6603ZM15.4762 27.4693L14.7784 28.1856L15.4719 28.861L16.1695 28.1899L15.4762 27.4693ZM13.3733 25.421L12.6795 24.7009L11.9361 25.4171L12.6756 26.1373L13.3733 25.421ZM26.6776 12.6022L27.3753 11.8858L26.6814 11.2099L25.9837 11.882L26.6776 12.6022ZM13.4749 29.4483L13.7249 30.4165C14.0747 30.3262 14.3486 30.0543 14.4414 29.7052C14.5342 29.356 14.4315 28.984 14.1727 28.7319L13.4749 29.4483ZM10.6 30.1904L9.63508 29.9279C9.54153 30.2717 9.638 30.6393 9.8883 30.8929C10.1386 31.1465 10.5049 31.2477 10.8499 31.1587L10.6 30.1904ZM11.3619 27.3901L12.0597 26.6738C11.8059 26.4266 11.4403 26.3321 11.0986 26.4254C10.7569 26.5187 10.49 26.7858 10.397 27.1276L11.3619 27.3901ZM28.7906 10.4003L28.119 9.65941L27.3305 10.3741L28.0928 11.1166L28.7906 10.4003ZM30.8953 8.49236L31.593 7.77602L30.9199 7.12033L30.2237 7.75147L30.8953 8.49236ZM33 10.5424L33.6716 11.2833L34.4601 10.5686L33.6978 9.82609L33 10.5424ZM30.8953 12.4504L30.1975 13.1667L30.8707 13.8224L31.5669 13.1913L30.8953 12.4504ZM20.5454 3.45337H4.97206V5.45337H20.5454V3.45337ZM3.97206 4.45337V8.9952H5.97206V4.45337H3.97206ZM4.97206 9.9952H20.5454V7.9952H4.97206V9.9952ZM21.5454 8.9952V4.45337H19.5454V8.9952H21.5454ZM25.6292 14.4276V1H23.6292V14.4276H25.6292ZM24.6292 0H1.1219V2H24.6292V0ZM0.121905 1V34H2.1219V1H0.121905ZM1.1219 35H24.6292V33H1.1219V35ZM25.6292 34V18.7022H23.6292V34H25.6292ZM28.0973 13.9397L14.7829 26.7486L16.1695 28.1899L29.4839 15.381L28.0973 13.9397ZM16.1739 26.7529L14.0711 24.7046L12.6756 26.1373L14.7784 28.1856L16.1739 26.7529ZM14.0672 26.1411L27.3714 13.3223L25.9837 11.882L12.6795 24.7009L14.0672 26.1411ZM13.225 28.48L10.3501 29.2221L10.8499 31.1587L13.7249 30.4165L13.225 28.48ZM11.5649 30.4529L12.3268 27.6526L10.397 27.1276L9.63508 29.9279L11.5649 30.4529ZM10.6642 28.1064L12.7772 30.1646L14.1727 28.7319L12.0597 26.6738L10.6642 28.1064ZM29.4622 11.1412L31.5669 9.23325L30.2237 7.75147L28.119 9.65941L29.4622 11.1412ZM30.1975 9.2087L32.3023 11.2588L33.6978 9.82609L31.593 7.77602L30.1975 9.2087ZM32.3284 9.80155L30.2237 11.7095L31.5669 13.1913L33.6716 11.2833L32.3284 9.80155ZM31.593 11.734L29.4883 9.68396L28.0928 11.1166L30.1975 13.1667L31.593 11.734ZM19.7022 24.2837H24.7714V22.2837H19.7022V24.2837ZM1 24.2837H15.527V22.2837H1V24.2837ZM3.95619 17.1493H12.459V15.1493H3.95619V17.1493ZM3.95619 14.4777H18.0362V12.4777H3.95619V14.4777ZM3.95619 19.7913H14.0133V17.7913H3.95619V19.7913ZM3.95619 30.8639H8.61905V28.8639H3.95619V30.8639ZM3.95619 28.1922H6.97333V26.1922H3.95619V28.1922ZM25.9798 13.3185L28.0928 15.3767L29.4883 13.944L27.3753 11.8858L25.9798 13.3185Z" fill="#722839"/>
</svg>
