<svg width="30" height="24" viewBox="0 0 30 24" fill="none" xmlns="http://www.w3.org/2000/svg">
<path d="M18.8737 20.5601V23H22.1411V20.5601M7.8495 20.5601V23H11.1262V20.5601M7.4145 9.77745C7.52761 9.51033 7.70409 9.27129 7.93035 9.07874C8.15662 8.88619 8.42664 8.74527 8.71963 8.66683C8.87313 8.62229 9.01503 8.5478 9.13616 8.4482C9.24646 8.34419 9.33171 8.2189 9.38607 8.08091C9.50159 7.73561 9.72407 7.43099 10.0248 7.2064C10.4857 6.87967 11.0645 6.73822 11.6353 6.81288C11.6839 6.81322 11.7319 6.80408 11.7765 6.78602C11.8211 6.76796 11.8613 6.74137 11.8945 6.70793C12.0972 6.30622 12.4386 5.98168 12.8626 5.78776C13.2866 5.59384 13.7678 5.54209 14.2271 5.64104C14.4005 5.6804 14.5813 5.6804 14.7547 5.64104C14.9128 5.57678 15.0524 5.47785 15.1619 5.35245C15.5728 4.97684 16.1221 4.76685 16.6938 4.76685C17.2656 4.76685 17.8149 4.97684 18.2257 5.35245C18.3461 5.46799 18.4959 5.55232 18.6608 5.59731C18.8336 5.64111 19.0156 5.64111 19.1884 5.59731C19.6435 5.51433 20.1148 5.57148 20.533 5.76038C20.9512 5.94928 21.2943 6.25995 21.5117 6.64672C21.5765 6.7604 21.632 6.81288 21.7801 6.79539C22.2515 6.73596 22.7302 6.83005 23.1374 7.06214C23.5446 7.29424 23.856 7.65049 24.0201 8.07217C24.072 8.20629 24.1578 8.32639 24.27 8.42197C24.3844 8.52118 24.5202 8.59577 24.6681 8.64059C24.9617 8.71782 25.2323 8.8583 25.4588 9.051C25.6852 9.24371 25.8613 9.48339 25.9732 9.75122M4.43403 7.45997C4.64344 7.46816 4.85248 7.43697 5.04902 7.36822C5.24557 7.29947 5.42571 7.19453 5.57898 7.05948C5.73226 6.92443 5.85562 6.76197 5.9419 6.58152C6.02819 6.40107 6.07569 6.20622 6.08164 6.00829C6.07447 5.81073 6.02615 5.61643 5.93945 5.43652C5.85275 5.25661 5.72936 5.09461 5.57634 4.95979C5.42331 4.82496 5.24367 4.71996 5.04766 4.65078C4.85165 4.5816 4.64314 4.5496 4.43403 4.55661C4.0133 4.54481 3.60474 4.69091 3.29771 4.96296C2.99069 5.235 2.81019 5.61085 2.79569 6.00829C2.80166 6.20546 2.84886 6.39956 2.93457 6.57942C3.02028 6.75928 3.1428 6.92134 3.29508 7.05627C3.44737 7.1912 3.6264 7.29634 3.82187 7.36562C4.01734 7.43491 4.22539 7.46697 4.43403 7.45997ZM21.9746 3.8833C22.3953 3.89509 22.8039 3.74899 23.1109 3.47695C23.4179 3.2049 23.5984 2.82906 23.6129 2.43161C23.5819 2.04232 23.3963 1.67848 23.0933 1.413C22.7904 1.14752 22.3924 1 21.9792 1C21.566 1 21.168 1.14752 20.8651 1.413C20.5621 1.67848 20.3765 2.04232 20.3455 2.43161C20.36 2.8275 20.5392 3.202 20.8442 3.4738C21.1492 3.7456 21.5554 3.89275 21.9746 3.8833ZM2.50876 9.73376H27.4912C28.3245 9.73376 29 10.372 29 11.1592C29 11.9465 28.3245 12.5847 27.4912 12.5847H2.50876C1.6755 12.5847 1 11.9465 1 11.1592C1 10.372 1.6755 9.73376 2.50876 9.73376ZM2.58286 12.6371H27.3802V14.7971C27.3802 16.3256 26.7376 17.7914 25.5936 18.8722C24.4497 19.953 22.8982 20.5602 21.2804 20.5602H8.69195C7.89013 20.5613 7.09594 20.4131 6.3548 20.124C5.61367 19.8349 4.94014 19.4106 4.37273 18.8753C3.80533 18.34 3.35519 17.7043 3.04807 17.0046C2.74094 16.3048 2.58286 15.5547 2.58286 14.7971V12.6371Z" stroke="black" stroke-miterlimit="10"/>
</svg>
