<svg width="30" height="30" viewBox="0 0 30 30" fill="none" xmlns="http://www.w3.org/2000/svg">
<g clip-path="url(#clip0_1_3899)">
<path fill-rule="evenodd" clip-rule="evenodd" d="M30 26.7473V26.641C29.847 26.6369 29.6967 26.5997 29.5594 26.532C29.4221 26.4643 29.3011 26.3677 29.2047 26.2489C29.3008 26.1297 29.4218 26.0329 29.5592 25.9652C29.6965 25.8975 29.8469 25.8605 30 25.8567V25.7522C29.8337 25.7563 29.6701 25.7958 29.5203 25.8681C29.3705 25.9405 29.2379 26.0441 29.1314 26.1719C29.0246 26.0409 28.8901 25.9353 28.7374 25.8627C28.5848 25.7902 28.4179 25.7526 28.2489 25.7526C28.08 25.7526 27.9131 25.7902 27.7605 25.8627C27.6078 25.9353 27.4733 26.0409 27.3665 26.1719C27.2598 26.0409 27.1253 25.9353 26.9726 25.8627C26.82 25.7902 26.6531 25.7526 26.4841 25.7526C26.3151 25.7526 26.1483 25.7902 25.9956 25.8627C25.843 25.9353 25.7084 26.0409 25.6017 26.1719C25.4948 26.0408 25.3601 25.9352 25.2073 25.8627C25.0545 25.7901 24.8875 25.7525 24.7184 25.7525C24.5493 25.7525 24.3823 25.7901 24.2295 25.8627C24.0767 25.9352 23.942 26.0408 23.8351 26.1719C23.7284 26.0409 23.5938 25.9353 23.4412 25.8627C23.2885 25.7902 23.1217 25.7526 22.9527 25.7526C22.7837 25.7526 22.6168 25.7902 22.4642 25.8627C22.3115 25.9353 22.177 26.0409 22.0703 26.1719C21.9635 26.0409 21.829 25.9353 21.6764 25.8627C21.5237 25.7902 21.3568 25.7526 21.1879 25.7526C21.0189 25.7526 20.852 25.7902 20.6994 25.8627C20.5467 25.9353 20.4122 26.0409 20.3054 26.1719C20.1987 26.0409 20.0642 25.9353 19.9115 25.8627C19.7589 25.7902 19.592 25.7526 19.423 25.7526C19.254 25.7526 19.0872 25.7902 18.9345 25.8627C18.7819 25.9353 18.6474 26.0409 18.5406 26.1719C18.4337 26.0408 18.299 25.9352 18.1462 25.8627C17.9935 25.7901 17.8264 25.7525 17.6573 25.7525C17.4882 25.7525 17.3212 25.7901 17.1684 25.8627C17.0156 25.9352 16.8809 26.0408 16.774 26.1719C16.6673 26.0409 16.5327 25.9353 16.3801 25.8627C16.2274 25.7902 16.0606 25.7526 15.8916 25.7526C15.7226 25.7526 15.5557 25.7902 15.4031 25.8627C15.2505 25.9353 15.1159 26.0409 15.0092 26.1719C14.9025 26.0409 14.7679 25.9353 14.6153 25.8627C14.4626 25.7902 14.2958 25.7526 14.1268 25.7526C13.9578 25.7526 13.7909 25.7902 13.6383 25.8627C13.4857 25.9353 13.3511 26.0409 13.2444 26.1719C13.1376 26.0412 13.0032 25.9359 12.8507 25.8635C12.6982 25.7912 12.5316 25.7537 12.3629 25.7537C12.1941 25.7537 12.0275 25.7912 11.875 25.8635C11.7226 25.9359 11.5881 26.0412 11.4814 26.1719C11.3747 26.0412 11.2402 25.9359 11.0877 25.8635C10.9353 25.7912 10.7686 25.7537 10.5999 25.7537C10.4311 25.7537 10.2645 25.7912 10.1121 25.8635C9.9596 25.9359 9.82513 26.0412 9.7184 26.1719C9.61168 26.0409 9.47712 25.9353 9.32449 25.8627C9.17186 25.7902 9.00498 25.7526 8.83599 25.7526C8.667 25.7526 8.50013 25.7902 8.3475 25.8627C8.19487 25.9353 8.06031 26.0409 7.95358 26.1719C7.84669 26.0408 7.71196 25.9352 7.55918 25.8627C7.4064 25.7901 7.23939 25.7525 7.07027 25.7525C6.90114 25.7525 6.73413 25.7901 6.58135 25.8627C6.42856 25.9352 6.29384 26.0408 6.18694 26.1719C6.08022 26.0409 5.94566 25.9353 5.79302 25.8627C5.64039 25.7902 5.47353 25.7526 5.30453 25.7526C5.13554 25.7526 4.96868 25.7902 4.81604 25.8627C4.66341 25.9353 4.52885 26.0409 4.42213 26.1719C4.31541 26.0409 4.18085 25.9353 4.02822 25.8627C3.87558 25.7902 3.70871 25.7526 3.53972 25.7526C3.37073 25.7526 3.20386 25.7902 3.05123 25.8627C2.8986 25.9353 2.76403 26.0409 2.65731 26.1719C2.55059 26.0409 2.41603 25.9353 2.2634 25.8627C2.11077 25.7902 1.9439 25.7526 1.7749 25.7526C1.60591 25.7526 1.43905 25.7902 1.28641 25.8627C1.13378 25.9353 0.999218 26.0409 0.892498 26.1719C0.784696 26.0419 0.649794 25.9369 0.497221 25.8644C0.344649 25.792 0.17809 25.7537 0.00917876 25.7522H1.23037e-05V25.8604H0.00917876C0.164708 25.8623 0.317909 25.8984 0.457905 25.9661C0.5979 26.0339 0.721252 26.1317 0.819194 26.2525C0.721252 26.3733 0.5979 26.4711 0.457905 26.5389C0.317909 26.6067 0.164708 26.6428 0.00917876 26.6447H1.23037e-05V26.751H0.00917876C0.17809 26.7495 0.344649 26.7112 0.497221 26.6388C0.649794 26.5663 0.784696 26.4614 0.892498 26.3313C0.999218 26.4623 1.13378 26.5679 1.28641 26.6405C1.43905 26.713 1.60591 26.7506 1.7749 26.7506C1.9439 26.7506 2.11077 26.713 2.2634 26.6405C2.41603 26.5679 2.55059 26.4623 2.65731 26.3313C2.76403 26.4623 2.8986 26.5679 3.05123 26.6405C3.20386 26.713 3.37073 26.7506 3.53972 26.7506C3.70871 26.7506 3.87558 26.713 4.02822 26.6405C4.18085 26.5679 4.31541 26.4623 4.42213 26.3313C4.52885 26.4623 4.66341 26.5679 4.81604 26.6405C4.96868 26.713 5.13554 26.7506 5.30453 26.7506C5.47353 26.7506 5.64039 26.713 5.79302 26.6405C5.94566 26.5679 6.08022 26.4623 6.18694 26.3313C6.29384 26.4624 6.42856 26.568 6.58135 26.6405C6.73413 26.7131 6.90114 26.7507 7.07027 26.7507C7.23939 26.7507 7.4064 26.7131 7.55918 26.6405C7.71196 26.568 7.84669 26.4624 7.95358 26.3313C8.06031 26.4623 8.19487 26.5679 8.3475 26.6405C8.50013 26.713 8.667 26.7506 8.83599 26.7506C9.00498 26.7506 9.17186 26.713 9.32449 26.6405C9.47712 26.5679 9.61168 26.4623 9.7184 26.3313C9.82513 26.462 9.9596 26.5673 10.1121 26.6397C10.2645 26.712 10.4311 26.7495 10.5999 26.7495C10.7686 26.7495 10.9353 26.712 11.0877 26.6397C11.2402 26.5673 11.3747 26.462 11.4814 26.3313C11.5881 26.462 11.7226 26.5673 11.875 26.6397C12.0275 26.712 12.1941 26.7495 12.3629 26.7495C12.5316 26.7495 12.6982 26.712 12.8507 26.6397C13.0032 26.5673 13.1376 26.462 13.2444 26.3313C13.3511 26.4623 13.4857 26.5679 13.6383 26.6405C13.7909 26.713 13.9578 26.7506 14.1268 26.7506C14.2958 26.7506 14.4626 26.713 14.6153 26.6405C14.7679 26.5679 14.9025 26.4623 15.0092 26.3313C15.1159 26.4623 15.2505 26.5679 15.4031 26.6405C15.5557 26.713 15.7226 26.7506 15.8916 26.7506C16.0606 26.7506 16.2274 26.713 16.3801 26.6405C16.5327 26.5679 16.6673 26.4623 16.774 26.3313C16.8809 26.4624 17.0156 26.568 17.1684 26.6405C17.3212 26.7131 17.4882 26.7507 17.6573 26.7507C17.8264 26.7507 17.9935 26.7131 18.1462 26.6405C18.299 26.568 18.4337 26.4624 18.5406 26.3313C18.6474 26.4623 18.7819 26.5679 18.9345 26.6405C19.0872 26.713 19.254 26.7506 19.423 26.7506C19.592 26.7506 19.7589 26.713 19.9115 26.6405C20.0642 26.5679 20.1987 26.4623 20.3054 26.3313C20.4122 26.4623 20.5467 26.5679 20.6994 26.6405C20.852 26.713 21.0189 26.7506 21.1879 26.7506C21.3568 26.7506 21.5237 26.713 21.6764 26.6405C21.829 26.5679 21.9635 26.4623 22.0703 26.3313C22.177 26.4623 22.3115 26.5679 22.4642 26.6405C22.6168 26.713 22.7837 26.7506 22.9527 26.7506C23.1217 26.7506 23.2885 26.713 23.4412 26.6405C23.5938 26.5679 23.7284 26.4623 23.8351 26.3313C23.942 26.4624 24.0767 26.568 24.2295 26.6405C24.3823 26.7131 24.5493 26.7507 24.7184 26.7507C24.8875 26.7507 25.0545 26.7131 25.2073 26.6405C25.3601 26.568 25.4948 26.4624 25.6017 26.3313C25.7084 26.4623 25.843 26.5679 25.9956 26.6405C26.1483 26.713 26.3151 26.7506 26.4841 26.7506C26.6531 26.7506 26.82 26.713 26.9726 26.6405C27.1253 26.5679 27.2598 26.4623 27.3665 26.3313C27.4733 26.4623 27.6078 26.5679 27.7605 26.6405C27.9131 26.713 28.08 26.7506 28.2489 26.7506C28.4179 26.7506 28.5848 26.713 28.7374 26.6405C28.8901 26.5679 29.0246 26.4623 29.1314 26.3313C29.2377 26.4592 29.3703 26.5626 29.5202 26.6347C29.6701 26.7068 29.8337 26.7458 30 26.7491V26.7473ZM27.4343 26.2489C27.5307 26.1265 27.6536 26.0276 27.7938 25.9596C27.9339 25.8916 28.0877 25.8562 28.2434 25.8562C28.3992 25.8562 28.553 25.8916 28.6931 25.9596C28.8333 26.0276 28.9562 26.1265 29.0526 26.2489C28.9562 26.3712 28.8333 26.4701 28.6931 26.5381C28.553 26.6062 28.3992 26.6415 28.2434 26.6415C28.0877 26.6415 27.9339 26.6062 27.7938 26.5381C27.6536 26.4701 27.5307 26.3712 27.4343 26.2489ZM25.6677 26.2489C25.7643 26.1265 25.8873 26.0275 26.0276 25.9595C26.1679 25.8915 26.3218 25.8562 26.4777 25.8562C26.6336 25.8562 26.7875 25.8915 26.9278 25.9595C27.0681 26.0275 27.1912 26.1265 27.2877 26.2489C27.1912 26.3713 27.0681 26.4702 26.9278 26.5382C26.7875 26.6062 26.6336 26.6415 26.4777 26.6415C26.3218 26.6415 26.1679 26.6062 26.0276 26.5382C25.8873 26.4702 25.7643 26.3713 25.6677 26.2489ZM23.9029 26.2489C23.9995 26.1265 24.1225 26.0275 24.2628 25.9595C24.4031 25.8915 24.557 25.8562 24.7129 25.8562C24.8688 25.8562 25.0227 25.8915 25.163 25.9595C25.3033 26.0275 25.4264 26.1265 25.5229 26.2489C25.4264 26.3713 25.3033 26.4702 25.163 26.5382C25.0227 26.6062 24.8688 26.6415 24.7129 26.6415C24.557 26.6415 24.4031 26.6062 24.2628 26.5382C24.1225 26.4702 23.9995 26.3713 23.9029 26.2489ZM22.1381 26.2489C22.2346 26.1265 22.3577 26.0275 22.498 25.9595C22.6383 25.8915 22.7922 25.8562 22.9481 25.8562C23.104 25.8562 23.2579 25.8915 23.3982 25.9595C23.5385 26.0275 23.6615 26.1265 23.7581 26.2489C23.6615 26.3713 23.5385 26.4702 23.3982 26.5382C23.2579 26.6062 23.104 26.6415 22.9481 26.6415C22.7922 26.6415 22.6383 26.6062 22.498 26.5382C22.3577 26.4702 22.2346 26.3713 22.1381 26.2489ZM20.3733 26.2489C20.4696 26.1265 20.5925 26.0276 20.7327 25.9596C20.8728 25.8916 21.0266 25.8562 21.1824 25.8562C21.3381 25.8562 21.4919 25.8916 21.632 25.9596C21.7722 26.0276 21.8951 26.1265 21.9915 26.2489C21.8951 26.3712 21.7722 26.4701 21.632 26.5381C21.4919 26.6062 21.3381 26.6415 21.1824 26.6415C21.0266 26.6415 20.8728 26.6062 20.7327 26.5381C20.5925 26.4701 20.4696 26.3712 20.3733 26.2489ZM18.6066 26.2489C18.7032 26.1265 18.8262 26.0275 18.9665 25.9595C19.1068 25.8915 19.2607 25.8562 19.4166 25.8562C19.5725 25.8562 19.7264 25.8915 19.8667 25.9595C20.007 26.0275 20.1301 26.1265 20.2266 26.2489C20.1301 26.3713 20.007 26.4702 19.8667 26.5382C19.7264 26.6062 19.5725 26.6415 19.4166 26.6415C19.2607 26.6415 19.1068 26.6062 18.9665 26.5382C18.8262 26.4702 18.7032 26.3713 18.6066 26.2489ZM16.8418 26.2489C16.9384 26.1265 17.0614 26.0275 17.2017 25.9595C17.342 25.8915 17.4959 25.8562 17.6518 25.8562C17.8077 25.8562 17.9616 25.8915 18.1019 25.9595C18.2422 26.0275 18.3653 26.1265 18.4618 26.2489C18.3653 26.3713 18.2422 26.4702 18.1019 26.5382C17.9616 26.6062 17.8077 26.6415 17.6518 26.6415C17.4959 26.6415 17.342 26.6062 17.2017 26.5382C17.0614 26.4702 16.9384 26.3713 16.8418 26.2489ZM15.077 26.2489C15.1736 26.1265 15.2966 26.0275 15.4369 25.9595C15.5772 25.8915 15.7311 25.8562 15.887 25.8562C16.0429 25.8562 16.1968 25.8915 16.3371 25.9595C16.4774 26.0275 16.6004 26.1265 16.697 26.2489C16.6004 26.3713 16.4774 26.4702 16.3371 26.5382C16.1968 26.6062 16.0429 26.6415 15.887 26.6415C15.7311 26.6415 15.5772 26.6062 15.4369 26.5382C15.2966 26.4702 15.1736 26.3713 15.077 26.2489ZM13.3122 26.2489C13.4086 26.1265 13.5314 26.0276 13.6716 25.9596C13.8117 25.8916 13.9655 25.8562 14.1213 25.8562C14.277 25.8562 14.4308 25.8916 14.5709 25.9596C14.7111 26.0276 14.834 26.1265 14.9304 26.2489C14.834 26.3712 14.7111 26.4701 14.5709 26.5381C14.4308 26.6062 14.277 26.6415 14.1213 26.6415C13.9655 26.6415 13.8117 26.6062 13.6716 26.5381C13.5314 26.4701 13.4086 26.3712 13.3122 26.2489ZM11.5474 26.2489C11.6437 26.1265 11.7666 26.0276 11.9068 25.9596C12.0469 25.8916 12.2007 25.8562 12.3565 25.8562C12.5122 25.8562 12.666 25.8916 12.8061 25.9596C12.9463 26.0276 13.0692 26.1265 13.1656 26.2489C13.0692 26.3712 12.9463 26.4701 12.8061 26.5381C12.666 26.6062 12.5122 26.6415 12.3565 26.6415C12.2007 26.6415 12.0469 26.6062 11.9068 26.5381C11.7666 26.4701 11.6437 26.3712 11.5474 26.2489ZM9.78621 26.2489C9.88259 26.1265 10.0055 26.0276 10.1456 25.9596C10.2858 25.8916 10.4395 25.8562 10.5953 25.8562C10.7511 25.8562 10.9048 25.8916 11.045 25.9596C11.1851 26.0276 11.308 26.1265 11.4044 26.2489C11.308 26.3712 11.1851 26.4701 11.045 26.5381C10.9048 26.6062 10.7511 26.6415 10.5953 26.6415C10.4395 26.6415 10.2858 26.6062 10.1456 26.5381C10.0055 26.4701 9.88259 26.3712 9.78621 26.2489ZM8.0214 26.2489C8.11778 26.1265 8.24068 26.0276 8.38082 25.9596C8.52097 25.8916 8.67472 25.8562 8.83049 25.8562C8.98627 25.8562 9.14002 25.8916 9.28017 25.9596C9.42032 26.0276 9.54321 26.1265 9.6396 26.2489C9.54321 26.3712 9.42032 26.4701 9.28017 26.5381C9.14002 26.6062 8.98627 26.6415 8.83049 26.6415C8.67472 26.6415 8.52097 26.6062 8.38082 26.5381C8.24068 26.4701 8.11778 26.3712 8.0214 26.2489ZM6.25475 26.2489C6.35132 26.1265 6.47438 26.0275 6.61467 25.9595C6.75497 25.8915 6.90885 25.8562 7.06477 25.8562C7.22068 25.8562 7.37456 25.8915 7.51486 25.9595C7.65515 26.0275 7.77821 26.1265 7.87478 26.2489C7.77821 26.3713 7.65515 26.4702 7.51486 26.5382C7.37456 26.6062 7.22068 26.6415 7.06477 26.6415C6.90885 26.6415 6.75497 26.6062 6.61467 26.5382C6.47438 26.4702 6.35132 26.3713 6.25475 26.2489ZM4.48993 26.2489C4.5865 26.1265 4.70956 26.0275 4.84986 25.9595C4.99015 25.8915 5.14404 25.8562 5.29995 25.8562C5.45587 25.8562 5.60975 25.8915 5.75004 25.9595C5.89034 26.0275 6.0134 26.1265 6.10997 26.2489C6.0134 26.3713 5.89034 26.4702 5.75004 26.5382C5.60975 26.6062 5.45587 26.6415 5.29995 26.6415C5.14404 26.6415 4.99015 26.6062 4.84986 26.5382C4.70956 26.4702 4.5865 26.3713 4.48993 26.2489ZM2.72512 26.2489C2.82151 26.1265 2.9444 26.0276 3.08455 25.9596C3.22469 25.8916 3.37844 25.8562 3.53422 25.8562C3.69 25.8562 3.84375 25.8916 3.9839 25.9596C4.12405 26.0276 4.24694 26.1265 4.34333 26.2489C4.24694 26.3712 4.12405 26.4701 3.9839 26.5381C3.84375 26.6062 3.69 26.6415 3.53422 26.6415C3.37844 26.6415 3.22469 26.6062 3.08455 26.5381C2.9444 26.4701 2.82151 26.3712 2.72512 26.2489ZM0.960309 26.2489C1.0567 26.1265 1.17959 26.0276 1.31974 25.9596C1.45988 25.8916 1.61363 25.8562 1.76941 25.8562C1.92519 25.8562 2.07894 25.8916 2.21908 25.9596C2.35923 26.0276 2.48212 26.1265 2.57851 26.2489C2.48212 26.3712 2.35923 26.4701 2.21908 26.5381C2.07894 26.6062 1.92519 26.6415 1.76941 26.6415C1.61363 26.6415 1.45988 26.6062 1.31974 26.5381C1.17959 26.4701 1.0567 26.3712 0.960309 26.2489ZM0.00734435 0.998717C0.176342 0.997793 0.343069 0.959725 0.495717 0.887205C0.648365 0.814686 0.783199 0.709492 0.890669 0.579073C0.99739 0.710094 1.13195 0.815705 1.28458 0.888237C1.43721 0.96077 1.60409 0.998402 1.77308 0.998402C1.94207 0.998402 2.10893 0.96077 2.26157 0.888237C2.4142 0.815705 2.54876 0.710094 2.65548 0.579073C2.7622 0.710094 2.89676 0.815705 3.0494 0.888237C3.20203 0.96077 3.36889 0.998402 3.53789 0.998402C3.70688 0.998402 3.87375 0.96077 4.02638 0.888237C4.17901 0.815705 4.31357 0.710094 4.42029 0.579073C4.52701 0.710094 4.66158 0.815705 4.81421 0.888237C4.96684 0.96077 5.13371 0.998402 5.3027 0.998402C5.47169 0.998402 5.63856 0.96077 5.7912 0.888237C5.94383 0.815705 6.07839 0.710094 6.18511 0.579073C6.29201 0.710126 6.42673 0.81575 6.57951 0.888288C6.73229 0.960825 6.8993 0.998458 7.06843 0.998458C7.23756 0.998458 7.40457 0.960825 7.55735 0.888288C7.71013 0.81575 7.84486 0.710126 7.95176 0.579073C8.05848 0.710094 8.19304 0.815705 8.34567 0.888237C8.4983 0.96077 8.66517 0.998402 8.83416 0.998402C9.00315 0.998402 9.17002 0.96077 9.32265 0.888237C9.47528 0.815705 9.60985 0.710094 9.71657 0.579073C9.8233 0.709769 9.95776 0.815095 10.1102 0.887425C10.2627 0.959755 10.4293 0.997279 10.5981 0.997279C10.7668 0.997279 10.9334 0.959755 11.0859 0.887425C11.2384 0.815095 11.3728 0.709769 11.4796 0.579073C11.5863 0.709769 11.7207 0.815095 11.8732 0.887425C12.0257 0.959755 12.1923 0.997279 12.361 0.997279C12.5298 0.997279 12.6964 0.959755 12.8489 0.887425C13.0013 0.815095 13.1358 0.709769 13.2425 0.579073C13.3493 0.710094 13.4838 0.815705 13.6364 0.888237C13.7891 0.96077 13.9559 0.998402 14.1249 0.998402C14.2939 0.998402 14.4608 0.96077 14.6134 0.888237C14.7661 0.815705 14.9006 0.710094 15.0073 0.579073C15.1141 0.710094 15.2486 0.815705 15.4013 0.888237C15.5539 0.96077 15.7208 0.998402 15.8898 0.998402C16.0587 0.998402 16.2256 0.96077 16.3782 0.888237C16.5309 0.815705 16.6654 0.710094 16.7722 0.579073C16.8791 0.710126 17.0138 0.81575 17.1666 0.888288C17.3193 0.960825 17.4864 0.998458 17.6555 0.998458C17.8246 0.998458 17.9916 0.960825 18.1444 0.888288C18.2972 0.81575 18.4319 0.710126 18.5388 0.579073C18.6455 0.710094 18.7801 0.815705 18.9327 0.888237C19.0853 0.96077 19.2522 0.998402 19.4212 0.998402C19.5902 0.998402 19.7571 0.96077 19.9097 0.888237C20.0623 0.815705 20.1969 0.710094 20.3036 0.579073C20.4103 0.710094 20.5449 0.815705 20.6975 0.888237C20.8502 0.96077 21.017 0.998402 21.186 0.998402C21.355 0.998402 21.5219 0.96077 21.6745 0.888237C21.8272 0.815705 21.9617 0.710094 22.0684 0.579073C22.1751 0.710094 22.3097 0.815705 22.4623 0.888237C22.615 0.96077 22.7818 0.998402 22.9508 0.998402C23.1198 0.998402 23.2867 0.96077 23.4393 0.888237C23.592 0.815705 23.7265 0.710094 23.8332 0.579073C23.9401 0.710126 24.0749 0.81575 24.2277 0.888288C24.3804 0.960825 24.5474 0.998458 24.7166 0.998458C24.8857 0.998458 25.0527 0.960825 25.2055 0.888288C25.3583 0.81575 25.493 0.710126 25.5999 0.579073C25.7066 0.710094 25.8412 0.815705 25.9938 0.888237C26.1464 0.96077 26.3133 0.998402 26.4823 0.998402C26.6513 0.998402 26.8182 0.96077 26.9708 0.888237C27.1234 0.815705 27.258 0.710094 27.3647 0.579073C27.4714 0.710094 27.606 0.815705 27.7586 0.888237C27.9113 0.96077 28.0781 0.998402 28.2471 0.998402C28.4161 0.998402 28.583 0.96077 28.7356 0.888237C28.8882 0.815705 29.0228 0.710094 29.1295 0.579073C29.2357 0.707246 29.3683 0.811062 29.5182 0.883471C29.668 0.95588 29.8318 0.995185 29.9982 0.998717V0.890599C29.8453 0.886811 29.695 0.849961 29.5577 0.782582C29.4204 0.715203 29.2994 0.618894 29.2028 0.500275C29.2988 0.380854 29.4197 0.283869 29.5571 0.216124C29.6945 0.14838 29.845 0.111516 29.9982 0.108118V0C29.8318 0.00400713 29.6683 0.0435224 29.5185 0.115898C29.3687 0.188273 29.236 0.291835 29.1295 0.419644C29.0228 0.288623 28.8882 0.183012 28.7356 0.110479C28.583 0.0379472 28.4161 0.000314571 28.2471 0.000314571C28.0781 0.000314571 27.9113 0.0379472 27.7586 0.110479C27.606 0.183012 27.4714 0.288623 27.3647 0.419644C27.258 0.288623 27.1234 0.183012 26.9708 0.110479C26.8182 0.0379472 26.6513 0.000314571 26.4823 0.000314571C26.3133 0.000314571 26.1464 0.0379472 25.9938 0.110479C25.8412 0.183012 25.7066 0.288623 25.5999 0.419644C25.493 0.288591 25.3583 0.182967 25.2055 0.110429C25.0527 0.0378914 24.8857 0.000258647 24.7166 0.000258647C24.5474 0.000258647 24.3804 0.0378914 24.2277 0.110429C24.0749 0.182967 23.9401 0.288591 23.8332 0.419644C23.7265 0.288623 23.592 0.183012 23.4393 0.110479C23.2867 0.0379472 23.1198 0.000314571 22.9508 0.000314571C22.7818 0.000314571 22.615 0.0379472 22.4623 0.110479C22.3097 0.183012 22.1751 0.288623 22.0684 0.419644C21.9617 0.288623 21.8272 0.183012 21.6745 0.110479C21.5219 0.0379472 21.355 0.000314571 21.186 0.000314571C21.017 0.000314571 20.8502 0.0379472 20.6975 0.110479C20.5449 0.183012 20.4103 0.288623 20.3036 0.419644C20.1969 0.288623 20.0623 0.183012 19.9097 0.110479C19.7571 0.0379472 19.5902 0.000314571 19.4212 0.000314571C19.2522 0.000314571 19.0853 0.0379472 18.9327 0.110479C18.7801 0.183012 18.6455 0.288623 18.5388 0.419644C18.4319 0.288591 18.2972 0.182967 18.1444 0.110429C17.9916 0.0378914 17.8246 0.000258647 17.6555 0.000258647C17.4864 0.000258647 17.3193 0.0378914 17.1666 0.110429C17.0138 0.182967 16.8791 0.288591 16.7722 0.419644C16.6654 0.288623 16.5309 0.183012 16.3782 0.110479C16.2256 0.0379472 16.0587 0.000314571 15.8898 0.000314571C15.7208 0.000314571 15.5539 0.0379472 15.4013 0.110479C15.2486 0.183012 15.1141 0.288623 15.0073 0.419644C14.9006 0.288623 14.7661 0.183012 14.6134 0.110479C14.4608 0.0379472 14.2939 0.000314571 14.1249 0.000314571C13.9559 0.000314571 13.7891 0.0379472 13.6364 0.110479C13.4838 0.183012 13.3493 0.288623 13.2425 0.419644C13.1358 0.288948 13.0013 0.183622 12.8489 0.111292C12.6964 0.0389615 12.5298 0.00143794 12.361 0.00143794C12.1923 0.00143794 12.0257 0.0389615 11.8732 0.111292C11.7207 0.183622 11.5863 0.288948 11.4796 0.419644C11.3728 0.288948 11.2384 0.183622 11.0859 0.111292C10.9334 0.0389615 10.7668 0.00143794 10.5981 0.00143794C10.4293 0.00143794 10.2627 0.0389615 10.1102 0.111292C9.95776 0.183622 9.8233 0.288948 9.71657 0.419644C9.60985 0.288623 9.47528 0.183012 9.32265 0.110479C9.17002 0.0379472 9.00315 0.000314571 8.83416 0.000314571C8.66517 0.000314571 8.4983 0.0379472 8.34567 0.110479C8.19304 0.183012 8.05848 0.288623 7.95176 0.419644C7.84486 0.288591 7.71013 0.182967 7.55735 0.110429C7.40457 0.0378914 7.23756 0.000258647 7.06843 0.000258647C6.8993 0.000258647 6.73229 0.0378914 6.57951 0.110429C6.42673 0.182967 6.29201 0.288591 6.18511 0.419644C6.07839 0.288623 5.94383 0.183012 5.7912 0.110479C5.63856 0.0379472 5.47169 0.000314571 5.3027 0.000314571C5.13371 0.000314571 4.96684 0.0379472 4.81421 0.110479C4.66158 0.183012 4.52701 0.288623 4.42029 0.419644C4.31357 0.288623 4.17901 0.183012 4.02638 0.110479C3.87375 0.0379472 3.70688 0.000314571 3.53789 0.000314571C3.36889 0.000314571 3.20203 0.0379472 3.0494 0.110479C2.89676 0.183012 2.7622 0.288623 2.65548 0.419644C2.54876 0.288623 2.4142 0.183012 2.26157 0.110479C2.10893 0.0379472 1.94207 0.000314571 1.77308 0.000314571C1.60409 0.000314571 1.43721 0.0379472 1.28458 0.110479C1.13195 0.183012 0.99739 0.288623 0.890669 0.419644C0.782867 0.289607 0.647965 0.18468 0.495393 0.112197C0.34282 0.0397135 0.176255 0.0014224 0.00734435 0H-0.00181651V0.108118H0.00734435C0.163066 0.109975 0.316446 0.146263 0.45649 0.214379C0.596533 0.282496 0.719773 0.380754 0.817365 0.502107C0.719423 0.622932 0.596071 0.720706 0.456076 0.788483C0.31608 0.856259 0.162874 0.892375 0.00734435 0.894264H-0.00181651V1.00238L0.00734435 0.998717ZM27.4398 0.500275C27.536 0.377595 27.6588 0.278393 27.799 0.210174C27.9392 0.141955 28.0931 0.106505 28.2489 0.106505C28.4048 0.106505 28.5587 0.141955 28.6989 0.210174C28.839 0.278393 28.9619 0.377595 29.058 0.500275C28.9617 0.622645 28.8388 0.721557 28.6986 0.789567C28.5585 0.857577 28.4047 0.892912 28.2489 0.892912C28.0932 0.892912 27.9394 0.857577 27.7993 0.789567C27.6591 0.721557 27.5362 0.622645 27.4398 0.500275ZM25.6732 0.500275C25.7696 0.377569 25.8926 0.278361 26.0329 0.210141C26.1732 0.141921 26.3272 0.106472 26.4832 0.106472C26.6392 0.106472 26.7932 0.141921 26.9336 0.210141C27.0739 0.278361 27.1969 0.377569 27.2932 0.500275C27.1967 0.622672 27.0736 0.721592 26.9333 0.789603C26.793 0.857613 26.6391 0.892946 26.4832 0.892946C26.3273 0.892946 26.1734 0.857613 26.0331 0.789603C25.8928 0.721592 25.7698 0.622672 25.6732 0.500275ZM23.9084 0.500275C24.0048 0.377569 24.1277 0.278361 24.2681 0.210141C24.4084 0.141921 24.5624 0.106472 24.7184 0.106472C24.8744 0.106472 25.0284 0.141921 25.1687 0.210141C25.3091 0.278361 25.432 0.377569 25.5284 0.500275C25.4318 0.622672 25.3088 0.721592 25.1685 0.789603C25.0282 0.857613 24.8743 0.892946 24.7184 0.892946C24.5625 0.892946 24.4086 0.857613 24.2683 0.789603C24.128 0.721592 24.005 0.622672 23.9084 0.500275ZM22.1436 0.500275C22.2399 0.377569 22.3629 0.278361 22.5033 0.210141C22.6436 0.141921 22.7976 0.106472 22.9536 0.106472C23.1096 0.106472 23.2636 0.141921 23.4039 0.210141C23.5443 0.278361 23.6672 0.377569 23.7636 0.500275C23.667 0.622672 23.544 0.721592 23.4037 0.789603C23.2634 0.857613 23.1095 0.892946 22.9536 0.892946C22.7977 0.892946 22.6438 0.857613 22.5035 0.789603C22.3632 0.721592 22.2401 0.622672 22.1436 0.500275ZM20.3788 0.500275C20.4749 0.377595 20.5978 0.278393 20.7379 0.210174C20.8781 0.141955 21.032 0.106505 21.1879 0.106505C21.3437 0.106505 21.4976 0.141955 21.6378 0.210174C21.778 0.278393 21.9008 0.377595 21.997 0.500275C21.9006 0.622645 21.7777 0.721557 21.6375 0.789567C21.4974 0.857577 21.3436 0.892912 21.1879 0.892912C21.0321 0.892912 20.8783 0.857577 20.7382 0.789567C20.598 0.721557 20.4751 0.622645 20.3788 0.500275ZM18.6121 0.500275C18.7085 0.377569 18.8315 0.278361 18.9718 0.210141C19.1121 0.141921 19.2661 0.106472 19.4221 0.106472C19.5782 0.106472 19.7321 0.141921 19.8725 0.210141C20.0128 0.278361 20.1358 0.377569 20.2321 0.500275C20.1356 0.622672 20.0125 0.721592 19.8722 0.789603C19.7319 0.857613 19.578 0.892946 19.4221 0.892946C19.2662 0.892946 19.1123 0.857613 18.972 0.789603C18.8317 0.721592 18.7087 0.622672 18.6121 0.500275ZM16.8473 0.500275C16.9437 0.377569 17.0666 0.278361 17.207 0.210141C17.3473 0.141921 17.5013 0.106472 17.6573 0.106472C17.8133 0.106472 17.9673 0.141921 18.1077 0.210141C18.248 0.278361 18.371 0.377569 18.4673 0.500275C18.3708 0.622672 18.2477 0.721592 18.1074 0.789603C17.9671 0.857613 17.8132 0.892946 17.6573 0.892946C17.5014 0.892946 17.3475 0.857613 17.2072 0.789603C17.0669 0.721592 16.9439 0.622672 16.8473 0.500275ZM15.0825 0.500275C15.1788 0.377569 15.3018 0.278361 15.4422 0.210141C15.5825 0.141921 15.7365 0.106472 15.8925 0.106472C16.0485 0.106472 16.2025 0.141921 16.3428 0.210141C16.4832 0.278361 16.6062 0.377569 16.7025 0.500275C16.6059 0.622672 16.4829 0.721592 16.3426 0.789603C16.2023 0.857613 16.0484 0.892946 15.8925 0.892946C15.7366 0.892946 15.5827 0.857613 15.4424 0.789603C15.3021 0.721592 15.179 0.622672 15.0825 0.500275ZM13.3177 0.500275C13.4138 0.377595 13.5367 0.278393 13.6769 0.210174C13.817 0.141955 13.9709 0.106505 14.1268 0.106505C14.2827 0.106505 14.4365 0.141955 14.5767 0.210174C14.7169 0.278393 14.8397 0.377595 14.9359 0.500275C14.8395 0.622645 14.7166 0.721557 14.5764 0.789567C14.4363 0.857577 14.2826 0.892912 14.1268 0.892912C13.971 0.892912 13.8172 0.857577 13.6771 0.789567C13.5369 0.721557 13.4141 0.622645 13.3177 0.500275ZM11.5528 0.500275C11.649 0.377595 11.7719 0.278393 11.912 0.210174C12.0522 0.141955 12.2061 0.106505 12.362 0.106505C12.5179 0.106505 12.6717 0.141955 12.8119 0.210174C12.9521 0.278393 13.0749 0.377595 13.1711 0.500275C13.0747 0.622645 12.9518 0.721557 12.8116 0.789567C12.6715 0.857577 12.5177 0.892912 12.362 0.892912C12.2062 0.892912 12.0524 0.857577 11.9123 0.789567C11.7721 0.721557 11.6492 0.622645 11.5528 0.500275ZM9.7917 0.500275C9.88789 0.377595 10.0107 0.278393 10.1509 0.210174C10.2911 0.141955 10.4449 0.106505 10.6008 0.106505C10.7567 0.106505 10.9106 0.141955 11.0507 0.210174C11.1909 0.278393 11.3137 0.377595 11.4099 0.500275C11.3135 0.622645 11.1906 0.721557 11.0505 0.789567C10.9103 0.857577 10.7566 0.892912 10.6008 0.892912C10.445 0.892912 10.2913 0.857577 10.1511 0.789567C10.011 0.721557 9.88809 0.622645 9.7917 0.500275ZM8.02689 0.500275C8.12308 0.377595 8.2459 0.278393 8.38607 0.210174C8.52624 0.141955 8.6801 0.106505 8.83599 0.106505C8.99189 0.106505 9.14574 0.141955 9.28591 0.210174C9.42609 0.278393 9.54891 0.377595 9.6451 0.500275C9.54871 0.622645 9.42582 0.721557 9.28567 0.789567C9.14552 0.857577 8.99177 0.892912 8.83599 0.892912C8.68021 0.892912 8.52647 0.857577 8.38632 0.789567C8.24617 0.721557 8.12328 0.622645 8.02689 0.500275ZM6.26025 0.500275C6.35661 0.377569 6.4796 0.278361 6.61992 0.210141C6.76025 0.141921 6.91424 0.106472 7.07027 0.106472C7.22629 0.106472 7.38029 0.141921 7.52061 0.210141C7.66093 0.278361 7.78391 0.377569 7.88028 0.500275C7.78371 0.622672 7.66065 0.721592 7.52036 0.789603C7.38006 0.857613 7.22618 0.892946 7.07027 0.892946C6.91435 0.892946 6.76047 0.857613 6.62017 0.789603C6.47987 0.721592 6.35682 0.622672 6.26025 0.500275ZM4.49543 0.500275C4.5918 0.377569 4.71479 0.278361 4.85511 0.210141C4.99543 0.141921 5.14942 0.106472 5.30545 0.106472C5.46148 0.106472 5.61547 0.141921 5.75579 0.210141C5.89612 0.278361 6.0191 0.377569 6.11547 0.500275C6.01889 0.622672 5.89584 0.721592 5.75555 0.789603C5.61525 0.857613 5.46136 0.892946 5.30545 0.892946C5.14954 0.892946 4.99565 0.857613 4.85536 0.789603C4.71506 0.721592 4.592 0.622672 4.49543 0.500275ZM2.73062 0.500275C2.8268 0.377595 2.94962 0.278393 3.0898 0.210174C3.22997 0.141955 3.38382 0.106505 3.53972 0.106505C3.69561 0.106505 3.84947 0.141955 3.98964 0.210174C4.12982 0.278393 4.25264 0.377595 4.34882 0.500275C4.25243 0.622645 4.12954 0.721557 3.9894 0.789567C3.84925 0.857577 3.6955 0.892912 3.53972 0.892912C3.38394 0.892912 3.2302 0.857577 3.09005 0.789567C2.9499 0.721557 2.827 0.622645 2.73062 0.500275ZM0.965807 0.500275C1.06199 0.377595 1.18481 0.278393 1.32498 0.210174C1.46516 0.141955 1.61901 0.106505 1.7749 0.106505C1.9308 0.106505 2.08465 0.141955 2.22483 0.210174C2.365 0.278393 2.48783 0.377595 2.58401 0.500275C2.48762 0.622645 2.36473 0.721557 2.22458 0.789567C2.08443 0.857577 1.93068 0.892912 1.7749 0.892912C1.61913 0.892912 1.46538 0.857577 1.32523 0.789567C1.18509 0.721557 1.0622 0.622645 0.965807 0.500275ZM1.02078 28.5175H0.861346V29.617H0.159449V28.5175H0.00184671V29.7673H1.04827V29.9982H1.20405V29.6317H1.02078V28.5322V28.5175ZM1.57057 29.7654H2.32744V29.6243H1.72817V29.2065H2.2523V29.0636H1.72817V28.6604H2.30362V28.5175H1.57057V29.7654ZM2.75811 29.7654H2.91571V29.201H3.63593V29.7654H3.79537V28.5175H3.63593V29.0508H2.91571V28.5102H2.75811V29.7581V29.7654ZM4.57974 29.7654H4.73917V28.6659H5.19733V28.523H4.12158V28.6659H4.57974V29.7654ZM5.52536 29.7654H5.68297V29.2835C5.7489 29.2869 5.81496 29.2869 5.88089 29.2835C6.19977 29.2835 6.35188 29.1002 6.35188 28.8913C6.35188 28.6824 6.24009 28.5028 5.86623 28.5028H5.52536V29.7526V29.7654ZM5.68297 29.1387V28.6586C5.74528 28.6586 5.82958 28.6586 5.88273 28.6586C6.08981 28.6586 6.18328 28.7539 6.18328 28.9023C6.18328 29.0508 6.06782 29.1534 5.87356 29.1534C5.80942 29.1534 5.74711 29.1534 5.6903 29.1534L5.68297 29.1387ZM7.44595 28.5157H7.28651V29.7636H7.43496V28.5138L7.44595 28.5157ZM8.06904 29.7636H8.27429L7.66037 29.1021L8.24314 28.5157H8.05071L7.47711 29.1131L8.06904 29.7636ZM8.61883 29.7636H8.77826V29.2817C8.84358 29.285 8.90904 29.285 8.97436 29.2817C9.29506 29.2817 9.44534 29.0984 9.44534 28.8895C9.44534 28.6806 9.33538 28.501 8.96153 28.501H8.61883V29.7508V29.7636ZM8.77826 29.1369V28.6568C8.84057 28.6568 8.92488 28.6568 8.97619 28.6568C9.18511 28.6568 9.27674 28.7521 9.27674 28.9005C9.27674 29.0489 9.16128 29.1516 8.96886 29.1516C8.90288 29.1516 8.84241 29.1516 8.7856 29.1516L8.77826 29.1369ZM9.56263 29.7618H9.7239L9.88884 29.3843H10.4863L10.653 29.7618H10.8235L10.2517 28.501H10.1161L9.55346 29.7581L9.56263 29.7618ZM10.1876 28.7081L10.424 29.2413H9.95297L10.1876 28.7081ZM11.0141 29.1369C11.0187 29.2597 11.0571 29.3789 11.125 29.4813C11.1929 29.5837 11.2878 29.6655 11.3991 29.7176C11.5105 29.7696 11.634 29.79 11.7562 29.7765C11.8783 29.7629 11.9944 29.716 12.0916 29.6408L12.0275 29.5272C11.9313 29.5993 11.8142 29.638 11.694 29.6372C11.6266 29.6416 11.5591 29.6318 11.4958 29.6084C11.4324 29.585 11.3748 29.5485 11.3265 29.5013C11.2783 29.454 11.2405 29.3972 11.2157 29.3344C11.191 29.2716 11.1797 29.2043 11.1827 29.1369C11.1788 29.0715 11.1886 29.0061 11.2115 28.9447C11.2344 28.8833 11.2698 28.8274 11.3155 28.7805C11.3612 28.7336 11.4162 28.6967 11.4769 28.6723C11.5377 28.6478 11.6028 28.6363 11.6683 28.6384C11.7835 28.6333 11.8973 28.6654 11.9927 28.7301L12.066 28.6165C11.9677 28.5476 11.8526 28.5065 11.7329 28.4975C11.6133 28.4884 11.4933 28.5117 11.3858 28.5649C11.2782 28.6181 11.1869 28.6993 11.1215 28.8C11.0561 28.9006 11.019 29.017 11.0141 29.1369ZM12.2969 29.1369C12.2918 29.2698 12.3265 29.4012 12.3966 29.5142C12.4668 29.6272 12.5691 29.7167 12.6904 29.7711C12.8118 29.8256 12.9466 29.8425 13.0777 29.8197C13.2087 29.797 13.33 29.7355 13.4258 29.6434C13.5217 29.5512 13.5878 29.4324 13.6157 29.3024C13.6436 29.1724 13.632 29.0369 13.5823 28.9136C13.5327 28.7902 13.4473 28.6844 13.3371 28.61C13.2269 28.5355 13.097 28.4956 12.964 28.4955C12.877 28.4907 12.7899 28.5039 12.7083 28.5343C12.6266 28.5647 12.5521 28.6117 12.4895 28.6723C12.4268 28.7329 12.3774 28.8057 12.3443 28.8863C12.3111 28.9669 12.295 29.0534 12.2969 29.1406V29.1369ZM12.4637 29.1369C12.4637 29.0379 12.493 28.9412 12.548 28.859C12.603 28.7767 12.6811 28.7126 12.7725 28.6747C12.8639 28.6368 12.9645 28.6269 13.0616 28.6462C13.1586 28.6655 13.2478 28.7132 13.3177 28.7831C13.3877 28.8531 13.4354 28.9422 13.4547 29.0393C13.474 29.1363 13.4641 29.2369 13.4262 29.3283C13.3883 29.4197 13.3242 29.4979 13.2419 29.5529C13.1597 29.6078 13.0629 29.6372 12.964 29.6372C12.8983 29.6381 12.8331 29.626 12.7722 29.6014C12.7113 29.5769 12.6559 29.5404 12.6093 29.4941C12.5627 29.4479 12.5258 29.3927 12.5008 29.332C12.4758 29.2713 12.4632 29.2062 12.4637 29.1406V29.1369ZM14.2523 29.7618H14.4117V28.6623H14.8699V28.5193H13.7942V28.6623H14.2523V29.7618ZM16.2242 29.7618H16.3836V28.5138H16.2315L16.2242 29.7618ZM15.3555 28.5138H15.1961V29.7636H15.493C15.8192 29.7636 16.0135 29.6115 16.0135 29.3495C16.0135 29.1149 15.8577 28.9646 15.5296 28.9646C15.4857 28.9646 15.427 28.9646 15.3555 28.9738V28.5102V28.5138ZM15.3555 29.6133V29.1167C15.4097 29.1101 15.4641 29.1065 15.5186 29.1057C15.7294 29.1057 15.8449 29.1937 15.8449 29.3513C15.8449 29.5089 15.7276 29.617 15.5113 29.617H15.3555V29.6133ZM18.515 29.7563V28.5083H18.3757L17.5803 29.5071V28.5083H17.4209V29.7563H17.562L18.3555 28.7557V29.7563H18.515ZM19.4698 28.6714L19.5632 28.7704C19.5987 28.7261 19.644 28.6906 19.6955 28.6667C19.747 28.6429 19.8034 28.6313 19.8601 28.6329C19.9939 28.6329 20.0965 28.7008 20.0965 28.8364C20.0956 28.8929 20.0723 28.9468 20.0318 28.9862C19.9913 29.0257 19.9368 29.0476 19.8803 29.0471H19.741V29.19H19.8968C20.0599 29.19 20.1533 29.2688 20.1533 29.3934C20.1533 29.5474 20.0269 29.6317 19.8565 29.6317C19.7301 29.6253 19.6112 29.5701 19.5247 29.4777L19.4368 29.5785C19.4868 29.643 19.551 29.6951 19.6244 29.7307C19.6978 29.7663 19.7785 29.7845 19.8601 29.7838C19.9136 29.7901 19.9679 29.7855 20.0196 29.7704C20.0713 29.7552 20.1194 29.7297 20.161 29.6955C20.2026 29.6613 20.2368 29.619 20.2616 29.5711C20.2865 29.5233 20.3014 29.471 20.3054 29.4173C20.3099 29.3472 20.2879 29.278 20.2438 29.2234C20.1997 29.1687 20.1367 29.1326 20.0672 29.1222C20.1211 29.096 20.1666 29.0554 20.199 29.005C20.2313 28.9546 20.2491 28.8962 20.2505 28.8364C20.2505 28.6238 20.0965 28.5047 19.8711 28.5047C19.794 28.5031 19.7174 28.5188 19.6471 28.5505C19.5767 28.5822 19.5143 28.6291 19.4643 28.6879L19.4698 28.6714ZM21.8943 29.989V29.6225H21.7111V28.523H20.9414L20.9285 28.7722C20.8992 29.2945 20.7673 29.5639 20.7123 29.6298H20.573V29.9963H20.7215V29.7654H21.7386V29.9963L21.8943 29.989ZM21.0825 28.873L21.099 28.6513H21.5571V29.6152H20.8937C21.0146 29.3895 21.0793 29.1381 21.0825 28.8822V28.873ZM22.1399 29.1314C22.1348 29.2643 22.1695 29.3957 22.2396 29.5087C22.3098 29.6217 22.4121 29.7112 22.5334 29.7656C22.6548 29.8201 22.7896 29.837 22.9207 29.8142C23.0517 29.7915 23.173 29.73 23.2688 29.6379C23.3647 29.5457 23.4308 29.4269 23.4587 29.2969C23.4866 29.1669 23.475 29.0315 23.4253 28.9081C23.3757 28.7847 23.2903 28.679 23.1801 28.6045C23.0699 28.53 22.94 28.4901 22.807 28.49C22.7195 28.4851 22.632 28.4985 22.5499 28.5293C22.4679 28.56 22.3931 28.6075 22.3304 28.6686C22.2677 28.7298 22.2184 28.8034 22.1856 28.8846C22.1528 28.9658 22.1372 29.053 22.1399 29.1406V29.1314ZM22.3067 29.1314C22.3067 29.0324 22.336 28.9357 22.391 28.8535C22.446 28.7712 22.5241 28.7071 22.6155 28.6692C22.7069 28.6313 22.8075 28.6214 22.9046 28.6407C23.0016 28.66 23.0908 28.7077 23.1608 28.7776C23.2307 28.8476 23.2784 28.9368 23.2977 29.0338C23.317 29.1308 23.3071 29.2314 23.2692 29.3228C23.2313 29.4143 23.1672 29.4924 23.0849 29.5474C23.0027 29.6023 22.9059 29.6317 22.807 29.6317C22.7418 29.6326 22.677 29.6207 22.6165 29.5964C22.556 29.5722 22.5008 29.5362 22.4543 29.4905C22.4078 29.4449 22.3708 29.3904 22.3454 29.3303C22.3201 29.2703 22.3069 29.2058 22.3067 29.1406V29.1314ZM23.8772 29.7581H24.0348V29.2762C24.1002 29.2796 24.1656 29.2796 24.2309 29.2762C24.5516 29.2762 24.7019 29.0929 24.7019 28.884C24.7019 28.6751 24.592 28.4955 24.2181 28.4955H23.8772V29.7453V29.7581ZM24.0348 29.1314V28.6513C24.0971 28.6513 24.1814 28.6513 24.2328 28.6513C24.4417 28.6513 24.5351 28.7466 24.5351 28.895C24.5351 29.0434 24.4179 29.1461 24.2254 29.1461C24.1613 29.1461 24.099 29.1461 24.0422 29.1461L24.0348 29.1314ZM24.9878 29.1314C24.9827 29.2643 25.0174 29.3957 25.0875 29.5087C25.1577 29.6217 25.26 29.7112 25.3813 29.7656C25.5027 29.8201 25.6375 29.837 25.7686 29.8142C25.8996 29.7915 26.0209 29.73 26.1167 29.6379C26.2126 29.5457 26.2787 29.4269 26.3066 29.2969C26.3345 29.1669 26.3229 29.0315 26.2732 28.9081C26.2236 28.7847 26.1382 28.679 26.028 28.6045C25.9178 28.53 25.7879 28.4901 25.6549 28.49C25.5674 28.4851 25.4799 28.4985 25.3978 28.5293C25.3158 28.56 25.241 28.6075 25.1783 28.6686C25.1156 28.7298 25.0663 28.8034 25.0335 28.8846C25.0007 28.9658 24.9851 29.053 24.9878 29.1406V29.1314ZM25.1546 29.1314C25.1546 29.0324 25.1839 28.9357 25.2389 28.8535C25.2939 28.7712 25.372 28.7071 25.4634 28.6692C25.5548 28.6313 25.6554 28.6214 25.7525 28.6407C25.8495 28.66 25.9387 28.7077 26.0086 28.7776C26.0786 28.8476 26.1263 28.9368 26.1456 29.0338C26.1649 29.1308 26.155 29.2314 26.1171 29.3228C26.0792 29.4143 26.0151 29.4924 25.9328 29.5474C25.8505 29.6023 25.7538 29.6317 25.6549 29.6317C25.5897 29.6326 25.5249 29.6207 25.4644 29.5964C25.4039 29.5722 25.3487 29.5362 25.3022 29.4905C25.2557 29.4449 25.2187 29.3904 25.1933 29.3303C25.168 29.2703 25.1548 29.2058 25.1546 29.1406V29.1314ZM27.0587 29.7618H27.0751C27.3464 29.7618 27.5498 29.6537 27.5498 29.3953C27.5528 29.3203 27.5262 29.2472 27.4759 29.1917C27.4255 29.1362 27.3553 29.1027 27.2804 29.0984C27.345 29.0826 27.4023 29.0454 27.4429 28.9928C27.4835 28.9402 27.5051 28.8753 27.504 28.8089C27.504 28.6366 27.3959 28.4992 27.0825 28.4992C26.9615 28.4992 26.7966 28.4992 26.716 28.4992V29.7471C26.7874 29.7471 26.9359 29.7471 27.0495 29.7471L27.0587 29.7618ZM26.8754 28.6513C26.923 28.6513 27.0037 28.6513 27.0715 28.6513C27.2456 28.6513 27.3372 28.7209 27.3372 28.8528C27.3372 28.9848 27.2236 29.0618 27.0861 29.0618H26.8754V28.6586V28.6513ZM26.8754 29.6133V29.1974H27.088C27.2712 29.1974 27.3849 29.2688 27.3849 29.4008C27.3849 29.5327 27.2712 29.628 27.077 29.628C27.0037 29.628 26.9194 29.628 26.8754 29.628V29.6133ZM28.1417 28.5138H27.9823V29.7636H28.2902C28.6237 29.7636 28.818 29.6115 28.818 29.3495C28.818 29.1149 28.664 28.9646 28.325 28.9646C28.2828 28.9646 28.2132 28.9646 28.1417 28.9738V28.5102V28.5138ZM28.1417 29.6133V29.1167C28.1989 29.1101 28.2564 29.1064 28.314 29.1057C28.5248 29.1057 28.6512 29.19 28.6512 29.3513C28.6512 29.5126 28.5229 29.617 28.3085 29.617H28.1417V29.6133ZM29.9927 29.7581V28.5083H29.694C29.3403 28.5083 29.1827 28.6916 29.1827 28.9243C29.1847 29.0019 29.2107 29.0769 29.2569 29.1392C29.3031 29.2015 29.3674 29.248 29.4411 29.2725L29.0745 29.7654H29.2578L29.5968 29.3H29.8406V29.7654L29.9927 29.7581ZM29.3439 28.9078C29.3439 28.7594 29.4521 28.6439 29.6573 28.6439H29.8406V29.1442H29.5785C29.5181 29.1374 29.4621 29.1093 29.4205 29.065C29.3789 29.0207 29.3544 28.963 29.3513 28.9023L29.3439 28.9078ZM22.38 2.7396V10.6359C22.38 10.6547 22.3837 10.6732 22.3909 10.6906C22.398 10.7079 22.4086 10.7237 22.4218 10.737C22.4351 10.7502 22.4509 10.7608 22.4682 10.7679C22.4856 10.7751 22.5042 10.7788 22.5229 10.7788C22.5417 10.7788 22.5603 10.7751 22.5776 10.7679C22.595 10.7608 22.6107 10.7502 22.624 10.737C22.6373 10.7237 22.6478 10.7079 22.655 10.6906C22.6622 10.6732 22.6659 10.6547 22.6659 10.6359C22.6659 2.7396 24.9933 3.13176 24.9933 3.13176V23.6064H23.9982C23.9471 23.6064 23.8982 23.6266 23.8621 23.6627C23.826 23.6988 23.8058 23.7478 23.8058 23.7988C23.8058 23.8498 23.826 23.8988 23.8621 23.9348C23.8982 23.9709 23.9471 23.9912 23.9982 23.9912H28.3818C28.4328 23.9912 28.4818 23.9709 28.5179 23.9348C28.554 23.8988 28.5742 23.8498 28.5742 23.7988C28.5742 23.7478 28.554 23.6988 28.5179 23.6627C28.4818 23.6266 28.4328 23.6064 28.3818 23.6064H27.4105V3.14092C27.4105 3.14092 29.7123 2.74876 29.7123 10.6542C29.7123 10.6921 29.7274 10.7285 29.7542 10.7553C29.781 10.7821 29.8173 10.7971 29.8552 10.7971C29.8932 10.7971 29.9295 10.7821 29.9563 10.7553C29.9831 10.7285 29.9982 10.6921 29.9982 10.6542V2.74876L22.38 2.7396ZM0.179611 2.7396C0.128577 2.7396 0.0796327 2.75987 0.043546 2.79596C0.00745928 2.83204 -0.0128174 2.88098 -0.0128174 2.93201C-0.0128174 2.98305 0.00745928 3.03199 0.043546 3.06807C0.0796327 3.10416 0.128577 3.12443 0.179611 3.12443H0.846682V23.5935H0.179611C0.128577 23.5935 0.0796327 23.6138 0.043546 23.6499C0.00745927 23.686 -0.0128174 23.7349 -0.0128174 23.786C-0.0128174 23.837 0.00745927 23.8859 0.043546 23.922C0.0796327 23.9581 0.128577 23.9784 0.179611 23.9784H3.24375C5.4429 23.9784 7.26269 22.4574 7.26269 18.0869C7.26269 13.7163 4.51376 13.1629 4.51376 13.1629C4.84546 13.1629 7.14174 12.4446 7.14174 7.82298C7.14174 2.73594 3.84302 2.73777 3.24192 2.73777H0.188772L0.179611 2.7396ZM3.24375 12.9742V3.14092C3.50132 3.12873 3.75939 3.14966 4.01162 3.20322C4.15604 3.25844 4.28539 3.34697 4.38914 3.46161C4.61822 3.7035 4.64937 4.09749 4.66587 4.53912V12.1917C4.68746 12.3885 4.63086 12.5859 4.50826 12.7414C4.45496 12.8149 4.38609 12.8756 4.30656 12.9193C4.22704 12.9631 4.13884 12.9887 4.04827 12.9943C3.93282 12.9943 3.68175 12.9943 3.45817 12.9943L3.24375 12.9742ZM3.24375 23.5844V13.359C3.48383 13.359 3.89067 13.359 4.04827 13.359C4.13884 13.3646 4.22704 13.3902 4.30656 13.434C4.38609 13.4777 4.45496 13.5384 4.50826 13.6119C4.63086 13.7674 4.68746 13.9648 4.66587 14.1616V22.1862C4.64937 22.6278 4.61822 23.0236 4.38914 23.2655C4.28521 23.38 4.15592 23.4685 4.01162 23.5239C3.80089 23.573 3.5846 23.5939 3.36837 23.5862L3.24375 23.5844ZM14.5565 23.9857V15.1713C14.5565 15.1526 14.5528 15.134 14.5456 15.1166C14.5384 15.0993 14.5279 15.0835 14.5146 15.0703C14.5014 15.057 14.4856 15.0465 14.4683 15.0393C14.4509 15.0321 14.4324 15.0284 14.4136 15.0284C14.3948 15.0284 14.3762 15.0321 14.3589 15.0393C14.3415 15.0465 14.3258 15.057 14.3125 15.0703C14.2992 15.0835 14.2887 15.0993 14.2815 15.1166C14.2743 15.134 14.2706 15.1526 14.2706 15.1713C14.2706 23.5642 11.0452 23.6009 11.0452 23.6009V13.5679C12.5718 13.9179 12.6781 15.7944 12.6781 18.6806C12.6758 18.7003 12.6778 18.7204 12.6838 18.7393C12.6898 18.7583 12.6997 18.7757 12.713 18.7906C12.7262 18.8054 12.7424 18.8173 12.7606 18.8254C12.7787 18.8335 12.7984 18.8378 12.8183 18.8378C12.8382 18.8378 12.8578 18.8335 12.876 18.8254C12.8941 18.8173 12.9103 18.8054 12.9236 18.7906C12.9368 18.7757 12.9468 18.7583 12.9528 18.7393C12.9588 18.7204 12.9607 18.7003 12.9585 18.6806V8.0667C12.9607 8.04695 12.9588 8.02694 12.9528 8.00798C12.9468 7.98903 12.9368 7.97156 12.9236 7.95672C12.9103 7.94188 12.8941 7.93001 12.876 7.92188C12.8578 7.91375 12.8382 7.90955 12.8183 7.90955C12.7984 7.90955 12.7787 7.91375 12.7606 7.92188C12.7424 7.93001 12.7262 7.94188 12.713 7.95672C12.6997 7.97156 12.6898 7.98903 12.6838 8.00798C12.6778 8.02694 12.6758 8.04695 12.6781 8.0667C12.6781 10.9529 12.5718 12.8312 11.0452 13.1812V3.14092C11.0452 3.14092 14.2706 2.74876 14.2706 10.6542C14.2706 10.673 14.2743 10.6916 14.2815 10.7089C14.2887 10.7262 14.2992 10.742 14.3125 10.7553C14.3258 10.7685 14.3415 10.7791 14.3589 10.7863C14.3762 10.7934 14.3948 10.7971 14.4136 10.7971C14.4324 10.7971 14.4509 10.7934 14.4683 10.7863C14.4856 10.7791 14.5014 10.7685 14.5146 10.7553C14.5279 10.742 14.5384 10.7262 14.5456 10.7089C14.5528 10.6916 14.5565 10.673 14.5565 10.6542V2.7506H7.93343C7.8854 2.75528 7.84083 2.77767 7.8084 2.8134C7.77598 2.84914 7.75802 2.89567 7.75802 2.94393C7.75802 2.99218 7.77598 3.03871 7.8084 3.07444C7.84083 3.11018 7.8854 3.13257 7.93343 3.13725H8.64998V23.6137H7.93343C7.88239 23.6137 7.83345 23.634 7.79736 23.6701C7.76128 23.7062 7.74101 23.7551 7.74101 23.8061C7.74101 23.8572 7.76128 23.9061 7.79736 23.9422C7.83345 23.9783 7.88239 23.9985 7.93343 23.9985L14.5565 23.9857ZM19.9334 3.99304C19.7464 3.63337 19.4868 3.31639 19.1711 3.06212C18.9943 2.92568 18.7917 2.82656 18.5755 2.77075C18.3271 2.72359 18.0714 2.73047 17.8259 2.79091C17.4806 2.90347 17.1618 3.08516 16.8889 3.32491C16.6161 3.56466 16.3949 3.85746 16.2389 4.18545C15.8193 5.02784 15.6022 5.95651 15.6048 6.89756C15.5516 9.09657 16.4203 10.7128 17.0049 12.1385C17.661 13.6833 18.3061 15.2538 18.8925 16.8004C19.2179 17.6207 19.4748 18.4666 19.6604 19.3293C19.9463 20.8228 19.8253 22.8386 18.8229 23.2802C18.6158 23.3775 18.3798 23.3939 18.1613 23.326C17.9677 23.2371 17.7924 23.1128 17.6445 22.9595C17.3044 22.5413 17.0453 22.0634 16.8803 21.5503C16.7831 21.2791 16.697 21.0005 16.6127 20.7238C16.5999 20.678 16.5871 20.6341 16.5761 20.5882C16.4863 20.2529 16.4056 19.9139 16.3433 19.5694C16.303 19.3861 16.2682 19.2029 16.2297 19.0306C16.0336 17.8431 15.8632 15.8091 15.8632 15.5617V15.1145C15.8632 15.0771 15.8483 15.0412 15.8218 15.0148C15.7954 14.9883 15.7595 14.9734 15.7221 14.9734C15.6846 14.9734 15.6488 14.9883 15.6223 15.0148C15.5958 15.0412 15.581 15.0771 15.581 15.1145V16.3973V16.6099V23.9839L17.0067 22.5692C17.1509 22.8009 17.3082 23.0242 17.4777 23.238C18.1759 23.971 18.7605 23.971 19.1161 23.9839C19.4741 23.9734 19.8235 23.8719 20.1314 23.6888C21.35 22.9778 21.8797 21.455 21.8797 19.3824C21.8103 17.6622 21.4128 15.971 20.7086 14.3999C19.7923 12.0176 18.8577 10.2199 18.0953 7.89995C17.8011 7.09716 17.606 6.26146 17.5144 5.4114C17.4557 4.56478 17.6848 3.6412 18.1778 3.31867C18.2797 3.25302 18.3975 3.21628 18.5186 3.21239C18.8302 3.20139 19.1491 3.44328 19.303 3.60638C19.6417 4.02549 19.9007 4.50311 20.0672 5.01558C20.1643 5.28679 20.2505 5.56533 20.3329 5.84204L20.3714 5.97764C20.4612 6.31299 20.54 6.65201 20.6023 6.99652C20.6426 7.17977 20.6793 7.36302 20.716 7.53527C20.912 8.72274 21.0825 10.6964 21.0825 10.6964C21.0864 10.7308 21.1029 10.7625 21.1287 10.7856C21.1546 10.8087 21.188 10.8214 21.2227 10.8214C21.2573 10.8214 21.2908 10.8087 21.3166 10.7856C21.3425 10.7625 21.3589 10.7308 21.3629 10.6964V10.1759V9.96335V2.74876L19.9353 4.00586L19.9334 3.99304Z" fill="black"/>
</g>
<defs>
<clipPath id="clip0_1_3899">
<rect width="30" height="30" fill="white"/>
</clipPath>
</defs>
</svg>
