<svg width="31" height="24" viewBox="0 0 31 24" fill="none" xmlns="http://www.w3.org/2000/svg">
<path d="M5.51106 7.50436C6.43221 3.79625 10.5548 1 15.5022 1C20.4497 1 24.5773 3.79982 25.4949 7.51031M26.5394 7.38119C25.6208 7.38119 24.7399 7.68351 24.0904 8.22163C23.4409 8.75975 23.076 9.48959 23.076 10.2506V15.4327H7.92692V10.2506C7.92692 9.48959 7.56202 8.75975 6.9125 8.22163C6.26297 7.68351 5.38203 7.38119 4.46346 7.38119C3.5449 7.38119 2.66396 7.68351 2.01443 8.22163C1.36491 8.75975 1 9.48959 1 10.2506C0.999734 10.9599 1.31653 11.6442 1.88928 12.1714C2.46202 12.6987 3.25014 13.0315 4.10161 13.1057V19.8451H26.8984V13.1046C27.7499 13.0303 28.538 12.6975 29.1107 12.1702C29.6835 11.643 30.0003 10.9587 30 10.2494C29.9996 9.48902 29.6349 8.75984 28.9861 8.22205C28.3372 7.68425 27.4572 7.38182 26.5394 7.38119ZM20.7053 22.3041C20.7053 22.4886 20.7938 22.6657 20.9513 22.7962C21.1089 22.9267 21.3225 23 21.5453 23H24.0524C24.2752 23 24.4889 22.9267 24.6464 22.7962C24.804 22.6657 24.8925 22.4886 24.8925 22.3041V19.8528H20.7053V22.3041ZM6.11339 22.3041C6.11339 22.4886 6.20189 22.6657 6.35943 22.7962C6.51696 22.9267 6.73062 23 6.95341 23H9.46054C9.68332 23 9.89699 22.9267 10.0545 22.7962C10.2121 22.6657 10.3006 22.4886 10.3006 22.3041V19.8528H6.11339V22.3041Z" stroke="black" stroke-miterlimit="10"/>
</svg>
