<svg width="62" height="38" viewBox="0 0 62 38" fill="none" xmlns="http://www.w3.org/2000/svg">
<path d="M3.26333 14.9619C3.2656 11.5774 4.28901 8.30683 6.14656 5.74782C7.54601 3.88303 9.33301 2.49114 11.3274 1.71249C13.3218 0.933835 15.4531 0.795934 17.5065 1.31269L26.2283 3.30678C29.3148 4.00307 32.4834 4.00307 35.5699 3.30678L44.6088 1.27831C46.6482 0.791138 48.7588 0.94548 50.7329 1.72614C52.7071 2.50681 54.4767 3.8869 55.8679 5.73063C57.7254 8.28964 58.7488 11.5602 58.7511 14.9447M7.41518 26.9436H54.6425V32.8227H7.41518V26.9436ZM11.567 19.0532H50.4906C51.5918 19.0532 52.6478 19.5748 53.4264 20.5033C54.205 21.4317 54.6425 22.691 54.6425 24.004V26.8748H7.41518V24.004C7.41518 22.691 7.85261 21.4317 8.63123 20.5033C9.40986 19.5748 10.4659 19.0532 11.567 19.0532ZM57.8284 14.3258C58.6696 14.3258 59.4763 14.7243 60.0711 15.4335C60.6659 16.1428 61 17.1047 61 18.1077V29.0236C61 30.0267 60.6659 30.9886 60.0711 31.6978C59.4763 32.4071 58.6696 32.8055 57.8284 32.8055H54.6425V18.1249C54.6425 17.6283 54.7245 17.1365 54.8839 16.6777C55.0433 16.2188 55.2769 15.8019 55.5714 15.4507C55.8659 15.0995 56.2155 14.821 56.6003 14.6309C56.9851 14.4408 57.3975 14.343 57.814 14.343L57.8284 14.3258ZM7.35752 32.8227H4.17155C3.75506 32.8227 3.34264 32.7249 2.95785 32.5348C2.57306 32.3448 2.22343 32.0662 1.92892 31.715C1.63442 31.3639 1.40081 30.9469 1.24142 30.4881C1.08203 30.0293 1 29.5375 1 29.0408V18.1249C1 17.6283 1.08203 17.1365 1.24142 16.6777C1.40081 16.2188 1.63442 15.8019 1.92892 15.4507C2.22343 15.0995 2.57306 14.821 2.95785 14.6309C3.34264 14.4408 3.75506 14.343 4.17155 14.343C4.58805 14.3408 5.00084 14.4363 5.38635 14.6243C5.77187 14.8123 6.12257 15.089 6.41841 15.4385C6.71426 15.7881 6.94946 16.2038 7.11059 16.6618C7.27172 17.1197 7.35563 17.6111 7.35752 18.1077V32.8227ZM48.5877 32.8743H54.5992V37H48.5877V32.8743ZM7.4296 32.8743H13.4411V37H7.4296V32.8743Z" stroke="#722839" stroke-width="2" stroke-miterlimit="10"/>
</svg>
