<svg width="47" height="38" viewBox="0 0 47 38" fill="none" xmlns="http://www.w3.org/2000/svg">
<path d="M29.7254 33.0075V37H34.9766V33.0075M12.0078 33.0075V37H17.2739V33.0075M11.3091 15.3632C11.4909 14.926 11.7745 14.5349 12.1382 14.2198C12.5018 13.9047 12.9358 13.6741 13.4067 13.5458C13.6534 13.4729 13.8814 13.351 14.0761 13.188C14.2534 13.0178 14.3904 12.8128 14.4777 12.587C14.6634 12.022 15.0209 11.5235 15.5042 11.156C16.2449 10.6213 17.1753 10.3899 18.0926 10.512C18.1706 10.5126 18.2479 10.4976 18.3195 10.4681C18.3912 10.4385 18.4558 10.395 18.5091 10.3403C18.8349 9.68295 19.3836 9.1519 20.065 8.83457C20.7464 8.51724 21.5198 8.43256 22.2579 8.59447C22.5366 8.65888 22.8271 8.65888 23.1058 8.59447C23.3599 8.48933 23.5843 8.32744 23.7604 8.12224C24.4207 7.50761 25.3035 7.16399 26.2224 7.16399C27.1412 7.16399 28.024 7.50761 28.6843 8.12224C28.8778 8.31131 29.1186 8.4493 29.3835 8.52292C29.6612 8.59459 29.9537 8.59459 30.2314 8.52292C30.9629 8.38713 31.7204 8.48066 32.3925 8.78976C33.0646 9.09887 33.6159 9.60723 33.9653 10.2401C34.0695 10.4262 34.1587 10.512 34.3967 10.4834C35.1543 10.3862 35.9237 10.5401 36.5781 10.9199C37.2325 11.2997 37.7329 11.8827 37.9967 12.5727C38.08 12.7922 38.2179 12.9887 38.3984 13.1451C38.5822 13.3074 38.8005 13.4295 39.0381 13.5028C39.5099 13.6292 39.9449 13.8591 40.3088 14.1744C40.6728 14.4898 40.9558 14.882 41.1356 15.3202M6.51911 11.5709C6.85565 11.5843 7.19161 11.5332 7.50749 11.4207C7.82336 11.3082 8.11287 11.1365 8.35921 10.9155C8.60554 10.6945 8.8038 10.4287 8.94247 10.1334C9.08115 9.83811 9.15748 9.51928 9.16704 9.19539C9.15553 8.8721 9.07787 8.55417 8.93853 8.25977C8.79918 7.96537 8.60088 7.70028 8.35495 7.47965C8.10903 7.25903 7.8203 7.08721 7.5053 6.974C7.19029 6.8608 6.85517 6.80844 6.51911 6.81991C5.84292 6.80061 5.18631 7.03968 4.69288 7.48485C4.19944 7.93001 3.90935 8.54503 3.88605 9.19539C3.89565 9.51803 3.97151 9.83565 4.10926 10.13C4.247 10.4243 4.44391 10.6895 4.68865 10.9103C4.93339 11.1311 5.22112 11.3031 5.53528 11.4165C5.84943 11.5299 6.18379 11.5823 6.51911 11.5709ZM34.7091 5.71812C35.3853 5.73743 36.0419 5.49835 36.5353 5.05319C37.0287 4.60803 37.3188 3.99301 37.3421 3.34264C37.2922 2.70562 36.994 2.11025 36.5071 1.67582C36.0202 1.2414 35.3806 1 34.7165 1C34.0524 1 33.4128 1.2414 32.9259 1.67582C32.439 2.11025 32.1408 2.70562 32.0909 3.34264C32.1142 3.99046 32.4022 4.60328 32.8924 5.04804C33.3826 5.4928 34.0354 5.73359 34.7091 5.71812ZM3.42479 15.2917H43.5752C44.9144 15.2917 46 16.336 46 17.6242C46 18.9125 44.9144 19.9568 43.5752 19.9568H3.42479C2.08562 19.9568 1 18.9125 1 17.6242C1 16.336 2.08562 15.2917 3.42479 15.2917ZM3.54402 20.0426H43.3969V23.5772C43.3969 26.0783 42.3641 28.477 40.5256 30.2455C38.6871 32.014 36.1936 33.0076 33.5936 33.0076H13.3622C12.0736 33.0095 10.7972 32.7669 9.60607 32.2939C8.41496 31.8208 7.3325 31.1264 6.4206 30.2506C5.5087 29.3747 4.78527 28.3344 4.29167 27.1894C3.79808 26.0443 3.54402 24.8168 3.54402 23.5772V20.0426Z" stroke="#722839" stroke-width="2" stroke-miterlimit="10"/>
</svg>
