<svg width="53" height="39" viewBox="0 0 53 39" fill="none" xmlns="http://www.w3.org/2000/svg">
<path d="M21.4988 25.2817V10.331C21.4988 7.65829 26.1738 2.60988 26.1738 2.60988C26.1738 2.60988 30.8488 7.65829 30.8488 10.331V25.6913M34.3872 28.2924L25.907 21.5953L17.8715 28.0773M43.3418 30.1355L36.9965 23.8378L33.2901 27.2478M9.3912 30.1355L15.7267 23.8378L19.4429 27.2478M30.9477 11.396H52V38H1V11.396H21.5186M26.2034 30.1969C26.6707 30.1969 27.1334 30.2923 27.5651 30.4776C27.9967 30.6628 28.389 30.9344 28.7194 31.2767C29.0498 31.619 29.3119 32.0254 29.4907 32.4727C29.6695 32.9199 29.7616 33.3993 29.7616 33.8834V37.9795H22.6453V33.8834C22.6453 33.3993 22.7373 32.9199 22.9161 32.4727C23.0949 32.0254 23.357 31.619 23.6874 31.2767C24.0178 30.9344 24.4101 30.6628 24.8418 30.4776C25.2735 30.2923 25.7362 30.1969 26.2034 30.1969ZM13.2162 32.1631H17.8418V37.7542H13.2162V32.1631ZM34.6244 32.1631H39.2499V37.7542H34.6244V32.1631ZM32.9639 4.45764V8.32843H45.4767L36.7593 2L32.9639 4.45764ZM19.6802 4.45764V8.32843H7.16741L15.8849 2L19.6802 4.45764Z" stroke="#722839" stroke-width="2" stroke-miterlimit="10"/>
</svg>
