<svg width="27" height="22" viewBox="0 0 27 22" fill="none" xmlns="http://www.w3.org/2000/svg">
<path d="M16.9585 18.7819V21H19.8759V18.7819M7.11543 18.7819V21H10.0411V18.7819M6.72729 8.97953C6.82828 8.73669 6.98585 8.51938 7.18788 8.34434C7.3899 8.16929 7.63099 8.04118 7.89258 7.96987C8.02964 7.92938 8.15634 7.86167 8.26449 7.77112C8.36297 7.67656 8.43909 7.56267 8.48763 7.43722C8.59076 7.12331 8.78941 6.84638 9.05787 6.64221C9.4694 6.34518 9.98626 6.21659 10.4959 6.28446C10.5392 6.28477 10.5821 6.27646 10.622 6.26004C10.6618 6.24362 10.6977 6.21945 10.7273 6.18906C10.9083 5.82386 11.2131 5.52883 11.5917 5.35254C11.9702 5.17624 12.3999 5.1292 12.8099 5.21915C12.9648 5.25493 13.1262 5.25493 13.281 5.21915C13.4222 5.16074 13.5468 5.0708 13.6447 4.9568C14.0115 4.61534 14.502 4.42444 15.0124 4.42444C15.5229 4.42444 16.0133 4.61534 16.3802 4.9568C16.4877 5.06184 16.6214 5.1385 16.7686 5.1794C16.9229 5.21921 17.0854 5.21921 17.2397 5.1794C17.6461 5.10396 18.0669 5.15592 18.4403 5.32764C18.8137 5.49937 19.1199 5.78179 19.3141 6.13341C19.3719 6.23676 19.4215 6.28446 19.5537 6.26856C19.9746 6.21453 20.4021 6.30007 20.7656 6.51106C21.1292 6.72206 21.4072 7.04592 21.5537 7.42927C21.6 7.5512 21.6766 7.66038 21.7769 7.74727C21.879 7.83746 22.0003 7.90527 22.1323 7.94602C22.3944 8.01623 22.6361 8.14394 22.8382 8.31912C23.0404 8.49431 23.1976 8.7122 23.2975 8.95568M4.06617 6.8727C4.25314 6.88014 4.43978 6.85179 4.61527 6.78929C4.79076 6.72679 4.9516 6.63139 5.08845 6.50862C5.2253 6.38585 5.33544 6.23815 5.41249 6.07411C5.48953 5.91006 5.53194 5.73293 5.53725 5.55299C5.53085 5.37339 5.48771 5.19676 5.41029 5.0332C5.33288 4.86965 5.22271 4.72237 5.08608 4.59981C4.94946 4.47724 4.78906 4.38178 4.61405 4.31889C4.43905 4.256 4.25287 4.22691 4.06617 4.23328C3.69051 4.22256 3.32573 4.35538 3.0516 4.60269C2.77747 4.85 2.61631 5.19168 2.60336 5.55299C2.6087 5.73223 2.65084 5.90869 2.72736 6.0722C2.80389 6.23571 2.91329 6.38304 3.04925 6.5057C3.18522 6.62837 3.34507 6.72395 3.5196 6.78693C3.69413 6.84992 3.87988 6.87907 4.06617 6.8727ZM19.7273 3.62118C20.1029 3.6319 20.4677 3.49908 20.7418 3.25177C21.016 3.00446 21.1771 2.66278 21.1901 2.30147C21.1624 1.94756 20.9966 1.6168 20.7261 1.37546C20.4556 1.13411 20.1003 1 19.7314 1C19.3624 1 19.0071 1.13411 18.7366 1.37546C18.4661 1.6168 18.3004 1.94756 18.2727 2.30147C18.2857 2.66137 18.4457 3.00182 18.718 3.24891C18.9903 3.496 19.353 3.62977 19.7273 3.62118ZM2.34711 8.93982H24.6529C25.3969 8.93982 26 9.52 26 10.2357C26 10.9514 25.3969 11.5315 24.6529 11.5315H2.34711C1.60312 11.5315 1 10.9514 1 10.2357C1 9.52 1.60312 8.93982 2.34711 8.93982ZM2.41335 11.5792H24.5538V13.5429C24.5538 14.9324 23.98 16.265 22.9587 17.2475C21.9373 18.23 20.552 18.782 19.1076 18.782H7.86789C7.15198 18.783 6.44288 18.6483 5.78115 18.3855C5.11942 18.1226 4.51805 17.7369 4.01145 17.2503C3.50484 16.7637 3.10293 16.1858 2.82871 15.5496C2.55449 14.9135 2.41334 14.2316 2.41335 13.5429V11.5792Z" stroke="#151515" stroke-miterlimit="10"/>
</svg>
