<svg width="30" height="30" viewBox="0 0 30 30" fill="none" xmlns="http://www.w3.org/2000/svg">
<g clip-path="url(#clip0_1_3883)">
<path d="M13.0432 1.44817C13.0432 2.24662 13.7345 2.89634 14.5822 2.89634C15.4323 2.89634 16.1227 2.24662 16.1227 1.44817C16.1227 0.649712 15.4323 0 14.5822 0C13.7345 0 13.0432 0.649712 13.0432 1.44817Z" fill="black"/>
<path d="M6.26758 3.17668C6.26758 3.97468 6.95842 4.62439 7.80569 4.62439C8.65622 4.62439 9.34661 3.97468 9.34661 3.17668C9.34661 2.37823 8.65622 1.72852 7.80569 1.72852C6.95842 1.72852 6.26758 2.37823 6.26758 3.17668Z" fill="black"/>
<path d="M19.8193 3.17668C19.8193 3.97468 20.5102 4.62439 21.3584 4.62439C22.208 4.62439 22.8989 3.97468 22.8989 3.17668C22.8989 2.37823 22.208 1.72852 21.3584 1.72852C20.5102 1.72852 19.8193 2.37823 19.8193 3.17668Z" fill="black"/>
<path d="M14.5821 27.0741C12.5408 27.0741 10.6544 26.4435 9.1269 25.3789C8.6659 26.4351 7.9856 27.7149 7.76829 28.1185L7.75629 28.1405C7.65409 28.3304 7.60132 28.5288 7.60132 28.7289C7.60132 29.4301 8.20913 29.9998 8.95421 29.9998H20.2111C20.9566 29.9998 21.5624 29.4301 21.5624 28.7289C21.5624 28.5288 21.5121 28.3304 21.4099 28.1405L21.397 28.1185C21.1811 27.7149 20.5003 26.4351 20.0388 25.3789C18.5113 26.4435 16.6254 27.0741 14.5821 27.0741Z" fill="black"/>
<path d="M0.600166 11.4572C0.356454 11.5076 0.214928 11.6461 0.214928 11.8374C0.214928 11.8903 0.225962 11.9417 0.24899 11.9894L0.510933 12.6055L0.518608 12.6149C0.530123 12.627 0.525805 12.634 0.521967 12.6382C0.36365 12.8061 0.223563 13.0031 0.0738814 13.2697C0.0259065 13.3352 0 13.4114 0 13.4895C0 13.7084 0.154479 13.8525 0.413064 13.874C1.15572 13.9362 1.85759 13.9943 2.23323 14.8783C2.50093 15.5084 2.44048 16.3091 2.38099 17.0847C2.3311 17.7363 2.27881 18.4108 2.42273 18.989C3.08287 21.6561 5.6927 22.2328 6.30342 22.2328C6.31638 22.2328 6.32837 22.2323 6.34036 22.2319C5.74404 21.0878 5.40725 19.8029 5.40725 18.4449C5.40725 17.1109 5.7306 15.8452 6.3087 14.716L6.30726 14.6411L6.2022 14.6697C6.12495 14.6888 6.04724 14.6992 5.97192 14.6992C5.28444 14.6992 4.75288 13.8713 4.49669 13.3778C4.1719 12.7496 3.53239 11.9666 2.71106 11.6536C2.25914 11.4824 1.76692 11.3926 1.28812 11.3926C1.04777 11.3926 0.816054 11.4141 0.600166 11.4572Z" fill="black"/>
<path d="M14.5821 3.39053C14.3839 3.39053 14.1886 3.36341 13.9987 3.31055C13.7334 4.78585 13.1659 6.59513 12.3949 6.75557C12.344 6.76632 12.2912 6.77147 12.2361 6.77147C11.3217 6.77147 9.97932 5.44538 9.23047 4.57957C8.9397 4.84058 8.58085 5.01411 8.18555 5.08427C8.89847 6.56566 9.7567 8.77486 10.1828 10.877C11.4901 10.202 12.9893 9.81796 14.5821 9.81796C16.1767 9.81796 17.675 10.202 18.9828 10.877C19.4088 8.77583 20.2661 6.56612 20.98 5.08427C20.5856 5.01411 20.2263 4.84058 19.9351 4.57957C19.1876 5.44538 17.8453 6.77147 16.9299 6.77147C16.8748 6.77147 16.8205 6.76632 16.7716 6.75557C16.0002 6.59513 15.4326 4.78585 15.1669 3.31055C14.9769 3.36341 14.7812 3.39053 14.5821 3.39053Z" fill="black"/>
<path d="M24.5724 11.8246C23.5923 11.9972 22.6577 12.4945 21.8743 13.2452C22.4898 14.0175 22.9705 14.8885 23.2852 15.8263C23.4128 15.7482 23.5429 15.6434 23.6594 15.497C24.0864 14.967 24.6156 14.6129 25.1126 14.525C25.2047 14.5086 25.2944 14.5016 25.3798 14.5044C26.1287 14.5288 26.6449 15.3754 26.6037 16.5181C26.5413 18.2193 25.3313 19.6123 24.2831 19.7971C24.0245 19.8429 23.801 19.8139 23.6009 19.7096C23.4507 20.6437 23.1408 21.5268 22.7004 22.3356C23.0871 22.4712 23.4973 22.5502 23.917 22.5648C24.215 22.5736 24.5206 22.5508 24.8238 22.4983C27.3554 22.0498 29.4198 19.464 29.5239 16.6121C29.6203 13.9216 27.8817 11.8349 25.4787 11.7577C25.434 11.7563 25.3894 11.7559 25.3448 11.7559C25.0891 11.7559 24.829 11.7788 24.5724 11.8246Z" fill="black"/>
<path d="M20.6958 16.1332V21.4048C20.6958 21.7064 20.4363 21.9511 20.1163 21.9511C19.7972 21.9511 19.5387 21.7064 19.5387 21.4048V17.4522L17.0027 19.849C16.889 19.9562 16.7408 20.0095 16.5911 20.0095C16.4448 20.0095 16.2965 19.9562 16.1838 19.849C15.9598 19.6357 15.9598 19.2896 16.1838 19.0763L19.708 15.7472C19.7344 15.7211 19.7641 15.6982 19.7968 15.678C19.8092 15.6706 19.8241 15.665 19.8351 15.6584C19.8558 15.6476 19.8745 15.6359 19.8956 15.6284C19.9138 15.6215 19.9316 15.6177 19.9493 15.6125C19.9685 15.6074 19.9858 15.6008 20.0026 15.5976C20.0371 15.591 20.0717 15.5882 20.1062 15.5878C20.1105 15.5878 20.1139 15.5859 20.1163 15.5859C20.1215 15.5859 20.1245 15.5878 20.1283 15.5878C20.1628 15.5882 20.1974 15.591 20.2305 15.5976C20.2487 15.6004 20.2655 15.6069 20.2813 15.6121C20.301 15.6173 20.3207 15.621 20.3384 15.6284C20.3576 15.6359 20.3758 15.6462 20.3936 15.6565C20.4094 15.6635 20.4248 15.6696 20.4391 15.6785C20.5011 15.7183 20.5558 15.7697 20.5985 15.83C20.6085 15.8427 20.6133 15.8576 20.621 15.8703C20.632 15.8885 20.6431 15.9049 20.6521 15.9245C20.6584 15.9414 20.6627 15.9592 20.6685 15.977C20.6733 15.9929 20.6805 16.0092 20.6848 16.0261C20.6905 16.0592 20.6944 16.0934 20.6958 16.1266V16.1332ZM15.3625 21.4043C15.3625 21.4408 15.3567 21.4768 15.3524 21.5114C15.3471 21.5278 15.3408 21.5423 15.3365 21.5573C15.3313 21.5765 15.3269 21.5956 15.3193 21.6139C15.3111 21.6317 15.2991 21.648 15.2881 21.6653C15.2799 21.6798 15.2756 21.6938 15.2665 21.7079C15.2439 21.7383 15.2219 21.7645 15.1955 21.7898C15.1936 21.7898 15.1936 21.7916 15.1936 21.7916C15.1917 21.793 15.1888 21.7944 15.1888 21.7944C15.1619 21.8183 15.1346 21.8407 15.1058 21.8594C15.0909 21.8688 15.0751 21.8753 15.0588 21.8823C15.042 21.8921 15.0242 21.902 15.0045 21.9095C14.9858 21.917 14.9667 21.9212 14.9465 21.9272C14.9311 21.9314 14.9148 21.9366 14.8971 21.9408C14.8587 21.9469 14.8228 21.9511 14.7834 21.9511C14.7445 21.9511 14.7085 21.9469 14.6697 21.9408C14.6544 21.9371 14.6405 21.9314 14.6222 21.9272C14.6025 21.9216 14.5824 21.917 14.5627 21.909C14.545 21.902 14.5277 21.8927 14.5109 21.8837C14.4965 21.8758 14.4788 21.8688 14.4629 21.8594C14.437 21.8426 14.4121 21.8225 14.3891 21.8028C14.3847 21.7982 14.3799 21.7958 14.3751 21.7916L9.78199 17.4522V21.4048C9.78199 21.7064 9.52245 21.9511 9.20291 21.9511C8.88491 21.9511 8.62391 21.7064 8.62391 21.4048V16.1332C8.62391 16.0981 8.62968 16.0611 8.63684 16.0261C8.63976 16.0097 8.64691 15.9961 8.65076 15.9797C8.65699 15.9611 8.66176 15.9428 8.66991 15.9245C8.67715 15.9053 8.68868 15.889 8.69776 15.8712C8.70591 15.8582 8.71361 15.8427 8.72176 15.83C8.76545 15.7697 8.81915 15.7183 8.88299 15.6785C8.89591 15.6696 8.9113 15.6635 8.92468 15.657C8.94291 15.6467 8.96261 15.6359 8.9823 15.6284C9.00099 15.621 9.02068 15.6173 9.03791 15.6121C9.05522 15.6069 9.07291 15.6008 9.09022 15.5976C9.1233 15.591 9.15884 15.5882 9.19384 15.5878C9.19576 15.5878 9.20007 15.5859 9.20291 15.5859C9.20676 15.5859 9.21015 15.5878 9.21299 15.5878C9.24945 15.5882 9.28307 15.591 9.31522 15.5976C9.33491 15.6008 9.35215 15.6074 9.3723 15.6125C9.38815 15.6177 9.40684 15.6215 9.42461 15.6284C9.44568 15.6374 9.4663 15.6481 9.48453 15.6584C9.49845 15.6659 9.51191 15.6706 9.52391 15.678C9.55607 15.6982 9.5853 15.7215 9.61315 15.7472L14.2058 20.0857V16.1332C14.2058 15.831 14.4658 15.5859 14.7834 15.5859C15.1038 15.5859 15.3625 15.831 15.3625 16.1332V21.4043ZM14.5824 10.2773C9.79353 10.2773 5.89844 13.9422 5.89844 18.4453C5.89844 22.9484 9.79353 26.6128 14.5824 26.6128C19.3722 26.6128 23.2678 22.9484 23.2678 18.4453C23.2678 13.9422 19.3722 10.2773 14.5824 10.2773Z" fill="black"/>
</g>
<defs>
<clipPath id="clip0_1_3883">
<rect width="30" height="30" fill="white"/>
</clipPath>
</defs>
</svg>
