<svg width="32" height="24" viewBox="0 0 32 24" fill="none" xmlns="http://www.w3.org/2000/svg">
<path d="M16.5543 7.74726V3.06379C16.5543 1.85414 15.7021 1 14.4951 1H3.05518C1.85154 1 1 1.85747 1 3.07045V14.5964C1 15.812 1.84889 16.6722 3.04792 16.6722H10.3147M7.52559 10.2857V14.6237C7.52559 14.9352 7.45953 15.0045 7.15168 15.0051H5.72012C5.42614 15.0051 5.35744 14.9339 5.35744 14.633V3.7495C5.35744 3.46057 5.42879 3.38801 5.71417 3.38801C6.90329 3.38801 8.08711 3.38268 9.27359 3.38801C11.0143 3.39799 12.3831 4.54506 12.7048 6.25068C13.0536 8.1001 11.7172 9.98215 9.86814 10.2385C9.65717 10.2659 9.44468 10.2796 9.23197 10.2797C8.67176 10.2884 8.11354 10.2857 7.52559 10.2857ZM7.05469 6.84289V5.43352C7.05469 5.16722 7.12802 5.09466 7.39491 5.09466H9.39724C10.3162 5.09466 11.0237 5.77504 11.0957 6.71839C11.1677 7.66174 10.5487 8.46063 9.6496 8.60044C9.55254 8.61252 9.45469 8.61697 9.35695 8.61375H7.44115C7.11084 8.61375 7.05535 8.55716 7.05535 8.21431C7.05447 7.75805 7.05425 7.30092 7.05469 6.84289ZM12.1268 14.8054H29.1945C29.6734 14.8054 30.1326 14.9971 30.4712 15.3383C30.8098 15.6795 31 16.1423 31 16.6249V20.3164H10.3226V16.6249C10.3226 16.1423 10.5129 15.6795 10.8515 15.3383C11.19 14.9971 11.6493 14.8054 12.1281 14.8054H12.1268ZM11.8308 20.3191H15.3625V22.1512C15.3628 22.2625 15.3412 22.3728 15.2992 22.4757C15.2571 22.5786 15.1953 22.6722 15.1173 22.751C15.0393 22.8299 14.9467 22.8924 14.8447 22.9352C14.7427 22.9779 14.6333 22.9999 14.5229 23H12.6731C12.4503 23 12.2365 22.9108 12.0789 22.752C11.9214 22.5932 11.8328 22.3778 11.8328 22.1532V20.3191H11.8308ZM29.4898 20.3191V22.1512C29.4901 22.2628 29.4685 22.3733 29.4262 22.4765C29.3839 22.5796 29.3218 22.6733 29.2435 22.7522C29.1651 22.8311 29.0721 22.8936 28.9697 22.9361C28.8673 22.9786 28.7576 23.0003 28.6469 23H26.7971C26.5743 23 26.3606 22.9108 26.203 22.752C26.0454 22.5932 25.9568 22.3778 25.9568 22.1532V20.3191H29.4898ZM28.9111 14.8101H12.4102L14.7514 7.74926H26.2502L28.9111 14.8101ZM29.2084 17.5815C29.2084 18.4059 28.5453 19.0741 27.7273 19.0741C26.9093 19.0741 26.2462 18.4059 26.2462 17.5815C26.2462 16.7572 26.9093 16.089 27.7273 16.089C28.5453 16.089 29.2084 16.7572 29.2084 17.5815ZM15.089 17.5815C15.089 18.4059 14.4259 19.0741 13.6079 19.0741C12.7899 19.0741 12.1268 18.4059 12.1268 17.5815C12.1268 16.7572 12.7899 16.089 13.6079 16.089C14.4259 16.089 15.089 16.7572 15.089 17.5815Z" stroke="black" stroke-miterlimit="10"/>
</svg>
