<svg width="37" height="38" viewBox="0 0 37 38" fill="none" xmlns="http://www.w3.org/2000/svg">
<path d="M8.93039 4.53336H28.1226M31.3609 4.55253H32.9234C34.7681 4.57781 36 5.90155 36 7.87452C36 16.4862 35.996 25.0977 35.9881 33.7088C35.99 34.2274 35.8877 34.7416 35.6868 35.2234C35.1507 36.4434 34.1781 36.9951 32.9325 36.9977C30.5179 37.0029 28.1034 36.9977 25.6889 36.9977C18.5049 36.9977 11.3188 36.9977 4.13051 36.9977C3.3424 36.9977 2.62918 36.7885 2.01641 36.2282C1.43287 35.694 1.15251 34.9968 1.00183 34.2186V7.78738C1.00183 7.63661 1.01004 7.21396 1.01644 7.16777C1.19908 5.79349 2.36435 4.66931 3.67208 4.58914C3.93965 4.57258 5.6081 4.60656 5.6081 4.60656M1 12.2H35.9763M8.90116 4.58478C8.90116 3.62618 8.90664 2.66758 8.90116 1.70898C8.90116 1.22532 8.68199 1.01181 8.21168 1.0031C7.92767 0.996127 6.72953 1.0031 6.44552 1.0031C5.87111 1.0031 5.66107 1.21399 5.65833 1.79525C5.65833 2.5691 5.65833 3.34383 5.65833 4.11855C5.65833 5.17069 5.65833 6.22282 5.65833 7.27496C5.65833 7.92681 5.84736 8.1133 6.49575 8.11679C6.7341 8.11679 7.88658 8.11679 8.12584 8.11679C8.71852 8.10981 8.90208 7.92768 8.9039 7.33248C8.91121 6.41048 8.90847 5.49719 8.90847 4.58391L8.90116 4.58478ZM31.3444 4.58478C31.3444 3.62618 31.3499 2.66758 31.3444 1.70898C31.3444 1.22532 31.1252 1.01181 30.6549 1.0031C30.3709 0.996127 29.1728 1.0031 28.8888 1.0031C28.3144 1.0031 28.1043 1.21399 28.1016 1.79525C28.1016 2.5691 28.1016 3.34383 28.1016 4.11855C28.1016 5.17069 28.1016 6.22282 28.1016 7.27496C28.1016 7.92681 28.2906 8.1133 28.939 8.11679C29.1773 8.11679 30.3298 8.11679 30.5691 8.11679C31.1618 8.10981 31.3453 7.92768 31.3472 7.33248C31.3545 6.41048 31.3517 5.49719 31.3517 4.58391L31.3444 4.58478ZM30.1517 18.7833C29.6796 18.7833 29.2066 18.7833 28.7335 18.7833C28.3427 18.779 28.1445 18.6003 28.1399 18.2195C28.1308 17.4491 28.1308 16.6788 28.1399 15.9084C28.1399 15.5267 28.3326 15.3376 28.7253 15.3332C29.6805 15.3234 30.6361 15.3234 31.5919 15.3332C31.9937 15.3332 32.1745 15.5136 32.1791 15.8997C32.1894 16.6701 32.1894 17.4407 32.1791 18.2117C32.1745 18.6151 31.9901 18.7799 31.57 18.7833C31.0978 18.7868 30.6248 18.7833 30.1517 18.7833ZM30.1517 25.6417C29.6796 25.6417 29.2066 25.646 28.7335 25.6417C28.3427 25.6373 28.1445 25.4587 28.1399 25.0779C28.1308 24.3075 28.1308 23.5371 28.1399 22.7668C28.1399 22.3851 28.3326 22.196 28.7253 22.1916C29.6805 22.1823 30.6361 22.1823 31.5919 22.1916C31.9937 22.1916 32.1745 22.372 32.1791 22.758C32.1894 23.5284 32.1894 24.2991 32.1791 25.07C32.1745 25.4735 31.9901 25.6382 31.57 25.6417C31.0978 25.6452 30.6248 25.6417 30.1517 25.6417ZM30.1517 32.7917C29.6796 32.7917 29.2066 32.796 28.7335 32.7917C28.3427 32.7917 28.1445 32.6087 28.1399 32.2278C28.1308 31.4575 28.1308 30.6871 28.1399 29.9167C28.1399 29.535 28.3326 29.3459 28.7253 29.3416C29.6805 29.3323 30.6361 29.3323 31.5919 29.3416C31.9937 29.3416 32.1745 29.522 32.1791 29.908C32.1894 30.6784 32.1894 31.449 32.1791 32.22C32.1745 32.6235 31.9901 32.7882 31.57 32.7917C31.0978 32.7952 30.6248 32.7917 30.1517 32.7917ZM22.8533 18.7833C22.3812 18.7833 21.9081 18.7833 21.4351 18.7833C21.0442 18.779 20.8461 18.6003 20.8415 18.2195C20.8324 17.4491 20.8324 16.6788 20.8415 15.9084C20.8415 15.5267 21.0342 15.3376 21.4269 15.3332C22.3821 15.3234 23.3376 15.3234 24.2935 15.3332C24.6953 15.3332 24.8761 15.5136 24.8807 15.8997C24.891 16.6701 24.891 17.4407 24.8807 18.2117C24.8807 18.6151 24.6916 18.7799 24.2715 18.7833C23.7994 18.7868 23.3264 18.7833 22.8533 18.7833ZM22.8533 25.6417C22.3812 25.6417 21.9081 25.646 21.4351 25.6417C21.0442 25.6373 20.8461 25.4587 20.8415 25.0779C20.8324 24.3075 20.8324 23.5371 20.8415 22.7668C20.8415 22.3851 21.0342 22.196 21.4269 22.1916C22.3821 22.1823 23.3376 22.1823 24.2935 22.1916C24.6953 22.1916 24.8761 22.372 24.8807 22.758C24.891 23.5284 24.891 24.2991 24.8807 25.07C24.8807 25.4735 24.6916 25.6382 24.2715 25.6417C23.7994 25.6452 23.3264 25.6417 22.8533 25.6417ZM14.5686 18.7833C14.0964 18.7833 13.6234 18.7833 13.1504 18.7833C12.7595 18.779 12.5613 18.6003 12.5568 18.2195C12.5476 17.4491 12.5476 16.6788 12.5568 15.9084C12.5568 15.5267 12.7495 15.3376 13.1421 15.3332C14.0974 15.3234 15.0529 15.3234 16.0087 15.3332C16.4105 15.3332 16.5914 15.5136 16.5959 15.8997C16.6063 16.6701 16.6063 17.4407 16.5959 18.2117C16.5914 18.6151 16.4069 18.7799 15.9868 18.7833C15.5147 18.7868 15.0416 18.7833 14.5686 18.7833ZM14.5686 25.6417C14.0964 25.6417 13.6234 25.646 13.1504 25.6417C12.7595 25.6373 12.5613 25.4587 12.5568 25.0779C12.5476 24.3075 12.5476 23.5371 12.5568 22.7668C12.5568 22.3851 12.7495 22.196 13.1421 22.1916C14.0974 22.1823 15.0529 22.1823 16.0087 22.1916C16.4105 22.1916 16.5914 22.372 16.5959 22.758C16.6063 23.5284 16.6063 24.2991 16.5959 25.07C16.5914 25.4735 16.4069 25.6382 15.9868 25.6417C15.5147 25.6452 15.0416 25.6417 14.5686 25.6417ZM14.5686 32.7917C14.0964 32.7917 13.6234 32.796 13.1504 32.7917C12.7595 32.7917 12.5613 32.6087 12.5568 32.2278C12.5476 31.4575 12.5476 30.6871 12.5568 29.9167C12.5568 29.535 12.7495 29.3459 13.1421 29.3416C14.0974 29.3323 15.0529 29.3323 16.0087 29.3416C16.4105 29.3416 16.5914 29.522 16.5959 29.908C16.6063 30.6784 16.6063 31.449 16.5959 32.22C16.5914 32.6235 16.4069 32.7882 15.9868 32.7917C15.5147 32.7952 15.0416 32.7917 14.5686 32.7917ZM6.83729 18.7833C6.36515 18.7833 5.89211 18.7833 5.41906 18.7833C5.0282 18.779 4.83003 18.6003 4.82547 18.2195C4.81634 17.4491 4.81634 16.6788 4.82547 15.9084C4.82547 15.5267 5.01815 15.3376 5.41084 15.3332C6.36606 15.3234 7.3216 15.3234 8.27743 15.3332C8.67925 15.3332 8.86006 15.5136 8.86463 15.8997C8.87498 16.6701 8.87498 17.4407 8.86463 18.2117C8.86006 18.6151 8.67559 18.7799 8.25551 18.7833C7.78338 18.7868 7.31033 18.7833 6.83729 18.7833ZM6.83729 25.6417C6.36515 25.6417 5.89211 25.646 5.41906 25.6417C5.0282 25.6373 4.83003 25.4587 4.82547 25.0779C4.81634 24.3075 4.81634 23.5371 4.82547 22.7668C4.82547 22.3851 5.01815 22.196 5.41084 22.1916C6.36606 22.1823 7.3216 22.1823 8.27743 22.1916C8.67925 22.1916 8.86006 22.372 8.86463 22.758C8.87498 23.5284 8.87498 24.2991 8.86463 25.07C8.86006 25.4735 8.67559 25.6382 8.25551 25.6417C7.78338 25.6452 7.31033 25.6417 6.83729 25.6417ZM6.83729 32.7917C6.36515 32.7917 5.89211 32.796 5.41906 32.7917C5.0282 32.7917 4.83003 32.6087 4.82547 32.2278C4.81634 31.4575 4.81634 30.6871 4.82547 29.9167C4.82547 29.535 5.01815 29.3459 5.41084 29.3416C6.36606 29.3323 7.3216 29.3323 8.27743 29.3416C8.67925 29.3416 8.86006 29.522 8.86463 29.908C8.87498 30.6784 8.87498 31.449 8.86463 32.22C8.86006 32.6235 8.67559 32.7882 8.25551 32.7917C7.78338 32.7952 7.31033 32.7917 6.83729 32.7917ZM24.1015 29.2265L22.1335 31.4748C22.1162 31.4946 22.0947 31.5106 22.0704 31.5219C22.0461 31.5332 22.0196 31.5394 21.9926 31.5402C21.9657 31.541 21.9388 31.5364 21.9138 31.5267C21.8888 31.5169 21.8663 31.5022 21.8477 31.4836L20.7399 30.3777C20.4468 30.6574 20.1847 30.9075 19.9272 31.155C20.5089 31.7232 21.0742 32.301 21.6714 32.8474C21.9454 33.0966 22.265 33.0417 22.5381 32.7489C22.781 32.4875 23.0075 32.2182 23.2394 31.9515L25.0257 29.9045L24.1015 29.2265Z" stroke="#722839" stroke-width="2" stroke-miterlimit="10"/>
</svg>
