<svg width="32" height="22" viewBox="0 0 32 22" fill="none" xmlns="http://www.w3.org/2000/svg">
<path d="M6.5849 5.18658V18.8551M8.60501 5.37964V18.8551M14.7251 8.0415V18.8551M16.7455 9.62787V18.8551M23.39 14.191V18.8552M25.4101 14.8376V18.8551M1 5.2298C7.43403 4.98971 8.99338 5.12635 12.3326 6.60597C15.1871 7.87477 17.9234 10.6661 17.9234 10.6661C20.8654 13.4505 24.7652 15.046 28.8487 15.1362L31 15.185M1.00195 18.8551H30.992M30.995 21H1V1.09581C7.43403 0.852204 8.99338 0.990841 12.3326 2.49207C15.1871 3.77941 17.9234 6.61155 17.9234 6.61155C20.8654 9.43654 24.7652 11.0554 28.8487 11.1469L31 11.1964L30.995 21Z" stroke="#151515" stroke-miterlimit="10"/>
</svg>
