<svg width="45" height="41" viewBox="0 0 45 41" fill="none" xmlns="http://www.w3.org/2000/svg">
<path d="M17.6759 1V0H16.6759V1H17.6759ZM41.123 1H42.123V0H41.123V1ZM29.1792 25.1529L28.4051 24.5198L28.1792 24.796V25.1529H29.1792ZM36.5888 16.0934L37.3629 15.4603L36.5888 14.5139L35.8148 15.4603L36.5888 16.0934ZM43.9985 25.1529L44.9985 25.1528L44.9985 24.796L44.7726 24.5198L43.9985 25.1529ZM44 40V41H45.0001L45 39.9999L44 40ZM4.29651 9.69784V8.69784H3.29651V9.69784H4.29651ZM24.1364 9.69784H25.1364V8.69784H24.1364V9.69784ZM24.1364 40V41H25.1364V40H24.1364ZM4.29651 40H3.29651V41H4.29651V40ZM9.98355 22.5576C9.98355 22.0053 9.53584 21.5576 8.98355 21.5576C8.43127 21.5576 7.98355 22.0053 7.98355 22.5576H9.98355ZM7.98355 39.9766C7.98355 40.5289 8.43127 40.9766 8.98355 40.9766C9.53584 40.9766 9.98355 40.5289 9.98355 39.9766H7.98355ZM14.002 25.9519C14.4304 25.6034 14.4952 24.9735 14.1466 24.5451C13.798 24.1167 13.1682 24.052 12.7398 24.4006L14.002 25.9519ZM8.98955 28.7411L8.35824 29.5167C8.72584 29.8159 9.25301 29.816 9.62067 29.5168L8.98955 28.7411ZM5.01173 24.2137C4.58341 23.865 3.95355 23.9296 3.60489 24.3579C3.25623 24.7862 3.3208 25.4161 3.74912 25.7647L5.01173 24.2137ZM11.1855 31.3499C10.6574 31.5116 10.3605 32.0709 10.5223 32.5989C10.6841 33.127 11.2433 33.4239 11.7713 33.2621L11.1855 31.3499ZM6.31452 33.2103C6.83978 33.381 7.40393 33.0935 7.57461 32.5683C7.74528 32.043 7.45783 31.4788 6.93258 31.3082L6.31452 33.2103ZM18.6759 9.67914V1H16.6759V9.67914H18.6759ZM17.6759 2H41.123V0H17.6759V2ZM40.123 1V21.6504H42.123V1H40.123ZM30.1792 39.9813V25.1529H28.1792V39.9813H30.1792ZM42.9985 25.153L43 40.0001L45 39.9999L44.9985 25.1528L42.9985 25.153ZM5.29651 17.8719V9.69784H3.29651V17.8719H5.29651ZM4.29651 10.6978H24.1364V8.69784H4.29651V10.6978ZM23.1364 9.69784V40H25.1364V9.69784H23.1364ZM24.1364 39H4.29651V41H24.1364V39ZM5.29651 40V31.0496H3.29651V40H5.29651ZM7.98355 22.5576V39.9766H9.98355V22.5576H7.98355ZM12.7398 24.4006L8.35842 27.9654L9.62067 29.5168L14.002 25.9519L12.7398 24.4006ZM9.62085 27.9656L5.01173 24.2137L3.74912 25.7647L8.35824 29.5167L9.62085 27.9656ZM11.7713 33.2621C15.5169 32.1146 18.2368 28.6081 18.2368 24.4655H16.2368C16.2368 27.7144 14.1049 30.4554 11.1855 31.3499L11.7713 33.2621ZM18.2368 24.4655C18.2368 19.4017 14.1628 15.2727 9.11841 15.2727V17.2727C13.0405 17.2727 16.2368 20.4884 16.2368 24.4655H18.2368ZM9.11841 15.2727C4.07459 15.2727 0 19.3933 0 24.4655H2C2 20.4813 5.19571 17.2727 9.11841 17.2727V15.2727ZM0 24.4655C0 28.5524 2.64792 32.0189 6.31452 33.2103L6.93258 31.3082C4.07509 30.3797 2 27.6704 2 24.4655H0ZM29.9533 25.786L37.3629 16.7265L35.8148 15.4603L28.4051 24.5198L29.9533 25.786ZM35.8148 16.7265L43.2244 25.786L44.7726 24.5198L37.3629 15.4603L35.8148 16.7265ZM44 39H12.9648V41H44V39Z" fill="#722839"/>
</svg>
