<svg width="24" height="22" viewBox="0 0 24 22" fill="none" xmlns="http://www.w3.org/2000/svg">
<path d="M13.0888 20.9402C13.451 20.7719 13.7672 20.5309 14.0142 20.2352C14.2612 19.9396 14.4327 19.5967 14.5158 19.232C14.5779 18.8627 14.5873 18.4875 14.5437 18.116C14.4285 17.2977 14.082 16.5214 13.5386 15.8641C13.3959 16.1488 13.489 17.0655 13.3618 17.3217C13.2656 17.5096 13.1354 17.652 12.912 17.5865C12.6887 17.521 12.6794 17.3416 12.6483 17.1452C12.5274 16.3964 12.394 16.2114 12.2265 15.4769C12.086 15.0605 11.9076 14.6557 11.6929 14.2669C11.6929 14.2669 11.2741 15.121 11.1221 15.5281C10.8319 16.2352 10.7195 16.9933 10.7933 17.7459C10.7933 18.1673 10.5482 18.3381 10.2101 18.1132C9.95603 17.9104 9.71666 17.6926 9.49351 17.4612C9.35702 18.4235 9.38494 19.3886 10.0085 20.2114C10.1805 20.4396 10.3898 20.6422 10.6289 20.8121M6.82262 20.6868V16.5388C6.82262 13.8114 9.13987 11.5993 12 11.5993C14.857 11.5993 17.1743 13.8114 17.1743 16.5388V20.6868M2.76819 8.72954H21.2318V21H2.76819V8.72954ZM1 6.09893H23V8.68683H1V6.09893ZM18.7005 5.99644H5.29949L7.16074 1H16.8393L18.7005 5.99644Z" stroke="black" stroke-miterlimit="10"/>
</svg>
