<svg width="44" height="41" viewBox="0 0 44 41" fill="none" xmlns="http://www.w3.org/2000/svg">
<path d="M14.2947 24.365H10.9608L2 40H22H42L33.0392 24.365H29.7477M22.0151 1C15.5048 1 10.2287 5.6827 10.2287 12.2033C10.2287 22.7151 22.0212 33.8335 22.0212 33.8335C22.0212 33.8335 33.8076 22.7151 33.8076 12.2033C33.7894 5.6827 28.5194 1 22.0151 1ZM22.0151 17.4501C21.1427 17.4501 20.29 17.1908 19.5646 16.7049C18.8393 16.219 18.2739 15.5284 17.94 14.7204C17.6062 13.9124 17.5189 13.0233 17.6891 12.1656C17.8593 11.3078 18.2793 10.5199 18.8962 9.90149C19.5131 9.28308 20.299 8.86194 21.1546 8.69132C22.0102 8.5207 22.8971 8.60827 23.7031 8.94296C24.5091 9.27764 25.1979 9.84439 25.6826 10.5716C26.1673 11.2987 26.426 12.1537 26.426 13.0282C26.426 13.6089 26.3119 14.1839 26.0902 14.7204C25.8686 15.2569 25.5436 15.7444 25.134 16.155C24.7245 16.5656 24.2382 16.8913 23.7031 17.1135C23.168 17.3357 22.5944 17.4501 22.0151 17.4501Z" stroke="#722839" stroke-width="2" stroke-miterlimit="10"/>
</svg>
