<svg width="52" height="50" viewBox="0 0 52 50" fill="none" xmlns="http://www.w3.org/2000/svg">
<g clip-path="url(#clip0_1_1959)">
<path d="M38.353 24.8243C38.3483 25.0258 38.3483 25.2133 38.3609 25.4149C38.3752 25.6321 38.4068 25.7196 38.4542 25.9196C38.4573 25.9227 38.6185 26.2789 38.6485 26.3336C39.0071 26.9727 39.4273 27.2383 39.5158 27.3805C39.4716 27.4774 38.4715 28.6274 38.323 28.6977C38.3594 28.518 38.4257 28.4368 38.4826 28.068C38.6706 26.8618 38.3546 26.1118 38.3594 25.9493C38.3309 25.9196 38.2077 25.4321 38.1334 25.3102C38.0023 25.3008 37.7385 25.5493 37.6279 25.6196C37.6121 25.6414 37.5299 25.7086 37.4999 25.7164C37.4762 25.7586 37.2313 25.9711 37.1729 26.0274C37.116 26.0821 37.0702 26.1305 37.0102 26.1836C36.9501 26.2368 36.917 26.3086 36.8459 26.3539C36.838 26.393 36.6452 26.618 36.6026 26.6805C36.4367 26.9227 36.3119 27.1321 36.2029 27.4055C36.1381 27.5649 36.1254 27.6727 36.0796 27.8321C36.0101 28.5602 36.0385 29.0649 36.4019 29.7086C36.4556 29.8039 36.6831 30.1368 36.6942 30.193C36.582 30.2711 36.4462 30.3883 36.3308 30.4774C36.1728 30.5977 35.2881 31.2368 35.1665 31.2852C35.1917 31.2196 35.3197 31.0336 35.3639 30.9586C35.5662 30.6258 35.7163 30.193 35.7968 29.8164C35.9027 29.3243 35.9738 28.3539 35.8426 27.8789C35.642 27.8743 34.7968 28.3805 34.5914 28.5133C34.2375 28.7414 33.8425 29.0758 33.5819 29.4024C33.288 29.7711 33.0194 30.2289 32.9973 30.7102C32.9847 30.9852 32.9799 31.3758 33.0115 31.6461C33.04 31.8883 33.1916 32.1899 33.2011 32.3852C33.0921 32.4789 31.6686 33.1133 31.5249 33.1368C31.5565 33.0461 31.735 32.9055 31.8061 32.8196C31.8962 32.7102 31.9767 32.618 32.0652 32.5039C32.3922 32.0805 32.6624 31.4461 32.8062 30.9368C32.8504 30.7805 33.021 30.1133 32.9878 29.9946C32.8172 29.9258 31.716 30.3149 31.4996 30.4102C31.0715 30.5993 30.6449 30.8211 30.2847 31.1196C29.9166 31.4243 29.6527 31.7852 29.4695 32.2258C29.1219 33.0664 29.3147 33.7477 29.2815 33.8899C29.2657 33.9227 29.2673 33.9133 29.223 33.9305C28.3968 34.2399 27.294 34.368 27.0681 34.4508C27.0523 34.5758 27.1913 35.2305 27.2624 35.3368C27.5326 35.3243 29.0034 34.8149 29.4094 34.6383C29.4884 34.6039 29.6148 34.5305 29.6875 34.5118C29.7744 34.6008 29.8218 34.668 29.9213 34.7555C30.1267 34.9368 30.5422 35.2055 30.7808 35.318C31.3906 35.6024 31.7176 35.6149 32.3827 35.6196C33.1679 35.6243 33.3781 35.6555 34.1332 35.4633C34.2707 35.4274 35.5741 35.0602 35.5646 34.9821C35.4666 34.9086 35.3766 34.818 35.2771 34.743C34.6277 34.2477 34.0242 33.9227 33.2375 33.6914C33.1 33.6508 32.9531 33.6352 32.8251 33.5993C32.7366 33.5899 32.5944 33.5821 32.5249 33.5399C32.5581 33.4852 32.7351 33.3977 32.8014 33.3789C32.8836 33.3071 33.4365 33.0758 33.5787 33.0071C33.8046 32.8977 33.7493 32.9039 33.9531 33.0336C35.1996 33.8243 36.8301 33.7039 38.1271 33.1118C38.3357 33.0164 39.5569 32.4383 39.5901 32.2774C39.4589 32.1071 38.3736 31.7149 38.124 31.6477C37.2945 31.4258 37.0497 31.4539 36.2218 31.4414C36.2692 31.3883 36.7669 31.0289 36.8743 30.9461C36.9817 30.8633 37.0923 30.7774 37.2013 30.6961C37.3972 30.5493 37.353 30.5946 37.5916 30.6774C38.2583 30.9102 38.9028 30.9711 39.6027 30.8539C40.4306 30.7164 41.29 30.2743 41.952 29.7571L42.5602 29.2336C42.6092 29.143 42.8446 28.9789 42.873 28.8758L42.8146 28.8321C42.7624 28.8289 41.9283 28.5664 41.0846 28.5211C40.6186 28.4961 40.1414 28.5164 39.6849 28.6211C39.6027 28.6399 39.3563 28.7211 39.2946 28.7211C39.3831 28.6352 39.4921 28.4914 39.5774 28.3946C40.3595 27.4977 40.0324 27.6461 40.6344 27.7149C42.0057 27.8696 43.2364 27.3414 44.1796 26.3602C44.347 26.1868 45.2649 25.1133 45.2239 24.9477C45.0122 24.8321 43.7356 24.8899 43.4434 24.9258C43.0879 24.9711 42.6424 25.0743 42.3027 25.1977C42.2348 25.2227 42.0152 25.3196 41.9662 25.3243L41.606 25.5383L41.7181 25.2977C41.8493 25.0368 41.9899 24.7743 42.1147 24.5118C42.23 24.268 42.1668 24.268 42.4465 24.243C42.6281 24.2258 42.8067 24.2211 42.9884 24.1977C44.2428 24.0336 45.1765 23.3602 45.8147 22.293C45.9696 22.0336 46.0928 21.7821 46.2128 21.5055C46.2729 21.368 46.5462 20.7602 46.5114 20.6539C46.2397 20.6133 45.0201 20.893 44.7167 20.9993C44.3249 21.1368 43.9742 21.2899 43.625 21.5149C43.5761 21.5461 43.3501 21.7274 43.3249 21.7274C43.298 21.7743 43.1621 21.8868 43.1053 21.893C43.1084 21.8477 43.17 21.6211 43.1922 21.5961L43.426 20.5493C44.426 20.3274 45.2065 20.018 45.8131 19.1602C46.3945 18.3383 46.6789 17.2493 46.66 16.2508C46.265 16.2977 45.3202 16.7211 44.9679 16.9368C44.7041 17.0977 44.5177 17.2477 44.2807 17.4383C44.0832 17.5977 43.7435 18.0305 43.7104 18.0477C43.7009 17.4883 43.7183 17.2696 43.674 16.6789C43.802 16.6446 44.1622 16.4586 44.2902 16.3883C44.8779 16.0618 45.3013 15.6039 45.573 14.9914C45.9617 14.1164 45.9522 12.8227 45.7168 11.9086C45.5809 11.9305 45.1464 12.2133 45.009 12.3024C44.524 12.618 43.9284 13.1211 43.6171 13.6164C43.5934 13.6539 43.4291 13.9446 43.426 13.9477L43.3091 14.2258L43.2506 14.0571L42.9662 13.2055C42.9362 13.1258 42.8825 13.0055 42.8651 12.9258C42.9252 12.8664 43.0563 12.7899 43.1321 12.7368C43.3707 12.5649 43.6487 12.3039 43.8162 12.0618C44.1101 11.643 44.2744 11.2836 44.3154 10.7696C44.3628 10.1727 44.336 9.71801 44.1875 9.13988C44.1022 8.81488 43.8494 8.14457 43.6756 7.8602C43.5745 7.89926 43.1479 8.3102 43.0563 8.41176C42.674 8.82895 42.3327 9.24926 42.1163 9.78207C41.9014 10.3055 41.982 10.3602 41.8951 10.7071C41.6771 10.3602 41.4417 9.79926 41.162 9.36176C41.2031 9.29613 41.3216 9.17895 41.3801 9.11488C41.9867 8.4602 42.14 7.49613 41.9567 6.64613C41.8588 6.19145 41.6628 5.75863 41.4243 5.35863C41.309 5.16488 40.816 4.39145 40.6533 4.30707C40.4795 4.38363 40.023 5.24613 39.9282 5.45238C39.8144 5.69613 39.7449 5.87113 39.6833 6.1352C39.5853 6.55238 39.6169 6.59613 39.5901 6.97113C39.5316 6.91645 39.4447 6.79457 39.3958 6.73207C39.3357 6.65238 39.2678 6.57113 39.2062 6.49457C39.1414 6.41488 39.0766 6.33832 39.0134 6.2602C38.9676 6.20238 38.8681 6.0727 38.8223 6.02895C38.9297 5.79613 39.1367 5.66332 39.3373 5.13832C39.7591 4.03363 39.342 2.87113 38.658 1.9602C38.4763 1.71801 38.2346 1.40082 38.015 1.19613C37.8048 1.00082 37.7685 1.14613 37.6595 1.34926C37.135 2.31801 36.9011 3.02582 37.0734 4.15082C36.9896 4.11957 36.8522 3.98832 36.7858 3.92113C36.6594 3.79613 36.6263 3.76176 36.6073 3.58676C36.5836 3.36176 36.4477 3.03051 36.3371 2.83051C36.0701 2.34926 35.8 2.08676 35.345 1.77895C34.9374 1.50238 34.4239 1.25551 33.9531 1.1102C33.4539 0.957071 32.7493 0.774258 32.2327 0.777383C32.4159 1.72113 32.9768 2.8977 33.7999 3.45238C34.2486 3.75395 34.7952 3.95863 35.3324 4.04301C35.9627 4.14145 35.7352 3.92582 36.1491 4.29613L36.6942 4.80707C36.5852 4.78988 36.3909 4.71645 36.2771 4.68051C35.8458 4.54613 35.3529 4.47426 34.9042 4.44613C34.6151 4.42895 33.0842 4.4227 32.9088 4.56332C32.8662 4.68988 33.1916 5.06332 33.2817 5.17113C33.7683 5.75707 34.2233 6.17895 34.939 6.51488C35.4556 6.75863 36.0575 6.86332 36.6278 6.8477C37.5363 6.81957 37.9265 6.56488 38.3135 6.5227C38.4542 6.6602 39.5616 8.1102 39.5901 8.21488C39.3831 8.16332 39.0861 7.76488 37.7574 7.47738C37.3735 7.39457 35.6799 7.20551 35.4034 7.37113C35.4129 7.51645 35.7684 8.00863 35.8695 8.15238C36.3893 8.90395 37.1097 9.50238 37.9913 9.78988C38.6801 10.0149 39.5379 9.98832 40.2457 9.85707C40.3263 9.84144 40.4369 9.80707 40.5096 9.7977C40.6012 9.7852 40.6344 9.87269 40.6802 9.94301C40.8081 10.1399 41.2979 11.043 41.3169 11.1711C41.2189 11.1196 41.0657 10.9883 40.9582 10.9211C40.5348 10.6539 40.2252 10.4899 39.7402 10.3118C39.4258 10.1961 39.1209 10.1149 38.7938 10.043C38.5916 9.99769 37.936 9.83988 37.7685 9.8602C37.7574 10.093 38.154 11.0508 38.2867 11.2868C38.7701 12.1399 39.4763 12.7602 40.44 13.0524C40.9977 13.2211 41.6613 13.2102 42.2427 13.2211C42.2932 13.3664 42.3501 13.4977 42.3975 13.6493C42.437 13.7789 42.7703 14.8789 42.7514 14.9836L42.7466 14.9946C42.7466 14.9946 42.7451 15.0008 42.7419 15.0039C42.6629 14.7555 42.3059 14.4243 42.1226 14.2368C41.7039 13.8071 40.9914 13.4102 40.4543 13.1493C40.2994 13.0743 39.598 12.7727 39.4668 12.7758C39.3578 13.0227 39.5601 14.1493 39.6517 14.4414C39.8049 14.9368 40.023 15.2696 40.3437 15.668C40.8461 16.2946 41.7971 16.6696 42.5823 16.8008C42.6913 16.8196 42.8999 16.8368 42.9931 16.8696C43.0705 17.2274 43.0342 18.2821 42.9947 18.6727C42.8367 18.4696 42.9204 18.0586 41.9204 17.0524C41.6881 16.818 40.5996 15.9414 40.3468 15.943C40.2268 16.1071 40.1683 16.7118 40.1478 16.9289C40.0561 17.9118 40.2331 18.8524 40.9851 19.5727C41.4417 20.0102 41.8809 20.2258 42.4638 20.4602C42.6977 20.5555 42.734 20.5399 42.674 20.8008C42.6171 21.0399 42.369 22.0899 42.2885 22.1774C42.2427 22.068 42.2253 21.8149 42.181 21.6649C42.0657 21.2664 41.8208 20.7633 41.5807 20.4336C41.418 20.2118 40.6186 19.2024 40.41 19.1446C40.2347 19.3446 39.9218 20.1868 39.8492 20.4633C39.7101 20.9993 39.6596 21.5711 39.8097 22.1102C40.0198 22.868 40.4116 23.2805 40.9977 23.7477C41.1462 23.8664 41.5096 24.0789 41.5523 24.1227C41.4954 24.2696 40.8239 25.5227 40.7544 25.5555C40.7197 25.4914 40.7339 25.1336 40.7307 25.0352C40.7181 24.568 40.6107 24.1555 40.4369 23.7164C40.3358 23.4586 39.8602 22.4508 39.658 22.3305C39.4953 22.3899 38.9344 23.2102 38.8175 23.3993C38.5268 23.868 38.4052 24.2664 38.353 24.8149V24.8243Z" fill="#FEDC8F"/>
<path d="M14.8842 1.47128L14.6062 1.80878C14.5809 1.87284 14.3676 2.15409 14.3107 2.24003C14.0058 2.70409 13.7609 3.25878 13.6804 3.80721C13.614 4.25253 13.6503 4.66659 13.7973 5.09159C13.9568 5.55722 14.1448 5.69315 14.3297 6.01659C14.3028 6.07753 13.6061 6.94159 13.5792 6.95409C13.505 5.90722 13.2728 5.39159 12.7119 4.55722C12.6787 4.50722 12.5255 4.32284 12.5176 4.30565C12.3438 4.3869 11.8461 5.16346 11.7324 5.3619C11.5112 5.74784 11.2821 6.21034 11.2016 6.6494C11.042 7.51034 11.1194 8.14784 11.587 8.87128C11.7466 9.11659 11.8809 9.20565 11.9962 9.36347C11.873 9.57753 11.7371 9.80721 11.625 10.0275C11.5697 10.1369 11.3106 10.6525 11.2616 10.7041C11.1747 10.2822 11.241 10.2713 11.0357 9.77128C10.824 9.25878 10.4732 8.8119 10.0957 8.4119C10.0088 8.31815 9.57904 7.89471 9.4874 7.86815C9.29308 8.19003 9.06716 8.79003 8.97079 9.15565C8.81754 9.73378 8.797 10.1869 8.84282 10.7822C8.88074 11.276 9.0561 11.6775 9.3468 12.0744C9.44791 12.2119 9.65013 12.44 9.78284 12.5447C9.86815 12.6135 9.94556 12.6807 10.0356 12.7447C10.1178 12.8041 10.2205 12.865 10.2947 12.9307C10.2821 13.0025 10.2078 13.1791 10.1794 13.2572L9.86657 14.2307C9.71017 13.9744 9.62959 13.7291 9.43527 13.476C9.28044 13.2728 9.07348 13.0244 8.87758 12.8588C8.63902 12.6588 7.72902 11.9525 7.45254 11.9353C7.32141 12.1932 7.27402 13.226 7.2835 13.54C7.29772 14.0291 7.38777 14.5572 7.59157 15.0057C7.87911 15.64 8.28513 16.0603 8.88074 16.3978C9.07664 16.5088 9.29466 16.5838 9.48424 16.6916C9.48898 16.7728 9.46213 16.9228 9.45897 17.0197C9.45581 17.1338 9.45423 17.2478 9.45265 17.3603C9.45107 17.59 9.45423 17.8213 9.45107 18.0494C9.41947 18.0369 9.21567 17.7838 9.17617 17.7353C8.94867 17.4635 8.49051 17.1182 8.19508 16.94C7.82223 16.7135 6.92329 16.3119 6.50305 16.2541C6.48251 16.7619 6.5852 17.4088 6.73529 17.8963C6.87431 18.3494 7.0639 18.7822 7.34985 19.165C7.62949 19.5385 7.92492 19.8307 8.33411 20.065C8.8128 20.3385 9.20935 20.4213 9.73544 20.5541C9.7939 20.7775 9.83971 21.0135 9.89185 21.24L10.0562 21.8963C9.89659 21.8635 9.40367 21.1432 7.65477 20.7963C7.511 20.7682 6.73687 20.6197 6.65313 20.6588C6.63575 20.6838 6.64049 20.6635 6.64681 20.7072C6.67683 20.8885 7.0481 21.7416 7.13341 21.9072C7.16659 21.9728 7.32773 22.2432 7.33405 22.2869C7.37039 22.3182 7.38461 22.3478 7.40357 22.3916C7.40831 22.3947 7.699 22.7932 7.7464 22.8478C7.80327 22.9135 7.87279 23.0057 7.93756 23.0603C7.96916 23.0885 8.11608 23.2307 8.1303 23.2557L8.34043 23.4478C8.46049 23.4822 8.95025 24.0603 10.2378 24.2041C10.4448 24.2275 10.6518 24.2307 10.8603 24.2603C10.9709 24.276 10.9662 24.34 11.012 24.44C11.1083 24.6432 11.5302 25.4463 11.5586 25.5353C11.4607 25.515 10.7308 24.901 8.94077 24.8822C8.75593 24.8807 8.05447 24.8713 7.92334 24.9588C7.98022 25.1869 8.78279 26.1541 8.78595 26.1635C8.81912 26.1838 9.14615 26.5197 9.16037 26.5447C9.2836 26.5963 9.974 27.3963 11.2174 27.6588C11.7008 27.7603 12.1842 27.7697 12.6724 27.6978C13.0563 27.6416 12.9378 27.6416 13.1748 27.9135C13.2285 27.976 13.5113 28.2963 13.5239 28.3432C13.5998 28.3838 13.8447 28.7166 13.8684 28.7228C13.8241 28.726 13.4971 28.6291 13.4181 28.6103C13.257 28.5744 13.0942 28.5478 12.9283 28.5353C12.5966 28.5119 12.1605 28.5025 11.8335 28.5369C11.6028 28.5494 10.429 28.7525 10.2931 28.8619C10.3232 29.015 10.7545 29.3307 10.7782 29.401C10.8287 29.4244 10.9188 29.501 10.9472 29.5478C10.9788 29.5525 11.1226 29.6713 11.1368 29.7025C11.1747 29.7166 11.4828 29.9463 11.5001 29.9744C11.5381 29.9838 11.9994 30.276 12.0879 30.326C12.2948 30.4416 12.5144 30.5369 12.7356 30.6228C13.6551 30.9775 14.622 31.0057 15.5462 30.6822C15.7579 30.6088 15.7989 30.5619 15.8795 30.6291C16.0628 30.7838 16.8685 31.3557 16.9396 31.4385C16.2429 31.4307 15.7042 31.4525 15.0296 31.6447C14.7736 31.7182 13.6962 32.1103 13.5461 32.2697C13.6361 32.4416 14.7515 32.9775 14.9853 33.0838C16.1418 33.6057 17.5131 33.801 18.7106 33.29C18.8418 33.2338 18.965 33.1728 19.0866 33.1025C19.2178 33.026 19.3663 32.8994 19.4421 32.9369C19.6064 33.015 20.0741 33.2057 20.1894 33.2932C20.2715 33.3166 20.5954 33.4744 20.6365 33.5369C20.5749 33.576 20.36 33.5978 20.2763 33.6072C19.9919 33.6791 19.7691 33.726 19.4911 33.8307C18.9397 34.0369 18.3283 34.3916 17.8686 34.7588C17.7864 34.8244 17.6742 34.9307 17.5921 34.9822C17.7248 35.0963 18.7912 35.401 19.0219 35.4588C19.7818 35.6525 19.9824 35.6197 20.7692 35.6166C21.7124 35.6119 22.1753 35.5182 22.9652 34.965C23.3396 34.7025 23.2211 34.7478 23.4644 34.5244C23.545 34.5353 23.9479 34.715 24.0632 34.7572C24.3808 34.876 25.771 35.3619 25.9432 35.3307C25.9891 35.0666 26.0902 34.7041 26.0996 34.4463C25.7236 34.3838 25.3192 34.2947 24.9448 34.215C24.7267 34.1682 24.0427 34.0057 23.8815 33.901C23.8799 33.751 23.9021 33.59 23.9068 33.4385C23.921 33.0213 23.8499 32.6135 23.6935 32.226C23.3254 31.3119 22.5465 30.7885 21.6634 30.4119C21.4201 30.3088 20.3805 29.9416 20.1704 29.9916C20.142 30.14 20.3142 30.776 20.3616 30.9557C20.4406 31.251 20.5512 31.5338 20.6791 31.8103C21.1025 32.7197 21.5955 33.0197 21.6824 33.1603C21.4533 33.0885 20.0741 32.4978 19.9587 32.3807C20.0377 31.8885 20.1625 32.0635 20.1673 31.1869C20.1704 30.6853 20.1815 30.465 19.9603 30.001C19.6633 29.3775 19.1767 28.9307 18.6174 28.5416C18.3488 28.3557 18.0092 28.1775 17.7153 28.0322C17.4294 27.8916 17.3156 27.8057 17.2809 27.9807C17.2445 28.1682 17.2508 28.4463 17.2508 28.6416C17.2556 29.2525 17.3267 29.8682 17.5431 30.4432C17.5716 30.5213 17.7564 30.8963 17.758 30.9182C17.7991 30.9463 17.9665 31.2166 17.9855 31.2728C17.9112 31.2432 17.5889 31.04 17.5573 30.9853C17.4847 30.976 16.5304 30.2682 16.4688 30.1885C16.5415 30.0088 16.7232 29.7775 16.8195 29.5853C17.1782 28.865 17.2414 28.0041 16.8969 27.2588C16.6774 26.7822 16.4514 26.5244 16.1102 26.1385C15.9759 25.9869 15.2018 25.2853 15.0343 25.3119C14.8731 25.4885 14.6504 26.6338 14.6362 26.9025C14.6156 27.2791 14.6251 27.9432 14.7152 28.3197C14.7483 28.4557 14.8052 28.5682 14.8384 28.6947C14.6883 28.6275 14.3518 28.1931 14.2112 28.051C14.148 27.9869 13.6598 27.4197 13.6424 27.376C13.6993 27.2994 13.9379 27.1088 14.1069 26.9025C14.6772 26.2041 14.8684 25.7025 14.8036 24.7838C14.7673 24.2619 14.5967 23.826 14.3281 23.3822C14.2207 23.2057 13.6488 22.3713 13.4845 22.3307L13.3944 22.4338C13.3249 22.5572 13.2396 22.6838 13.1669 22.8103C13.1227 22.8869 13.001 23.151 12.9536 23.1916C12.9505 23.2838 12.5128 23.9369 12.4354 24.8603C12.4228 25.0119 12.4402 25.4635 12.4054 25.5635C12.3185 25.5197 11.892 24.6775 11.7924 24.4885C11.7387 24.3885 11.6408 24.226 11.6028 24.1275C11.6408 24.0838 11.8683 23.9557 11.9378 23.9103C12.1574 23.7682 12.3628 23.5963 12.5508 23.4213C12.6029 23.3728 12.7846 23.165 12.8193 23.1478C12.8446 23.0963 12.9173 23.015 12.9584 22.9603C12.9994 22.9041 13.0405 22.8338 13.0737 22.7713C13.1148 22.6932 13.2506 22.3822 13.2806 22.3494C13.2806 22.3057 13.3739 22.0478 13.3897 21.965C13.4181 21.8182 13.4181 21.651 13.4197 21.4994C13.4244 21.1822 13.4213 20.8932 13.3407 20.5838C13.2506 20.2338 13.0926 19.8228 12.9283 19.4947C12.9046 19.4478 12.7672 19.1916 12.7625 19.1682L12.7214 19.151C12.6487 19.1932 12.3975 19.4478 12.3327 19.5213C12.2158 19.6541 12.0958 19.7916 11.9725 19.9244C11.8461 20.0885 11.7276 20.2228 11.606 20.3963C11.3817 20.715 11.1542 21.1338 11.0262 21.5025C10.8998 21.865 10.9172 22.0228 10.865 22.1838C10.8034 22.1447 10.647 21.4775 10.6186 21.3635C10.5822 21.2213 10.5459 21.0775 10.5112 20.9353C10.4827 20.8228 10.3895 20.6213 10.5127 20.5463C10.6486 20.465 11.121 20.3182 11.5997 20.026C11.6629 19.9885 11.8746 19.8275 11.9157 19.8166C11.9299 19.7869 12.0815 19.6603 12.1226 19.6182C12.279 19.4588 12.3517 19.3978 12.4907 19.2025C12.5381 19.1353 12.595 19.0119 12.6519 18.965C12.6708 18.815 13.1827 18.2994 12.9836 16.676C12.9678 16.5463 12.9457 16.4182 12.9157 16.2916C12.8999 16.2307 12.8225 15.9791 12.8193 15.9478C12.6345 15.9494 12.1274 16.3385 11.9551 16.4557C11.151 17.0088 10.4811 17.7635 10.1588 18.69C10.0909 18.0432 10.1288 17.4963 10.1557 16.8697C10.2726 16.8369 10.4511 16.8307 10.5822 16.8041C10.9267 16.7369 11.3801 16.6166 11.6929 16.4775C12.8841 15.951 13.5224 14.9119 13.6661 13.6572C13.6835 13.5057 13.7562 12.8775 13.674 12.7807C13.5666 12.7666 12.8225 13.0916 12.6803 13.1588C11.9046 13.5291 11.2458 13.9557 10.677 14.5994C10.557 14.7338 10.4258 14.9697 10.3895 15.0057C10.4243 14.69 10.7782 13.4572 10.9298 13.2057C11.5523 13.1775 12.1274 13.2463 12.7388 13.0463C13.7056 12.7322 14.3739 12.1463 14.87 11.2822C15.0533 10.9619 15.3424 10.2213 15.3882 9.86503C15.2428 9.84784 14.5303 10.0041 14.3471 10.0478C13.7751 10.1807 13.0721 10.3978 12.5681 10.6994C12.437 10.7775 12.3138 10.8463 12.1874 10.9307C12.0989 10.99 11.9125 11.1369 11.8351 11.1744C11.8825 10.9807 12.1416 10.5416 12.2474 10.3432C12.6218 9.64003 12.5634 9.79628 12.8746 9.85565C13.5982 9.99159 14.4039 10.0182 15.1133 9.80721C16.1939 9.48534 16.9096 8.73534 17.4989 7.83378C17.5747 7.71972 17.6537 7.56346 17.728 7.46034L17.7438 7.36503L17.6253 7.33221C16.9617 7.29159 16.2002 7.32909 15.5462 7.44784C15.0454 7.53847 14.7231 7.63534 14.2696 7.82909C14.1938 7.8619 13.96 7.9994 13.9079 8.00565C13.8747 8.05721 13.6251 8.1994 13.5587 8.21815C13.5713 8.16503 13.7151 7.95409 13.7609 7.93221C13.8178 7.79471 14.4403 7.01972 14.6062 6.8119C14.8036 6.56347 14.81 6.52128 14.9885 6.56034C15.1607 6.5994 15.3345 6.66034 15.5067 6.70565C16.077 6.85409 16.6868 6.8994 17.2682 6.80565C18.352 6.63065 19.0392 6.08378 19.7328 5.33534C19.815 5.24628 20.3174 4.66034 20.2352 4.5619C20.0504 4.44472 18.7185 4.42909 18.4436 4.44003C18.0076 4.45722 17.5968 4.50722 17.1734 4.60409C17.0992 4.62128 16.8448 4.70096 16.7958 4.6994C16.7484 4.73378 16.5194 4.80721 16.4514 4.8119C16.4909 4.76659 16.6695 4.5994 16.7137 4.58065C16.7469 4.53065 17.1687 4.14315 17.2303 4.0994C17.2777 4.06659 17.6047 4.0744 17.6964 4.06347C19.5132 3.84315 20.5591 2.51971 20.9145 0.783778C20.3995 0.777528 19.6822 0.96034 19.1862 1.11815C18.2935 1.40409 17.2382 1.9744 16.8022 2.83846C16.6963 3.04784 16.5683 3.36971 16.5399 3.5994C16.5194 3.76815 16.4767 3.8119 16.3551 3.93065C16.2855 3.99784 16.1607 4.11972 16.0738 4.15565C16.0896 3.96503 16.1212 3.80878 16.126 3.60565C16.1307 3.41972 16.1323 3.22128 16.1102 3.0369C16.0454 2.49159 15.7373 1.78378 15.4656 1.31347C15.374 1.15409 15.336 1.01815 15.1575 1.17597C15.0959 1.22909 14.9063 1.45409 14.8732 1.47128H14.8842Z" fill="#FEDC8F"/>
<path d="M30.261 22.532L30.3084 17.732C30.6955 17.8586 31.389 18.3555 31.716 18.6195C32.2074 19.0195 32.4696 19.5023 32.5044 20.1398C32.5344 20.7117 32.3227 21.4242 31.8788 21.8164C31.438 22.2055 30.8519 22.4727 30.261 22.532ZM30.1583 22.5477C30.0367 22.5539 29.8297 22.582 29.7159 22.5602L29.7144 17.4555C29.8645 17.4914 30.0556 17.6258 30.2089 17.6727L30.1583 22.5477ZM29.4252 16.5523C29.3447 16.5273 28.659 16.193 28.5231 16.1289C28.2246 15.9852 27.9275 15.8523 27.6511 15.6648C27.1297 15.3148 26.6447 14.8195 26.4456 14.2148C26.1944 13.4508 26.5483 12.8539 27.2166 12.482C27.8849 12.1102 28.7017 12.0258 29.4553 12.0789C29.4553 12.8289 29.4553 13.5805 29.4568 14.3305C29.4568 14.8945 29.4632 16.0305 29.4252 16.5523ZM29.7159 16.693C29.7017 16.5523 29.7112 15.7492 29.7112 15.5367C29.7112 14.7898 29.7365 14.0102 29.7523 13.2602C29.7602 12.8945 29.787 12.4867 29.776 12.1273C29.8739 12.1242 30.1788 12.1945 30.261 12.2383L30.212 16.9383L29.7159 16.693ZM29.4079 17.3133L29.3715 19.0086C28.7791 19.0586 27.9386 18.8367 27.3841 18.618C26.3192 18.1992 25.346 17.4336 24.782 16.443C24.4661 15.8867 24.2749 15.2648 24.2006 14.632C24.1548 14.2508 24.5356 13.1695 24.7141 12.7961C24.9843 12.2289 25.316 11.8773 25.7837 11.4664C26.7521 10.6148 28.1851 10.2914 29.4537 10.3352V11.9023C28.5437 11.8539 27.6195 11.943 26.8264 12.4258C26.0886 12.8758 25.6146 13.6242 25.8469 14.5023C26.0412 15.2367 26.6621 15.8352 27.2814 16.2477C27.61 16.4664 27.9449 16.6523 28.302 16.8211C28.5358 16.932 29.1946 17.2398 29.4063 17.3117L29.4079 17.3133ZM22.4739 20.9055C22.3254 21.6305 21.883 23.0352 21.5639 23.7039C21.3569 24.1367 21.1721 24.4805 20.7897 24.7898C20.3995 25.1055 19.8876 25.2664 19.3852 25.2508C18.4105 25.2195 17.5368 24.4398 17.4373 23.4773C17.382 22.9445 17.5858 22.5227 17.927 22.1305C18.1577 21.8648 18.7106 21.5008 19.0456 21.3852C19.0266 21.3227 18.8797 20.9633 18.8339 20.9461C18.1624 21.2695 17.5589 21.6477 17.1987 22.3227C16.7943 23.082 16.8875 23.9398 17.3772 24.6352C18.3504 26.0211 20.2937 26.1023 21.4217 24.8555C22.4944 23.6711 23.2654 19.7867 23.5813 18.0445C23.6572 17.6242 23.7425 17.1898 23.8041 16.7664C23.8199 16.6617 23.9747 15.4602 24.0016 15.4742C24.2986 16.6133 24.9669 17.4961 25.9022 18.1992C26.828 18.8977 28.1961 19.393 29.3652 19.3711L29.2957 22.5367C28.441 22.4648 27.5389 21.993 26.9701 21.368C26.6605 21.0273 26.4677 20.7242 26.2908 20.2992C26.0759 19.7836 26.0459 19.3898 26.0143 18.8398L25.8895 18.8383L25.8611 22.5633H25.9606C26.0112 22.4898 26.068 21.9305 26.0981 21.793C26.1075 21.7133 26.1518 21.3602 26.1818 21.3211C26.2513 21.3836 26.324 21.4742 26.3951 21.5461C26.4646 21.6164 26.5562 21.682 26.6305 21.7508C26.7205 21.8523 27.0491 22.0586 27.1787 22.1352C27.8264 22.5211 28.5342 22.7258 29.2894 22.7883L29.2183 26.0727H29.7191L29.7223 22.8023L30.1567 22.7695L30.1235 26.0914L30.2247 26.0867L30.2578 22.757C30.6702 22.6727 30.9751 22.6102 31.3622 22.4273C32.3875 21.9398 33.0921 21.0461 33.1032 19.8961C33.1111 19.0961 32.7477 18.5039 32.1395 18.0102C31.6481 17.6102 30.9056 17.2398 30.3179 16.9914L30.3653 12.2711C30.5817 12.3102 31.0209 12.5477 31.2121 12.6711C31.9436 13.1414 32.5897 14.0102 32.7082 14.8711L32.8062 14.8633L32.6197 12.2211L32.5376 12.2367L32.4633 13.2273C32.4286 13.2289 32.3954 13.1633 32.367 13.132C31.9009 12.6305 31.3258 12.3477 30.6797 12.1352C30.6117 12.1133 30.4127 12.0695 30.37 12.043C30.3479 11.7008 30.3763 11.2758 30.3795 10.9227C30.3811 10.768 30.3795 9.89141 30.3969 9.81641L30.2879 9.82109L30.2673 12.0211L29.7839 11.932L29.8265 9.80547L29.5911 9.80078C29.5611 9.83984 29.5864 9.81328 29.5659 9.85547C28.2893 9.81641 26.9938 10.0477 25.918 10.7586C25.5198 11.0211 25.0206 11.4727 24.7315 11.8492C24.3808 12.3086 24.1485 12.807 23.9779 13.3555C23.793 13.9508 23.6572 14.5805 23.5466 15.193C23.4297 15.8477 23.3602 16.5039 23.2448 17.1586C23.1058 17.9539 22.7156 20.1148 22.4754 20.9023L22.4739 20.9055Z" fill="#FEDC8F"/>
<path d="M2.38456 40.1508C3.65386 40.1338 4.9689 40.0244 5.93708 40.9997C6.75659 41.826 7.04247 43.1578 7.0196 44.2802C6.99483 45.4234 6.63462 46.6157 5.79414 47.4344C4.87361 48.3323 3.60812 48.4361 2.38456 48.4097V40.1508ZM1.36112 40.1508L1.45069 40.1527C1.485 40.2583 1.46213 43.8463 1.46213 44.2821C1.46213 45.6536 1.43926 47.042 1.46213 48.4116H0.766491C0.694068 48.4153 0.745526 48.4078 0.724562 48.4399L0.726468 48.5681C1.69083 48.5738 2.65519 48.5681 3.61765 48.5681C4.45813 48.57 5.22238 48.4512 5.96566 48.0437C7.33598 47.2967 7.91726 45.763 7.94394 44.2802C7.97062 42.7862 7.42936 41.1883 6.0095 40.4715C5.23572 40.081 4.45813 39.9999 3.6024 40.0017C2.64566 40.0017 1.68702 39.9961 0.724562 40.0017L0.722656 40.1489L1.36112 40.1508Z" fill="#FEDC8F"/>
<path d="M48.1022 42.2081C48.0895 42.1578 48.0171 42.0553 47.9899 41.9779C47.9573 41.8844 47.9392 41.7873 47.9301 41.6883C47.8414 40.5804 48.783 39.9526 49.7917 40.2296C50.8945 40.5336 51.2042 42.0391 50.7333 43.0139C50.3675 43.7712 49.817 44.041 48.9913 44.0464V44.1813C49.98 44.1381 50.6555 44.4079 51.0484 45.3594C51.3925 46.1958 51.2368 47.1598 50.6681 47.8559C50.1376 48.5088 48.9732 48.6078 48.3122 48.1041C48.0008 47.8667 47.7798 47.5034 47.673 47.1293C47.5245 46.6184 47.5752 46.2515 47.7364 45.7587C47.6839 45.6975 47.2873 45.3918 47.2257 45.3738C47.0899 45.6292 47.0138 45.7623 46.9704 46.0591C46.8581 46.8127 47.1189 47.5753 47.7074 48.0754C48.4372 48.6959 49.8478 48.6977 50.6736 48.2786C51.55 47.8325 52.0824 46.8523 51.9901 45.8792C51.8995 44.9493 51.1752 44.2478 50.2842 44.0859L50.0742 44.0536C50.2571 43.96 50.4345 43.9295 50.6337 43.8072C51.9466 43.0014 52.0607 40.9976 50.6337 40.2638C49.5726 39.7188 47.7273 39.9904 47.3778 41.316C47.28 41.6847 47.2855 42.3179 47.548 42.6254L48.1058 42.2063L48.1022 42.2081Z" fill="#FEDC8F"/>
<path d="M21.71 40.3955C21.7617 40.4729 22.6704 43.3791 22.774 43.7207C22.8372 43.9339 23.096 44.6945 23.121 44.8266L20.3124 44.8247L21.7119 40.3937L21.71 40.3955ZM20.2606 44.97L23.1631 44.9719L24.2501 48.4121L23.5964 48.4197C23.5772 48.4688 23.583 48.5159 23.5887 48.5707H26.0004V48.4121L25.1838 48.4103L22.3963 39.9992L21.6505 40.0011L19.0356 48.4103L18.056 48.414V48.5688H20.1571L20.1648 48.4103L19.1928 48.4084L20.2606 44.9643V44.97Z" fill="#FEDC8F"/>
<path d="M27.9079 42.2551C28.5501 42.2551 29.238 42.1678 29.8097 42.5348C30.7835 43.1616 30.7987 44.8002 29.8116 45.5084C29.2781 45.8912 28.5311 45.7762 27.9079 45.7841V42.2551ZM30.0594 42.3186C29.7487 42.1856 29.3829 42.146 29.0494 42.146C28.8474 42.146 26.8751 42.1341 26.7227 42.1519L26.7246 42.2551L27.2486 42.263V48.4403L26.7227 48.4463L26.7284 48.5554C26.9761 48.603 28.2185 48.5196 28.4263 48.5692L28.4282 48.4423L27.906 48.4443V45.9031C28.089 45.8972 29.2056 45.8833 29.299 45.915L30.5529 48.4443L30.0841 48.4522L30.0918 48.5633L31.7763 48.5613L31.7782 48.4463L31.2141 48.4443L29.8459 45.8178C29.9812 45.7484 30.1203 45.7107 30.2633 45.6294C30.3643 45.5738 30.5205 45.4608 30.6005 45.3774C30.8102 45.1553 30.9683 44.9509 31.0789 44.6534C31.3056 44.0523 31.2199 43.2767 30.7549 42.8185C30.5015 42.5705 30.3909 42.4634 30.0575 42.3225L30.0594 42.3186Z" fill="#FEDC8F"/>
<path d="M43.3338 40.9593C43.4566 40.9555 43.9313 40.7373 44.1 40.6993L44.0963 48.4131H43.4786L43.4914 48.5707L45.5004 48.5688V48.4131L44.879 48.4093L44.8772 40.0008C44.5546 39.9932 44.6682 40.0065 44.4574 40.1925C44.0945 40.5133 43.8177 40.7164 43.3393 40.8701L43.3356 40.9574L43.3338 40.9593Z" fill="#FEDC8F"/>
<path d="M12.0134 42.2594C12.5041 42.3469 12.6154 43.3868 12.7287 43.7984L12.8381 43.7965L12.6645 42.1421L8.67087 42.1461L8.66899 42.2515L9.18801 42.2594V48.4514L8.6671 48.4553L8.66899 48.5707L12.8268 48.5687L13.0004 46.9123L12.8966 46.9143C12.8551 47.1887 12.7513 47.5983 12.6607 47.8608C12.5569 48.1551 12.4323 48.4474 12.0907 48.4533C11.3433 48.4633 10.5884 48.4533 9.83914 48.4533C9.83914 48.2406 9.82026 45.1645 9.84669 45.0352H12.0303L12.0322 45.759L12.1341 45.757L12.1417 44.1862L12.0322 44.1842V44.908H9.84103V42.2515C10.043 42.2534 11.8869 42.2355 12.0152 42.2594H12.0134Z" fill="#FEDC8F"/>
<path d="M32.5913 43.8036C32.6775 43.4094 32.7936 42.6327 33.0697 42.3672C33.2315 42.2146 33.6448 42.2662 33.8576 42.2662C34.0652 42.2662 34.5541 42.2364 34.73 42.2721V48.4419L34.2446 48.4458L34.2551 48.5508C34.3853 48.5964 35.6586 48.5231 35.8187 48.5707L35.8204 48.4419L35.3368 48.4439V42.2622C35.6252 42.2701 35.9242 42.2622 36.2127 42.2622C36.8511 42.2622 37.0516 42.1473 37.289 43.029L37.4632 43.8036H37.5546C37.574 43.5758 37.3805 42.3137 37.4104 42.1651C37.2556 42.1215 36.4343 42.1532 36.2127 42.1532C35.8644 42.1532 32.8481 42.1354 32.6511 42.1572C32.637 42.4682 32.4858 43.657 32.5016 43.8056L32.5895 43.8017L32.5913 43.8036Z" fill="#FEDC8F"/>
</g>
<defs>
<clipPath id="clip0_1_1959">
<rect width="52" height="50" fill="white"/>
</clipPath>
</defs>
</svg>
