<svg width="57" height="55" viewBox="0 0 57 55" fill="none" xmlns="http://www.w3.org/2000/svg">
<path d="M41.8297 27.6729C41.8244 27.9049 41.8244 28.1206 41.8384 28.3526C41.8543 28.6025 41.8894 28.7032 41.9421 28.9334C41.9456 28.937 42.1247 29.347 42.1581 29.4099C42.5567 30.1453 43.0239 30.451 43.1222 30.6146C43.073 30.7261 41.9614 32.0495 41.7963 32.1304C41.8367 31.9236 41.9104 31.8301 41.9737 31.4058C42.1827 30.0176 41.8314 29.1546 41.8367 28.9676C41.8051 28.9334 41.6681 28.3724 41.5856 28.2321C41.4398 28.2213 41.1465 28.5072 41.0236 28.5882C41.006 28.6133 40.9147 28.6906 40.8813 28.6996C40.855 28.7482 40.5828 28.9927 40.5178 29.0575C40.4546 29.1204 40.4037 29.1761 40.3369 29.2373C40.2702 29.2984 40.2333 29.3811 40.1543 29.4333C40.1455 29.4782 39.9313 29.7371 39.8838 29.8091C39.6994 30.0878 39.5607 30.3287 39.4395 30.6434C39.3675 30.8268 39.3535 30.9509 39.3026 31.1343C39.2253 31.9722 39.2569 32.553 39.6608 33.2938C39.7205 33.4035 39.9734 33.7865 39.9857 33.8512C39.861 33.9411 39.71 34.076 39.5818 34.1785C39.4062 34.3169 38.4227 35.0523 38.2875 35.1081C38.3156 35.0326 38.4578 34.8186 38.507 34.7323C38.7318 34.3493 38.8986 33.8512 38.9882 33.4179C39.1059 32.8515 39.1849 31.7348 39.0391 31.1882C38.8161 31.1828 37.8765 31.7654 37.6482 31.9182C37.2549 32.1808 36.8158 32.5656 36.5261 32.9414C36.1994 33.3657 35.9009 33.8926 35.8763 34.4464C35.8622 34.7629 35.857 35.2124 35.8921 35.5234C35.9237 35.8022 36.0923 36.1492 36.1028 36.374C35.9816 36.4818 34.3993 37.2119 34.2395 37.2388C34.2747 37.1346 34.4731 36.9727 34.5521 36.8738C34.6522 36.748 34.7418 36.6419 34.8401 36.5106C35.2037 36.0233 35.504 35.2933 35.6638 34.7071C35.713 34.5273 35.9026 33.7595 35.8657 33.6229C35.6761 33.5437 34.452 33.9915 34.2114 34.1011C33.7355 34.3187 33.2614 34.574 32.8609 34.9175C32.4518 35.2681 32.1585 35.6835 31.9548 36.1905C31.5684 37.1579 31.7827 37.9419 31.7458 38.1055C31.7282 38.1433 31.73 38.1325 31.6808 38.1523C30.7623 38.5083 29.5365 38.6558 29.2854 38.7511C29.2678 38.8949 29.4224 39.6483 29.5014 39.7706C29.8017 39.7562 31.4367 39.17 31.888 38.9668C31.9758 38.9273 32.1163 38.8428 32.1971 38.8212C32.2937 38.9237 32.3464 39.001 32.457 39.1017C32.6853 39.3103 33.1472 39.6195 33.4124 39.749C34.0903 40.0763 34.4538 40.0906 35.1931 40.096C36.0659 40.1014 36.2995 40.1374 37.139 39.9162C37.2917 39.8749 38.7406 39.4523 38.73 39.3624C38.6212 39.2779 38.5211 39.1736 38.4104 39.0873C37.6886 38.5173 37.0178 38.1433 36.1432 37.8772C35.9904 37.8304 35.8271 37.8124 35.6849 37.7711C35.5865 37.7603 35.4285 37.7513 35.3512 37.7028C35.3881 37.6398 35.5848 37.5391 35.6585 37.5176C35.7498 37.4348 36.3645 37.1687 36.5225 37.0896C36.7737 36.9637 36.7122 36.9709 36.9388 37.1202C38.3244 38.03 40.1367 37.8916 41.5785 37.2101C41.8103 37.1004 43.1679 36.4351 43.2047 36.2499C43.059 36.0539 41.8525 35.6026 41.575 35.5252C40.653 35.2699 40.3808 35.3023 39.4606 35.2879C39.5133 35.2268 40.0665 34.8132 40.1859 34.7179C40.3053 34.6226 40.4283 34.5237 40.5494 34.4302C40.7672 34.2612 40.718 34.3133 40.9832 34.4086C41.7243 34.6765 42.4408 34.7467 43.2188 34.6118C44.139 34.4536 45.0944 33.9447 45.8302 33.3495L46.5063 32.7472C46.5608 32.6429 46.8224 32.4541 46.854 32.3354L46.7891 32.2851C46.7311 32.2815 45.8039 31.9794 44.8661 31.9272C44.348 31.8985 43.8176 31.9218 43.3101 32.0423C43.2188 32.0639 42.9448 32.1574 42.8763 32.1574C42.9747 32.0585 43.0959 31.8931 43.1907 31.7816C44.06 30.7495 43.6965 30.9203 44.3656 30.9994C45.8899 31.1774 47.258 30.5697 48.3064 29.4405C48.4925 29.2409 49.5129 28.0056 49.4672 27.815C49.2319 27.6819 47.8129 27.7484 47.488 27.7898C47.0929 27.8419 46.5976 27.9606 46.2201 28.1027C46.1446 28.1314 45.9004 28.2429 45.846 28.2483L45.4456 28.4946L45.5703 28.2177C45.7161 27.9175 45.8724 27.6154 46.0111 27.3133C46.1393 27.0328 46.069 27.0328 46.3799 27.004C46.5818 26.9842 46.7803 26.9788 46.9822 26.9519C48.3766 26.7631 49.4145 25.9881 50.124 24.76C50.2961 24.4615 50.4331 24.172 50.5666 23.8537C50.6333 23.6955 50.9371 22.996 50.8985 22.8738C50.5964 22.827 49.2407 23.1489 48.9035 23.2711C48.468 23.4294 48.0781 23.6056 47.69 23.8645C47.6355 23.9005 47.3844 24.1091 47.3563 24.1091C47.3265 24.163 47.1754 24.2925 47.1122 24.2997C47.1157 24.2475 47.1842 23.9868 47.2088 23.958L47.4687 22.7533C48.5804 22.498 49.4479 22.1419 50.1223 21.1548C50.7685 20.209 51.0846 18.9557 51.0636 17.8067C50.6245 17.8606 49.5743 18.3479 49.1827 18.5961C48.8894 18.7813 48.6822 18.9539 48.4188 19.1733C48.1993 19.3567 47.8217 19.8547 47.7848 19.8745C47.7743 19.2308 47.7936 18.9791 47.7444 18.2994C47.8867 18.2598 48.2871 18.0458 48.4293 17.9649C49.0826 17.5891 49.5533 17.0623 49.8553 16.3574C50.2873 15.3505 50.2768 13.8617 50.0151 12.8098C49.8641 12.8349 49.3812 13.1604 49.2284 13.2629C48.6892 13.6261 48.0272 14.2051 47.6812 14.7751C47.6549 14.8182 47.4722 15.1527 47.4687 15.1563L47.3387 15.4764L47.2738 15.2822L46.9577 14.3022C46.9243 14.2105 46.8646 14.072 46.8453 13.9803C46.912 13.912 47.0578 13.8239 47.1421 13.7628C47.4072 13.565 47.7163 13.2647 47.9025 12.986C48.2291 12.5041 48.4118 12.0905 48.4574 11.4989C48.5101 10.8121 48.4803 10.2888 48.3152 9.62351C48.2203 9.24951 47.9394 8.47812 47.7462 8.15086C47.6338 8.19582 47.1596 8.66872 47.0578 8.7856C46.6328 9.26569 46.2534 9.74938 46.0128 10.3625C45.774 10.9649 45.8636 11.0278 45.767 11.427C45.5246 11.0278 45.263 10.3823 44.9521 9.87885C44.9978 9.80332 45.1295 9.66847 45.1945 9.59474C45.8688 8.84134 46.0392 7.73191 45.8355 6.75374C45.7266 6.23049 45.5088 5.73241 45.2436 5.2721C45.1154 5.04913 44.5675 4.15907 44.3866 4.06197C44.1935 4.15008 43.6859 5.14263 43.5806 5.37998C43.4541 5.66049 43.3769 5.86187 43.3084 6.16575C43.1995 6.64585 43.2346 6.6962 43.2047 7.12774C43.1398 7.06481 43.0432 6.92456 42.9887 6.85263C42.922 6.76093 42.8465 6.66743 42.778 6.57932C42.706 6.48762 42.634 6.39951 42.5637 6.3096C42.5128 6.24307 42.4022 6.09383 42.3512 6.04348C42.4707 5.77557 42.7007 5.62273 42.9238 5.01856C43.3927 3.7473 42.929 2.40951 42.1686 1.36121C41.9666 1.08251 41.698 0.71749 41.4538 0.481938C41.2203 0.257175 41.1799 0.424399 41.0587 0.658153C40.4757 1.77298 40.2158 2.58752 40.4072 3.88216C40.3141 3.8462 40.1613 3.69516 40.0876 3.61784C39.9471 3.47399 39.9102 3.43443 39.8891 3.23304C39.8628 2.97411 39.7117 2.59292 39.5888 2.36276C39.292 1.80894 38.9917 1.50686 38.4859 1.15263C38.0328 0.834367 37.4621 0.550266 36.9388 0.383042C36.3838 0.206828 35.6006 -0.00355074 35.0263 4.54788e-05C35.23 1.0861 35.8534 2.44008 36.7684 3.0784C37.2672 3.42544 37.8748 3.66099 38.4719 3.75809C39.1726 3.87137 38.9197 3.62323 39.3798 4.04938L39.9857 4.63736C39.8645 4.61758 39.6485 4.53307 39.5221 4.49172C39.0426 4.33708 38.4947 4.25437 37.996 4.222C37.6746 4.20222 35.9729 4.19503 35.7779 4.35686C35.7305 4.50251 36.0923 4.93225 36.1924 5.05632C36.7333 5.73061 37.2391 6.2161 38.0346 6.60269C38.6089 6.8832 39.278 7.00367 39.9119 6.98569C40.9217 6.95333 41.3555 6.66023 41.7858 6.61169C41.9421 6.76992 43.1731 8.43856 43.2047 8.55903C42.9747 8.4997 42.6445 8.04118 41.1676 7.71033C40.7408 7.61503 38.8582 7.39746 38.5509 7.58806C38.5615 7.75528 38.9566 8.32168 39.069 8.48711C39.6468 9.352 40.4476 10.0407 41.4275 10.3715C42.1932 10.6305 43.1468 10.5999 43.9335 10.4488C44.0231 10.4309 44.146 10.3913 44.2268 10.3805C44.3287 10.3661 44.3656 10.4668 44.4165 10.5477C44.5587 10.7743 45.1032 11.8136 45.1242 11.9611C45.0153 11.9017 44.845 11.7507 44.7256 11.6734C44.2549 11.3659 43.9107 11.1771 43.3716 10.9721C43.0221 10.839 42.6832 10.7455 42.3196 10.6628C42.0948 10.6107 41.366 10.4291 41.1799 10.4524C41.1676 10.7204 41.6084 11.8226 41.7559 12.0941C42.2933 13.0759 43.0783 13.7897 44.1496 14.126C44.7695 14.3202 45.5071 14.3076 46.1533 14.3202C46.2095 14.4874 46.2728 14.6384 46.3254 14.8129C46.3693 14.9621 46.7399 16.228 46.7188 16.3484L46.7136 16.361C46.7136 16.361 46.7118 16.3682 46.7083 16.3718C46.6205 16.0859 46.2236 15.7047 46.0199 15.4889C45.5545 14.9945 44.7625 14.5377 44.1654 14.2375C43.9933 14.1511 43.2135 13.8041 43.0678 13.8077C42.9466 14.0918 43.1714 15.3882 43.2732 15.7245C43.4436 16.2945 43.6859 16.6775 44.0424 17.136C44.6009 17.857 45.6581 18.2886 46.5309 18.4396C46.6521 18.4612 46.8839 18.481 46.9875 18.5187C47.0736 18.9305 47.0332 20.1442 46.9893 20.5938C46.8137 20.36 46.9067 19.8871 45.7951 18.7291C45.5369 18.4594 44.3269 17.4507 44.0459 17.4525C43.9125 17.6413 43.8475 18.3371 43.8247 18.5871C43.7228 19.7181 43.9195 20.8006 44.7554 21.6295C45.263 22.1329 45.7512 22.3811 46.3992 22.6508C46.6591 22.7605 46.6995 22.7425 46.6328 23.0428C46.5695 23.3179 46.2938 24.5262 46.2043 24.6269C46.1533 24.5011 46.134 24.2098 46.0848 24.0371C45.9566 23.5786 45.6844 22.9996 45.4175 22.6202C45.2366 22.3649 44.348 21.2033 44.1162 21.1368C43.9213 21.367 43.5735 22.3361 43.4928 22.6544C43.3382 23.2711 43.282 23.9293 43.4488 24.5496C43.6824 25.4217 44.1179 25.8964 44.7695 26.434C44.9346 26.5707 45.3385 26.8152 45.3859 26.8656C45.3227 27.0346 44.5763 28.4767 44.499 28.5144C44.4604 28.4407 44.4762 28.0289 44.4727 27.9157C44.4586 27.378 44.3392 26.9033 44.146 26.3981C44.0336 26.1014 43.505 24.9416 43.2803 24.8031C43.0994 24.8715 42.4759 25.8155 42.346 26.033C42.0228 26.5725 41.8876 27.031 41.8297 27.6621V27.6729Z" fill="#722839"/>
<path d="M15.7419 0.798571L15.4328 1.18696C15.4047 1.26068 15.1676 1.58434 15.1044 1.68324C14.7655 2.21728 14.4932 2.85561 14.4037 3.48674C14.3299 3.9992 14.3703 4.4757 14.5336 4.96479C14.711 5.50062 14.92 5.65706 15.1255 6.02926C15.0956 6.09939 14.3211 7.09374 14.2913 7.10813C14.2087 5.9034 13.9506 5.31002 13.3272 4.34983C13.2903 4.29229 13.1199 4.08012 13.1111 4.06034C12.918 4.15384 12.3648 5.0475 12.2383 5.27586C11.9925 5.71999 11.7378 6.25223 11.6483 6.7575C11.4709 7.74826 11.5569 8.48188 12.0768 9.31441C12.2541 9.59671 12.4034 9.6992 12.5316 9.88081C12.3946 10.1272 12.2436 10.3915 12.1189 10.645C12.0575 10.7709 11.7694 11.3642 11.715 11.4236C11.6184 10.9381 11.6922 10.9255 11.4639 10.3501C11.2285 9.76034 10.8387 9.24608 10.419 8.78576C10.3224 8.67788 9.84469 8.19059 9.74283 8.16002C9.52682 8.53043 9.27569 9.2209 9.16856 9.64166C8.99822 10.307 8.97539 10.8284 9.02632 11.5135C9.06846 12.0817 9.2634 12.5438 9.58653 13.0005C9.69893 13.1588 9.92371 13.4213 10.0712 13.5418C10.1661 13.6209 10.2521 13.6982 10.3522 13.7719C10.4435 13.8402 10.5577 13.9104 10.6402 13.9859C10.6262 14.0686 10.5436 14.2718 10.512 14.3617L10.1643 15.4819C9.99045 15.187 9.90088 14.9047 9.68488 14.6134C9.51277 14.3797 9.28271 14.0938 9.06495 13.9032C8.79977 13.673 7.78822 12.8603 7.48089 12.8405C7.33513 13.1372 7.28245 14.3257 7.29298 14.6872C7.30879 15.25 7.40889 15.8577 7.63544 16.3738C7.95506 17.1038 8.40639 17.5875 9.06846 17.9759C9.28623 18.1036 9.52858 18.1899 9.73932 18.3139C9.74459 18.4074 9.71473 18.5801 9.71122 18.6915C9.70771 18.8228 9.70595 18.9541 9.7042 19.0835C9.70244 19.3478 9.70595 19.614 9.70244 19.8765C9.66732 19.8621 9.44077 19.5708 9.39687 19.5151C9.14398 19.2022 8.63469 18.8048 8.30629 18.5998C7.89184 18.3391 6.89258 17.877 6.42544 17.8105C6.40261 18.3948 6.51676 19.1393 6.6836 19.7003C6.83814 20.2217 7.04888 20.7198 7.36674 21.1603C7.67758 21.5901 8.00599 21.9263 8.46083 22.196C8.99295 22.5107 9.43375 22.606 10.0185 22.7589C10.0835 23.016 10.1345 23.2875 10.1924 23.5482L10.375 24.3034C10.1977 24.2657 9.64975 23.4367 7.70568 23.0376C7.54587 23.0052 6.68535 22.8344 6.59228 22.8793C6.57296 22.9081 6.57823 22.8847 6.58525 22.9351C6.61862 23.1436 7.03132 24.1254 7.12615 24.316C7.16303 24.3915 7.34216 24.7026 7.34918 24.753C7.38957 24.7889 7.40538 24.8231 7.42645 24.8734C7.43172 24.877 7.75485 25.3355 7.80754 25.3985C7.87076 25.474 7.94803 25.5801 8.02003 25.643C8.05516 25.6754 8.21848 25.839 8.23429 25.8678L8.46786 26.0889C8.60133 26.1285 9.14573 26.7938 10.577 26.9592C10.8071 26.9862 11.0371 26.9898 11.2689 27.024C11.3919 27.0419 11.3866 27.1157 11.4375 27.2307C11.5447 27.4645 12.0135 28.3887 12.0452 28.4912C11.9363 28.4678 11.1249 27.7612 9.1352 27.7396C8.92973 27.7378 8.14999 27.727 8.00423 27.8277C8.06745 28.0902 8.95958 29.2033 8.96309 29.2141C8.99997 29.2374 9.3635 29.624 9.3793 29.6528C9.51628 29.7121 10.2837 30.6328 11.6658 30.9348C12.2032 31.0517 12.7406 31.0625 13.2833 30.9798C13.71 30.9151 13.5783 30.9151 13.8417 31.2279C13.9014 31.2999 14.2158 31.6685 14.2298 31.7224C14.3141 31.7692 14.5863 32.1522 14.6127 32.1594C14.5635 32.163 14.2 32.0515 14.1122 32.0299C13.933 31.9885 13.7521 31.958 13.5678 31.9436C13.199 31.9166 12.7143 31.9058 12.3507 31.9454C12.0943 31.9598 10.7895 32.1935 10.6385 32.3194C10.6718 32.4956 11.1513 32.8588 11.1776 32.9397C11.2338 32.9667 11.3339 33.0548 11.3655 33.1088C11.4006 33.1142 11.5605 33.2508 11.5763 33.2868C11.6184 33.303 11.9609 33.5673 11.9802 33.5996C12.0223 33.6104 12.5351 33.9467 12.6335 34.0042C12.8635 34.1373 13.1076 34.247 13.3535 34.3459C14.3756 34.754 15.4504 34.7864 16.4777 34.4142C16.713 34.3297 16.7587 34.2757 16.8483 34.353C17.052 34.5311 17.9476 35.1892 18.0266 35.2845C17.2522 35.2755 16.6533 35.3007 15.9034 35.5218C15.6189 35.6063 14.4212 36.0577 14.2544 36.2411C14.3545 36.4389 15.5944 37.0556 15.8543 37.1779C17.1398 37.7784 18.6641 38.0032 19.9953 37.4152C20.1411 37.3505 20.278 37.2804 20.4133 37.1995C20.559 37.1113 20.7241 36.9657 20.8084 37.0089C20.991 37.0988 21.5109 37.3181 21.6391 37.4188C21.7304 37.4458 22.0904 37.6274 22.1361 37.6993C22.0676 37.7443 21.8287 37.7695 21.7357 37.7802C21.4196 37.863 21.1719 37.9169 20.8628 38.0374C20.2499 38.2747 19.5703 38.6829 19.0593 39.1054C18.968 39.181 18.8433 39.3032 18.7519 39.3626C18.8995 39.4938 20.0849 39.8445 20.3413 39.911C21.186 40.134 21.409 40.0962 22.2836 40.0926C23.332 40.0872 23.8466 39.9793 24.7246 39.3428C25.1409 39.0407 25.0091 39.0929 25.2796 38.8357C25.3692 38.8483 25.817 39.0551 25.9452 39.1036C26.2982 39.2403 27.8436 39.7995 28.035 39.7636C28.0859 39.4597 28.1983 39.0425 28.2089 38.7458C27.7909 38.6739 27.3413 38.5714 26.9251 38.4797C26.6828 38.4258 25.9223 38.2388 25.7432 38.1183C25.7415 37.9457 25.7661 37.7605 25.7713 37.586C25.7871 37.1059 25.7081 36.6366 25.5342 36.1907C25.1251 35.1388 24.2593 34.5365 23.2776 34.1031C23.0071 33.9844 21.8516 33.5619 21.618 33.6194C21.5864 33.7902 21.7778 34.5221 21.8305 34.7289C21.9183 35.0687 22.0412 35.3941 22.1835 35.7124C22.6541 36.7589 23.2021 37.1042 23.2986 37.266C23.044 37.1833 21.5109 36.5036 21.3827 36.3687C21.4705 35.8023 21.6092 36.0037 21.6145 34.995C21.618 34.4178 21.6303 34.1642 21.3844 33.6302C21.0543 32.9128 20.5134 32.3985 19.8917 31.9508C19.5931 31.7368 19.2156 31.5318 18.8889 31.3646C18.5711 31.2028 18.4446 31.1039 18.406 31.3053C18.3656 31.521 18.3726 31.8411 18.3726 32.0659C18.3779 32.7689 18.4569 33.4774 18.6975 34.1391C18.7291 34.229 18.9346 34.6605 18.9363 34.6857C18.982 34.7181 19.1681 35.0291 19.1892 35.0939C19.1067 35.0597 18.7484 34.8259 18.7133 34.763C18.6325 34.7522 17.5718 33.9377 17.5033 33.846C17.5841 33.6392 17.7861 33.3731 17.8932 33.1519C18.2918 32.323 18.3621 31.3322 17.9792 30.4745C17.7351 29.9261 17.484 29.6294 17.1047 29.1853C16.9554 29.0109 16.0949 28.2035 15.9087 28.2341C15.7296 28.4373 15.482 29.7553 15.4662 30.0646C15.4433 30.4979 15.4539 31.2621 15.554 31.6954C15.5908 31.8519 15.6541 31.9813 15.691 32.127C15.5241 32.0497 15.1501 31.5498 14.9938 31.3862C14.9235 31.3124 14.3809 30.6597 14.3615 30.6094C14.4248 30.5213 14.6899 30.3019 14.8778 30.0646C15.5118 29.2608 15.7243 28.6836 15.6523 27.6263C15.6119 27.0258 15.4223 26.5241 15.1237 26.0134C15.0043 25.8102 14.3686 24.8501 14.1859 24.8033L14.0858 24.922C14.0085 25.064 13.9137 25.2097 13.8329 25.3553C13.7838 25.4434 13.6485 25.7473 13.5958 25.7941C13.5923 25.9001 13.1059 26.6518 13.0198 27.7144C13.0058 27.8889 13.0251 28.4085 12.9865 28.5236C12.8899 28.4732 12.4157 27.5041 12.3051 27.2865C12.2454 27.1714 12.1365 26.9844 12.0943 26.8711C12.1365 26.8208 12.3894 26.6733 12.4666 26.6212C12.7107 26.4576 12.939 26.2598 13.148 26.0584C13.206 26.0026 13.4079 25.7635 13.4466 25.7437C13.4747 25.6844 13.5555 25.5909 13.6011 25.5279C13.6468 25.4632 13.6924 25.3823 13.7293 25.3104C13.775 25.2205 13.926 24.8626 13.9594 24.8249C13.9594 24.7745 14.063 24.4778 14.0805 24.3825C14.1122 24.2135 14.1122 24.0211 14.1139 23.8467C14.1192 23.4817 14.1157 23.149 14.0261 22.793C13.926 22.3902 13.7504 21.9173 13.5678 21.5397C13.5414 21.4858 13.3886 21.1909 13.3834 21.1639L13.3377 21.1442C13.2569 21.1927 12.9777 21.4858 12.9057 21.5703C12.7757 21.7231 12.6423 21.8814 12.5053 22.0342C12.3648 22.223 12.2331 22.3777 12.0978 22.5772C11.8485 22.9441 11.5956 23.426 11.4533 23.8503C11.3128 24.2675 11.3322 24.4491 11.2742 24.6343C11.2057 24.5893 11.0319 23.8215 11.0002 23.6903C10.9599 23.5266 10.9195 23.3612 10.8808 23.1976C10.8492 23.0681 10.7456 22.8362 10.8826 22.7499C11.0336 22.6564 11.5587 22.4873 12.0908 22.1511C12.1611 22.1079 12.3964 21.9227 12.4421 21.9101C12.4579 21.876 12.6264 21.7303 12.6721 21.6818C12.846 21.4984 12.9268 21.4283 13.0813 21.2035C13.134 21.1262 13.1972 20.9841 13.2604 20.9302C13.2815 20.7576 13.8505 20.1642 13.6292 18.296C13.6117 18.1467 13.5871 17.9993 13.5537 17.8536C13.5361 17.7835 13.4501 17.494 13.4466 17.458C13.2411 17.4598 12.6774 17.9076 12.486 18.0424C11.5921 18.6789 10.8475 19.5474 10.4892 20.6137C10.4137 19.8693 10.4558 19.24 10.4857 18.5189C10.6156 18.4812 10.8141 18.474 10.9599 18.4434C11.3427 18.3661 11.8467 18.2276 12.1944 18.0676C13.5186 17.4616 14.2281 16.2659 14.3879 14.822C14.4072 14.6476 14.488 13.9248 14.3967 13.8133C14.2772 13.7971 13.4501 14.1711 13.292 14.2484C12.4298 14.6746 11.6974 15.1654 11.0652 15.9063C10.9318 16.0609 10.786 16.3324 10.7456 16.3738C10.7842 16.0106 11.1776 14.5919 11.3462 14.3024C12.0381 14.27 12.6774 14.3491 13.357 14.1189C14.4318 13.7575 15.1746 13.0832 15.7261 12.0889C15.9298 11.7203 16.2512 10.868 16.3021 10.458C16.1405 10.4382 15.3485 10.618 15.1448 10.6684C14.5091 10.8212 13.7276 11.0712 13.1673 11.4182C13.0216 11.5081 12.8846 11.5872 12.7441 11.6843C12.6458 11.7526 12.4385 11.9217 12.3525 11.9648C12.4052 11.7419 12.6932 11.2366 12.8108 11.0082C13.2271 10.1991 13.1621 10.3789 13.508 10.4472C14.3124 10.6036 15.208 10.6342 15.9965 10.3915C17.1977 10.0211 17.9933 9.15797 18.6483 8.12046C18.7326 7.9892 18.8204 7.80939 18.903 7.69072L18.9205 7.58103L18.7888 7.54327C18.0512 7.49652 17.2048 7.53967 16.4777 7.67633C15.921 7.78062 15.5628 7.8921 15.0587 8.11507C14.9744 8.15283 14.7145 8.31106 14.6566 8.31826C14.6197 8.37759 14.3422 8.54122 14.2685 8.5628C14.2825 8.50166 14.4423 8.25892 14.4932 8.23374C14.5565 8.07551 15.2484 7.18365 15.4328 6.9445C15.6523 6.6586 15.6593 6.61005 15.8578 6.65501C16.0492 6.69996 16.2424 6.77008 16.4338 6.82223C17.0678 6.99305 17.7457 7.04519 18.3919 6.93731C19.5967 6.73592 20.3606 6.10658 21.1315 5.24529C21.2229 5.1428 21.7813 4.46851 21.69 4.35523C21.4845 4.22037 20.0041 4.20239 19.6985 4.21497C19.2138 4.23475 18.7572 4.29229 18.2866 4.40378C18.204 4.42355 17.9213 4.51526 17.8668 4.51346C17.8142 4.55302 17.5595 4.63753 17.484 4.64292C17.5279 4.59078 17.7263 4.39838 17.7755 4.3768C17.8124 4.31926 18.2813 3.87333 18.3498 3.82299C18.4025 3.78523 18.766 3.79422 18.8678 3.78163C20.8874 3.5281 22.05 2.0051 22.4452 0.00740399C21.8726 0.000211561 21.0753 0.21059 20.5239 0.392199C19.5317 0.721253 18.3586 1.37756 17.8739 2.37191C17.7562 2.61286 17.6139 2.98327 17.5823 3.24759C17.5595 3.44179 17.5121 3.49214 17.3769 3.62879C17.2996 3.70611 17.1609 3.84636 17.0643 3.88772C17.0818 3.66835 17.117 3.48854 17.1222 3.25479C17.1275 3.04081 17.1292 2.81245 17.1047 2.60027C17.0327 1.97273 16.6902 1.15819 16.3881 0.616962C16.2863 0.433555 16.2441 0.27712 16.0457 0.458729C15.9772 0.519865 15.7665 0.778792 15.7296 0.798571H15.7419Z" fill="#722839"/>
<path d="M32.8346 25.035L32.8873 19.5113C33.3175 19.6569 34.0885 20.2287 34.452 20.5326C34.9982 20.9929 35.2897 21.5485 35.3284 22.2821C35.3617 22.9403 35.1264 23.7602 34.6329 24.2115C34.1429 24.6592 33.4914 24.9667 32.8346 25.035ZM32.7205 25.053C32.5852 25.0602 32.3552 25.0926 32.2287 25.0674L32.227 19.193C32.3938 19.2344 32.6063 19.389 32.7767 19.4429L32.7205 25.053ZM31.9056 18.1537C31.816 18.1249 31.0539 17.7401 30.9028 17.6664C30.5709 17.501 30.2408 17.3481 29.9334 17.1324C29.3539 16.7296 28.8147 16.1596 28.5935 15.4637C28.3142 14.5844 28.7076 13.8976 29.4505 13.4696C30.1933 13.0417 31.1013 12.9446 31.939 13.0057C31.939 13.8688 31.939 14.7337 31.9407 15.5968C31.9407 16.2459 31.9477 17.5531 31.9056 18.1537ZM32.2287 18.3155C32.2129 18.1537 32.2235 17.2295 32.2235 16.9849C32.2235 16.1254 32.2516 15.2282 32.2691 14.3651C32.2779 13.9443 32.3078 13.475 32.2955 13.0615C32.4043 13.0579 32.7433 13.1388 32.8346 13.1891L32.7802 18.5978L32.2287 18.3155ZM31.8863 19.0294L31.8459 20.9803C31.1873 21.0379 30.253 20.7825 29.6366 20.5308C28.453 20.0489 27.3712 19.1678 26.7442 18.0278C26.393 17.3877 26.1805 16.672 26.098 15.9438C26.047 15.5051 26.4703 14.2608 26.6687 13.831C26.969 13.1783 27.3378 12.7738 27.8576 12.3009C28.9342 11.3209 30.527 10.9487 31.9372 10.999V12.8025C30.9257 12.7468 29.8983 12.8493 29.0167 13.4049C28.1966 13.9227 27.6697 14.784 27.9279 15.7946C28.1439 16.6397 28.8341 17.3284 29.5225 17.8031C29.8878 18.0548 30.2601 18.2688 30.657 18.463C30.9169 18.5906 31.6492 18.9449 31.8845 19.0276L31.8863 19.0294ZM24.1785 23.1632C24.0134 23.9975 23.5217 25.614 23.1669 26.3836C22.9369 26.8817 22.7314 27.2773 22.3064 27.6333C21.8726 27.9965 21.3036 28.1817 20.7452 28.1638C19.6616 28.1278 18.6905 27.2305 18.5798 26.1229C18.5184 25.5097 18.7449 25.0243 19.1242 24.5729C19.3806 24.2673 19.9953 23.8483 20.3676 23.7152C20.3465 23.6433 20.1832 23.2297 20.1323 23.21C19.3859 23.5822 18.7151 24.0173 18.3147 24.7941C17.8651 25.668 17.9687 26.6551 18.5131 27.4553C19.5949 29.0502 21.755 29.1437 23.0089 27.7088C24.2013 26.3459 25.0583 21.8758 25.4096 19.8709C25.4938 19.3872 25.5887 18.8873 25.6572 18.4C25.6747 18.2796 25.8468 16.8968 25.8767 16.913C26.2069 18.2238 26.9497 19.2397 27.9894 20.0489C29.0185 20.8526 30.5393 21.4226 31.8389 21.3975L31.7616 25.0404C30.8115 24.9577 29.8087 24.4147 29.1765 23.6955C28.8323 23.3035 28.6181 22.9546 28.4214 22.4655C28.1825 21.8722 28.1492 21.4191 28.114 20.7861L27.9753 20.7843L27.9437 25.071H28.0543C28.1105 24.9865 28.1737 24.3428 28.2071 24.1845C28.2177 24.0928 28.2668 23.6865 28.3002 23.6415C28.3775 23.7134 28.4582 23.8177 28.5373 23.9004C28.6145 23.9814 28.7164 24.0569 28.7989 24.136C28.899 24.2529 29.2643 24.4902 29.4083 24.5783C30.1284 25.0225 30.9151 25.258 31.7546 25.3299L31.6755 29.1096H32.2322L32.2358 25.3461L32.7187 25.3084L32.6818 29.1311L32.7942 29.1257L32.8311 25.294C33.2894 25.1969 33.6284 25.125 34.0586 24.9146C35.1984 24.3536 35.9816 23.325 35.9939 22.0016C36.0027 21.081 35.5988 20.3995 34.9227 19.8313C34.3765 19.371 33.5511 18.9449 32.8978 18.659L32.9505 13.2269C33.1911 13.2718 33.6793 13.5451 33.8918 13.6872C34.7049 14.2284 35.4232 15.2282 35.5549 16.2189L35.6638 16.2099L35.4566 13.1693L35.3652 13.1873L35.2827 14.3273C35.2441 14.3291 35.2072 14.2536 35.1756 14.2176C34.6575 13.6404 34.0183 13.315 33.3 13.0704C33.2245 13.0453 33.0032 12.9949 32.9558 12.9644C32.9312 12.5706 32.9628 12.0815 32.9663 11.6751C32.9681 11.4971 32.9663 10.4884 32.9856 10.4021L32.8645 10.4074L32.8416 12.9392L32.3042 12.8367L32.3517 10.3895L32.09 10.3841C32.0566 10.429 32.0847 10.3985 32.0619 10.447C30.6429 10.4021 29.2029 10.6682 28.0069 11.4863C27.5644 11.7884 27.0094 12.308 26.688 12.7414C26.2982 13.27 26.04 13.8436 25.8503 14.4748C25.6449 15.1598 25.4938 15.8845 25.3709 16.5893C25.241 17.3427 25.1637 18.0979 25.0355 18.8514C24.8809 19.7666 24.4472 22.2534 24.1802 23.1596L24.1785 23.1632Z" fill="#722839"/>
<path d="M1.84736 45.3105C3.25831 45.291 4.7201 45.165 5.79631 46.2874C6.70728 47.2383 7.02506 48.7709 6.99964 50.0626C6.9721 51.3782 6.5717 52.7502 5.63742 53.6924C4.61417 54.7257 3.20746 54.8451 1.84736 54.8148V45.3105ZM0.709709 45.3105L0.80928 45.3127C0.847414 45.4342 0.821992 49.5633 0.821992 50.0648C0.821992 51.643 0.796569 53.2408 0.821992 54.8169H0.0487263C-0.031778 54.8213 0.0254223 54.8126 0.00211838 54.8495L0.00423676 54.9971C1.07622 55.0036 2.14819 54.9971 3.21806 54.9971C4.15233 54.9993 5.00186 54.8625 5.82809 54.3936C7.35132 53.5339 7.99747 51.769 8.02713 50.0626C8.05679 48.3433 7.45513 46.5045 5.87682 45.6796C5.01669 45.2302 4.15233 45.1368 3.20111 45.139C2.1376 45.139 1.07198 45.1325 0.00211838 45.139L0 45.3083L0.709709 45.3105Z" fill="#722839"/>
<path d="M52.6667 47.6781C52.6526 47.6201 52.5721 47.5021 52.5419 47.4131C52.5057 47.3055 52.4855 47.1937 52.4755 47.0799C52.3769 45.8048 53.4236 45.0825 54.5448 45.4012C55.7707 45.751 56.1149 47.4835 55.5915 48.6054C55.1849 49.4768 54.573 49.7873 53.6551 49.7935V49.9487C54.7541 49.8991 55.505 50.2095 55.9418 51.3045C56.3242 52.267 56.1511 53.3764 55.519 54.1775C54.9293 54.9289 53.6349 55.0427 52.9002 54.4631C52.554 54.1899 52.3084 53.7718 52.1896 53.3413C52.0246 52.7534 52.081 52.3312 52.2601 51.764C52.2017 51.6936 51.7609 51.3418 51.6925 51.3211C51.5415 51.615 51.4569 51.7682 51.4086 52.1097C51.2838 52.977 51.5737 53.8546 52.2279 54.43C53.0391 55.1441 54.6072 55.1462 55.5251 54.6639C56.4993 54.1506 57.0912 53.0225 56.9885 51.9027C56.8878 50.8326 56.0827 50.0253 55.0923 49.839L54.8588 49.8018C55.0621 49.6941 55.2594 49.659 55.4808 49.5182C56.9402 48.5909 57.067 46.2851 55.4808 45.4406C54.3012 44.8134 52.25 45.1259 51.8615 46.6514C51.7528 47.0758 51.7589 47.8044 52.0508 48.1583L52.6707 47.676L52.6667 47.6781Z" fill="#722839"/>
<path d="M23.3293 45.5922C23.3869 45.6812 24.397 49.0256 24.5121 49.4187C24.5824 49.6641 24.8701 50.5393 24.8978 50.6913L21.7758 50.6892L23.3315 45.59L23.3293 45.5922ZM21.7183 50.8564L24.9447 50.8586L26.153 54.8176L25.4263 54.8263C25.405 54.8827 25.4114 54.937 25.4178 55H28.0986V54.8176L27.1908 54.8154L24.0923 45.1361L23.2633 45.1383L20.3566 54.8154L19.2676 54.8198V54.9978H21.6032L21.6117 54.8154L20.5313 54.8132L21.7183 50.8499V50.8564Z" fill="#722839"/>
<path d="M30.219 47.7321C30.9328 47.7321 31.6975 47.6317 32.333 48.054C33.4154 48.7754 33.4324 50.661 32.3351 51.476C31.742 51.9165 30.9116 51.7841 30.219 51.7933V47.7321ZM32.6105 47.8052C32.2652 47.6522 31.8585 47.6065 31.4878 47.6065C31.2633 47.6065 29.0709 47.5928 28.9014 47.6134L28.9035 47.7321L29.486 47.7412V54.85L28.9014 54.8568L28.9078 54.9824C29.1831 55.0372 30.5642 54.9413 30.7951 54.9984L30.7972 54.8523L30.2168 54.8545V51.9302C30.4202 51.9234 31.6615 51.9074 31.7653 51.9439L33.1591 54.8545L32.638 54.8637L32.6465 54.9915L34.519 54.9892L34.5211 54.8568L33.8941 54.8545L32.3732 51.8321C32.5236 51.7522 32.6782 51.7088 32.8371 51.6152C32.9494 51.5513 33.1231 51.4212 33.212 51.3253C33.4451 51.0696 33.6209 50.8345 33.7437 50.4921C33.9958 49.8004 33.9005 48.9078 33.3836 48.3804C33.1019 48.0951 32.979 47.9718 32.6083 47.8097L32.6105 47.8052Z" fill="#722839"/>
<path d="M47.3662 46.241C47.5027 46.2366 48.0305 45.9854 48.2179 45.9417L48.2138 54.8187H47.5272L47.5414 55L49.7747 54.9978V54.8187L49.0839 54.8143L49.0819 45.1379C48.7232 45.1292 48.8496 45.1445 48.6152 45.3585C48.2118 45.7277 47.9041 45.9614 47.3723 46.1383L47.3682 46.2388L47.3662 46.241Z" fill="#722839"/>
<path d="M12.5507 47.7371C13.0961 47.8378 13.2199 49.0345 13.3458 49.5082L13.4675 49.5059L13.2745 47.6021L8.83518 47.6067L8.83308 47.7279L9.41002 47.7371V54.8627L8.83099 54.8673L8.83308 55L13.4549 54.9977L13.6479 53.0916L13.5325 53.0939C13.4863 53.4097 13.371 53.881 13.2703 54.1831C13.1549 54.5218 13.0164 54.8581 12.6367 54.865C11.8059 54.8764 10.9667 54.865 10.1338 54.865C10.1338 54.6201 10.1128 51.0802 10.1422 50.9315H12.5695L12.5716 51.7644L12.6849 51.7621L12.6933 49.9544L12.5716 49.9521V50.785H10.1359V47.7279C10.3604 47.7302 12.4101 47.7096 12.5528 47.7371H12.5507Z" fill="#722839"/>
<path d="M35.4249 49.5142C35.5207 49.0604 35.6498 48.1667 35.9567 47.8611C36.1366 47.6856 36.596 47.7449 36.8326 47.7449C37.0633 47.7449 37.6068 47.7106 37.8023 47.7517V54.8518L37.2627 54.8563L37.2744 54.9772C37.4191 55.0296 38.8346 54.9453 39.0125 55L39.0145 54.8518L38.4768 54.8541V47.7403C38.7974 47.7494 39.1298 47.7403 39.4504 47.7403C40.1601 47.7403 40.383 47.608 40.6469 48.6227L40.8405 49.5142H40.9421C40.9637 49.252 40.7486 47.7996 40.7818 47.6286C40.6098 47.5784 39.6968 47.6149 39.4504 47.6149C39.0633 47.6149 35.7104 47.5944 35.4914 47.6194C35.4758 47.9774 35.3076 49.3455 35.3252 49.5165L35.423 49.5119L35.4249 49.5142Z" fill="#722839"/>
</svg>
