<svg width="19" height="27" viewBox="0 0 19 27" fill="none" xmlns="http://www.w3.org/2000/svg">
<path d="M9.49268 0C4.25146 0 0 3.85073 0 9.21282C0 17.857 9.49756 27 9.49756 27C9.49756 27 19 17.857 19 9.21282C18.9854 3.85073 14.7339 0 9.49268 0ZM9.49268 13.5274C8.78971 13.5274 8.10256 13.3142 7.51806 12.9146C6.93356 12.5151 6.47802 11.9472 6.209 11.2827C5.93999 10.6183 5.86957 9.88716 6.00671 9.1818C6.14385 8.47644 6.48236 7.82852 6.97944 7.31998C7.47651 6.81144 8.10986 6.46512 8.79932 6.32482C9.48878 6.18451 10.2034 6.25653 10.8529 6.53174C11.5023 6.80696 12.0575 7.27303 12.448 7.871C12.8386 8.46898 13.047 9.17201 13.047 9.8912C13.0476 10.3697 12.9558 10.8437 12.7768 11.2858C12.5978 11.7279 12.3352 12.1295 12.004 12.4674C11.6727 12.8053 11.2795 13.0729 10.8468 13.2549C10.4142 13.4368 9.95073 13.5294 9.48298 13.5274H9.49268Z" fill="#151515"/>
</svg>
