<svg width="39" height="41" viewBox="0 0 39 41" fill="none" xmlns="http://www.w3.org/2000/svg">
<path d="M8.10542 22.2293C8.10542 21.677 7.6577 21.2293 7.10542 21.2293C6.55313 21.2293 6.10542 21.677 6.10542 22.2293H8.10542ZM7.10542 40H6.10542C6.10542 40.5523 6.55313 41 7.10542 41V40ZM12.9663 41C13.5186 41 13.9663 40.5523 13.9663 40C13.9663 39.4477 13.5186 39 12.9663 39V41ZM7.08957 34.0629C6.53729 34.0629 6.08957 34.5106 6.08957 35.0629C6.08957 35.6152 6.53729 36.0629 7.08957 36.0629V34.0629ZM12.9505 36.0629C13.5028 36.0629 13.9505 35.6152 13.9505 35.0629C13.9505 34.5106 13.5028 34.0629 12.9505 34.0629V36.0629ZM5.87225 9.96593C5.87225 10.5182 6.31997 10.9659 6.87225 10.9659C7.42454 10.9659 7.87225 10.5182 7.87225 9.96593H5.87225ZM16.7303 1.05146L16.8213 2.04731L16.8213 2.0473L16.7303 1.05146ZM27.9811 9.32837C27.9811 9.88066 28.4288 10.3284 28.9811 10.3284C29.5334 10.3284 29.9811 9.88066 29.9811 9.32837H27.9811ZM28.311 4.53875L28.3108 5.53875H28.311V4.53875ZM38 30.6764V31.6764H39V30.6764H38ZM18.6198 30.6764H17.6198V31.6764H18.6198V30.6764ZM18.6198 14.2496H19.6198H18.6198ZM12.2108 16.0844C12.2108 18.9138 9.92294 21.2036 7.10542 21.2036V23.2036C11.0318 23.2036 14.2108 20.0141 14.2108 16.0844H12.2108ZM7.10542 21.2036C4.2879 21.2036 2 18.9138 2 16.0844H0C0 20.0141 3.17908 23.2036 7.10542 23.2036V21.2036ZM2 16.0844C2 13.255 4.2879 10.9652 7.10542 10.9652V8.96518C3.17908 8.96518 0 12.1547 0 16.0844H2ZM7.10542 10.9652C9.92294 10.9652 12.2108 13.255 12.2108 16.0844H14.2108C14.2108 12.1547 11.0318 8.96518 7.10542 8.96518V10.9652ZM6.10542 22.2293V40H8.10542V22.2293H6.10542ZM7.10542 41H12.9663V39H7.10542V41ZM7.08957 36.0629H12.9505V34.0629H7.08957V36.0629ZM7.87225 9.96593C7.87225 7.64903 8.97099 5.79777 10.6536 4.44483C12.3535 3.07807 14.6245 2.24817 16.8213 2.04731L16.6392 0.0556142C14.1047 0.287351 11.4467 1.2408 9.4004 2.88618C7.33686 4.54538 5.87225 6.93506 5.87225 9.96593H7.87225ZM16.8213 2.0473C19.2566 1.82459 22.11 2.39083 24.3257 3.67794C26.5268 4.95658 27.9811 6.86203 27.9811 9.32837H29.9811C29.9811 5.93795 27.9398 3.46445 25.3303 1.94857C22.7354 0.441157 19.4635 -0.202677 16.6392 0.055616L16.8213 2.0473ZM28.311 5.53875C30.6147 5.53875 32.8246 6.45595 34.4543 8.0893L35.8701 6.67668C33.8657 4.66776 31.1466 3.53875 28.311 3.53875V5.53875ZM34.4543 8.0893C36.084 9.72273 37 11.9386 37 14.2496H39C39 11.4096 37.8744 8.68553 35.8701 6.67668L34.4543 8.0893ZM37 14.2496V30.6764H39V14.2496H37ZM38 29.6764H18.6198V31.6764H38V29.6764ZM19.6198 30.6764V14.2496H17.6198V30.6764H19.6198ZM19.6198 14.2496C19.6198 13.1052 19.8447 11.972 20.2817 10.9149L18.4334 10.1509C17.8962 11.4504 17.6198 12.8431 17.6198 14.2496H19.6198ZM20.2817 10.9149C20.7186 9.85775 21.3591 8.89738 22.1662 8.08858L20.7506 6.6758C19.7579 7.67052 18.9705 8.85139 18.4334 10.1509L20.2817 10.9149ZM22.1662 8.08858C22.9734 7.27978 23.9315 6.63839 24.9858 6.20093L24.2192 4.35365C22.9219 4.89195 21.7433 5.68106 20.7506 6.6758L22.1662 8.08858ZM24.9858 6.20093C26.04 5.76347 27.1699 5.53848 28.3108 5.53875L28.3112 3.53875C26.907 3.53842 25.5166 3.81534 24.2192 4.35365L24.9858 6.20093Z" fill="#722839"/>
</svg>
