<svg width="50" height="38" viewBox="0 0 50 38" fill="none" xmlns="http://www.w3.org/2000/svg">
<path d="M26.0304 12.041V4.37711C26.0304 2.39769 24.6953 1 22.8045 1H4.8819C2.99618 1 1.66211 2.40314 1.66211 4.388V23.2486C1.66211 25.2378 2.99204 26.6453 4.87051 26.6453H16.2552M11.8855 15.6033V22.7017C11.8855 23.2116 11.782 23.3249 11.2997 23.326H9.05696C8.5964 23.326 8.48876 23.2094 8.48876 22.717V4.90765C8.48876 4.43485 8.60054 4.3161 9.04765 4.3161C10.9106 4.3161 12.7653 4.30739 14.6241 4.3161C17.3512 4.33245 19.4957 6.20946 19.9997 9.00048C20.5461 12.0268 18.4524 15.1065 15.5555 15.5259C15.225 15.5708 14.8921 15.5933 14.5589 15.5935C13.6812 15.6076 12.8067 15.6033 11.8855 15.6033ZM11.1052 9.78267V7.47643C11.1052 7.04067 11.22 6.92193 11.6382 6.92193H14.7752C16.2148 6.92193 17.3233 8.03528 17.4361 9.57895C17.5489 11.1226 16.5791 12.4299 15.1705 12.6587C15.0185 12.6784 14.8652 12.6857 14.712 12.6804H11.7106C11.1931 12.6804 11.1062 12.5878 11.1062 12.0268C11.1048 11.2802 11.1045 10.5322 11.1052 9.78267ZM19.0941 23.5907H45.8335C46.5837 23.5907 47.3032 23.9044 47.8336 24.4627C48.3641 25.0211 48.6621 25.7784 48.6621 26.568V32.6087H16.2676V26.568C16.2676 25.7784 16.5656 25.0211 17.0961 24.4627C17.6265 23.9044 18.346 23.5907 19.0962 23.5907H19.0941ZM18.6304 32.613H24.1634V35.611C24.1638 35.7932 24.1301 35.9736 24.0641 36.1421C23.9982 36.3105 23.9014 36.4636 23.7792 36.5926C23.6571 36.7216 23.5119 36.824 23.3521 36.8939C23.1923 36.9638 23.021 36.9998 22.8479 37H19.95C19.6009 37 19.266 36.854 19.0191 36.5941C18.7722 36.3343 18.6335 35.9818 18.6335 35.6143V32.613H18.6304ZM46.2962 32.613V35.611C46.2966 35.7936 46.2627 35.9745 46.1965 36.1433C46.1302 36.3121 46.033 36.4654 45.9102 36.5945C45.7875 36.7236 45.6417 36.8259 45.4813 36.8955C45.3209 36.965 45.149 37.0006 44.9756 37H42.0776C41.7285 37 41.3936 36.854 41.1468 36.5941C40.8999 36.3343 40.7612 35.9818 40.7612 35.6143V32.613H46.2962ZM45.3895 23.5983H19.5381L23.206 12.0442H41.2207L45.3895 23.5983ZM45.8553 28.1334C45.8553 29.4824 44.8164 30.5759 43.5349 30.5759C42.2534 30.5759 41.2145 29.4824 41.2145 28.1334C41.2145 26.7845 42.2534 25.691 43.5349 25.691C44.8164 25.691 45.8553 26.7845 45.8553 28.1334ZM23.7349 28.1334C23.7349 29.4824 22.696 30.5759 21.4145 30.5759C20.133 30.5759 19.0941 29.4824 19.0941 28.1334C19.0941 26.7845 20.133 25.691 21.4145 25.691C22.696 25.691 23.7349 26.7845 23.7349 28.1334Z" stroke="#722839" stroke-width="2" stroke-miterlimit="10"/>
</svg>
