<svg width="40" height="38" viewBox="0 0 40 38" fill="none" xmlns="http://www.w3.org/2000/svg">
<path d="M1.66211 15.0045V14.0045H0.662109V15.0045H1.66211ZM38.6621 15.0045H39.6621V14.0045H38.6621V15.0045ZM38.6621 37V38H39.6621V37H38.6621ZM1.66211 37H0.662109V38H1.66211V37ZM38.6621 21.8976H39.6621V20.8976H38.6621V21.8976ZM38.6621 30.1319V31.1319H39.6621V30.1319H38.6621ZM22.4236 30.1319V31.1319V30.1319ZM18.3455 26.0147H17.3455H18.3455ZM7.74227 2.59071L6.74227 2.58684V2.59071H7.74227ZM9.3241 1L9.32409 2H9.3241V1ZM22.4731 1V2H22.4731L22.4731 1ZM24.0549 2.59071H25.0549L25.0549 2.58684L24.0549 2.59071ZM25.4236 3.71006V4.71006V3.71006ZM24.1599 6.80054V5.80054C23.6077 5.80054 23.1599 6.24825 23.1599 6.80054H24.1599ZM26.9776 6.80054V7.80054L26.9807 7.80053L26.9776 6.80054ZM28.9858 8.82168L27.9858 8.82167L27.9858 8.82474L28.9858 8.82168ZM26.9776 10.8491L26.9807 9.84906H26.9776V10.8491ZM22.6523 9.84906C22.1 9.84906 21.6523 10.2968 21.6523 10.8491C21.6523 11.4013 22.1 11.8491 22.6523 11.8491V9.84906ZM22.6646 11.9023C22.1123 11.9023 21.6646 12.35 21.6646 12.9023C21.6646 13.4546 22.1123 13.9023 22.6646 13.9023V11.9023ZM27.5831 13.9023C28.1354 13.9023 28.5831 13.4546 28.5831 12.9023C28.5831 12.35 28.1354 11.9023 27.5831 11.9023V13.9023ZM1.66211 16.0045H38.6621V14.0045H1.66211V16.0045ZM37.6621 15.0045V37H39.6621V15.0045H37.6621ZM38.6621 36H1.66211V38H38.6621V36ZM2.66211 37V15.0045H0.662109V37H2.66211ZM22.4236 22.8976H38.6621V20.8976H22.4236V22.8976ZM37.6621 21.8976V30.1319H39.6621V21.8976H37.6621ZM38.6621 29.1319H22.4236V31.1319H38.6621V29.1319ZM22.4236 29.1319C21.6103 29.1319 20.8284 28.8058 20.2504 28.2222L18.8295 29.6297C19.7811 30.5904 21.0737 31.1319 22.4236 31.1319V29.1319ZM20.2504 28.2222C19.6721 27.6384 19.3455 26.8445 19.3455 26.0147H17.3455C17.3455 27.3688 17.8782 28.6694 18.8295 29.6297L20.2504 28.2222ZM19.3455 26.0147C19.3455 25.185 19.6721 24.3911 20.2504 23.8072L18.8295 22.3997C17.8782 23.3601 17.3455 24.6606 17.3455 26.0147H19.3455ZM20.2504 23.8072C20.8284 23.2237 21.6103 22.8976 22.4236 22.8976V20.8976C21.0737 20.8976 19.7811 21.4391 18.8295 22.3997L20.2504 23.8072ZM8.74227 14.8735V2.59071H6.74227V14.8735H8.74227ZM8.74226 2.59458C8.74289 2.43362 8.80674 2.28137 8.91684 2.17065L7.49867 0.760404C7.01583 1.24596 6.74492 1.90289 6.74228 2.58684L8.74226 2.59458ZM8.91684 2.17065C9.02663 2.06025 9.17325 2 9.32409 2L9.32411 0C8.63803 -5.24521e-06 7.98183 0.274531 7.49867 0.760404L8.91684 2.17065ZM9.3241 2H22.4731V0H9.3241V2ZM22.4731 2C22.6239 2 22.7705 2.06025 22.8803 2.17065L24.2985 0.760404C23.8153 0.274528 23.1591 -5.24521e-06 22.4731 0L22.4731 2ZM22.8803 2.17065C22.9904 2.28137 23.0543 2.43362 23.0549 2.59458L25.0549 2.58684C25.0522 1.90289 24.7813 1.24596 24.2985 0.760404L22.8803 2.17065ZM23.0549 2.59071V4.0566H25.0549V2.59071H23.0549ZM10.9687 1.17467V14.8174H12.9687V1.17467H10.9687ZM19.985 14.5277C19.7635 14.1051 19.5708 13.4639 19.4401 12.7396C19.3112 12.0256 19.2557 11.3056 19.2706 10.7616L17.2713 10.7069C17.2522 11.4078 17.3223 12.2663 17.4719 13.0948C17.6195 13.9129 17.8581 14.7781 18.2136 15.4563L19.985 14.5277ZM19.2706 10.7616C19.3 9.68716 19.6041 8.63923 20.1526 7.71958L18.435 6.69505C17.7107 7.90933 17.3101 9.2913 17.2713 10.7069L19.2706 10.7616ZM20.1526 7.71958C20.7011 6.8 21.4752 6.04034 22.3987 5.51344L21.4076 3.77629C20.183 4.47494 19.1593 5.48071 18.435 6.69505L20.1526 7.71958ZM22.3987 5.51344C23.3221 4.98658 24.3641 4.71006 25.4236 4.71006V2.71006C24.0156 2.71006 22.6322 3.07759 21.4076 3.77629L22.3987 5.51344ZM25.4236 4.71006C26.483 4.71006 27.525 4.98658 28.4484 5.51344L29.4395 3.77629C28.2149 3.07759 26.8315 2.71006 25.4236 2.71006V4.71006ZM28.4484 5.51344C29.3719 6.04034 30.146 6.8 30.6945 7.71958L32.4121 6.69505C31.6878 5.48071 30.6641 4.47494 29.4395 3.77629L28.4484 5.51344ZM30.6945 7.71958C31.243 8.63922 31.5471 9.68716 31.5765 10.7616L33.5758 10.7069C33.537 9.2913 33.1364 7.90933 32.4121 6.69505L30.6945 7.71958ZM31.5765 10.7616C31.5914 11.3056 31.5359 12.0256 31.407 12.7396C31.2763 13.4639 31.0836 14.1051 30.8621 14.5277L32.6335 15.4563C32.989 14.7781 33.2276 13.9129 33.3752 13.0948C33.5248 12.2663 33.5949 11.4078 33.5758 10.7069L31.5765 10.7616ZM25.1599 14.8486V7.79245H23.1599V14.8486H25.1599ZM24.1599 7.80054H26.9776V5.80054H24.1599V7.80054ZM26.9807 7.80053C27.1112 7.80013 27.2407 7.82572 27.362 7.87607L28.1293 6.02912C27.7633 5.87706 27.3708 5.79931 26.9745 5.80054L26.9807 7.80053ZM27.362 7.87607C27.4832 7.92644 27.594 8.00072 27.6878 8.09514L29.1066 6.68548C28.8273 6.40437 28.4952 6.18116 28.1293 6.02912L27.362 7.87607ZM27.6878 8.09514C27.7817 8.18957 27.8566 8.30229 27.9079 8.42707L29.7576 7.66649C29.607 7.30002 29.3859 6.96657 29.1066 6.68548L27.6878 8.09514ZM27.9079 8.42707C27.9592 8.55187 27.9858 8.686 27.9858 8.82167L29.9858 8.82168C29.9858 8.42547 29.9083 8.03293 29.7576 7.66649L27.9079 8.42707ZM27.9858 8.82474C27.9862 8.96069 27.96 9.09516 27.9088 9.22033L29.7603 9.97666C29.9104 9.60915 29.987 9.21561 29.9858 8.81862L27.9858 8.82474ZM27.9088 9.22033C27.8577 9.34549 27.7828 9.45859 27.6889 9.55335L29.1099 10.9608C29.3893 10.6787 29.6102 10.3442 29.7603 9.97666L27.9088 9.22033ZM27.6889 9.55335C27.5951 9.6481 27.4841 9.72266 27.3627 9.77323L28.1314 11.6196C28.498 11.467 28.8304 11.2429 29.1099 10.9608L27.6889 9.55335ZM27.3627 9.77323C27.2412 9.82378 27.1115 9.84947 26.9807 9.84906L26.9745 11.8491C27.3716 11.8503 27.7648 11.7722 28.1314 11.6196L27.3627 9.77323ZM26.9776 9.84906H22.6523V11.8491H26.9776V9.84906ZM22.6646 13.9023H27.5831V11.9023H22.6646V13.9023ZM25.1599 7.79245V6.80054H23.1599V7.79245H25.1599Z" fill="#722839"/>
</svg>
