<svg width="40" height="40" viewBox="0 0 40 40" fill="none" xmlns="http://www.w3.org/2000/svg">
<rect width="40" height="40" rx="9" fill="#722839"/>
<path d="M7.96805 19.5066L7.97547 19.5037L7.98279 19.5006C14.9627 16.5367 19.6129 14.5846 21.9371 13.6424C25.2632 12.2941 27.2603 11.5076 28.5369 11.0561C29.8218 10.6017 30.3259 10.5063 30.6885 10.5001C30.7492 10.499 30.8683 10.5064 30.9971 10.5364C31.1295 10.5672 31.2335 10.613 31.2975 10.6636C31.3915 10.7379 31.43 10.8419 31.4559 10.9898C31.4827 11.1422 31.5167 11.5084 31.4908 11.7733C31.1331 15.4368 29.5785 24.369 28.785 28.5031C28.4602 30.1955 27.8826 30.4658 27.5952 30.4916C27.0437 30.5411 26.5378 30.3691 25.9756 30.0472C25.6929 29.8853 25.4066 29.6919 25.0971 29.4775C25.0465 29.4425 24.9952 29.4069 24.9433 29.3709C24.6826 29.1897 24.4056 28.9972 24.1165 28.8125C23.0668 28.1419 22.2454 27.5978 21.4292 27.0561L21.3211 26.9844C20.5408 26.4665 19.7556 25.9454 18.7746 25.3153C18.2089 24.952 17.9468 24.6715 17.8391 24.4705C17.7519 24.3079 17.7557 24.1828 17.8266 24.0252C17.9138 23.8316 18.0984 23.6074 18.3909 23.3173C18.5169 23.1924 18.653 23.0645 18.7997 22.9266C18.8186 22.9089 18.8376 22.8911 18.8567 22.873C19.0232 22.7165 19.2003 22.5488 19.3758 22.3713C19.4527 22.2934 19.8368 21.9454 20.3874 21.4467C21.0235 20.8706 21.8817 20.0932 22.7448 19.2987C23.5408 18.5661 24.3333 17.8257 24.9355 17.2362C25.2359 16.9421 25.494 16.6806 25.6828 16.4741C25.7767 16.3715 25.8595 16.2758 25.9235 16.1926C25.9553 16.1512 25.9876 16.1063 26.0155 16.0606C26.0381 16.0235 26.0807 15.9497 26.103 15.857C26.1265 15.7596 26.1349 15.6214 26.1136 15.481C26.0921 15.3397 26.0282 15.1187 25.8329 14.9496C25.6416 14.7839 25.4221 14.7474 25.2649 14.7463C25.1158 14.7451 24.9776 14.7757 24.9051 14.7917L24.9018 14.7925C24.8179 14.811 24.7375 14.8526 24.708 14.8678L24.7043 14.8698C24.6561 14.8946 24.5981 14.9269 24.5327 14.9646C24.401 15.0406 24.2216 15.1491 23.9965 15.2884C23.5455 15.5677 22.8982 15.9792 22.0559 16.5217C20.3708 17.6073 17.8973 19.223 14.6365 21.3682L14.6365 21.3682L14.6332 21.3704C13.7241 21.9789 12.9598 22.2341 12.3255 22.2207C11.9573 22.213 11.3786 22.1074 10.7108 21.9442C10.0543 21.7838 9.34894 21.5772 8.74448 21.3857C8.54729 21.3232 8.36108 21.2661 8.18594 21.2124C7.6613 21.0515 7.23597 20.921 6.91219 20.7681C6.70181 20.6688 6.59199 20.5847 6.53976 20.5221C6.50443 20.4798 6.49482 20.4508 6.50221 20.3933C6.50241 20.3918 6.5236 20.2865 6.78526 20.0971C7.03215 19.9184 7.41884 19.7194 7.96805 19.5066Z" stroke="white"/>
</svg>
