<svg width="40" height="40" viewBox="0 0 40 40" fill="none" xmlns="http://www.w3.org/2000/svg">
<rect width="40" height="40" rx="9" fill="#722839"/>
<path d="M17.5352 15.4161L17.9867 15.2012C17.9248 15.0713 17.496 14.0309 17.1473 13.1849C17.0246 12.8872 16.9118 12.6136 16.8285 12.4122L16.828 12.4111C16.6887 12.077 16.5162 11.7507 16.1527 11.5806C15.9863 11.5027 15.8127 11.4733 15.6506 11.4595C15.4901 11.4459 15.3044 11.4452 15.1055 11.4452C14.041 11.4452 13.2374 12.0665 12.7227 12.8593C12.2111 13.6471 11.947 14.6517 11.947 15.5761C11.947 16.5099 12.2743 17.5185 12.783 18.5056C13.2945 19.4983 14.0068 20.5024 14.8186 21.4369C16.4341 23.2965 18.4977 24.9407 20.2701 25.675C21.7802 26.3008 22.7898 26.598 23.5252 26.715C24.282 26.8353 24.7377 26.7626 25.1192 26.6816L25.121 26.6813C25.6825 26.56 26.3011 26.2967 26.8265 25.9412C27.3429 25.5919 27.8314 25.111 28.0388 24.524C28.2097 24.04 28.2969 23.5876 28.3281 23.2261C28.3436 23.0459 28.3459 22.881 28.3354 22.741C28.3268 22.6281 28.3058 22.4523 28.2231 22.3071C28.2225 22.3061 28.2219 22.3051 28.2214 22.3041C28.1603 22.1984 28.0703 22.1287 28.0414 22.1063L28.0394 22.1048C27.9926 22.0685 27.9391 22.0327 27.886 21.9993C27.7787 21.9316 27.6406 21.8535 27.4877 21.771C27.1801 21.6052 26.7841 21.4068 26.3898 21.2152C25.9944 21.0231 25.5958 20.8355 25.2809 20.6906C24.9922 20.5577 24.7424 20.4461 24.6467 20.4112C24.4105 20.3225 24.1343 20.277 23.8491 20.3513C23.5564 20.4275 23.3172 20.6134 23.1337 20.8729C23.0835 20.9431 23.034 21.0125 22.9854 21.0807C22.6673 21.5269 22.3861 21.9214 22.1589 22.1673C22.1127 22.216 21.9813 22.2666 21.7998 22.1913C21.7654 22.177 21.7264 22.1612 21.6829 22.1437C21.1979 21.9479 20.1609 21.5293 18.8922 20.3989L18.8921 20.3988C17.83 19.4532 17.0979 18.2642 16.8826 17.8994C16.8686 17.8753 16.861 17.8578 16.857 17.8465C16.8554 17.8421 16.8543 17.8386 16.8536 17.836C16.857 17.8288 16.8646 17.8149 16.8807 17.7924C16.9051 17.7583 16.9343 17.7241 16.9817 17.6685L16.9833 17.6667L16.988 17.6613L16.9925 17.6556C17.1034 17.5179 17.2243 17.3898 17.356 17.2502C17.3697 17.2356 17.3836 17.221 17.3975 17.2062C17.5379 17.0571 17.6957 16.8876 17.8242 16.7062C17.9546 16.5221 18.0753 16.2986 18.1188 16.0325C18.1639 15.7572 18.1194 15.4783 17.9861 15.2001L17.5352 15.4161ZM17.5352 15.4161C17.8262 16.0235 17.4371 16.4358 16.9913 16.9082C16.8615 17.0456 16.727 17.1881 16.6031 17.342L25.0154 26.1925C24.3355 26.3369 23.4489 26.4511 20.4615 25.2131C17.1062 23.823 12.447 18.8713 12.447 15.5761C12.447 13.8986 13.4142 11.9452 15.1055 11.9452C15.9193 11.9452 16.0987 11.9611 16.3665 12.6035C16.4452 12.7937 16.5525 13.0539 16.6704 13.3399C17.0215 14.1919 17.4671 15.273 17.5352 15.4161ZM9.94927 26.7781L10.0313 26.5333L9.87931 26.3246C8.38105 24.2684 7.5 21.7337 7.5 19C7.5 12.107 13.1055 6.5 19.9961 6.5H20.0026C26.8933 6.5 32.5 12.107 32.5 19C32.5 25.893 26.8933 31.5 20.0026 31.5C17.4607 31.5 15.1031 30.7439 13.1273 29.4363L12.9274 29.304L12.6991 29.3769L8.6432 30.673L9.94927 26.7781Z" stroke="white"/>
</svg>
