<svg width="40" height="40" viewBox="0 0 40 40" fill="none" xmlns="http://www.w3.org/2000/svg">
<rect width="40" height="40" rx="9" fill="#722839"/>
<path d="M17.9746 23.0831V12.5H21.1647V18.3263V18.8822L21.7174 18.8235C23.1582 18.6707 24.5754 17.7977 25.7314 16.597C26.8092 15.4777 27.6995 14.0338 28.2046 12.5H31.4089C30.5711 15.9268 27.9596 18.4686 26.0776 19.5416L25.2343 20.0225L26.1155 20.4298C28.0015 21.3017 30.9875 23.528 32.3236 27.5H28.7437C27.6314 24.4676 25.0821 22.1152 21.7135 21.7847L21.1647 21.7308V22.2823V27.5H21.1611C16.8397 27.5 13.4988 26.0439 11.205 23.4188C8.98221 20.8748 7.69552 17.1784 7.5151 12.5H10.9644C11.2474 19.6355 14.5288 22.8717 17.3549 23.5685L17.9746 23.7213V23.0831Z" stroke="#DDDDDD"/>
</svg>
