<svg width="40" height="40" viewBox="0 0 40 40" fill="none" xmlns="http://www.w3.org/2000/svg">
<rect width="40" height="40" rx="9" fill="#722839"/>
<path d="M20.4146 6.52257L20.4151 6.52259L20.4152 6.5226L20.4152 6.5226L20.4307 6.52357H20.4464C26.4527 6.52357 29.2519 8.30102 29.8133 8.79714L29.8199 8.803L29.8267 8.80863C30.8459 9.64699 31.6598 11.1091 32.1118 13.2109C32.5626 15.3073 32.6436 17.9986 32.2339 21.2322C31.8423 24.2588 30.5185 25.8114 29.2334 26.6551C28.1952 27.3367 27.1982 27.5639 26.5511 27.7114C26.3768 27.7511 26.2279 27.7851 26.1104 27.8206C23.4635 28.4505 20.7311 28.6777 18.0117 28.4939L17.7634 28.4771L17.6003 28.665L17.978 28.9927L17.6003 28.6651L17.6002 28.6652L17.5997 28.6657L17.598 28.6677L17.591 28.6758L17.5634 28.7075L17.4579 28.8289C17.3664 28.934 17.2345 29.0854 17.0731 29.2704C16.7501 29.6404 16.3089 30.1444 15.8358 30.6807C14.9784 31.6528 14.0279 32.7177 13.4826 33.2896V33.2878V33.2818V33.2757V33.2695V33.2632V33.2569V33.2504V33.2439V33.2373V33.2306V33.2238V33.217V33.21V33.203V33.1959V33.1887V33.1814V33.174V33.1666V33.1591V33.1515V33.1438V33.1361V33.1283V33.1203V33.1124V33.1043V33.0962V33.088V33.0797V33.0713V33.0629V33.0544V33.0458V33.0371V33.0284V33.0196V33.0107V33.0018V32.9928V32.9837V32.9745V32.9653V32.956V32.9466V32.9372V32.9277V32.9181V32.9085V32.8988V32.889V32.8792V32.8693V32.8593V32.8493V32.8392V32.829V32.8188V32.8085V32.7982V32.7878V32.7773V32.7667V32.7562V32.7455V32.7348V32.724V32.7132V32.7023V32.6913V32.6803V32.6693V32.6581V32.647V32.6357V32.6244V32.6131V32.6017V32.5902V32.5787V32.5672V32.5556V32.5439V32.5322V32.5204V32.5086V32.4967V32.4848V32.4728V32.4608V32.4487V32.4366V32.4244V32.4122V32.3999V32.3876V32.3752V32.3628V32.3504V32.3379V32.3253V32.3128V32.3001V32.2875V32.2747V32.262V32.2492V32.2363V32.2234V32.2105V32.1975V32.1845V32.1715V32.1584V32.1453V32.1321V32.1189V32.1057V32.0924V32.0791V32.0657V32.0523V32.0389V32.0254V32.0119V31.9984V31.9848V31.9713V31.9576V31.944V31.9303V31.9165V31.9028V31.889V31.8752V31.8613V31.8475V31.8336V31.8196V31.8057V31.7917V31.7776V31.7636V31.7495V31.7354V31.7213V31.7072V31.693V31.6788V31.6646V31.6503V31.636V31.6217V31.6074V31.5931V31.5787V31.5644V31.55V31.5355V31.5211V31.5066V31.4922V31.4777V31.4632V31.4486V31.4341V31.4195V31.4049V31.3903V31.3757V31.3611V31.3464V31.3318V31.3171V31.3024V31.2877V31.273V31.2583V31.2436V31.2288V31.2141V31.1993V31.1845V31.1697V31.1549V31.1401V31.1253V31.1105V31.0957V31.0809V31.066V31.0512V31.0363V31.0215V31.0066V30.9917V30.9769V30.962V30.9471V30.9322V30.9174V30.9025V30.8876V30.8727V30.8578V30.8429V30.8281V30.8132V30.7983V30.7834V30.7685V30.7536V30.7388V30.7239V30.709V30.6942V30.6793V30.6645V30.6496V30.6348V30.6199V30.6051V30.5903V30.5755V30.5607V30.5459V30.5311V30.5163V30.5015V30.4868V30.472V30.4573V30.4426V30.4279V30.4131V30.3985V30.3838V30.3691V30.3545V30.3398V30.3252V30.3106V30.296V30.2815V30.2669V30.2524V30.2378V30.2233V30.2089V30.1944V30.18V30.1655V30.1511V30.1367V30.1224V30.108V30.0937V30.0794V30.0651V30.0509V30.0366V30.0224V30.0083V29.9941V29.98V29.9659V29.9518V29.9377V29.9237V29.9097V29.8957V29.8818V29.8679V29.854V29.8401V29.8263V29.8125V29.7987V29.785V29.7713V29.7576V29.744V29.7304V29.7168V29.7033V29.6897V29.6763V29.6628V29.6494V29.6361V29.6227V29.6095V29.5962V29.583V29.5698V29.5567V29.5436V29.5305V29.5175V29.5045V29.4916V29.4787V29.4658V29.453V29.4402V29.4275V29.4148V29.4021V29.3895V29.377V29.3645V29.352V29.3396V29.3272V29.3149V29.3026V29.2903V29.2782V29.266V29.2539V29.2419V29.2299V29.218V29.2061V29.1942V29.1824V29.1707V29.159V29.1474V29.1358V29.1243V29.1128V29.1014V29.09V29.0787V29.0675V29.0563V29.0451V29.034V29.023V29.012V29.0011V28.9903V28.9795V28.9688V28.9581V28.9475V28.9369V28.9264V28.916V28.9056V28.8953V28.8851V28.8749V28.8648V28.8547V28.8447V28.8348V28.825V28.8152V28.8054V28.7958V28.7862V28.7767V28.7672V28.7578V28.7485V28.7392V28.7301V28.721V28.7119V28.7029V28.694V28.6852V28.6765V28.6678V28.6592V28.6506V28.6422V28.6338V28.6255V28.6173V28.6091V28.601V28.593V28.5851V28.5772V28.5694V28.5617V28.5541V28.5466V28.5391V28.5317V28.5244V28.5172V28.5101V28.503V28.496V28.4892V28.4823V28.4756V28.469V28.4624V28.4559V28.4496V28.4433V28.437V28.4309V28.4249V28.4189V28.413V28.4073V28.4016V28.396V28.3904V28.385V28.3797V28.3744V28.3693V28.3642V28.3593V28.3544V28.3496V28.3449V28.3403V28.3358V28.3314V28.3271V28.3229V28.3187V28.3147V28.3108V28.3069V28.3032V28.2996V28.296V28.2926V28.2892V28.286V28.2829V28.2798V28.2769V28.274V28.2713V28.2687V28.2661V28.2637V28.2614V28.2591V28.257V28.255V28.2531V28.2513V28.2496V28.248V28.2465V28.2451V28.2439V28.2427V28.2417V28.2407V28.2399V28.2392V28.2386V28.238V28.2377V28.2374V28.2372L12.9826 28.2371H13.4826V27.8543L13.1129 27.7544C10.1062 26.9425 8.71118 25.0439 8.0551 22.9243C7.42658 20.8938 7.48158 18.6768 7.5233 16.9948C7.52597 16.8873 7.52858 16.782 7.53095 16.6791C7.60802 13.3406 8.25393 10.7375 10.052 9.00844C11.6845 7.58329 14.2329 6.94439 16.4535 6.677C17.553 6.54461 18.5468 6.50604 19.2657 6.50068C19.6248 6.49801 19.9144 6.50362 20.1132 6.50984C20.2126 6.51295 20.2892 6.51621 20.3405 6.51866L20.3978 6.5216L20.4116 6.52238L20.4146 6.52257Z" stroke="white"/>
<path d="M23.5728 16.3914L23.5836 16.4015L23.5836 16.4015M23.5728 16.3914L23.5683 16.3872V16.3872L23.5728 16.3914ZM23.5728 16.3914L23.5836 16.4015M23.5836 16.4015L23.5923 16.4048L23.5836 16.4015ZM23.567 16.3859L23.5652 16.3842L23.5495 16.385L23.567 16.3859ZM23.567 16.3859L23.5652 16.3842" stroke="white"/>
<path d="M20.4451 11.824L20.451 11.8218L20.4451 11.824ZM20.4496 11.8249L20.4517 11.8227L20.4496 11.8249Z" stroke="white"/>
<path d="M27.8027 17.8307V17.8307V17.8307Z" stroke="white"/>
<path d="M20.8069 21.3419C20.966 21.3533 21.1258 21.3312 21.2751 21.2773C21.4244 21.2235 21.5595 21.139 21.6711 21.03L22.2664 20.3143C22.4703 20.1 22.7467 19.9613 23.0471 19.9227C23.3475 19.8841 23.6525 19.948 23.9084 20.1033C24.4178 20.3841 24.9114 20.6903 25.3871 21.0208C25.8384 21.3419 26.7506 22.0668 26.7506 22.076C26.9655 22.242 27.1088 22.478 27.1531 22.7386C27.1974 22.9993 27.1396 23.2665 26.9907 23.489C26.6639 24.0313 26.2491 24.5207 25.7616 24.9387C25.4099 25.2439 24.9728 25.4447 24.5037 25.5167C24.4434 25.5266 24.3817 25.5266 24.3213 25.5167C24.1423 25.5193 23.964 25.4945 23.7932 25.4433C22.5964 25.0479 21.4446 24.5376 20.3556 23.9202C19.3419 23.3888 18.3782 22.7748 17.4749 22.0851C17.0212 21.7421 16.5884 21.3745 16.1786 20.9841H16.1306C15.7245 20.5872 15.34 20.1707 14.9784 19.7363C14.2598 18.8709 13.6175 17.9503 13.0579 16.9837C12.4116 15.9444 11.8806 14.8435 11.4736 13.6989C11.4168 13.533 11.3877 13.3596 11.3872 13.1851C11.3814 13.1271 11.3814 13.0687 11.3872 13.0107C11.461 12.5648 11.6715 12.1497 11.9921 11.8179C12.3614 11.2835 12.8186 10.8094 13.346 10.4141C13.5803 10.2712 13.8615 10.2157 14.1359 10.258C14.4103 10.3003 14.6589 10.4375 14.8343 10.6435C14.8343 10.6435 15.6025 11.561 15.929 11.9464C16.2555 12.3318 16.6587 13.0016 16.8892 13.3594C17.0475 13.6074 17.1111 13.9001 17.0691 14.1878C17.0271 14.4755 16.8821 14.7405 16.6588 14.9375L15.9098 15.4972C15.7954 15.6056 15.707 15.7363 15.6507 15.8805C15.5943 16.0246 15.5713 16.1788 15.5833 16.3322C15.9492 17.5165 16.6185 18.5949 17.5306 19.4697C18.4427 20.3445 19.5688 20.988 20.8069 21.3419Z" stroke="white"/>
</svg>
