<svg width="30" height="30" viewBox="0 0 30 30" fill="none" xmlns="http://www.w3.org/2000/svg">
<mask id="path-1-inside-1_1_290" fill="white">
<path d="M0 15C7.24234e-07 6.71573 6.71573 -7.24234e-07 15 0C23.2843 7.24234e-07 30 6.71573 30 15C30 23.2843 23.2843 30 15 30C6.71573 30 -7.24234e-07 23.2843 0 15Z"/>
</mask>
<path d="M10.0429 14.2929C9.65237 14.6834 9.65237 15.3166 10.0429 15.7071L16.4068 22.0711C16.7974 22.4616 17.4305 22.4616 17.8211 22.0711C18.2116 21.6805 18.2116 21.0474 17.8211 20.6569L12.1642 15L17.8211 9.34315C18.2116 8.95263 18.2116 8.31946 17.8211 7.92894C17.4305 7.53841 16.7974 7.53841 16.4069 7.92894L10.0429 14.2929ZM12.25 14L10.75 14L10.75 16L12.25 16L12.25 14ZM2 15C2 7.8203 7.8203 2 15 2V-2C5.61116 -2 -2 5.61116 -2 15H2ZM15 2C22.1797 2 28 7.8203 28 15H32C32 5.61116 24.3888 -2 15 -2V2ZM28 15C28 22.1797 22.1797 28 15 28V32C24.3888 32 32 24.3888 32 15H28ZM15 28C7.8203 28 2 22.1797 2 15H-2C-2 24.3888 5.61116 32 15 32V28Z" fill="white" mask="url(#path-1-inside-1_1_290)"/>
</svg>
