<svg width="30" height="30" viewBox="0 0 30 30" fill="none" xmlns="http://www.w3.org/2000/svg">
<mask id="path-1-inside-1_1_291" fill="white">
<path d="M30 15C30 23.2843 23.2843 30 15 30C6.71573 30 5.87108e-07 23.2843 1.31134e-06 15C2.03558e-06 6.71573 6.71573 -2.03558e-06 15 -1.31134e-06C23.2843 -5.87108e-07 30 6.71573 30 15Z"/>
</mask>
<path d="M19.9571 15.7071C20.3476 15.3166 20.3476 14.6834 19.9571 14.2929L13.5932 7.92893C13.2026 7.5384 12.5695 7.5384 12.1789 7.92893C11.7884 8.31945 11.7884 8.95262 12.1789 9.34314L17.8358 15L12.1789 20.6568C11.7884 21.0474 11.7884 21.6805 12.1789 22.0711C12.5695 22.4616 13.2026 22.4616 13.5931 22.0711L19.9571 15.7071ZM17.75 16L19.25 16L19.25 14L17.75 14L17.75 16ZM28 15C28 22.1797 22.1797 28 15 28L15 32C24.3888 32 32 24.3888 32 15L28 15ZM15 28C7.8203 28 2 22.1797 2 15L-2 15C-2 24.3888 5.61116 32 15 32L15 28ZM2 15C2 7.82029 7.8203 2 15 2L15 -2C5.61116 -2 -2 5.61116 -2 15L2 15ZM15 2C22.1797 2 28 7.8203 28 15L32 15C32 5.61116 24.3888 -2 15 -2L15 2Z" fill="white" mask="url(#path-1-inside-1_1_291)"/>
</svg>
