<svg width="147" height="28" viewBox="0 0 147 28" fill="none" xmlns="http://www.w3.org/2000/svg">
<path d="M12.5 0L15.4389 8.45492L24.3882 8.63729L17.2553 14.0451L19.8473 22.6127L12.5 17.5L5.15268 22.6127L7.74472 14.0451L0.611794 8.63729L9.56107 8.45492L12.5 0Z" fill="#FFBF02"/>
<path d="M43 0L46.0565 8.45492L55.3637 8.63729L47.9455 14.0451L50.6412 22.6127L43 17.5L35.3588 22.6127L38.0545 14.0451L30.6363 8.63729L39.9435 8.45492L43 0Z" fill="#FFBF02"/>
<path d="M73.5 0L76.4389 8.45492L85.3882 8.63729L78.2553 14.0451L80.8473 22.6127L73.5 17.5L66.1527 22.6127L68.7447 14.0451L61.6118 8.63729L70.5611 8.45492L73.5 0Z" fill="#FFBF02"/>
<path d="M104 0L107.056 8.45492L116.364 8.63729L108.945 14.0451L111.641 22.6127L104 17.5L96.3588 22.6127L99.0545 14.0451L91.6363 8.63729L100.944 8.45492L104 0Z" fill="#FFBF02"/>
<path d="M134.5 0L137.439 8.45492L146.388 8.63729L139.255 14.0451L141.847 22.6127L134.5 17.5L127.153 22.6127L129.745 14.0451L122.612 8.63729L131.561 8.45492L134.5 0Z" fill="#FFBF02"/>
</svg>
