<svg width="32" height="30" viewBox="0 0 32 30" fill="none" xmlns="http://www.w3.org/2000/svg">
<rect width="32" height="30" rx="6" fill="#FEDC8F"/>
<path d="M26.4151 6.97363L26.1197 7.3758L26.4151 6.97363C26.2211 6.83118 25.9987 6.75989 25.8257 6.72248C25.6484 6.68414 25.4815 6.67267 25.3665 6.6745C24.9236 6.68156 24.4036 6.79382 23.3645 7.13507C22.3179 7.47875 20.6965 8.07204 18.0299 9.07584C16.1572 9.78073 12.4203 11.2375 6.82264 13.4446C6.35479 13.6134 5.9668 13.7909 5.68054 13.9832C5.41332 14.1628 5.12649 14.4275 5.07424 14.8047C5.0316 15.1125 5.13059 15.3818 5.31778 15.59C5.48534 15.7764 5.71168 15.9019 5.92456 15.9952C6.24724 16.1366 6.67682 16.2588 7.11607 16.3836C7.24572 16.4205 7.37622 16.4576 7.50506 16.4955C8.00203 16.6417 8.58797 16.8013 9.13975 16.9265C9.68107 17.0493 10.2255 17.1477 10.6236 17.1554C11.3764 17.1702 12.1663 16.8897 12.9797 16.3846C15.5956 14.7865 17.5775 13.5843 18.9262 12.7776C19.2334 12.5938 19.5074 12.4308 19.7483 12.2884C19.3461 12.6449 18.88 13.0478 18.4085 13.4508C17.7668 13.9992 17.1065 14.5549 16.5938 14.9865C16.103 15.3996 15.7474 15.6989 15.6729 15.7689C15.545 15.8891 15.4136 16.0047 15.2805 16.121C15.2653 16.1342 15.2502 16.1474 15.2349 16.1607C15.1184 16.2624 14.9996 16.3661 14.889 16.4679C14.6489 16.689 14.3891 16.9523 14.2415 17.2569C14.0738 17.603 14.0551 17.9949 14.2806 18.3857C14.4799 18.7313 14.8484 19.0361 15.3453 19.3324C16.1269 19.7985 16.7521 20.1839 17.3788 20.5701L17.4648 20.6231C18.1207 21.0273 18.7854 21.4361 19.6349 21.9401C19.851 22.0683 20.0566 22.201 20.2657 22.3358C20.3084 22.3634 20.3512 22.391 20.3944 22.4187C20.6438 22.5791 20.9011 22.7413 21.1643 22.8812C21.6946 23.1632 22.2847 23.3746 22.9758 23.317C23.3733 23.2839 23.7555 23.0945 24.0671 22.7194C24.3684 22.3566 24.593 21.8347 24.7372 21.1369C25.3734 18.0589 26.6299 11.3625 26.922 8.58455C26.9539 8.2808 26.9154 7.92126 26.8839 7.75471C26.8505 7.57813 26.7637 7.22966 26.4151 6.97363ZM20.9954 11.5782C20.9954 11.5783 20.9945 11.5787 20.9929 11.5794C20.9928 11.5794 20.9927 11.5793 20.9927 11.5793C20.9946 11.5785 20.9955 11.5782 20.9954 11.5782Z" stroke="#722839"/>
</svg>
