<svg width="36" height="33" viewBox="0 0 36 33" fill="none" xmlns="http://www.w3.org/2000/svg">
<g clip-path="url(#clip0_87_112)">
<path d="M18.0001 32C14.3047 31.9948 10.8583 30.2828 8.00013 28C5.14198 25.7172 2.73115 22.5302 2.00013 19C1.26911 15.4698 2.27412 12.1844 4.00013 9C5.72615 5.81559 8.59602 3.4015 12.0001 2" stroke="#151515" stroke-width="2" stroke-miterlimit="10"/>
<path d="M17 1C20.6935 0.996757 24.1407 2.71732 27 5C29.8593 7.28268 32.2697 10.4651 33 14C33.7303 17.5349 32.7294 20.8137 31 24C29.2706 27.1863 26.406 29.6052 23 31" stroke="#151515" stroke-width="2" stroke-miterlimit="10"/>
</g>
<path d="M12.5139 20.09V21H6.5469V20.74L9.6019 17.49C10.1219 16.944 10.5032 16.4847 10.7459 16.112C10.9886 15.7307 11.1099 15.3363 11.1099 14.929C11.1099 14.4523 10.9582 14.0493 10.6549 13.72C10.3602 13.382 9.96157 13.213 9.4589 13.213C8.9389 13.213 8.5229 13.3863 8.2109 13.733C7.8989 14.0797 7.7429 14.4957 7.7429 14.981C7.7429 15.2237 7.7689 15.462 7.8209 15.696H6.7809C6.72023 15.462 6.6899 15.2107 6.6899 14.942C6.6899 14.4913 6.80257 14.0623 7.0279 13.655C7.25323 13.239 7.5739 12.9053 7.9899 12.654C8.41457 12.4027 8.90423 12.277 9.4589 12.277C9.9789 12.277 10.4426 12.394 10.8499 12.628C11.2659 12.8533 11.5866 13.1653 11.8119 13.564C12.0459 13.954 12.1629 14.3917 12.1629 14.877C12.1629 15.2757 12.0806 15.657 11.9159 16.021C11.7512 16.385 11.5476 16.7187 11.3049 17.022C11.0709 17.3253 10.7589 17.6807 10.3689 18.088L8.4709 20.09H12.5139ZM19.7883 19.401H18.5403V21H17.5263V19.401H13.2233V19.115L16.0443 12.42H17.0843L14.5103 18.517H17.5263V15.657H18.5403V18.517H19.7883V19.401ZM28.9549 14.669V21H27.9539V18.504C27.5466 18.6947 27.0136 18.79 26.3549 18.79C25.5923 18.79 24.9813 18.5777 24.5219 18.153C24.0713 17.7283 23.8459 17.1173 23.8459 16.32V14.669H24.8469V16.268C24.8469 17.3513 25.4146 17.893 26.5499 17.893C26.7753 17.893 27.0179 17.8713 27.2779 17.828C27.5379 17.776 27.7633 17.7067 27.9539 17.62V14.669H28.9549Z" fill="black"/>
<defs>
<clipPath id="clip0_87_112">
<rect width="35" height="33" fill="white"/>
</clipPath>
</defs>
</svg>
