<svg width="36" height="33" viewBox="0 0 36 33" fill="none" xmlns="http://www.w3.org/2000/svg">
<g clip-path="url(#clip0_87_110)">
<path d="M18.0001 32C14.3047 31.9948 10.8583 30.2828 8.00013 28C5.14198 25.7172 2.73115 22.5302 2.00013 19C1.26911 15.4698 2.27412 12.1844 4.00013 9C5.72615 5.81559 8.59602 3.4015 12.0001 2" stroke="#151515" stroke-width="2" stroke-miterlimit="10"/>
<path d="M17 1C20.6935 0.996757 24.1407 2.71732 27 5C29.8593 7.28268 32.2697 10.4651 33 14C33.7303 17.5349 32.7294 20.8137 31 24C29.2706 27.1863 26.406 29.6052 23 31" stroke="#151515" stroke-width="2" stroke-miterlimit="10"/>
</g>
<path d="M13.8043 12.42V21H12.7903V13.616L10.9183 14.201L10.6713 13.33L13.4273 12.42H13.8043ZM24.6096 14.669V21H23.6086V18.504C23.2013 18.6947 22.6683 18.79 22.0096 18.79C21.2469 18.79 20.6359 18.5777 20.1766 18.153C19.7259 17.7283 19.5006 17.1173 19.5006 16.32V14.669H20.5016V16.268C20.5016 17.3513 21.0693 17.893 22.2046 17.893C22.4299 17.893 22.6726 17.8713 22.9326 17.828C23.1926 17.776 23.4179 17.7067 23.6086 17.62V14.669H24.6096Z" fill="black"/>
<defs>
<clipPath id="clip0_87_110">
<rect width="35" height="33" fill="white"/>
</clipPath>
</defs>
</svg>
