<svg width="36" height="33" viewBox="0 0 36 33" fill="none" xmlns="http://www.w3.org/2000/svg">
<g clip-path="url(#clip0_87_111)">
<path d="M18.0001 32C14.3047 31.9948 10.8583 30.2828 8.00013 28C5.14198 25.7172 2.73115 22.5302 2.00013 19C1.26911 15.4698 2.27412 12.1844 4.00013 9C5.72615 5.81559 8.59602 3.4015 12.0001 2" stroke="#151515" stroke-width="2" stroke-miterlimit="10"/>
<path d="M17 1C20.6935 0.996757 24.1407 2.71732 27 5C29.8593 7.28268 32.2697 10.4651 33 14C33.7303 17.5349 32.7294 20.8137 31 24C29.2706 27.1863 26.406 29.6052 23 31" stroke="#151515" stroke-width="2" stroke-miterlimit="10"/>
</g>
<path d="M10.167 12.42V21H9.15304V13.616L7.28104 14.201L7.03404 13.33L9.79004 12.42H10.167ZM18.1478 20.09V21H12.1808V20.74L15.2358 17.49C15.7558 16.944 16.1372 16.4847 16.3798 16.112C16.6225 15.7307 16.7438 15.3363 16.7438 14.929C16.7438 14.4523 16.5922 14.0493 16.2888 13.72C15.9942 13.382 15.5955 13.213 15.0928 13.213C14.5728 13.213 14.1568 13.3863 13.8448 13.733C13.5328 14.0797 13.3768 14.4957 13.3768 14.981C13.3768 15.2237 13.4028 15.462 13.4548 15.696H12.4148C12.3542 15.462 12.3238 15.2107 12.3238 14.942C12.3238 14.4913 12.4365 14.0623 12.6618 13.655C12.8872 13.239 13.2078 12.9053 13.6238 12.654C14.0485 12.4027 14.5382 12.277 15.0928 12.277C15.6128 12.277 16.0765 12.394 16.4838 12.628C16.8998 12.8533 17.2205 13.1653 17.4458 13.564C17.6798 13.954 17.7968 14.3917 17.7968 14.877C17.7968 15.2757 17.7145 15.657 17.5498 16.021C17.3852 16.385 17.1815 16.7187 16.9388 17.022C16.7048 17.3253 16.3928 17.6807 16.0028 18.088L14.1048 20.09H18.1478ZM28.2468 14.669V21H27.2458V18.504C26.8385 18.6947 26.3055 18.79 25.6468 18.79C24.8841 18.79 24.2731 18.5777 23.8138 18.153C23.3631 17.7283 23.1378 17.1173 23.1378 16.32V14.669H24.1388V16.268C24.1388 17.3513 24.7065 17.893 25.8418 17.893C26.0671 17.893 26.3098 17.8713 26.5698 17.828C26.8298 17.776 27.0551 17.7067 27.2458 17.62V14.669H28.2468Z" fill="black"/>
<defs>
<clipPath id="clip0_87_111">
<rect width="35" height="33" fill="white"/>
</clipPath>
</defs>
</svg>
