<svg xmlns="http://www.w3.org/2000/svg" id="_Слой_1" data-name="Слой 1" viewBox="0 0 32 30"><defs><style>.cls-1{fill:none;stroke:#000}</style></defs><path d="M26 1c2.76 0 5 2.24 5 5v18c0 2.76-2.24 5-5 5H6c-2.76 0-5-2.24-5-5V6c0-2.76 2.24-5 5-5h20m0-1H6C2.69 0 0 2.69 0 6v18c0 3.31 2.69 6 6 6h20c3.31 0 6-2.69 6-6V6c0-3.31-2.69-6-6-6Z"/><path d="M26.28 15.97c-.66 4.75-4.53 5.05-5.24 5.26-2.18.48-4.43.66-6.67.52 0 0-2.65 2.83-3.48 3.61-.05.05-.1.09-.17.11s-.14.03-.21.03c-.14-.04-.18-.18-.18-.4v-3.92c-5.17-1.3-4.87-6.14-4.81-8.68.06-2.54.59-4.62 2.17-6.02 2.33-1.9 6.72-2 8.18-1.98.14 0 .36 0 .57.01.25 0 .49.01.61.01 4.46.12 6.63 1.37 7.14 1.79 1.84 1.4 2.76 4.75 2.09 9.65Z" class="cls-1"/><path d="M16.91 10.16c-.08 0-.14.03-.21.07-.06.06-.11.13-.11.21-.01.08.02.16.08.22s.14.1.23.1h.08a1.684 1.684 0 0 1 1.14.44c.15.14.27.32.35.51.08.19.1.4.08.6 0 .08.04.17.1.22.06.05.15.07.22.07a.342.342 0 0 0 .26-.09c.03-.03.06-.06.07-.1.02-.04.02-.08.02-.12.02-.28-.02-.56-.13-.82a2.114 2.114 0 0 0-1.25-1.16c-.28-.11-.59-.15-.9-.15h-.03Z"/><path d="M16.45 8.57h-.14c-.06 0-.1.01-.14.04-.02.02-.04.03-.05.05s-.04.03-.06.15c0 .03 0 .12.02.16.02.04.04.06.07.09.04.03.05.04.09.06.05.03.22.03.27.03 1.09.02 2.01.44 2.76 1.14.34.34.6.73.77 1.16.17.43.24.89.21 1.34 0 .03 0 .07.02.11.02.04.03.06.06.09s.09.09.25.09h.03c.05 0 .1-.02.13-.03.11-.05.14-.12.15-.16.01-.04.01-.08.01-.12.06-1.06-.35-2.1-1.14-2.89-.87-.81-2.06-1.28-3.31-1.31Z"/><path d="M15.92 7h-.09c-.08 0-.17.03-.23.09-.07.06-.08.15-.08.23 0 .18.12.24.15.25.05.03.1.03.16.03h.16c.75 0 1.5.13 2.2.38.75.27 1.43.66 2.01 1.17.6.56 1.07 1.23 1.38 1.96.3.73.44 1.49.39 2.27.01.14.03.19.09.25s.15.08.24.08.02-.01.02-.01c.08 0 .17-.04.23-.1.08-.06.08-.15.08-.23.04-.86-.11-1.71-.45-2.51-.34-.8-.86-1.53-1.52-2.14a7.11 7.11 0 0 0-2.22-1.29c-.79-.29-1.65-.43-2.51-.43Z"/><path d="M17.04 16.01c.12-.04.23-.15.32-.24l.48-.54c.16-.16.39-.26.63-.29s.49.02.7.14c.41.21.81.44 1.19.69.36.24.74.52 1.1.79.17.12.29.3.33.5.04.2-.01.4-.13.56-.26.41-.6.77-.99 1.09-.28.23-.64.38-1.02.43h-.15c-.14 0-.29-.02-.43-.06-.97-.3-1.9-.68-2.78-1.14-.82-.4-1.6-.86-2.33-1.38-.37-.26-1.09-.83-1.09-.83-.33-.3-.64-.61-.93-.94-.58-.65-1.1-1.34-1.55-2.06-.52-.78-.95-1.61-1.28-2.46-.05-.12-.07-.25-.07-.39v-.13c.06-.33.23-.65.49-.89.3-.4.67-.76 1.09-1.05.19-.11.42-.15.64-.12s.42.13.56.29l.88.98c.26.29.59.79.78 1.06.13.19.18.41.15.62-.03.22-.15.41-.33.56l-.6.42c-.09.08-.16.18-.21.29s-.06.22-.05.34c.3.89.84 1.7 1.57 2.35a6.386 6.386 0 0 0 2.65 1.4s.26.06.38 0Z" class="cls-1"/></svg>