<svg width="32" height="30" viewBox="0 0 32 30" fill="none" xmlns="http://www.w3.org/2000/svg">
<rect width="32" height="30" rx="6" fill="#FEDC8F"/>
<path d="M26.6527 16.3842C25.9949 21.1076 22.1497 21.4033 21.4449 21.6074C19.277 22.0878 17.0391 22.2612 14.8117 22.1213C14.8117 22.1213 12.1804 24.9371 11.3581 25.7114C11.3124 25.76 11.2544 25.7981 11.1891 25.8226C11.1237 25.8471 11.0528 25.8572 10.9822 25.8522C10.8412 25.817 10.8021 25.6692 10.8021 25.451C10.8021 25.2327 10.8021 21.5582 10.8021 21.5582C5.66471 20.2699 5.9623 15.455 6.02495 12.9349C6.0876 10.4148 6.6123 8.34518 8.17858 6.95138C10.99 4.66357 16.7931 5.00146 16.7931 5.00146C21.6877 5.00146 24.0371 6.34599 24.5774 6.78947C26.4021 8.18328 27.3184 11.5059 26.6527 16.3842Z" stroke="#722839"/>
<path d="M19.299 13.019C19.2145 13.0191 19.1331 12.9899 19.0718 12.9375C19.0106 12.885 18.9742 12.8134 18.9701 12.7374C18.9907 12.5361 18.9628 12.3332 18.8883 12.1424C18.8138 11.9516 18.6945 11.7775 18.5385 11.6319C18.3824 11.4863 18.1933 11.3726 17.984 11.2986C17.7747 11.2245 17.5501 11.1919 17.3255 11.2028C17.2383 11.1982 17.1567 11.1626 17.0987 11.1038C17.0407 11.0451 17.011 10.968 17.0162 10.8896C17.0214 10.8112 17.061 10.7378 17.1264 10.6857C17.1917 10.6335 17.2775 10.6069 17.3647 10.6115C17.6719 10.603 17.9776 10.6525 18.2623 10.7566C18.5469 10.8608 18.8041 11.0174 19.0173 11.2163C19.2305 11.4153 19.395 11.6522 19.5002 11.9117C19.6054 12.1713 19.6489 12.4478 19.628 12.7234C19.6301 12.7622 19.6236 12.801 19.609 12.8376C19.5944 12.8742 19.5719 12.9079 19.5428 12.9366C19.5137 12.9654 19.4786 12.9887 19.4395 13.0053C19.4003 13.0218 19.3579 13.0313 19.3147 13.0331L19.299 13.019Z" fill="#722839"/>
<path d="M20.9832 13.5261C20.94 13.5252 20.8974 13.5167 20.8579 13.501C20.8184 13.4852 20.7827 13.4627 20.7529 13.4346C20.723 13.4065 20.6997 13.3734 20.6841 13.3371C20.6685 13.3009 20.661 13.2623 20.6621 13.2234C20.6916 12.7715 20.6202 12.3188 20.4521 11.892C20.2839 11.4653 20.0225 11.0731 19.6832 10.7385C18.9347 10.0417 17.9099 9.63934 16.8325 9.61925C16.7857 9.62198 16.7387 9.61564 16.6948 9.60067C16.6508 9.5857 16.611 9.56245 16.5779 9.53247C16.5448 9.5025 16.5192 9.4665 16.5029 9.4269C16.4866 9.3873 16.4799 9.34502 16.4833 9.3029C16.4867 9.26078 16.5001 9.21981 16.5225 9.18273C16.545 9.14565 16.5761 9.11332 16.6136 9.08794C16.6512 9.06255 16.6943 9.04469 16.7402 9.03556C16.7861 9.02643 16.8336 9.02624 16.8795 9.03499C18.1233 9.06544 19.3042 9.53299 20.1687 10.3373C20.955 11.1219 21.3633 12.1547 21.3043 13.2094C21.3086 13.2496 21.3036 13.2901 21.2894 13.3285C21.2753 13.3668 21.2523 13.402 21.222 13.4319C21.1918 13.4618 21.1549 13.4856 21.1137 13.5018C21.0726 13.518 21.0281 13.5263 20.9832 13.5261Z" fill="#722839"/>
<path d="M22.6979 14.1319C22.6107 14.1319 22.527 14.1007 22.4653 14.0453C22.4037 13.9898 22.369 13.9146 22.369 13.8362C22.415 13.061 22.2822 12.2857 21.979 11.5589C21.6758 10.832 21.2086 10.1694 20.6069 9.61255C20.0339 9.10945 19.3551 8.71402 18.6102 8.44933C17.8653 8.18464 17.0692 8.05599 16.2684 8.07092C16.1811 8.07092 16.0975 8.03977 16.0358 7.98433C15.9741 7.92888 15.9395 7.85368 15.9395 7.77527C15.9395 7.69685 15.9741 7.62166 16.0358 7.56621C16.0975 7.51076 16.1811 7.47961 16.2684 7.47961C17.1533 7.46622 18.0325 7.61048 18.8551 7.90408C19.6777 8.19767 20.4275 8.63478 21.0612 9.19019C21.7195 9.79989 22.2327 10.5238 22.5693 11.3178C22.9059 12.1118 23.0589 12.9591 23.019 13.808C23.019 13.8865 22.9843 13.9617 22.9227 14.0171C22.861 14.0726 22.7773 14.1037 22.6901 14.1037L22.6979 14.1319Z" fill="#722839"/>
<path d="M17.084 16.4184C17.2117 16.4268 17.34 16.4104 17.4598 16.3702C17.5797 16.3301 17.6881 16.2671 17.7777 16.1859L18.2555 15.6524C18.4192 15.4927 18.6411 15.3893 18.8822 15.3605C19.1233 15.3318 19.3681 15.3794 19.5735 15.4951C19.9824 15.7044 20.3786 15.9327 20.7605 16.179C21.1227 16.4184 21.8549 16.9586 21.8549 16.9655C22.0274 17.0893 22.1424 17.2651 22.178 17.4594C22.2135 17.6537 22.1671 17.8528 22.0476 18.0186C21.7853 18.4229 21.4523 18.7876 21.061 19.0992C20.7787 19.3267 20.4279 19.4764 20.0514 19.53C20.0029 19.5374 19.9534 19.5374 19.9049 19.53C19.7612 19.5319 19.6181 19.5135 19.481 19.4753C18.5204 19.1806 17.5959 18.8002 16.7218 18.3401C15.9081 17.944 15.1345 17.4864 14.4095 16.9723C14.0453 16.7166 13.6979 16.4426 13.369 16.1517H13.3305C13.0045 15.8558 12.6958 15.5454 12.4056 15.2216C11.8288 14.5766 11.3132 13.8904 10.8641 13.17C10.3453 12.3954 9.91906 11.5748 9.59238 10.7217C9.54685 10.598 9.52344 10.4688 9.52302 10.3387C9.51837 10.2955 9.51837 10.252 9.52302 10.2088C9.5823 9.87638 9.75127 9.56701 10.0086 9.31975C10.3051 8.92138 10.672 8.56807 11.0953 8.27342C11.2834 8.16693 11.5091 8.1255 11.7294 8.15703C11.9496 8.18855 12.1492 8.29083 12.29 8.44439C12.29 8.44439 12.9066 9.12826 13.1686 9.41549C13.4307 9.70272 13.7544 10.202 13.9394 10.4687C14.0665 10.6535 14.1175 10.8717 14.0838 11.0861C14.0501 11.3006 13.9337 11.498 13.7544 11.6449L13.1532 12.0621C13.0614 12.1428 12.9905 12.2403 12.9452 12.3477C12.9 12.4552 12.8815 12.57 12.8912 12.6844C13.1849 13.5671 13.7221 14.3709 14.4542 15.0229C15.1864 15.6749 16.0902 16.1546 17.084 16.4184Z" stroke="#722839"/>
</svg>
