<svg data-name="Слой 1" xmlns="http://www.w3.org/2000/svg" viewBox="0 0 32 30">
    <path d="M26 1c2.76 0 5 2.24 5 5v18c0 2.76-2.24 5-5 5H6c-2.76 0-5-2.24-5-5V6c0-2.76 2.24-5 5-5h20m0-1H6C2.69 0 0 2.69 0 6v18c0 3.31 2.69 6 6 6h20c3.31 0 6-2.69 6-6V6c0-3.31-2.69-6-6-6Z"/>
    <path d="M16.94 21C9.77 21 5.67 16.5 5.5 9h3.59c.12 5.5 2.77 7.83 4.87 8.31V9h3.38v4.74c2.07-.2 4.25-2.37 4.98-4.74h3.38c-.56 2.93-2.93 5.09-4.6 5.98 1.68.72 4.37 2.61 5.39 6.02h-3.73c-.8-2.28-2.79-4.05-5.43-4.29V21h-.41.02Z" style="fill:none;stroke:#000"/>
</svg>
