<svg width="32" height="30" viewBox="0 0 32 30" fill="none" xmlns="http://www.w3.org/2000/svg">
<rect width="32" height="30" rx="6" fill="#FEDC8F"/>
<path d="M20.1242 20.9029L20.1226 20.9032C19.8105 20.9653 19.436 21.021 18.8182 20.9289C18.22 20.8397 17.4035 20.6138 16.1886 20.1419C14.7501 19.5831 13.0815 18.3356 11.7764 16.9273C11.1202 16.2191 10.5419 15.4554 10.1249 14.6968C9.71139 13.9446 9.43663 13.1612 9.43663 12.4238C9.43663 11.7003 9.65663 10.916 10.0835 10.2997C10.5154 9.676 11.1879 9.1916 12.0705 9.1916C12.2296 9.1916 12.3816 9.19206 12.5138 9.2026C12.6471 9.21324 12.7963 9.23624 12.9419 9.30013C13.2689 9.44363 13.4236 9.72294 13.5396 9.98378L13.5401 9.98497C13.6032 10.1278 13.6897 10.3245 13.7846 10.5405C13.8784 10.7538 13.9804 10.9858 14.0762 11.2031C14.1731 11.423 14.2641 11.6288 14.3354 11.7884C14.371 11.8682 14.4014 11.9357 14.4248 11.9873C14.4366 12.0131 14.4463 12.0342 14.4539 12.0504L14.4631 12.0698C14.4652 12.0743 14.4663 12.0764 14.4666 12.077C14.4666 12.077 14.4666 12.077 14.4666 12.077C14.4666 12.0771 14.4666 12.0771 14.4666 12.0771L14.0208 12.3035C14.2544 12.7606 13.942 13.0708 13.5842 13.4263C13.4801 13.5297 13.3721 13.6369 13.2726 13.7527L20.1242 20.9029ZM20.1242 20.9029C20.584 20.8097 21.0902 20.6079 21.5216 20.3343M20.1242 20.9029L21.5216 20.3343M21.5216 20.3343C21.9413 20.0681 22.3599 19.6895 22.5412 19.2082M21.5216 20.3343L22.5412 19.2082M22.5412 19.2082C22.6829 18.8322 22.7558 18.4791 22.782 18.1941C22.7951 18.0521 22.7973 17.9193 22.788 17.8037C22.7809 17.7156 22.7624 17.5542 22.6784 17.4158C22.6778 17.4148 22.6771 17.4138 22.6765 17.4127L22.5412 19.2082ZM17.6202 17.3046C17.5794 17.3098 17.5255 17.3043 17.472 17.2836L19.5899 16.4152L19.7567 15.9439C19.7561 15.9437 19.7556 15.9435 19.7551 15.9433C19.5552 15.8728 19.3183 15.8353 19.0714 15.8956C18.8167 15.9577 18.6054 16.1108 18.4432 16.3257C18.4027 16.3788 18.363 16.4311 18.324 16.4822C18.0681 16.8188 17.848 17.1081 17.6715 17.2875C17.6696 17.2893 17.6567 17.2999 17.6202 17.3046ZM8.02203 20.9022L8.11449 20.6437L7.94602 20.427C6.75925 18.9001 6.06445 17.0223 6.06445 15.0004C6.06445 9.91153 10.4888 5.71777 15.9961 5.71777H16.0013C21.5087 5.71777 25.934 9.91159 25.934 15.0004C25.934 20.0892 21.5087 24.283 16.0013 24.283C13.9739 24.283 12.0961 23.7176 10.5248 22.7427L10.3334 22.6239L10.1177 22.6886L7.05491 23.6061L8.02203 20.9022Z" stroke="#722839"/>
</svg>
