<svg width="49" height="38" viewBox="0 0 49 38" fill="none" xmlns="http://www.w3.org/2000/svg">
<path d="M1 12.793C1.25988 11.29 2.21606 10.2637 3.28746 9.2844C8.13697 4.84832 13.7943 2.08812 20.2853 1.28044C30.4195 0.0207527 39.2114 3.00943 46.5813 10.1526C47.8672 11.3975 48.3293 12.9449 47.7593 14.6714C47.2028 16.3609 46.0149 17.4489 44.2374 17.7305C42.786 17.9614 41.5148 17.4835 40.4716 16.4498C38.6675 14.6447 36.5784 13.154 34.2895 12.0384C30.3547 10.1227 25.9486 9.41126 21.6166 9.99205C16.577 10.633 12.2608 12.7905 8.62242 16.3473C7.35365 17.5885 5.85809 18.1282 4.13576 17.5823C2.45387 17.0549 1.44499 15.8422 1.0711 14.1021C1.06252 14.0613 1.02452 14.028 1 13.9897V12.793Z" stroke="#722839" stroke-width="2" stroke-miterlimit="10"/>
<path d="M24.8639 14.5726C29.3738 14.6591 33.5785 16.3547 37.0735 19.7769C38.4526 21.1267 38.8289 23.0039 38.0971 24.6921C37.743 25.5264 37.1446 26.2319 36.3819 26.7144C35.6191 27.1968 34.7283 27.4331 33.8286 27.3918C32.6604 27.3338 31.6981 26.8126 30.8681 25.9975C29.6384 24.7578 28.0663 23.9202 26.357 23.5942C23.2653 23.0088 20.5354 23.7671 18.232 25.9407C17.3126 26.8052 16.2963 27.4091 15.0177 27.3943C13.1189 27.3733 11.7386 26.447 10.9614 24.7316C10.1964 23.0446 10.471 21.4182 11.7116 20.0572C13.4425 18.159 15.5633 16.7981 17.939 15.8484C20.0487 15.0024 22.2442 14.5911 24.8639 14.5726Z" stroke="#722839" stroke-width="2" stroke-miterlimit="10"/>
<path d="M24.5108 37C23.3516 36.9942 22.2412 36.5292 21.4196 35.7053C20.5979 34.8815 20.131 33.7651 20.1198 32.5973C20.1233 31.4294 20.5842 30.3102 21.4023 29.4827C22.2204 28.6553 23.3296 28.1866 24.4888 28.1785C25.6481 28.1804 26.7598 28.6434 27.5821 29.4667C28.4044 30.29 28.8708 31.4071 28.8798 32.575C28.8744 33.7429 28.4131 34.8617 27.5956 35.6897C26.7781 36.5177 25.67 36.9883 24.5108 37Z" stroke="#722839" stroke-width="2" stroke-miterlimit="10"/>
</svg>
